<?xml version="1.0" encoding="UTF-8" standalone="no"?>
<!DOCTYPE svg PUBLIC "-//W3C//DTD SVG 1.1//EN"
 "http://www.w3.org/Graphics/SVG/1.1/DTD/svg11.dtd">
<!-- Generated by graphviz version 2.40.1 (20161225.0304)
 -->
<!-- Title: compactRelationshipsDiagram Pages: 1 -->
<svg width="866pt" height="569pt"
 viewBox="0.00 0.00 866.00 568.54" xmlns="http://www.w3.org/2000/svg" xmlns:xlink="http://www.w3.org/1999/xlink">
<g id="graph0" class="graph" transform="scale(1 1) rotate(0) translate(4 564.5403)">
<title>compactRelationshipsDiagram</title>
<polygon fill="#ffffff" stroke="transparent" points="-4,4 -4,-564.5403 862,-564.5403 862,4 -4,4"/>
<text text-anchor="middle" x="72.4936" y="-7.3" font-family="Helvetica,sans-Serif" font-size="11.00" fill="#000000">Generated by SchemaSpy</text>
<!-- aircraft -->
<g id="node1" class="node">
<title>aircraft</title>
<g id="a_node1"><a xlink:href="../../tables/aircraft.html" xlink:title="aircraft" target="_top">
<polygon fill="#ffffff" stroke="transparent" points="200,-38.2 200,-121.2 284,-121.2 284,-38.2 200,-38.2"/>
<polygon fill="#f5f5f5" stroke="transparent" points="200,-97.7 200,-120.7 284,-120.7 284,-97.7 200,-97.7"/>
<polygon fill="none" stroke="#000000" points="200,-97.7 200,-120.7 284,-120.7 284,-97.7 200,-97.7"/>
<text text-anchor="start" x="205" y="-106.3" font-family="Helvetica,sans-Serif" font-weight="bold" font-size="11.00" fill="#000000">aircraft</text>
<text text-anchor="start" x="249.5219" y="-105.8" font-family="Helvetica,sans-Serif" font-size="11.00" fill="#000000">[table]</text>
<polygon fill="none" stroke="#000000" points="200,-75.7 200,-97.7 284,-97.7 284,-75.7 200,-75.7"/>
<image xlink:href="../../images/primaryKeys.png" width="11px" height="12px" preserveAspectRatio="xMinYMin meet" x="205" y="-92.7"/>
<text text-anchor="start" x="229" y="-82.8" font-family="Helvetica,sans-Serif" font-size="11.00" fill="#000000">code</text>
<polygon fill="none" stroke="#000000" points="200,-56.7 200,-75.7 284,-75.7 284,-56.7 200,-56.7"/>
<text text-anchor="start" x="203" y="-62.8" font-family="Helvetica,sans-Serif" font-size="11.00" fill="#000000">...</text>
<polygon fill="#ffffff" stroke="transparent" points="200,-37.7 200,-56.7 215,-56.7 215,-37.7 200,-37.7"/>
<polygon fill="none" stroke="#000000" points="200,-37.7 200,-56.7 215,-56.7 215,-37.7 200,-37.7"/>
<text text-anchor="start" x="203" y="-43.8" font-family="Helvetica,sans-Serif" font-size="11.00" fill="#000000"> &#160;</text>
<polygon fill="#ffffff" stroke="transparent" points="215,-37.7 215,-56.7 261,-56.7 261,-37.7 215,-37.7"/>
<polygon fill="none" stroke="#000000" points="215,-37.7 215,-56.7 261,-56.7 261,-37.7 215,-37.7"/>
<text text-anchor="start" x="219.4956" y="-43.8" font-family="Helvetica,sans-Serif" font-size="11.00" fill="#000000">12 rows</text>
<polygon fill="#ffffff" stroke="transparent" points="261,-37.7 261,-56.7 284,-56.7 284,-37.7 261,-37.7"/>
<polygon fill="none" stroke="#000000" points="261,-37.7 261,-56.7 284,-56.7 284,-37.7 261,-37.7"/>
<text text-anchor="start" x="265.4053" y="-43.8" font-family="Helvetica,sans-Serif" font-size="11.00" fill="#000000">1 &gt;</text>
</a>
</g>
</g>
<!-- account -->
<g id="node2" class="node">
<title>account</title>
<g id="a_node2"><a xlink:href="../../tables/account.html" xlink:title="account" target="_top">
<polygon fill="#ffffff" stroke="transparent" points="181,-394.2 181,-499.2 303,-499.2 303,-394.2 181,-394.2"/>
<polygon fill="#f5f5f5" stroke="transparent" points="181,-475.7 181,-498.7 303,-498.7 303,-475.7 181,-475.7"/>
<polygon fill="none" stroke="#000000" points="181,-475.7 181,-498.7 303,-498.7 303,-475.7 181,-475.7"/>
<text text-anchor="start" x="186" y="-484.3" font-family="Helvetica,sans-Serif" font-weight="bold" font-size="11.00" fill="#000000">account</text>
<text text-anchor="start" x="268.0437" y="-483.8" font-family="Helvetica,sans-Serif" font-size="11.00" fill="#000000">[table]</text>
<polygon fill="none" stroke="#000000" points="181,-453.7 181,-475.7 303,-475.7 303,-453.7 181,-453.7"/>
<image xlink:href="../../images/primaryKeys.png" width="11px" height="12px" preserveAspectRatio="xMinYMin meet" x="186" y="-470.7"/>
<text text-anchor="start" x="201" y="-460.8" font-family="Helvetica,sans-Serif" font-size="11.00" fill="#000000">account_id</text>
<polygon fill="none" stroke="#000000" points="181,-431.7 181,-453.7 303,-453.7 303,-431.7 181,-431.7"/>
<image xlink:href="../../images/foreignKeys.png" width="11px" height="12px" preserveAspectRatio="xMinYMin meet" x="186" y="-448.7"/>
<text text-anchor="start" x="201" y="-438.8" font-family="Helvetica,sans-Serif" font-size="11.00" fill="#000000">frequent_flyer_id</text>
<polygon fill="none" stroke="#000000" points="181,-412.7 181,-431.7 303,-431.7 303,-412.7 181,-412.7"/>
<text text-anchor="start" x="184" y="-418.8" font-family="Helvetica,sans-Serif" font-size="11.00" fill="#000000">...</text>
<polygon fill="#ffffff" stroke="transparent" points="181,-393.7 181,-412.7 206,-412.7 206,-393.7 181,-393.7"/>
<polygon fill="none" stroke="#000000" points="181,-393.7 181,-412.7 206,-412.7 206,-393.7 181,-393.7"/>
<text text-anchor="start" x="184" y="-399.8" font-family="Helvetica,sans-Serif" font-size="11.00" fill="#000000">&lt; 1</text>
<polygon fill="#ffffff" stroke="transparent" points="206,-393.7 206,-412.7 280,-412.7 280,-393.7 206,-393.7"/>
<polygon fill="none" stroke="#000000" points="206,-393.7 206,-412.7 280,-412.7 280,-393.7 206,-393.7"/>
<text text-anchor="start" x="210.9791" y="-399.8" font-family="Helvetica,sans-Serif" font-size="11.00" fill="#000000">257,333 rows</text>
<polygon fill="#ffffff" stroke="transparent" points="280,-393.7 280,-412.7 303,-412.7 303,-393.7 280,-393.7"/>
<polygon fill="none" stroke="#000000" points="280,-393.7 280,-412.7 303,-412.7 303,-393.7 280,-393.7"/>
<text text-anchor="start" x="284.4053" y="-399.8" font-family="Helvetica,sans-Serif" font-size="11.00" fill="#000000">3 &gt;</text>
</a>
</g>
</g>
<!-- frequent_flyer -->
<g id="node9" class="node">
<title>frequent_flyer</title>
<g id="a_node9"><a xlink:href="../../tables/frequent_flyer.html" xlink:title="frequent_flyer" target="_top">
<polygon fill="#ffffff" stroke="transparent" points="8,-394.2 8,-477.2 132,-477.2 132,-394.2 8,-394.2"/>
<polygon fill="#f5f5f5" stroke="transparent" points="8,-453.7 8,-476.7 132,-476.7 132,-453.7 8,-453.7"/>
<polygon fill="none" stroke="#000000" points="8,-453.7 8,-476.7 132,-476.7 132,-453.7 8,-453.7"/>
<text text-anchor="start" x="13" y="-462.3" font-family="Helvetica,sans-Serif" font-weight="bold" font-size="11.00" fill="#000000">frequent_flyer</text>
<text text-anchor="start" x="97.5219" y="-461.8" font-family="Helvetica,sans-Serif" font-size="11.00" fill="#000000">[table]</text>
<polygon fill="none" stroke="#000000" points="8,-431.7 8,-453.7 132,-453.7 132,-431.7 8,-431.7"/>
<image xlink:href="../../images/primaryKeys.png" width="11px" height="12px" preserveAspectRatio="xMinYMin meet" x="13" y="-448.7"/>
<text text-anchor="start" x="29" y="-438.8" font-family="Helvetica,sans-Serif" font-size="11.00" fill="#000000">frequent_flyer_id</text>
<polygon fill="none" stroke="#000000" points="8,-412.7 8,-431.7 132,-431.7 132,-412.7 8,-412.7"/>
<text text-anchor="start" x="11" y="-418.8" font-family="Helvetica,sans-Serif" font-size="11.00" fill="#000000">...</text>
<polygon fill="#ffffff" stroke="transparent" points="8,-393.7 8,-412.7 29,-412.7 29,-393.7 8,-393.7"/>
<polygon fill="none" stroke="#000000" points="8,-393.7 8,-412.7 29,-412.7 29,-393.7 8,-393.7"/>
<text text-anchor="start" x="11" y="-399.8" font-family="Helvetica,sans-Serif" font-size="11.00" fill="#000000"> &#160;</text>
<polygon fill="#ffffff" stroke="transparent" points="29,-393.7 29,-412.7 106,-412.7 106,-393.7 29,-393.7"/>
<polygon fill="none" stroke="#000000" points="29,-393.7 29,-412.7 106,-412.7 106,-393.7 29,-393.7"/>
<text text-anchor="start" x="36.9791" y="-399.8" font-family="Helvetica,sans-Serif" font-size="11.00" fill="#000000">128,346 rows</text>
<polygon fill="#ffffff" stroke="transparent" points="106,-393.7 106,-412.7 132,-412.7 132,-393.7 106,-393.7"/>
<polygon fill="none" stroke="#000000" points="106,-393.7 106,-412.7 132,-412.7 132,-393.7 106,-393.7"/>
<text text-anchor="start" x="113.4053" y="-399.8" font-family="Helvetica,sans-Serif" font-size="11.00" fill="#000000">1 &gt;</text>
</a>
</g>
</g>
<!-- account&#45;&gt;frequent_flyer -->
<g id="edge1" class="edge">
<title>account:w&#45;&gt;frequent_flyer:e</title>
<path fill="none" stroke="#000000" d="M166.4909,-442.7C155.1774,-442.7 147.9931,-442.7 132,-442.7"/>
<polygon fill="#000000" stroke="#000000" points="173,-442.7001 181,-446.3 177,-442.7 181,-442.7 181,-442.7 181,-442.7 177,-442.7 181,-439.1 173,-442.7001 173,-442.7001"/>
<ellipse fill="none" stroke="#000000" cx="169.8" cy="-442.7001" rx="3.2" ry="3.2"/>
</g>
<!-- flight -->
<g id="node3" class="node">
<title>flight</title>
<g id="a_node3"><a xlink:href="../../tables/flight.html" xlink:title="flight" target="_top">
<polygon fill="#ffffff" stroke="transparent" points="352,-98.2 352,-247.2 499,-247.2 499,-98.2 352,-98.2"/>
<polygon fill="#f5f5f5" stroke="transparent" points="352.5,-223.7 352.5,-246.7 499.5,-246.7 499.5,-223.7 352.5,-223.7"/>
<polygon fill="none" stroke="#000000" points="352.5,-223.7 352.5,-246.7 499.5,-246.7 499.5,-223.7 352.5,-223.7"/>
<text text-anchor="start" x="357.5" y="-232.3" font-family="Helvetica,sans-Serif" font-weight="bold" font-size="11.00" fill="#000000">flight</text>
<text text-anchor="start" x="464.5437" y="-231.8" font-family="Helvetica,sans-Serif" font-size="11.00" fill="#000000">[table]</text>
<polygon fill="none" stroke="#000000" points="352.5,-201.7 352.5,-223.7 499.5,-223.7 499.5,-201.7 352.5,-201.7"/>
<image xlink:href="../../images/primaryKeys.png" width="11px" height="12px" preserveAspectRatio="xMinYMin meet" x="357.5" y="-218.7"/>
<text text-anchor="start" x="372.5" y="-208.8" font-family="Helvetica,sans-Serif" font-size="11.00" fill="#000000">flight_id</text>
<polygon fill="none" stroke="#000000" points="352.5,-179.7 352.5,-201.7 499.5,-201.7 499.5,-179.7 352.5,-179.7"/>
<image xlink:href="../../images/foreignKeys.png" width="11px" height="12px" preserveAspectRatio="xMinYMin meet" x="357.5" y="-196.7"/>
<text text-anchor="start" x="372.5" y="-186.8" font-family="Helvetica,sans-Serif" font-size="11.00" fill="#000000">departure_airport</text>
<polygon fill="none" stroke="#000000" points="352.5,-157.7 352.5,-179.7 499.5,-179.7 499.5,-157.7 352.5,-157.7"/>
<image xlink:href="../../images/foreignKeys.png" width="11px" height="12px" preserveAspectRatio="xMinYMin meet" x="357.5" y="-174.7"/>
<text text-anchor="start" x="372.5" y="-164.8" font-family="Helvetica,sans-Serif" font-size="11.00" fill="#000000">arrival_airport</text>
<polygon fill="none" stroke="#000000" points="352.5,-135.7 352.5,-157.7 499.5,-157.7 499.5,-135.7 352.5,-135.7"/>
<image xlink:href="../../images/foreignKeys.png" width="11px" height="12px" preserveAspectRatio="xMinYMin meet" x="357.5" y="-152.7"/>
<text text-anchor="start" x="372.5" y="-142.8" font-family="Helvetica,sans-Serif" font-size="11.00" fill="#000000">aircraft_code</text>
<polygon fill="none" stroke="#000000" points="352.5,-116.7 352.5,-135.7 499.5,-135.7 499.5,-116.7 352.5,-116.7"/>
<text text-anchor="start" x="355.5" y="-122.8" font-family="Helvetica,sans-Serif" font-size="11.00" fill="#000000">...</text>
<polygon fill="#ffffff" stroke="transparent" points="352.5,-97.7 352.5,-116.7 389.5,-116.7 389.5,-97.7 352.5,-97.7"/>
<polygon fill="none" stroke="#000000" points="352.5,-97.7 352.5,-116.7 389.5,-116.7 389.5,-97.7 352.5,-97.7"/>
<text text-anchor="start" x="355.5" y="-103.8" font-family="Helvetica,sans-Serif" font-size="11.00" fill="#000000">&lt; 3</text>
<polygon fill="#ffffff" stroke="transparent" points="389.5,-97.7 389.5,-116.7 469.5,-116.7 469.5,-97.7 389.5,-97.7"/>
<polygon fill="none" stroke="#000000" points="389.5,-97.7 389.5,-116.7 469.5,-116.7 469.5,-97.7 389.5,-97.7"/>
<text text-anchor="start" x="400.4791" y="-103.8" font-family="Helvetica,sans-Serif" font-size="11.00" fill="#000000">683,176 rows</text>
<polygon fill="#ffffff" stroke="transparent" points="469.5,-97.7 469.5,-116.7 499.5,-116.7 499.5,-97.7 469.5,-97.7"/>
<polygon fill="none" stroke="#000000" points="469.5,-97.7 469.5,-116.7 499.5,-116.7 499.5,-97.7 469.5,-97.7"/>
<text text-anchor="start" x="480.9053" y="-103.8" font-family="Helvetica,sans-Serif" font-size="11.00" fill="#000000">1 &gt;</text>
</a>
</g>
</g>
<!-- flight&#45;&gt;aircraft -->
<g id="edge7" class="edge">
<title>flight:w&#45;&gt;aircraft:e</title>
<path fill="none" stroke="#000000" d="M338.2709,-143.4741C314.4815,-131.0115 318.7805,-86.7 284,-86.7"/>
<polygon fill="#000000" stroke="#000000" points="344.698,-144.9312 351.704,-150.2109 348.599,-145.8156 352.5,-146.7 352.5,-146.7 352.5,-146.7 348.599,-145.8156 353.296,-143.1891 344.698,-144.9312 344.698,-144.9312"/>
<ellipse fill="none" stroke="#000000" cx="341.5772" cy="-144.2236" rx="3.2" ry="3.2"/>
</g>
<!-- airport -->
<g id="node5" class="node">
<title>airport</title>
<g id="a_node5"><a xlink:href="../../tables/airport.html" xlink:title="airport" target="_top">
<polygon fill="#ffffff" stroke="transparent" points="191.5,-142.2 191.5,-225.2 292.5,-225.2 292.5,-142.2 191.5,-142.2"/>
<polygon fill="#f5f5f5" stroke="transparent" points="192,-201.7 192,-224.7 293,-224.7 293,-201.7 192,-201.7"/>
<polygon fill="none" stroke="#000000" points="192,-201.7 192,-224.7 293,-224.7 293,-201.7 192,-201.7"/>
<text text-anchor="start" x="197" y="-210.3" font-family="Helvetica,sans-Serif" font-weight="bold" font-size="11.00" fill="#000000">airport</text>
<text text-anchor="start" x="258.0437" y="-209.8" font-family="Helvetica,sans-Serif" font-size="11.00" fill="#000000">[table]</text>
<polygon fill="none" stroke="#000000" points="192,-179.7 192,-201.7 293,-201.7 293,-179.7 192,-179.7"/>
<image xlink:href="../../images/primaryKeys.png" width="11px" height="12px" preserveAspectRatio="xMinYMin meet" x="197" y="-196.7"/>
<text text-anchor="start" x="212" y="-186.8" font-family="Helvetica,sans-Serif" font-size="11.00" fill="#000000">airport_code</text>
<polygon fill="none" stroke="#000000" points="192,-160.7 192,-179.7 293,-179.7 293,-160.7 192,-160.7"/>
<text text-anchor="start" x="195" y="-166.8" font-family="Helvetica,sans-Serif" font-size="11.00" fill="#000000">...</text>
<polygon fill="#ffffff" stroke="transparent" points="192,-141.7 192,-160.7 213,-160.7 213,-141.7 192,-141.7"/>
<polygon fill="none" stroke="#000000" points="192,-141.7 192,-160.7 213,-160.7 213,-141.7 192,-141.7"/>
<text text-anchor="start" x="195" y="-147.8" font-family="Helvetica,sans-Serif" font-size="11.00" fill="#000000"> &#160;</text>
<polygon fill="#ffffff" stroke="transparent" points="213,-141.7 213,-160.7 267,-160.7 267,-141.7 213,-141.7"/>
<polygon fill="none" stroke="#000000" points="213,-141.7 213,-160.7 267,-160.7 267,-141.7 213,-141.7"/>
<text text-anchor="start" x="219.3807" y="-147.8" font-family="Helvetica,sans-Serif" font-size="11.00" fill="#000000">666 rows</text>
<polygon fill="#ffffff" stroke="transparent" points="267,-141.7 267,-160.7 293,-160.7 293,-141.7 267,-141.7"/>
<polygon fill="none" stroke="#000000" points="267,-141.7 267,-160.7 293,-160.7 293,-141.7 267,-141.7"/>
<text text-anchor="start" x="274.4053" y="-147.8" font-family="Helvetica,sans-Serif" font-size="11.00" fill="#000000">2 &gt;</text>
</a>
</g>
</g>
<!-- flight&#45;&gt;airport -->
<g id="edge8" class="edge">
<title>flight:w&#45;&gt;airport:e</title>
<path fill="none" stroke="#000000" d="M338.0034,-171.0544C322.0068,-176.7298 315.4673,-190.7 293,-190.7"/>
<polygon fill="#000000" stroke="#000000" points="344.6035,-169.9825 353.0771,-172.2534 348.5517,-169.3413 352.5,-168.7 352.5,-168.7 352.5,-168.7 348.5517,-169.3413 351.9229,-165.1466 344.6035,-169.9825 344.6035,-169.9825"/>
<ellipse fill="none" stroke="#000000" cx="341.4449" cy="-170.4955" rx="3.2" ry="3.2"/>
</g>
<!-- flight&#45;&gt;airport -->
<g id="edge9" class="edge">
<title>flight:w&#45;&gt;airport:e</title>
<path fill="none" stroke="#000000" d="M338.0408,-190.7C322.384,-190.7 313.8663,-190.7 293,-190.7"/>
<polygon fill="#000000" stroke="#000000" points="344.5,-190.7001 352.5,-194.3 348.5,-190.7 352.5,-190.7 352.5,-190.7 352.5,-190.7 348.5,-190.7 352.5,-187.1 344.5,-190.7001 344.5,-190.7001"/>
<ellipse fill="none" stroke="#000000" cx="341.3" cy="-190.7001" rx="3.2" ry="3.2"/>
</g>
<!-- booking_leg -->
<g id="node4" class="node">
<title>booking_leg</title>
<g id="a_node4"><a xlink:href="../../tables/booking_leg.html" xlink:title="booking_leg" target="_top">
<polygon fill="#ffffff" stroke="transparent" points="548,-227.2 548,-354.2 677,-354.2 677,-227.2 548,-227.2"/>
<polygon fill="#f5f5f5" stroke="transparent" points="548.5,-330.7 548.5,-353.7 677.5,-353.7 677.5,-330.7 548.5,-330.7"/>
<polygon fill="none" stroke="#000000" points="548.5,-330.7 548.5,-353.7 677.5,-353.7 677.5,-330.7 548.5,-330.7"/>
<text text-anchor="start" x="553.5" y="-339.3" font-family="Helvetica,sans-Serif" font-weight="bold" font-size="11.00" fill="#000000">booking_leg</text>
<text text-anchor="start" x="642.5437" y="-338.8" font-family="Helvetica,sans-Serif" font-size="11.00" fill="#000000">[table]</text>
<polygon fill="none" stroke="#000000" points="548.5,-308.7 548.5,-330.7 677.5,-330.7 677.5,-308.7 548.5,-308.7"/>
<image xlink:href="../../images/primaryKeys.png" width="11px" height="12px" preserveAspectRatio="xMinYMin meet" x="553.5" y="-325.7"/>
<text text-anchor="start" x="579.5" y="-315.8" font-family="Helvetica,sans-Serif" font-size="11.00" fill="#000000">booking_leg_id</text>
<polygon fill="none" stroke="#000000" points="548.5,-286.7 548.5,-308.7 677.5,-308.7 677.5,-286.7 548.5,-286.7"/>
<image xlink:href="../../images/foreignKeys.png" width="11px" height="12px" preserveAspectRatio="xMinYMin meet" x="553.5" y="-303.7"/>
<text text-anchor="start" x="579.5" y="-293.8" font-family="Helvetica,sans-Serif" font-size="11.00" fill="#000000">booking_id</text>
<polygon fill="none" stroke="#000000" points="548.5,-264.7 548.5,-286.7 677.5,-286.7 677.5,-264.7 548.5,-264.7"/>
<image xlink:href="../../images/foreignKeys.png" width="11px" height="12px" preserveAspectRatio="xMinYMin meet" x="553.5" y="-281.7"/>
<text text-anchor="start" x="579.5" y="-271.8" font-family="Helvetica,sans-Serif" font-size="11.00" fill="#000000">flight_id</text>
<polygon fill="none" stroke="#000000" points="548.5,-245.7 548.5,-264.7 677.5,-264.7 677.5,-245.7 548.5,-245.7"/>
<text text-anchor="start" x="551.5" y="-251.8" font-family="Helvetica,sans-Serif" font-size="11.00" fill="#000000">...</text>
<polygon fill="#ffffff" stroke="transparent" points="548.5,-226.7 548.5,-245.7 569.5,-245.7 569.5,-226.7 548.5,-226.7"/>
<polygon fill="none" stroke="#000000" points="548.5,-226.7 548.5,-245.7 569.5,-245.7 569.5,-226.7 548.5,-226.7"/>
<text text-anchor="start" x="551.2026" y="-232.8" font-family="Helvetica,sans-Serif" font-size="11.00" fill="#000000">&lt; 2</text>
<polygon fill="#ffffff" stroke="transparent" points="569.5,-226.7 569.5,-245.7 656.5,-245.7 656.5,-226.7 569.5,-226.7"/>
<polygon fill="none" stroke="#000000" points="569.5,-226.7 569.5,-245.7 656.5,-245.7 656.5,-226.7 569.5,-226.7"/>
<text text-anchor="start" x="572.3462" y="-232.8" font-family="Helvetica,sans-Serif" font-size="11.00" fill="#000000">17,894,232 rows</text>
<polygon fill="#ffffff" stroke="transparent" points="656.5,-226.7 656.5,-245.7 677.5,-245.7 677.5,-226.7 656.5,-226.7"/>
<polygon fill="none" stroke="#000000" points="656.5,-226.7 656.5,-245.7 677.5,-245.7 677.5,-226.7 656.5,-226.7"/>
<text text-anchor="start" x="659.2026" y="-232.8" font-family="Helvetica,sans-Serif" font-size="11.00" fill="#000000">1 &gt;</text>
</a>
</g>
</g>
<!-- booking_leg&#45;&gt;flight -->
<g id="edge6" class="edge">
<title>booking_leg:w&#45;&gt;flight:e</title>
<path fill="none" stroke="#000000" d="M534.7151,-270.7565C518.8751,-255.9048 528.8754,-212.7 499.5,-212.7"/>
<polygon fill="#000000" stroke="#000000" points="540.9696,-272.9994 547.2847,-279.0887 544.7348,-274.3497 548.5,-275.7 548.5,-275.7 548.5,-275.7 544.7348,-274.3497 549.7153,-272.3113 540.9696,-272.9994 540.9696,-272.9994"/>
<ellipse fill="none" stroke="#000000" cx="537.9574" cy="-271.9192" rx="3.2" ry="3.2"/>
</g>
<!-- booking -->
<g id="node10" class="node">
<title>booking</title>
<g id="a_node10"><a xlink:href="../../tables/booking.html" xlink:title="booking" target="_top">
<polygon fill="#ffffff" stroke="transparent" points="364,-268.2 364,-395.2 487,-395.2 487,-268.2 364,-268.2"/>
<polygon fill="#f5f5f5" stroke="transparent" points="364.5,-371.7 364.5,-394.7 487.5,-394.7 487.5,-371.7 364.5,-371.7"/>
<polygon fill="none" stroke="#000000" points="364.5,-371.7 364.5,-394.7 487.5,-394.7 487.5,-371.7 364.5,-371.7"/>
<text text-anchor="start" x="369.5" y="-380.3" font-family="Helvetica,sans-Serif" font-weight="bold" font-size="11.00" fill="#000000">booking</text>
<text text-anchor="start" x="452.5437" y="-379.8" font-family="Helvetica,sans-Serif" font-size="11.00" fill="#000000">[table]</text>
<polygon fill="none" stroke="#000000" points="364.5,-349.7 364.5,-371.7 487.5,-371.7 487.5,-349.7 364.5,-349.7"/>
<image xlink:href="../../images/primaryKeys.png" width="11px" height="12px" preserveAspectRatio="xMinYMin meet" x="369.5" y="-366.7"/>
<text text-anchor="start" x="392.5" y="-356.8" font-family="Helvetica,sans-Serif" font-size="11.00" fill="#000000">booking_id</text>
<polygon fill="#ffffff" stroke="transparent" points="364.5,-327.7 364.5,-349.7 487.5,-349.7 487.5,-327.7 364.5,-327.7"/>
<polygon fill="none" stroke="#000000" points="364.5,-327.7 364.5,-349.7 487.5,-349.7 487.5,-327.7 364.5,-327.7"/>
<text text-anchor="start" x="392.5" y="-334.8" font-family="Helvetica,sans-Serif" font-size="11.00" fill="#000000">booking_ref</text>
<polygon fill="none" stroke="#000000" points="364.5,-305.7 364.5,-327.7 487.5,-327.7 487.5,-305.7 364.5,-305.7"/>
<image xlink:href="../../images/foreignKeys.png" width="11px" height="12px" preserveAspectRatio="xMinYMin meet" x="369.5" y="-322.7"/>
<text text-anchor="start" x="392.5" y="-312.8" font-family="Helvetica,sans-Serif" font-size="11.00" fill="#000000">account_id</text>
<polygon fill="none" stroke="#000000" points="364.5,-286.7 364.5,-305.7 487.5,-305.7 487.5,-286.7 364.5,-286.7"/>
<text text-anchor="start" x="367.5" y="-292.8" font-family="Helvetica,sans-Serif" font-size="11.00" fill="#000000">...</text>
<polygon fill="#ffffff" stroke="transparent" points="364.5,-267.7 364.5,-286.7 385.5,-286.7 385.5,-267.7 364.5,-267.7"/>
<polygon fill="none" stroke="#000000" points="364.5,-267.7 364.5,-286.7 385.5,-286.7 385.5,-267.7 364.5,-267.7"/>
<text text-anchor="start" x="367.2027" y="-273.8" font-family="Helvetica,sans-Serif" font-size="11.00" fill="#000000">&lt; 1</text>
<polygon fill="#ffffff" stroke="transparent" points="385.5,-267.7 385.5,-286.7 466.5,-286.7 466.5,-267.7 385.5,-267.7"/>
<polygon fill="none" stroke="#000000" points="385.5,-267.7 385.5,-286.7 466.5,-286.7 466.5,-267.7 385.5,-267.7"/>
<text text-anchor="start" x="388.4037" y="-273.8" font-family="Helvetica,sans-Serif" font-size="11.00" fill="#000000">5,643,687 rows</text>
<polygon fill="#ffffff" stroke="transparent" points="466.5,-267.7 466.5,-286.7 487.5,-286.7 487.5,-267.7 466.5,-267.7"/>
<polygon fill="none" stroke="#000000" points="466.5,-267.7 466.5,-286.7 487.5,-286.7 487.5,-267.7 466.5,-267.7"/>
<text text-anchor="start" x="469.2027" y="-273.8" font-family="Helvetica,sans-Serif" font-size="11.00" fill="#000000">2 &gt;</text>
</a>
</g>
</g>
<!-- booking_leg&#45;&gt;booking -->
<g id="edge5" class="edge">
<title>booking_leg:w&#45;&gt;booking:e</title>
<path fill="none" stroke="#000000" d="M534.475,-301.4523C513.325,-315.015 520.6892,-360.7 487.5,-360.7"/>
<polygon fill="#000000" stroke="#000000" points="540.7718,-299.7676 549.4304,-301.1777 544.6359,-298.7338 548.5,-297.7 548.5,-297.7 548.5,-297.7 544.6359,-298.7338 547.5696,-294.2223 540.7718,-299.7676 540.7718,-299.7676"/>
<ellipse fill="none" stroke="#000000" cx="537.6805" cy="-300.5947" rx="3.2" ry="3.2"/>
</g>
<!-- boarding_pass -->
<g id="node6" class="node">
<title>boarding_pass</title>
<g id="a_node6"><a xlink:href="../../tables/boarding_pass.html" xlink:title="boarding_pass" target="_top">
<polygon fill="#ffffff" stroke="transparent" points="726,-334.2 726,-461.2 850,-461.2 850,-334.2 726,-334.2"/>
<polygon fill="#f5f5f5" stroke="transparent" points="726,-437.7 726,-460.7 850,-460.7 850,-437.7 726,-437.7"/>
<polygon fill="none" stroke="#000000" points="726,-437.7 726,-460.7 850,-460.7 850,-437.7 726,-437.7"/>
<text text-anchor="start" x="731" y="-446.3" font-family="Helvetica,sans-Serif" font-weight="bold" font-size="11.00" fill="#000000">boarding_pass</text>
<text text-anchor="start" x="815.5219" y="-445.8" font-family="Helvetica,sans-Serif" font-size="11.00" fill="#000000">[table]</text>
<polygon fill="none" stroke="#000000" points="726,-415.7 726,-437.7 850,-437.7 850,-415.7 726,-415.7"/>
<image xlink:href="../../images/primaryKeys.png" width="11px" height="12px" preserveAspectRatio="xMinYMin meet" x="731" y="-432.7"/>
<text text-anchor="start" x="755" y="-422.8" font-family="Helvetica,sans-Serif" font-size="11.00" fill="#000000">pass_id</text>
<polygon fill="none" stroke="#000000" points="726,-393.7 726,-415.7 850,-415.7 850,-393.7 726,-393.7"/>
<image xlink:href="../../images/foreignKeys.png" width="11px" height="12px" preserveAspectRatio="xMinYMin meet" x="731" y="-410.7"/>
<text text-anchor="start" x="755" y="-400.8" font-family="Helvetica,sans-Serif" font-size="11.00" fill="#000000">passenger_id</text>
<polygon fill="none" stroke="#000000" points="726,-371.7 726,-393.7 850,-393.7 850,-371.7 726,-371.7"/>
<image xlink:href="../../images/foreignKeys.png" width="11px" height="12px" preserveAspectRatio="xMinYMin meet" x="731" y="-388.7"/>
<text text-anchor="start" x="755" y="-378.8" font-family="Helvetica,sans-Serif" font-size="11.00" fill="#000000">booking_leg_id</text>
<polygon fill="none" stroke="#000000" points="726,-352.7 726,-371.7 850,-371.7 850,-352.7 726,-352.7"/>
<text text-anchor="start" x="729" y="-358.8" font-family="Helvetica,sans-Serif" font-size="11.00" fill="#000000">...</text>
<polygon fill="#ffffff" stroke="transparent" points="726,-333.7 726,-352.7 749,-352.7 749,-333.7 726,-333.7"/>
<polygon fill="none" stroke="#000000" points="726,-333.7 726,-352.7 749,-352.7 749,-333.7 726,-333.7"/>
<text text-anchor="start" x="729" y="-339.8" font-family="Helvetica,sans-Serif" font-size="11.00" fill="#000000">&lt; 2</text>
<polygon fill="#ffffff" stroke="transparent" points="749,-333.7 749,-352.7 837,-352.7 837,-333.7 749,-333.7"/>
<polygon fill="none" stroke="#000000" points="749,-333.7 749,-352.7 837,-352.7 837,-333.7 749,-333.7"/>
<text text-anchor="start" x="752.6924" y="-339.8" font-family="Helvetica,sans-Serif" font-size="11.00" fill="#000000">25,292,472 rows</text>
<polygon fill="#ffffff" stroke="transparent" points="837,-333.7 837,-352.7 850,-352.7 850,-333.7 837,-333.7"/>
<polygon fill="none" stroke="#000000" points="837,-333.7 837,-352.7 850,-352.7 850,-333.7 837,-333.7"/>
<text text-anchor="start" x="840.8862" y="-339.8" font-family="Helvetica,sans-Serif" font-size="11.00" fill="#000000"> &#160;</text>
</a>
</g>
</g>
<!-- boarding_pass&#45;&gt;booking_leg -->
<g id="edge2" class="edge">
<title>boarding_pass:w&#45;&gt;booking_leg:e</title>
<path fill="none" stroke="#000000" d="M712.2924,-377.7565C696.5867,-362.9048 706.7627,-319.7 677.5,-319.7"/>
<polygon fill="#000000" stroke="#000000" points="718.4744,-379.9859 724.7787,-386.0865 722.2372,-381.343 726,-382.7 726,-382.7 726,-382.7 722.2372,-381.343 727.2213,-379.3135 718.4744,-379.9859 718.4744,-379.9859"/>
<ellipse fill="none" stroke="#000000" cx="715.4642" cy="-378.9003" rx="3.2" ry="3.2"/>
</g>
<!-- passenger -->
<g id="node8" class="node">
<title>passenger</title>
<g id="a_node8"><a xlink:href="../../tables/passenger.html" xlink:title="passenger" target="_top">
<polygon fill="#ffffff" stroke="transparent" points="548,-375.2 548,-502.2 677,-502.2 677,-375.2 548,-375.2"/>
<polygon fill="#f5f5f5" stroke="transparent" points="548.5,-478.7 548.5,-501.7 677.5,-501.7 677.5,-478.7 548.5,-478.7"/>
<polygon fill="none" stroke="#000000" points="548.5,-478.7 548.5,-501.7 677.5,-501.7 677.5,-478.7 548.5,-478.7"/>
<text text-anchor="start" x="553.5" y="-487.3" font-family="Helvetica,sans-Serif" font-weight="bold" font-size="11.00" fill="#000000">passenger</text>
<text text-anchor="start" x="642.5437" y="-486.8" font-family="Helvetica,sans-Serif" font-size="11.00" fill="#000000">[table]</text>
<polygon fill="none" stroke="#000000" points="548.5,-456.7 548.5,-478.7 677.5,-478.7 677.5,-456.7 548.5,-456.7"/>
<image xlink:href="../../images/primaryKeys.png" width="11px" height="12px" preserveAspectRatio="xMinYMin meet" x="553.5" y="-473.7"/>
<text text-anchor="start" x="582.5" y="-463.8" font-family="Helvetica,sans-Serif" font-size="11.00" fill="#000000">passenger_id</text>
<polygon fill="none" stroke="#000000" points="548.5,-434.7 548.5,-456.7 677.5,-456.7 677.5,-434.7 548.5,-434.7"/>
<image xlink:href="../../images/foreignKeys.png" width="11px" height="12px" preserveAspectRatio="xMinYMin meet" x="553.5" y="-451.7"/>
<text text-anchor="start" x="582.5" y="-441.8" font-family="Helvetica,sans-Serif" font-size="11.00" fill="#000000">booking_id</text>
<polygon fill="none" stroke="#000000" points="548.5,-412.7 548.5,-434.7 677.5,-434.7 677.5,-412.7 548.5,-412.7"/>
<image xlink:href="../../images/foreignKeys.png" width="11px" height="12px" preserveAspectRatio="xMinYMin meet" x="553.5" y="-429.7"/>
<text text-anchor="start" x="582.5" y="-419.8" font-family="Helvetica,sans-Serif" font-size="11.00" fill="#000000">account_id</text>
<polygon fill="none" stroke="#000000" points="548.5,-393.7 548.5,-412.7 677.5,-412.7 677.5,-393.7 548.5,-393.7"/>
<text text-anchor="start" x="551.5" y="-399.8" font-family="Helvetica,sans-Serif" font-size="11.00" fill="#000000">...</text>
<polygon fill="#ffffff" stroke="transparent" points="548.5,-374.7 548.5,-393.7 569.5,-393.7 569.5,-374.7 548.5,-374.7"/>
<polygon fill="none" stroke="#000000" points="548.5,-374.7 548.5,-393.7 569.5,-393.7 569.5,-374.7 548.5,-374.7"/>
<text text-anchor="start" x="551.2026" y="-380.8" font-family="Helvetica,sans-Serif" font-size="11.00" fill="#000000">&lt; 2</text>
<polygon fill="#ffffff" stroke="transparent" points="569.5,-374.7 569.5,-393.7 656.5,-393.7 656.5,-374.7 569.5,-374.7"/>
<polygon fill="none" stroke="#000000" points="569.5,-374.7 569.5,-393.7 656.5,-393.7 656.5,-374.7 569.5,-374.7"/>
<text text-anchor="start" x="572.3462" y="-380.8" font-family="Helvetica,sans-Serif" font-size="11.00" fill="#000000">16,312,143 rows</text>
<polygon fill="#ffffff" stroke="transparent" points="656.5,-374.7 656.5,-393.7 677.5,-393.7 677.5,-374.7 656.5,-374.7"/>
<polygon fill="none" stroke="#000000" points="656.5,-374.7 656.5,-393.7 677.5,-393.7 677.5,-374.7 656.5,-374.7"/>
<text text-anchor="start" x="659.2026" y="-380.8" font-family="Helvetica,sans-Serif" font-size="11.00" fill="#000000">1 &gt;</text>
</a>
</g>
</g>
<!-- boarding_pass&#45;&gt;passenger -->
<g id="edge3" class="edge">
<title>boarding_pass:w&#45;&gt;passenger:e</title>
<path fill="none" stroke="#000000" d="M712.2924,-409.6435C696.5867,-424.4952 706.7627,-467.7 677.5,-467.7"/>
<polygon fill="#000000" stroke="#000000" points="718.4744,-407.4141 727.2213,-408.0865 722.2372,-406.057 726,-404.7 726,-404.7 726,-404.7 722.2372,-406.057 724.7787,-401.3135 718.4744,-407.4141 718.4744,-407.4141"/>
<ellipse fill="none" stroke="#000000" cx="715.4642" cy="-408.4997" rx="3.2" ry="3.2"/>
</g>
<!-- phone -->
<g id="node7" class="node">
<title>phone</title>
<g id="a_node7"><a xlink:href="../../tables/phone.html" xlink:title="phone" target="_top">
<polygon fill="#ffffff" stroke="transparent" points="370,-416.2 370,-521.2 481,-521.2 481,-416.2 370,-416.2"/>
<polygon fill="#f5f5f5" stroke="transparent" points="370.5,-497.7 370.5,-520.7 481.5,-520.7 481.5,-497.7 370.5,-497.7"/>
<polygon fill="none" stroke="#000000" points="370.5,-497.7 370.5,-520.7 481.5,-520.7 481.5,-497.7 370.5,-497.7"/>
<text text-anchor="start" x="375.5" y="-506.3" font-family="Helvetica,sans-Serif" font-weight="bold" font-size="11.00" fill="#000000">phone</text>
<text text-anchor="start" x="446.5437" y="-505.8" font-family="Helvetica,sans-Serif" font-size="11.00" fill="#000000">[table]</text>
<polygon fill="none" stroke="#000000" points="370.5,-475.7 370.5,-497.7 481.5,-497.7 481.5,-475.7 370.5,-475.7"/>
<image xlink:href="../../images/primaryKeys.png" width="11px" height="12px" preserveAspectRatio="xMinYMin meet" x="375.5" y="-492.7"/>
<text text-anchor="start" x="390.5" y="-482.8" font-family="Helvetica,sans-Serif" font-size="11.00" fill="#000000">phone_id</text>
<polygon fill="none" stroke="#000000" points="370.5,-453.7 370.5,-475.7 481.5,-475.7 481.5,-453.7 370.5,-453.7"/>
<image xlink:href="../../images/foreignKeys.png" width="11px" height="12px" preserveAspectRatio="xMinYMin meet" x="375.5" y="-470.7"/>
<text text-anchor="start" x="390.5" y="-460.8" font-family="Helvetica,sans-Serif" font-size="11.00" fill="#000000">account_id</text>
<polygon fill="none" stroke="#000000" points="370.5,-434.7 370.5,-453.7 481.5,-453.7 481.5,-434.7 370.5,-434.7"/>
<text text-anchor="start" x="373.5" y="-440.8" font-family="Helvetica,sans-Serif" font-size="11.00" fill="#000000">...</text>
<polygon fill="#ffffff" stroke="transparent" points="370.5,-415.7 370.5,-434.7 394.5,-434.7 394.5,-415.7 370.5,-415.7"/>
<polygon fill="none" stroke="#000000" points="370.5,-415.7 370.5,-434.7 394.5,-434.7 394.5,-415.7 370.5,-415.7"/>
<text text-anchor="start" x="373.5" y="-421.8" font-family="Helvetica,sans-Serif" font-size="11.00" fill="#000000">&lt; 1</text>
<polygon fill="#ffffff" stroke="transparent" points="394.5,-415.7 394.5,-434.7 467.5,-434.7 467.5,-415.7 394.5,-415.7"/>
<polygon fill="none" stroke="#000000" points="394.5,-415.7 394.5,-434.7 467.5,-434.7 467.5,-415.7 394.5,-415.7"/>
<text text-anchor="start" x="398.4791" y="-421.8" font-family="Helvetica,sans-Serif" font-size="11.00" fill="#000000">407,444 rows</text>
<polygon fill="#ffffff" stroke="transparent" points="467.5,-415.7 467.5,-434.7 481.5,-434.7 481.5,-415.7 467.5,-415.7"/>
<polygon fill="none" stroke="#000000" points="467.5,-415.7 467.5,-434.7 481.5,-434.7 481.5,-415.7 467.5,-415.7"/>
<text text-anchor="start" x="472.3862" y="-421.8" font-family="Helvetica,sans-Serif" font-size="11.00" fill="#000000"> &#160;</text>
</a>
</g>
</g>
<!-- phone&#45;&gt;account -->
<g id="edge12" class="edge">
<title>phone:w&#45;&gt;account:e</title>
<path fill="none" stroke="#000000" d="M355.9733,-464.7C336.9877,-464.7 327.4922,-464.7 303,-464.7"/>
<polygon fill="#000000" stroke="#000000" points="362.5,-464.7001 370.5,-468.3 366.5,-464.7 370.5,-464.7 370.5,-464.7 370.5,-464.7 366.5,-464.7 370.5,-461.1 362.5,-464.7001 362.5,-464.7001"/>
<ellipse fill="none" stroke="#000000" cx="359.3" cy="-464.7001" rx="3.2" ry="3.2"/>
</g>
<!-- passenger&#45;&gt;account -->
<g id="edge10" class="edge">
<title>passenger:w&#45;&gt;account:e</title>
<path fill="none" stroke="#000000" d="M534.3761,-426.7428C508.0368,-441.5045 544.4163,-505.994 507,-531.7 447.2896,-572.7227 407.1964,-567.1177 344,-531.7 313.5458,-514.6323 337.9108,-464.7 303,-464.7"/>
<polygon fill="#000000" stroke="#000000" points="540.6794,-425.3849 549.2582,-427.2193 544.5897,-424.5424 548.5,-423.7 548.5,-423.7 548.5,-423.7 544.5897,-424.5424 547.7418,-420.1807 540.6794,-425.3849 540.6794,-425.3849"/>
<ellipse fill="none" stroke="#000000" cx="537.5512" cy="-426.0588" rx="3.2" ry="3.2"/>
</g>
<!-- passenger&#45;&gt;booking -->
<g id="edge11" class="edge">
<title>passenger:w&#45;&gt;booking:e</title>
<path fill="none" stroke="#000000" d="M534.4358,-442.0477C508.7739,-425.7781 528.1868,-360.7 487.5,-360.7"/>
<polygon fill="#000000" stroke="#000000" points="540.7568,-443.6891 547.5951,-449.1844 544.6284,-444.6946 548.5,-445.7 548.5,-445.7 548.5,-445.7 544.6284,-444.6946 549.4049,-442.2156 540.7568,-443.6891 540.7568,-443.6891"/>
<ellipse fill="none" stroke="#000000" cx="537.6596" cy="-442.8848" rx="3.2" ry="3.2"/>
</g>
<!-- booking&#45;&gt;account -->
<g id="edge4" class="edge">
<title>booking:w&#45;&gt;account:e</title>
<path fill="none" stroke="#000000" d="M350.1594,-319.3952C305.2598,-339.4541 368.5268,-464.7 303,-464.7"/>
<polygon fill="#000000" stroke="#000000" points="356.6376,-318.1777 365.165,-320.2381 360.5688,-317.4388 364.5,-316.7 364.5,-316.7 364.5,-316.7 360.5688,-317.4388 363.835,-313.1619 356.6376,-318.1777 356.6376,-318.1777"/>
<ellipse fill="none" stroke="#000000" cx="353.4927" cy="-318.7688" rx="3.2" ry="3.2"/>
</g>
</g>
</svg>
