<?xml version="1.0" encoding="UTF-8" standalone="no"?>
<!DOCTYPE svg PUBLIC "-//W3C//DTD SVG 1.1//EN"
 "http://www.w3.org/Graphics/SVG/1.1/DTD/svg11.dtd">
<!-- Generated by graphviz version 2.40.1 (20161225.0304)
 -->
<!-- Title: largeRelationshipsDiagram Pages: 1 -->
<svg width="866pt" height="1023pt"
 viewBox="0.00 0.00 866.00 1022.93" xmlns="http://www.w3.org/2000/svg" xmlns:xlink="http://www.w3.org/1999/xlink">
<g id="graph0" class="graph" transform="scale(1 1) rotate(0) translate(4 1018.9285)">
<title>largeRelationshipsDiagram</title>
<polygon fill="#ffffff" stroke="transparent" points="-4,4 -4,-1018.9285 862,-1018.9285 862,4 -4,4"/>
<text text-anchor="middle" x="72.4936" y="-7.3" font-family="Helvetica,sans-Serif" font-size="11.00" fill="#000000">Generated by SchemaSpy</text>
<!-- aircraft -->
<g id="node1" class="node">
<title>aircraft</title>
<g id="a_node1"><a xlink:href="../../tables/aircraft.html" xlink:title="aircraft" target="_top">
<polygon fill="#ffffff" stroke="transparent" points="200,-38.2 200,-190.2 284,-190.2 284,-38.2 200,-38.2"/>
<polygon fill="#f5f5f5" stroke="transparent" points="200,-167.2 200,-190.2 284,-190.2 284,-167.2 200,-167.2"/>
<polygon fill="none" stroke="#000000" points="200,-167.2 200,-190.2 284,-190.2 284,-167.2 200,-167.2"/>
<text text-anchor="start" x="205" y="-175.8" font-family="Helvetica,sans-Serif" font-weight="bold" font-size="11.00" fill="#000000">aircraft</text>
<text text-anchor="start" x="249.5219" y="-175.3" font-family="Helvetica,sans-Serif" font-size="11.00" fill="#000000">[table]</text>
<polygon fill="none" stroke="#000000" points="200,-145.2 200,-167.2 284,-167.2 284,-145.2 200,-145.2"/>
<text text-anchor="start" x="229" y="-152.3" font-family="Helvetica,sans-Serif" font-size="11.00" fill="#000000">model</text>
<polygon fill="none" stroke="#000000" points="200,-123.2 200,-145.2 284,-145.2 284,-123.2 200,-123.2"/>
<text text-anchor="start" x="229" y="-130.3" font-family="Helvetica,sans-Serif" font-size="11.00" fill="#000000">range</text>
<polygon fill="none" stroke="#000000" points="200,-101.2 200,-123.2 284,-123.2 284,-101.2 200,-101.2"/>
<text text-anchor="start" x="229" y="-108.3" font-family="Helvetica,sans-Serif" font-size="11.00" fill="#000000">class</text>
<polygon fill="none" stroke="#000000" points="200,-79.2 200,-101.2 284,-101.2 284,-79.2 200,-79.2"/>
<text text-anchor="start" x="229" y="-86.3" font-family="Helvetica,sans-Serif" font-size="11.00" fill="#000000">velocity</text>
<polygon fill="none" stroke="#000000" points="200,-57.2 200,-79.2 284,-79.2 284,-57.2 200,-57.2"/>
<image xlink:href="../../images/primaryKeys.png" width="11px" height="12px" preserveAspectRatio="xMinYMin meet" x="205" y="-74.2"/>
<text text-anchor="start" x="229" y="-64.3" font-family="Helvetica,sans-Serif" font-size="11.00" fill="#000000">code</text>
<polygon fill="#ffffff" stroke="transparent" points="200,-38.2 200,-57.2 215,-57.2 215,-38.2 200,-38.2"/>
<polygon fill="none" stroke="#000000" points="200,-38.2 200,-57.2 215,-57.2 215,-38.2 200,-38.2"/>
<text text-anchor="start" x="203" y="-44.3" font-family="Helvetica,sans-Serif" font-size="11.00" fill="#000000"> &#160;</text>
<polygon fill="#ffffff" stroke="transparent" points="215,-38.2 215,-57.2 261,-57.2 261,-38.2 215,-38.2"/>
<polygon fill="none" stroke="#000000" points="215,-38.2 215,-57.2 261,-57.2 261,-38.2 215,-38.2"/>
<text text-anchor="start" x="219.4956" y="-44.3" font-family="Helvetica,sans-Serif" font-size="11.00" fill="#000000">12 rows</text>
<polygon fill="#ffffff" stroke="transparent" points="261,-38.2 261,-57.2 284,-57.2 284,-38.2 261,-38.2"/>
<polygon fill="none" stroke="#000000" points="261,-38.2 261,-57.2 284,-57.2 284,-38.2 261,-38.2"/>
<text text-anchor="start" x="265.4053" y="-44.3" font-family="Helvetica,sans-Serif" font-size="11.00" fill="#000000">1 &gt;</text>
</a>
</g>
</g>
<!-- account -->
<g id="node2" class="node">
<title>account</title>
<g id="a_node2"><a xlink:href="../../tables/account.html" xlink:title="account" target="_top">
<polygon fill="#ffffff" stroke="transparent" points="181,-777.2 181,-951.2 303,-951.2 303,-777.2 181,-777.2"/>
<polygon fill="#f5f5f5" stroke="transparent" points="181,-928.2 181,-951.2 303,-951.2 303,-928.2 181,-928.2"/>
<polygon fill="none" stroke="#000000" points="181,-928.2 181,-951.2 303,-951.2 303,-928.2 181,-928.2"/>
<text text-anchor="start" x="186" y="-936.8" font-family="Helvetica,sans-Serif" font-weight="bold" font-size="11.00" fill="#000000">account</text>
<text text-anchor="start" x="268.0437" y="-936.3" font-family="Helvetica,sans-Serif" font-size="11.00" fill="#000000">[table]</text>
<polygon fill="none" stroke="#000000" points="181,-906.2 181,-928.2 303,-928.2 303,-906.2 181,-906.2"/>
<image xlink:href="../../images/primaryKeys.png" width="11px" height="12px" preserveAspectRatio="xMinYMin meet" x="186" y="-923.2"/>
<text text-anchor="start" x="201" y="-913.3" font-family="Helvetica,sans-Serif" font-size="11.00" fill="#000000">account_id</text>
<polygon fill="none" stroke="#000000" points="181,-884.2 181,-906.2 303,-906.2 303,-884.2 181,-884.2"/>
<text text-anchor="start" x="201" y="-891.3" font-family="Helvetica,sans-Serif" font-size="11.00" fill="#000000">login</text>
<polygon fill="none" stroke="#000000" points="181,-862.2 181,-884.2 303,-884.2 303,-862.2 181,-862.2"/>
<text text-anchor="start" x="201" y="-869.3" font-family="Helvetica,sans-Serif" font-size="11.00" fill="#000000">first_name</text>
<polygon fill="none" stroke="#000000" points="181,-840.2 181,-862.2 303,-862.2 303,-840.2 181,-840.2"/>
<text text-anchor="start" x="201" y="-847.3" font-family="Helvetica,sans-Serif" font-size="11.00" fill="#000000">last_name</text>
<polygon fill="none" stroke="#000000" points="181,-818.2 181,-840.2 303,-840.2 303,-818.2 181,-818.2"/>
<image xlink:href="../../images/foreignKeys.png" width="11px" height="12px" preserveAspectRatio="xMinYMin meet" x="186" y="-835.2"/>
<text text-anchor="start" x="201" y="-825.3" font-family="Helvetica,sans-Serif" font-size="11.00" fill="#000000">frequent_flyer_id</text>
<polygon fill="none" stroke="#000000" points="181,-796.2 181,-818.2 303,-818.2 303,-796.2 181,-796.2"/>
<text text-anchor="start" x="201" y="-803.3" font-family="Helvetica,sans-Serif" font-size="11.00" fill="#000000">update_ts</text>
<polygon fill="#ffffff" stroke="transparent" points="181,-777.2 181,-796.2 206,-796.2 206,-777.2 181,-777.2"/>
<polygon fill="none" stroke="#000000" points="181,-777.2 181,-796.2 206,-796.2 206,-777.2 181,-777.2"/>
<text text-anchor="start" x="184" y="-783.3" font-family="Helvetica,sans-Serif" font-size="11.00" fill="#000000">&lt; 1</text>
<polygon fill="#ffffff" stroke="transparent" points="206,-777.2 206,-796.2 280,-796.2 280,-777.2 206,-777.2"/>
<polygon fill="none" stroke="#000000" points="206,-777.2 206,-796.2 280,-796.2 280,-777.2 206,-777.2"/>
<text text-anchor="start" x="210.9791" y="-783.3" font-family="Helvetica,sans-Serif" font-size="11.00" fill="#000000">257,333 rows</text>
<polygon fill="#ffffff" stroke="transparent" points="280,-777.2 280,-796.2 303,-796.2 303,-777.2 280,-777.2"/>
<polygon fill="none" stroke="#000000" points="280,-777.2 280,-796.2 303,-796.2 303,-777.2 280,-777.2"/>
<text text-anchor="start" x="284.4053" y="-783.3" font-family="Helvetica,sans-Serif" font-size="11.00" fill="#000000">3 &gt;</text>
</a>
</g>
</g>
<!-- frequent_flyer -->
<g id="node9" class="node">
<title>frequent_flyer</title>
<g id="a_node9"><a xlink:href="../../tables/frequent_flyer.html" xlink:title="frequent_flyer" target="_top">
<polygon fill="#ffffff" stroke="transparent" points="8,-601.2 8,-863.2 132,-863.2 132,-601.2 8,-601.2"/>
<polygon fill="#f5f5f5" stroke="transparent" points="8,-840.2 8,-863.2 132,-863.2 132,-840.2 8,-840.2"/>
<polygon fill="none" stroke="#000000" points="8,-840.2 8,-863.2 132,-863.2 132,-840.2 8,-840.2"/>
<text text-anchor="start" x="13" y="-848.8" font-family="Helvetica,sans-Serif" font-weight="bold" font-size="11.00" fill="#000000">frequent_flyer</text>
<text text-anchor="start" x="97.5219" y="-848.3" font-family="Helvetica,sans-Serif" font-size="11.00" fill="#000000">[table]</text>
<polygon fill="none" stroke="#000000" points="8,-818.2 8,-840.2 132,-840.2 132,-818.2 8,-818.2"/>
<image xlink:href="../../images/primaryKeys.png" width="11px" height="12px" preserveAspectRatio="xMinYMin meet" x="13" y="-835.2"/>
<text text-anchor="start" x="29" y="-825.3" font-family="Helvetica,sans-Serif" font-size="11.00" fill="#000000">frequent_flyer_id</text>
<polygon fill="none" stroke="#000000" points="8,-796.2 8,-818.2 132,-818.2 132,-796.2 8,-796.2"/>
<text text-anchor="start" x="29" y="-803.3" font-family="Helvetica,sans-Serif" font-size="11.00" fill="#000000">first_name</text>
<polygon fill="none" stroke="#000000" points="8,-774.2 8,-796.2 132,-796.2 132,-774.2 8,-774.2"/>
<text text-anchor="start" x="29" y="-781.3" font-family="Helvetica,sans-Serif" font-size="11.00" fill="#000000">last_name</text>
<polygon fill="none" stroke="#000000" points="8,-752.2 8,-774.2 132,-774.2 132,-752.2 8,-752.2"/>
<text text-anchor="start" x="29" y="-759.3" font-family="Helvetica,sans-Serif" font-size="11.00" fill="#000000">title</text>
<polygon fill="none" stroke="#000000" points="8,-730.2 8,-752.2 132,-752.2 132,-730.2 8,-730.2"/>
<text text-anchor="start" x="29" y="-737.3" font-family="Helvetica,sans-Serif" font-size="11.00" fill="#000000">card_num</text>
<polygon fill="none" stroke="#000000" points="8,-708.2 8,-730.2 132,-730.2 132,-708.2 8,-708.2"/>
<text text-anchor="start" x="29" y="-715.3" font-family="Helvetica,sans-Serif" font-size="11.00" fill="#000000">level</text>
<polygon fill="none" stroke="#000000" points="8,-686.2 8,-708.2 132,-708.2 132,-686.2 8,-686.2"/>
<text text-anchor="start" x="29" y="-693.3" font-family="Helvetica,sans-Serif" font-size="11.00" fill="#000000">award_points</text>
<polygon fill="none" stroke="#000000" points="8,-664.2 8,-686.2 132,-686.2 132,-664.2 8,-664.2"/>
<text text-anchor="start" x="29" y="-671.3" font-family="Helvetica,sans-Serif" font-size="11.00" fill="#000000">email</text>
<polygon fill="none" stroke="#000000" points="8,-642.2 8,-664.2 132,-664.2 132,-642.2 8,-642.2"/>
<text text-anchor="start" x="29" y="-649.3" font-family="Helvetica,sans-Serif" font-size="11.00" fill="#000000">phone</text>
<polygon fill="none" stroke="#000000" points="8,-620.2 8,-642.2 132,-642.2 132,-620.2 8,-620.2"/>
<text text-anchor="start" x="29" y="-627.3" font-family="Helvetica,sans-Serif" font-size="11.00" fill="#000000">update_ts</text>
<polygon fill="#ffffff" stroke="transparent" points="8,-601.2 8,-620.2 29,-620.2 29,-601.2 8,-601.2"/>
<polygon fill="none" stroke="#000000" points="8,-601.2 8,-620.2 29,-620.2 29,-601.2 8,-601.2"/>
<text text-anchor="start" x="11" y="-607.3" font-family="Helvetica,sans-Serif" font-size="11.00" fill="#000000"> &#160;</text>
<polygon fill="#ffffff" stroke="transparent" points="29,-601.2 29,-620.2 106,-620.2 106,-601.2 29,-601.2"/>
<polygon fill="none" stroke="#000000" points="29,-601.2 29,-620.2 106,-620.2 106,-601.2 29,-601.2"/>
<text text-anchor="start" x="36.9791" y="-607.3" font-family="Helvetica,sans-Serif" font-size="11.00" fill="#000000">128,346 rows</text>
<polygon fill="#ffffff" stroke="transparent" points="106,-601.2 106,-620.2 132,-620.2 132,-601.2 106,-601.2"/>
<polygon fill="none" stroke="#000000" points="106,-601.2 106,-620.2 132,-620.2 132,-601.2 106,-601.2"/>
<text text-anchor="start" x="113.4053" y="-607.3" font-family="Helvetica,sans-Serif" font-size="11.00" fill="#000000">1 &gt;</text>
</a>
</g>
</g>
<!-- account&#45;&gt;frequent_flyer -->
<g id="edge1" class="edge">
<title>account:w&#45;&gt;frequent_flyer:e</title>
<path fill="none" stroke="#000000" d="M166.4909,-829.2C155.1774,-829.2 147.9931,-829.2 132,-829.2"/>
<polygon fill="#000000" stroke="#000000" points="173,-829.2001 181,-832.8 177,-829.2 181,-829.2 181,-829.2 181,-829.2 177,-829.2 181,-825.6 173,-829.2001 173,-829.2001"/>
<ellipse fill="none" stroke="#000000" cx="169.8" cy="-829.2001" rx="3.2" ry="3.2"/>
</g>
<!-- flight -->
<g id="node3" class="node">
<title>flight</title>
<g id="a_node3"><a xlink:href="../../tables/flight.html" xlink:title="flight" target="_top">
<polygon fill="#ffffff" stroke="transparent" points="352,-255.2 352,-539.2 499,-539.2 499,-255.2 352,-255.2"/>
<polygon fill="#f5f5f5" stroke="transparent" points="352.5,-516.2 352.5,-539.2 499.5,-539.2 499.5,-516.2 352.5,-516.2"/>
<polygon fill="none" stroke="#000000" points="352.5,-516.2 352.5,-539.2 499.5,-539.2 499.5,-516.2 352.5,-516.2"/>
<text text-anchor="start" x="357.5" y="-524.8" font-family="Helvetica,sans-Serif" font-weight="bold" font-size="11.00" fill="#000000">flight</text>
<text text-anchor="start" x="464.5437" y="-524.3" font-family="Helvetica,sans-Serif" font-size="11.00" fill="#000000">[table]</text>
<polygon fill="none" stroke="#000000" points="352.5,-494.2 352.5,-516.2 499.5,-516.2 499.5,-494.2 352.5,-494.2"/>
<image xlink:href="../../images/primaryKeys.png" width="11px" height="12px" preserveAspectRatio="xMinYMin meet" x="357.5" y="-511.2"/>
<text text-anchor="start" x="372.5" y="-501.3" font-family="Helvetica,sans-Serif" font-size="11.00" fill="#000000">flight_id</text>
<polygon fill="none" stroke="#000000" points="352.5,-472.2 352.5,-494.2 499.5,-494.2 499.5,-472.2 352.5,-472.2"/>
<text text-anchor="start" x="372.5" y="-479.3" font-family="Helvetica,sans-Serif" font-size="11.00" fill="#000000">flight_no</text>
<polygon fill="none" stroke="#000000" points="352.5,-450.2 352.5,-472.2 499.5,-472.2 499.5,-450.2 352.5,-450.2"/>
<text text-anchor="start" x="372.5" y="-457.3" font-family="Helvetica,sans-Serif" font-size="11.00" fill="#000000">scheduled_departure</text>
<polygon fill="none" stroke="#000000" points="352.5,-428.2 352.5,-450.2 499.5,-450.2 499.5,-428.2 352.5,-428.2"/>
<text text-anchor="start" x="372.5" y="-435.3" font-family="Helvetica,sans-Serif" font-size="11.00" fill="#000000">scheduled_arrival</text>
<polygon fill="none" stroke="#000000" points="352.5,-406.2 352.5,-428.2 499.5,-428.2 499.5,-406.2 352.5,-406.2"/>
<image xlink:href="../../images/foreignKeys.png" width="11px" height="12px" preserveAspectRatio="xMinYMin meet" x="357.5" y="-423.2"/>
<text text-anchor="start" x="372.5" y="-413.3" font-family="Helvetica,sans-Serif" font-size="11.00" fill="#000000">departure_airport</text>
<polygon fill="none" stroke="#000000" points="352.5,-384.2 352.5,-406.2 499.5,-406.2 499.5,-384.2 352.5,-384.2"/>
<image xlink:href="../../images/foreignKeys.png" width="11px" height="12px" preserveAspectRatio="xMinYMin meet" x="357.5" y="-401.2"/>
<text text-anchor="start" x="372.5" y="-391.3" font-family="Helvetica,sans-Serif" font-size="11.00" fill="#000000">arrival_airport</text>
<polygon fill="none" stroke="#000000" points="352.5,-362.2 352.5,-384.2 499.5,-384.2 499.5,-362.2 352.5,-362.2"/>
<text text-anchor="start" x="372.5" y="-369.3" font-family="Helvetica,sans-Serif" font-size="11.00" fill="#000000">status</text>
<polygon fill="none" stroke="#000000" points="352.5,-340.2 352.5,-362.2 499.5,-362.2 499.5,-340.2 352.5,-340.2"/>
<image xlink:href="../../images/foreignKeys.png" width="11px" height="12px" preserveAspectRatio="xMinYMin meet" x="357.5" y="-357.2"/>
<text text-anchor="start" x="372.5" y="-347.3" font-family="Helvetica,sans-Serif" font-size="11.00" fill="#000000">aircraft_code</text>
<polygon fill="none" stroke="#000000" points="352.5,-318.2 352.5,-340.2 499.5,-340.2 499.5,-318.2 352.5,-318.2"/>
<text text-anchor="start" x="372.5" y="-325.3" font-family="Helvetica,sans-Serif" font-size="11.00" fill="#000000">actual_departure</text>
<polygon fill="none" stroke="#000000" points="352.5,-296.2 352.5,-318.2 499.5,-318.2 499.5,-296.2 352.5,-296.2"/>
<text text-anchor="start" x="372.5" y="-303.3" font-family="Helvetica,sans-Serif" font-size="11.00" fill="#000000">actual_arrival</text>
<polygon fill="none" stroke="#000000" points="352.5,-274.2 352.5,-296.2 499.5,-296.2 499.5,-274.2 352.5,-274.2"/>
<text text-anchor="start" x="372.5" y="-281.3" font-family="Helvetica,sans-Serif" font-size="11.00" fill="#000000">update_ts</text>
<polygon fill="#ffffff" stroke="transparent" points="352.5,-255.2 352.5,-274.2 389.5,-274.2 389.5,-255.2 352.5,-255.2"/>
<polygon fill="none" stroke="#000000" points="352.5,-255.2 352.5,-274.2 389.5,-274.2 389.5,-255.2 352.5,-255.2"/>
<text text-anchor="start" x="355.5" y="-261.3" font-family="Helvetica,sans-Serif" font-size="11.00" fill="#000000">&lt; 3</text>
<polygon fill="#ffffff" stroke="transparent" points="389.5,-255.2 389.5,-274.2 469.5,-274.2 469.5,-255.2 389.5,-255.2"/>
<polygon fill="none" stroke="#000000" points="389.5,-255.2 389.5,-274.2 469.5,-274.2 469.5,-255.2 389.5,-255.2"/>
<text text-anchor="start" x="400.4791" y="-261.3" font-family="Helvetica,sans-Serif" font-size="11.00" fill="#000000">683,176 rows</text>
<polygon fill="#ffffff" stroke="transparent" points="469.5,-255.2 469.5,-274.2 499.5,-274.2 499.5,-255.2 469.5,-255.2"/>
<polygon fill="none" stroke="#000000" points="469.5,-255.2 469.5,-274.2 499.5,-274.2 499.5,-255.2 469.5,-255.2"/>
<text text-anchor="start" x="480.9053" y="-261.3" font-family="Helvetica,sans-Serif" font-size="11.00" fill="#000000">1 &gt;</text>
</a>
</g>
</g>
<!-- flight&#45;&gt;aircraft -->
<g id="edge7" class="edge">
<title>flight:w&#45;&gt;aircraft:e</title>
<path fill="none" stroke="#000000" d="M338.9737,-345.7994C296.9428,-306.6747 343.3971,-68.2 284,-68.2"/>
<polygon fill="#000000" stroke="#000000" points="345.0703,-348.2335 351.1651,-354.5434 348.7852,-349.7168 352.5,-351.2 352.5,-351.2 352.5,-351.2 348.7852,-349.7168 353.8349,-347.8566 345.0703,-348.2335 345.0703,-348.2335"/>
<ellipse fill="none" stroke="#000000" cx="342.0984" cy="-347.047" rx="3.2" ry="3.2"/>
</g>
<!-- airport -->
<g id="node5" class="node">
<title>airport</title>
<g id="a_node5"><a xlink:href="../../tables/airport.html" xlink:title="airport" target="_top">
<polygon fill="#ffffff" stroke="transparent" points="191.5,-211.2 191.5,-451.2 292.5,-451.2 292.5,-211.2 191.5,-211.2"/>
<polygon fill="#f5f5f5" stroke="transparent" points="192,-428.2 192,-451.2 293,-451.2 293,-428.2 192,-428.2"/>
<polygon fill="none" stroke="#000000" points="192,-428.2 192,-451.2 293,-451.2 293,-428.2 192,-428.2"/>
<text text-anchor="start" x="197" y="-436.8" font-family="Helvetica,sans-Serif" font-weight="bold" font-size="11.00" fill="#000000">airport</text>
<text text-anchor="start" x="258.0437" y="-436.3" font-family="Helvetica,sans-Serif" font-size="11.00" fill="#000000">[table]</text>
<polygon fill="none" stroke="#000000" points="192,-406.2 192,-428.2 293,-428.2 293,-406.2 192,-406.2"/>
<image xlink:href="../../images/primaryKeys.png" width="11px" height="12px" preserveAspectRatio="xMinYMin meet" x="197" y="-423.2"/>
<text text-anchor="start" x="212" y="-413.3" font-family="Helvetica,sans-Serif" font-size="11.00" fill="#000000">airport_code</text>
<polygon fill="none" stroke="#000000" points="192,-384.2 192,-406.2 293,-406.2 293,-384.2 192,-384.2"/>
<text text-anchor="start" x="212" y="-391.3" font-family="Helvetica,sans-Serif" font-size="11.00" fill="#000000">airport_name</text>
<polygon fill="none" stroke="#000000" points="192,-362.2 192,-384.2 293,-384.2 293,-362.2 192,-362.2"/>
<text text-anchor="start" x="212" y="-369.3" font-family="Helvetica,sans-Serif" font-size="11.00" fill="#000000">city</text>
<polygon fill="none" stroke="#000000" points="192,-340.2 192,-362.2 293,-362.2 293,-340.2 192,-340.2"/>
<text text-anchor="start" x="212" y="-347.3" font-family="Helvetica,sans-Serif" font-size="11.00" fill="#000000">airport_tz</text>
<polygon fill="none" stroke="#000000" points="192,-318.2 192,-340.2 293,-340.2 293,-318.2 192,-318.2"/>
<text text-anchor="start" x="212" y="-325.3" font-family="Helvetica,sans-Serif" font-size="11.00" fill="#000000">continent</text>
<polygon fill="none" stroke="#000000" points="192,-296.2 192,-318.2 293,-318.2 293,-296.2 192,-296.2"/>
<text text-anchor="start" x="212" y="-303.3" font-family="Helvetica,sans-Serif" font-size="11.00" fill="#000000">iso_country</text>
<polygon fill="none" stroke="#000000" points="192,-274.2 192,-296.2 293,-296.2 293,-274.2 192,-274.2"/>
<text text-anchor="start" x="212" y="-281.3" font-family="Helvetica,sans-Serif" font-size="11.00" fill="#000000">iso_region</text>
<polygon fill="none" stroke="#000000" points="192,-252.2 192,-274.2 293,-274.2 293,-252.2 192,-252.2"/>
<text text-anchor="start" x="212" y="-259.3" font-family="Helvetica,sans-Serif" font-size="11.00" fill="#000000">intnl</text>
<polygon fill="none" stroke="#000000" points="192,-230.2 192,-252.2 293,-252.2 293,-230.2 192,-230.2"/>
<text text-anchor="start" x="212" y="-237.3" font-family="Helvetica,sans-Serif" font-size="11.00" fill="#000000">update_ts</text>
<polygon fill="#ffffff" stroke="transparent" points="192,-211.2 192,-230.2 213,-230.2 213,-211.2 192,-211.2"/>
<polygon fill="none" stroke="#000000" points="192,-211.2 192,-230.2 213,-230.2 213,-211.2 192,-211.2"/>
<text text-anchor="start" x="195" y="-217.3" font-family="Helvetica,sans-Serif" font-size="11.00" fill="#000000"> &#160;</text>
<polygon fill="#ffffff" stroke="transparent" points="213,-211.2 213,-230.2 267,-230.2 267,-211.2 213,-211.2"/>
<polygon fill="none" stroke="#000000" points="213,-211.2 213,-230.2 267,-230.2 267,-211.2 213,-211.2"/>
<text text-anchor="start" x="219.3807" y="-217.3" font-family="Helvetica,sans-Serif" font-size="11.00" fill="#000000">666 rows</text>
<polygon fill="#ffffff" stroke="transparent" points="267,-211.2 267,-230.2 293,-230.2 293,-211.2 267,-211.2"/>
<polygon fill="none" stroke="#000000" points="267,-211.2 267,-230.2 293,-230.2 293,-211.2 267,-211.2"/>
<text text-anchor="start" x="274.4053" y="-217.3" font-family="Helvetica,sans-Serif" font-size="11.00" fill="#000000">2 &gt;</text>
</a>
</g>
</g>
<!-- flight&#45;&gt;airport -->
<g id="edge8" class="edge">
<title>flight:w&#45;&gt;airport:e</title>
<path fill="none" stroke="#000000" d="M338.0034,-397.5544C322.0068,-403.2298 315.4673,-417.2 293,-417.2"/>
<polygon fill="#000000" stroke="#000000" points="344.6035,-396.4825 353.0771,-398.7534 348.5517,-395.8413 352.5,-395.2 352.5,-395.2 352.5,-395.2 348.5517,-395.8413 351.9229,-391.6466 344.6035,-396.4825 344.6035,-396.4825"/>
<ellipse fill="none" stroke="#000000" cx="341.4449" cy="-396.9955" rx="3.2" ry="3.2"/>
</g>
<!-- flight&#45;&gt;airport -->
<g id="edge9" class="edge">
<title>flight:w&#45;&gt;airport:e</title>
<path fill="none" stroke="#000000" d="M338.0408,-417.2C322.384,-417.2 313.8663,-417.2 293,-417.2"/>
<polygon fill="#000000" stroke="#000000" points="344.5,-417.2001 352.5,-420.8 348.5,-417.2 352.5,-417.2 352.5,-417.2 352.5,-417.2 348.5,-417.2 352.5,-413.6 344.5,-417.2001 344.5,-417.2001"/>
<ellipse fill="none" stroke="#000000" cx="341.3" cy="-417.2001" rx="3.2" ry="3.2"/>
</g>
<!-- booking_leg -->
<g id="node4" class="node">
<title>booking_leg</title>
<g id="a_node4"><a xlink:href="../../tables/booking_leg.html" xlink:title="booking_leg" target="_top">
<polygon fill="#ffffff" stroke="transparent" points="548,-517.2 548,-691.2 677,-691.2 677,-517.2 548,-517.2"/>
<polygon fill="#f5f5f5" stroke="transparent" points="548.5,-668.2 548.5,-691.2 677.5,-691.2 677.5,-668.2 548.5,-668.2"/>
<polygon fill="none" stroke="#000000" points="548.5,-668.2 548.5,-691.2 677.5,-691.2 677.5,-668.2 548.5,-668.2"/>
<text text-anchor="start" x="553.5" y="-676.8" font-family="Helvetica,sans-Serif" font-weight="bold" font-size="11.00" fill="#000000">booking_leg</text>
<text text-anchor="start" x="642.5437" y="-676.3" font-family="Helvetica,sans-Serif" font-size="11.00" fill="#000000">[table]</text>
<polygon fill="none" stroke="#000000" points="548.5,-646.2 548.5,-668.2 677.5,-668.2 677.5,-646.2 548.5,-646.2"/>
<image xlink:href="../../images/primaryKeys.png" width="11px" height="12px" preserveAspectRatio="xMinYMin meet" x="553.5" y="-663.2"/>
<text text-anchor="start" x="579.5" y="-653.3" font-family="Helvetica,sans-Serif" font-size="11.00" fill="#000000">booking_leg_id</text>
<polygon fill="none" stroke="#000000" points="548.5,-624.2 548.5,-646.2 677.5,-646.2 677.5,-624.2 548.5,-624.2"/>
<image xlink:href="../../images/foreignKeys.png" width="11px" height="12px" preserveAspectRatio="xMinYMin meet" x="553.5" y="-641.2"/>
<text text-anchor="start" x="579.5" y="-631.3" font-family="Helvetica,sans-Serif" font-size="11.00" fill="#000000">booking_id</text>
<polygon fill="none" stroke="#000000" points="548.5,-602.2 548.5,-624.2 677.5,-624.2 677.5,-602.2 548.5,-602.2"/>
<image xlink:href="../../images/foreignKeys.png" width="11px" height="12px" preserveAspectRatio="xMinYMin meet" x="553.5" y="-619.2"/>
<text text-anchor="start" x="579.5" y="-609.3" font-family="Helvetica,sans-Serif" font-size="11.00" fill="#000000">flight_id</text>
<polygon fill="none" stroke="#000000" points="548.5,-580.2 548.5,-602.2 677.5,-602.2 677.5,-580.2 548.5,-580.2"/>
<text text-anchor="start" x="579.5" y="-587.3" font-family="Helvetica,sans-Serif" font-size="11.00" fill="#000000">leg_num</text>
<polygon fill="none" stroke="#000000" points="548.5,-558.2 548.5,-580.2 677.5,-580.2 677.5,-558.2 548.5,-558.2"/>
<text text-anchor="start" x="579.5" y="-565.3" font-family="Helvetica,sans-Serif" font-size="11.00" fill="#000000">is_returning</text>
<polygon fill="none" stroke="#000000" points="548.5,-536.2 548.5,-558.2 677.5,-558.2 677.5,-536.2 548.5,-536.2"/>
<text text-anchor="start" x="579.5" y="-543.3" font-family="Helvetica,sans-Serif" font-size="11.00" fill="#000000">update_ts</text>
<polygon fill="#ffffff" stroke="transparent" points="548.5,-517.2 548.5,-536.2 569.5,-536.2 569.5,-517.2 548.5,-517.2"/>
<polygon fill="none" stroke="#000000" points="548.5,-517.2 548.5,-536.2 569.5,-536.2 569.5,-517.2 548.5,-517.2"/>
<text text-anchor="start" x="551.2026" y="-523.3" font-family="Helvetica,sans-Serif" font-size="11.00" fill="#000000">&lt; 2</text>
<polygon fill="#ffffff" stroke="transparent" points="569.5,-517.2 569.5,-536.2 656.5,-536.2 656.5,-517.2 569.5,-517.2"/>
<polygon fill="none" stroke="#000000" points="569.5,-517.2 569.5,-536.2 656.5,-536.2 656.5,-517.2 569.5,-517.2"/>
<text text-anchor="start" x="572.3462" y="-523.3" font-family="Helvetica,sans-Serif" font-size="11.00" fill="#000000">17,894,232 rows</text>
<polygon fill="#ffffff" stroke="transparent" points="656.5,-517.2 656.5,-536.2 677.5,-536.2 677.5,-517.2 656.5,-517.2"/>
<polygon fill="none" stroke="#000000" points="656.5,-517.2 656.5,-536.2 677.5,-536.2 677.5,-517.2 656.5,-517.2"/>
<text text-anchor="start" x="659.2026" y="-523.3" font-family="Helvetica,sans-Serif" font-size="11.00" fill="#000000">1 &gt;</text>
</a>
</g>
</g>
<!-- booking_leg&#45;&gt;flight -->
<g id="edge6" class="edge">
<title>booking_leg:w&#45;&gt;flight:e</title>
<path fill="none" stroke="#000000" d="M534.471,-609.3562C507.1726,-590.1172 546.2383,-505.2 499.5,-505.2"/>
<polygon fill="#000000" stroke="#000000" points="540.7844,-611.086 547.5487,-616.672 544.6422,-612.143 548.5,-613.2 548.5,-613.2 548.5,-613.2 544.6422,-612.143 549.4513,-609.728 540.7844,-611.086 540.7844,-611.086"/>
<ellipse fill="none" stroke="#000000" cx="537.6981" cy="-610.2404" rx="3.2" ry="3.2"/>
</g>
<!-- booking -->
<g id="node10" class="node">
<title>booking</title>
<g id="a_node10"><a xlink:href="../../tables/booking.html" xlink:title="booking" target="_top">
<polygon fill="#ffffff" stroke="transparent" points="364,-560.2 364,-778.2 487,-778.2 487,-560.2 364,-560.2"/>
<polygon fill="#f5f5f5" stroke="transparent" points="364.5,-755.2 364.5,-778.2 487.5,-778.2 487.5,-755.2 364.5,-755.2"/>
<polygon fill="none" stroke="#000000" points="364.5,-755.2 364.5,-778.2 487.5,-778.2 487.5,-755.2 364.5,-755.2"/>
<text text-anchor="start" x="369.5" y="-763.8" font-family="Helvetica,sans-Serif" font-weight="bold" font-size="11.00" fill="#000000">booking</text>
<text text-anchor="start" x="452.5437" y="-763.3" font-family="Helvetica,sans-Serif" font-size="11.00" fill="#000000">[table]</text>
<polygon fill="none" stroke="#000000" points="364.5,-733.2 364.5,-755.2 487.5,-755.2 487.5,-733.2 364.5,-733.2"/>
<image xlink:href="../../images/primaryKeys.png" width="11px" height="12px" preserveAspectRatio="xMinYMin meet" x="369.5" y="-750.2"/>
<text text-anchor="start" x="392.5" y="-740.3" font-family="Helvetica,sans-Serif" font-size="11.00" fill="#000000">booking_id</text>
<polygon fill="#ffffff" stroke="transparent" points="364.5,-711.2 364.5,-733.2 487.5,-733.2 487.5,-711.2 364.5,-711.2"/>
<polygon fill="none" stroke="#000000" points="364.5,-711.2 364.5,-733.2 487.5,-733.2 487.5,-711.2 364.5,-711.2"/>
<text text-anchor="start" x="392.5" y="-718.3" font-family="Helvetica,sans-Serif" font-size="11.00" fill="#000000">booking_ref</text>
<polygon fill="none" stroke="#000000" points="364.5,-689.2 364.5,-711.2 487.5,-711.2 487.5,-689.2 364.5,-689.2"/>
<text text-anchor="start" x="392.5" y="-696.3" font-family="Helvetica,sans-Serif" font-size="11.00" fill="#000000">booking_name</text>
<polygon fill="none" stroke="#000000" points="364.5,-667.2 364.5,-689.2 487.5,-689.2 487.5,-667.2 364.5,-667.2"/>
<image xlink:href="../../images/foreignKeys.png" width="11px" height="12px" preserveAspectRatio="xMinYMin meet" x="369.5" y="-684.2"/>
<text text-anchor="start" x="392.5" y="-674.3" font-family="Helvetica,sans-Serif" font-size="11.00" fill="#000000">account_id</text>
<polygon fill="none" stroke="#000000" points="364.5,-645.2 364.5,-667.2 487.5,-667.2 487.5,-645.2 364.5,-645.2"/>
<text text-anchor="start" x="392.5" y="-652.3" font-family="Helvetica,sans-Serif" font-size="11.00" fill="#000000">email</text>
<polygon fill="none" stroke="#000000" points="364.5,-623.2 364.5,-645.2 487.5,-645.2 487.5,-623.2 364.5,-623.2"/>
<text text-anchor="start" x="392.5" y="-630.3" font-family="Helvetica,sans-Serif" font-size="11.00" fill="#000000">phone</text>
<polygon fill="none" stroke="#000000" points="364.5,-601.2 364.5,-623.2 487.5,-623.2 487.5,-601.2 364.5,-601.2"/>
<text text-anchor="start" x="392.5" y="-608.3" font-family="Helvetica,sans-Serif" font-size="11.00" fill="#000000">update_ts</text>
<polygon fill="none" stroke="#000000" points="364.5,-579.2 364.5,-601.2 487.5,-601.2 487.5,-579.2 364.5,-579.2"/>
<text text-anchor="start" x="392.5" y="-586.3" font-family="Helvetica,sans-Serif" font-size="11.00" fill="#000000">price</text>
<polygon fill="#ffffff" stroke="transparent" points="364.5,-560.2 364.5,-579.2 385.5,-579.2 385.5,-560.2 364.5,-560.2"/>
<polygon fill="none" stroke="#000000" points="364.5,-560.2 364.5,-579.2 385.5,-579.2 385.5,-560.2 364.5,-560.2"/>
<text text-anchor="start" x="367.2027" y="-566.3" font-family="Helvetica,sans-Serif" font-size="11.00" fill="#000000">&lt; 1</text>
<polygon fill="#ffffff" stroke="transparent" points="385.5,-560.2 385.5,-579.2 466.5,-579.2 466.5,-560.2 385.5,-560.2"/>
<polygon fill="none" stroke="#000000" points="385.5,-560.2 385.5,-579.2 466.5,-579.2 466.5,-560.2 385.5,-560.2"/>
<text text-anchor="start" x="388.4037" y="-566.3" font-family="Helvetica,sans-Serif" font-size="11.00" fill="#000000">5,643,687 rows</text>
<polygon fill="#ffffff" stroke="transparent" points="466.5,-560.2 466.5,-579.2 487.5,-579.2 487.5,-560.2 466.5,-560.2"/>
<polygon fill="none" stroke="#000000" points="466.5,-560.2 466.5,-579.2 487.5,-579.2 487.5,-560.2 466.5,-560.2"/>
<text text-anchor="start" x="469.2027" y="-566.3" font-family="Helvetica,sans-Serif" font-size="11.00" fill="#000000">2 &gt;</text>
</a>
</g>
</g>
<!-- booking_leg&#45;&gt;booking -->
<g id="edge5" class="edge">
<title>booking_leg:w&#45;&gt;booking:e</title>
<path fill="none" stroke="#000000" d="M534.2093,-638.5817C502.3644,-656.9797 537.1596,-744.2 487.5,-744.2"/>
<polygon fill="#000000" stroke="#000000" points="540.715,-637.0422 549.329,-638.7033 544.6075,-636.1211 548.5,-635.2 548.5,-635.2 548.5,-635.2 544.6075,-636.1211 547.671,-631.6967 540.715,-637.0422 540.715,-637.0422"/>
<ellipse fill="none" stroke="#000000" cx="537.601" cy="-637.7791" rx="3.2" ry="3.2"/>
</g>
<!-- boarding_pass -->
<g id="node6" class="node">
<title>boarding_pass</title>
<g id="a_node6"><a xlink:href="../../tables/boarding_pass.html" xlink:title="boarding_pass" target="_top">
<polygon fill="#ffffff" stroke="transparent" points="726,-658.2 726,-854.2 850,-854.2 850,-658.2 726,-658.2"/>
<polygon fill="#f5f5f5" stroke="transparent" points="726,-831.2 726,-854.2 850,-854.2 850,-831.2 726,-831.2"/>
<polygon fill="none" stroke="#000000" points="726,-831.2 726,-854.2 850,-854.2 850,-831.2 726,-831.2"/>
<text text-anchor="start" x="731" y="-839.8" font-family="Helvetica,sans-Serif" font-weight="bold" font-size="11.00" fill="#000000">boarding_pass</text>
<text text-anchor="start" x="815.5219" y="-839.3" font-family="Helvetica,sans-Serif" font-size="11.00" fill="#000000">[table]</text>
<polygon fill="none" stroke="#000000" points="726,-809.2 726,-831.2 850,-831.2 850,-809.2 726,-809.2"/>
<image xlink:href="../../images/primaryKeys.png" width="11px" height="12px" preserveAspectRatio="xMinYMin meet" x="731" y="-826.2"/>
<text text-anchor="start" x="755" y="-816.3" font-family="Helvetica,sans-Serif" font-size="11.00" fill="#000000">pass_id</text>
<polygon fill="none" stroke="#000000" points="726,-787.2 726,-809.2 850,-809.2 850,-787.2 726,-787.2"/>
<image xlink:href="../../images/foreignKeys.png" width="11px" height="12px" preserveAspectRatio="xMinYMin meet" x="731" y="-804.2"/>
<text text-anchor="start" x="755" y="-794.3" font-family="Helvetica,sans-Serif" font-size="11.00" fill="#000000">passenger_id</text>
<polygon fill="none" stroke="#000000" points="726,-765.2 726,-787.2 850,-787.2 850,-765.2 726,-765.2"/>
<image xlink:href="../../images/foreignKeys.png" width="11px" height="12px" preserveAspectRatio="xMinYMin meet" x="731" y="-782.2"/>
<text text-anchor="start" x="755" y="-772.3" font-family="Helvetica,sans-Serif" font-size="11.00" fill="#000000">booking_leg_id</text>
<polygon fill="none" stroke="#000000" points="726,-743.2 726,-765.2 850,-765.2 850,-743.2 726,-743.2"/>
<text text-anchor="start" x="755" y="-750.3" font-family="Helvetica,sans-Serif" font-size="11.00" fill="#000000">seat</text>
<polygon fill="none" stroke="#000000" points="726,-721.2 726,-743.2 850,-743.2 850,-721.2 726,-721.2"/>
<text text-anchor="start" x="755" y="-728.3" font-family="Helvetica,sans-Serif" font-size="11.00" fill="#000000">boarding_time</text>
<polygon fill="none" stroke="#000000" points="726,-699.2 726,-721.2 850,-721.2 850,-699.2 726,-699.2"/>
<text text-anchor="start" x="755" y="-706.3" font-family="Helvetica,sans-Serif" font-size="11.00" fill="#000000">precheck</text>
<polygon fill="none" stroke="#000000" points="726,-677.2 726,-699.2 850,-699.2 850,-677.2 726,-677.2"/>
<text text-anchor="start" x="755" y="-684.3" font-family="Helvetica,sans-Serif" font-size="11.00" fill="#000000">update_ts</text>
<polygon fill="#ffffff" stroke="transparent" points="726,-658.2 726,-677.2 749,-677.2 749,-658.2 726,-658.2"/>
<polygon fill="none" stroke="#000000" points="726,-658.2 726,-677.2 749,-677.2 749,-658.2 726,-658.2"/>
<text text-anchor="start" x="729" y="-664.3" font-family="Helvetica,sans-Serif" font-size="11.00" fill="#000000">&lt; 2</text>
<polygon fill="#ffffff" stroke="transparent" points="749,-658.2 749,-677.2 837,-677.2 837,-658.2 749,-658.2"/>
<polygon fill="none" stroke="#000000" points="749,-658.2 749,-677.2 837,-677.2 837,-658.2 749,-658.2"/>
<text text-anchor="start" x="752.6924" y="-664.3" font-family="Helvetica,sans-Serif" font-size="11.00" fill="#000000">25,292,472 rows</text>
<polygon fill="#ffffff" stroke="transparent" points="837,-658.2 837,-677.2 850,-677.2 850,-658.2 837,-658.2"/>
<polygon fill="none" stroke="#000000" points="837,-658.2 837,-677.2 850,-677.2 850,-658.2 837,-658.2"/>
<text text-anchor="start" x="840.8862" y="-664.3" font-family="Helvetica,sans-Serif" font-size="11.00" fill="#000000"> &#160;</text>
</a>
</g>
</g>
<!-- boarding_pass&#45;&gt;booking_leg -->
<g id="edge2" class="edge">
<title>boarding_pass:w&#45;&gt;booking_leg:e</title>
<path fill="none" stroke="#000000" d="M711.7402,-772.5081C681.3848,-752.4222 728.5892,-657.2 677.5,-657.2"/>
<polygon fill="#000000" stroke="#000000" points="718.2554,-774.1948 725.0977,-779.6851 722.1277,-775.1974 726,-776.2 726,-776.2 726,-776.2 722.1277,-775.1974 726.9023,-772.7149 718.2554,-774.1948 718.2554,-774.1948"/>
<ellipse fill="none" stroke="#000000" cx="715.1575" cy="-773.3928" rx="3.2" ry="3.2"/>
</g>
<!-- passenger -->
<g id="node8" class="node">
<title>passenger</title>
<g id="a_node8"><a xlink:href="../../tables/passenger.html" xlink:title="passenger" target="_top">
<polygon fill="#ffffff" stroke="transparent" points="548,-712.2 548,-952.2 677,-952.2 677,-712.2 548,-712.2"/>
<polygon fill="#f5f5f5" stroke="transparent" points="548.5,-929.2 548.5,-952.2 677.5,-952.2 677.5,-929.2 548.5,-929.2"/>
<polygon fill="none" stroke="#000000" points="548.5,-929.2 548.5,-952.2 677.5,-952.2 677.5,-929.2 548.5,-929.2"/>
<text text-anchor="start" x="553.5" y="-937.8" font-family="Helvetica,sans-Serif" font-weight="bold" font-size="11.00" fill="#000000">passenger</text>
<text text-anchor="start" x="642.5437" y="-937.3" font-family="Helvetica,sans-Serif" font-size="11.00" fill="#000000">[table]</text>
<polygon fill="none" stroke="#000000" points="548.5,-907.2 548.5,-929.2 677.5,-929.2 677.5,-907.2 548.5,-907.2"/>
<image xlink:href="../../images/primaryKeys.png" width="11px" height="12px" preserveAspectRatio="xMinYMin meet" x="553.5" y="-924.2"/>
<text text-anchor="start" x="582.5" y="-914.3" font-family="Helvetica,sans-Serif" font-size="11.00" fill="#000000">passenger_id</text>
<polygon fill="none" stroke="#000000" points="548.5,-885.2 548.5,-907.2 677.5,-907.2 677.5,-885.2 548.5,-885.2"/>
<image xlink:href="../../images/foreignKeys.png" width="11px" height="12px" preserveAspectRatio="xMinYMin meet" x="553.5" y="-902.2"/>
<text text-anchor="start" x="582.5" y="-892.3" font-family="Helvetica,sans-Serif" font-size="11.00" fill="#000000">booking_id</text>
<polygon fill="none" stroke="#000000" points="548.5,-863.2 548.5,-885.2 677.5,-885.2 677.5,-863.2 548.5,-863.2"/>
<text text-anchor="start" x="582.5" y="-870.3" font-family="Helvetica,sans-Serif" font-size="11.00" fill="#000000">booking_ref</text>
<polygon fill="none" stroke="#000000" points="548.5,-841.2 548.5,-863.2 677.5,-863.2 677.5,-841.2 548.5,-841.2"/>
<text text-anchor="start" x="582.5" y="-848.3" font-family="Helvetica,sans-Serif" font-size="11.00" fill="#000000">passenger_no</text>
<polygon fill="none" stroke="#000000" points="548.5,-819.2 548.5,-841.2 677.5,-841.2 677.5,-819.2 548.5,-819.2"/>
<text text-anchor="start" x="582.5" y="-826.3" font-family="Helvetica,sans-Serif" font-size="11.00" fill="#000000">first_name</text>
<polygon fill="none" stroke="#000000" points="548.5,-797.2 548.5,-819.2 677.5,-819.2 677.5,-797.2 548.5,-797.2"/>
<text text-anchor="start" x="582.5" y="-804.3" font-family="Helvetica,sans-Serif" font-size="11.00" fill="#000000">last_name</text>
<polygon fill="none" stroke="#000000" points="548.5,-775.2 548.5,-797.2 677.5,-797.2 677.5,-775.2 548.5,-775.2"/>
<image xlink:href="../../images/foreignKeys.png" width="11px" height="12px" preserveAspectRatio="xMinYMin meet" x="553.5" y="-792.2"/>
<text text-anchor="start" x="582.5" y="-782.3" font-family="Helvetica,sans-Serif" font-size="11.00" fill="#000000">account_id</text>
<polygon fill="none" stroke="#000000" points="548.5,-753.2 548.5,-775.2 677.5,-775.2 677.5,-753.2 548.5,-753.2"/>
<text text-anchor="start" x="582.5" y="-760.3" font-family="Helvetica,sans-Serif" font-size="11.00" fill="#000000">update_ts</text>
<polygon fill="none" stroke="#000000" points="548.5,-731.2 548.5,-753.2 677.5,-753.2 677.5,-731.2 548.5,-731.2"/>
<text text-anchor="start" x="582.5" y="-738.3" font-family="Helvetica,sans-Serif" font-size="11.00" fill="#000000">age</text>
<polygon fill="#ffffff" stroke="transparent" points="548.5,-712.2 548.5,-731.2 569.5,-731.2 569.5,-712.2 548.5,-712.2"/>
<polygon fill="none" stroke="#000000" points="548.5,-712.2 548.5,-731.2 569.5,-731.2 569.5,-712.2 548.5,-712.2"/>
<text text-anchor="start" x="551.2026" y="-718.3" font-family="Helvetica,sans-Serif" font-size="11.00" fill="#000000">&lt; 2</text>
<polygon fill="#ffffff" stroke="transparent" points="569.5,-712.2 569.5,-731.2 656.5,-731.2 656.5,-712.2 569.5,-712.2"/>
<polygon fill="none" stroke="#000000" points="569.5,-712.2 569.5,-731.2 656.5,-731.2 656.5,-712.2 569.5,-712.2"/>
<text text-anchor="start" x="572.3462" y="-718.3" font-family="Helvetica,sans-Serif" font-size="11.00" fill="#000000">16,312,143 rows</text>
<polygon fill="#ffffff" stroke="transparent" points="656.5,-712.2 656.5,-731.2 677.5,-731.2 677.5,-712.2 656.5,-712.2"/>
<polygon fill="none" stroke="#000000" points="656.5,-712.2 656.5,-731.2 677.5,-731.2 677.5,-712.2 656.5,-712.2"/>
<text text-anchor="start" x="659.2026" y="-718.3" font-family="Helvetica,sans-Serif" font-size="11.00" fill="#000000">1 &gt;</text>
</a>
</g>
</g>
<!-- boarding_pass&#45;&gt;passenger -->
<g id="edge3" class="edge">
<title>boarding_pass:w&#45;&gt;passenger:e</title>
<path fill="none" stroke="#000000" d="M711.6482,-801.9229C681.1329,-822.1777 728.9576,-918.2 677.5,-918.2"/>
<polygon fill="#000000" stroke="#000000" points="718.2563,-800.2088 726.904,-801.6847 722.1281,-799.2044 726,-798.2 726,-798.2 726,-798.2 722.1281,-799.2044 725.096,-794.7153 718.2563,-800.2088 718.2563,-800.2088"/>
<ellipse fill="none" stroke="#000000" cx="715.1588" cy="-801.0123" rx="3.2" ry="3.2"/>
</g>
<!-- phone -->
<g id="node7" class="node">
<title>phone</title>
<g id="a_node7"><a xlink:href="../../tables/phone.html" xlink:title="phone" target="_top">
<polygon fill="#ffffff" stroke="transparent" points="370,-799.2 370,-973.2 481,-973.2 481,-799.2 370,-799.2"/>
<polygon fill="#f5f5f5" stroke="transparent" points="370.5,-950.2 370.5,-973.2 481.5,-973.2 481.5,-950.2 370.5,-950.2"/>
<polygon fill="none" stroke="#000000" points="370.5,-950.2 370.5,-973.2 481.5,-973.2 481.5,-950.2 370.5,-950.2"/>
<text text-anchor="start" x="375.5" y="-958.8" font-family="Helvetica,sans-Serif" font-weight="bold" font-size="11.00" fill="#000000">phone</text>
<text text-anchor="start" x="446.5437" y="-958.3" font-family="Helvetica,sans-Serif" font-size="11.00" fill="#000000">[table]</text>
<polygon fill="none" stroke="#000000" points="370.5,-928.2 370.5,-950.2 481.5,-950.2 481.5,-928.2 370.5,-928.2"/>
<image xlink:href="../../images/primaryKeys.png" width="11px" height="12px" preserveAspectRatio="xMinYMin meet" x="375.5" y="-945.2"/>
<text text-anchor="start" x="390.5" y="-935.3" font-family="Helvetica,sans-Serif" font-size="11.00" fill="#000000">phone_id</text>
<polygon fill="none" stroke="#000000" points="370.5,-906.2 370.5,-928.2 481.5,-928.2 481.5,-906.2 370.5,-906.2"/>
<image xlink:href="../../images/foreignKeys.png" width="11px" height="12px" preserveAspectRatio="xMinYMin meet" x="375.5" y="-923.2"/>
<text text-anchor="start" x="390.5" y="-913.3" font-family="Helvetica,sans-Serif" font-size="11.00" fill="#000000">account_id</text>
<polygon fill="none" stroke="#000000" points="370.5,-884.2 370.5,-906.2 481.5,-906.2 481.5,-884.2 370.5,-884.2"/>
<text text-anchor="start" x="390.5" y="-891.3" font-family="Helvetica,sans-Serif" font-size="11.00" fill="#000000">phone</text>
<polygon fill="none" stroke="#000000" points="370.5,-862.2 370.5,-884.2 481.5,-884.2 481.5,-862.2 370.5,-862.2"/>
<text text-anchor="start" x="390.5" y="-869.3" font-family="Helvetica,sans-Serif" font-size="11.00" fill="#000000">phone_type</text>
<polygon fill="none" stroke="#000000" points="370.5,-840.2 370.5,-862.2 481.5,-862.2 481.5,-840.2 370.5,-840.2"/>
<text text-anchor="start" x="390.5" y="-847.3" font-family="Helvetica,sans-Serif" font-size="11.00" fill="#000000">primary_phone</text>
<polygon fill="none" stroke="#000000" points="370.5,-818.2 370.5,-840.2 481.5,-840.2 481.5,-818.2 370.5,-818.2"/>
<text text-anchor="start" x="390.5" y="-825.3" font-family="Helvetica,sans-Serif" font-size="11.00" fill="#000000">update_ts</text>
<polygon fill="#ffffff" stroke="transparent" points="370.5,-799.2 370.5,-818.2 394.5,-818.2 394.5,-799.2 370.5,-799.2"/>
<polygon fill="none" stroke="#000000" points="370.5,-799.2 370.5,-818.2 394.5,-818.2 394.5,-799.2 370.5,-799.2"/>
<text text-anchor="start" x="373.5" y="-805.3" font-family="Helvetica,sans-Serif" font-size="11.00" fill="#000000">&lt; 1</text>
<polygon fill="#ffffff" stroke="transparent" points="394.5,-799.2 394.5,-818.2 467.5,-818.2 467.5,-799.2 394.5,-799.2"/>
<polygon fill="none" stroke="#000000" points="394.5,-799.2 394.5,-818.2 467.5,-818.2 467.5,-799.2 394.5,-799.2"/>
<text text-anchor="start" x="398.4791" y="-805.3" font-family="Helvetica,sans-Serif" font-size="11.00" fill="#000000">407,444 rows</text>
<polygon fill="#ffffff" stroke="transparent" points="467.5,-799.2 467.5,-818.2 481.5,-818.2 481.5,-799.2 467.5,-799.2"/>
<polygon fill="none" stroke="#000000" points="467.5,-799.2 467.5,-818.2 481.5,-818.2 481.5,-799.2 467.5,-799.2"/>
<text text-anchor="start" x="472.3862" y="-805.3" font-family="Helvetica,sans-Serif" font-size="11.00" fill="#000000"> &#160;</text>
</a>
</g>
</g>
<!-- phone&#45;&gt;account -->
<g id="edge12" class="edge">
<title>phone:w&#45;&gt;account:e</title>
<path fill="none" stroke="#000000" d="M355.9733,-917.2C336.9877,-917.2 327.4922,-917.2 303,-917.2"/>
<polygon fill="#000000" stroke="#000000" points="362.5,-917.2001 370.5,-920.8 366.5,-917.2 370.5,-917.2 370.5,-917.2 370.5,-917.2 366.5,-917.2 370.5,-913.6 362.5,-917.2001 362.5,-917.2001"/>
<ellipse fill="none" stroke="#000000" cx="359.3" cy="-917.2001" rx="3.2" ry="3.2"/>
</g>
<!-- passenger&#45;&gt;account -->
<g id="edge10" class="edge">
<title>passenger:w&#45;&gt;account:e</title>
<path fill="none" stroke="#000000" d="M533.9837,-787.8009C472.6293,-803.5341 572.4325,-931.0601 507,-984.2 450.7648,-1029.8705 407.1964,-1019.6177 344,-984.2 313.5458,-967.1323 337.9108,-917.2 303,-917.2"/>
<polygon fill="#000000" stroke="#000000" points="540.5482,-787.077 548.8946,-789.7783 544.5241,-786.6385 548.5,-786.2 548.5,-786.2 548.5,-786.2 544.5241,-786.6385 548.1054,-782.6217 540.5482,-787.077 540.5482,-787.077"/>
<ellipse fill="none" stroke="#000000" cx="537.3675" cy="-787.4278" rx="3.2" ry="3.2"/>
</g>
<!-- passenger&#45;&gt;booking -->
<g id="edge11" class="edge">
<title>passenger:w&#45;&gt;booking:e</title>
<path fill="none" stroke="#000000" d="M534.1708,-893.5618C487.9633,-873.3777 554.6057,-744.2 487.5,-744.2"/>
<polygon fill="#000000" stroke="#000000" points="540.6322,-894.7514 547.8481,-899.7405 544.5661,-895.4757 548.5,-896.2 548.5,-896.2 548.5,-896.2 544.5661,-895.4757 549.1519,-892.6595 540.6322,-894.7514 540.6322,-894.7514"/>
<ellipse fill="none" stroke="#000000" cx="537.4851" cy="-894.1719" rx="3.2" ry="3.2"/>
</g>
<!-- booking&#45;&gt;account -->
<g id="edge4" class="edge">
<title>booking:w&#45;&gt;account:e</title>
<path fill="none" stroke="#000000" d="M349.7903,-679.9864C270.1607,-701.8571 407.1128,-917.2 303,-917.2"/>
<polygon fill="#000000" stroke="#000000" points="356.5583,-679.1645 364.934,-681.7737 360.5292,-678.6822 364.5,-678.2 364.5,-678.2 364.5,-678.2 360.5292,-678.6822 364.066,-674.6263 356.5583,-679.1645 356.5583,-679.1645"/>
<ellipse fill="none" stroke="#000000" cx="353.3817" cy="-679.5503" rx="3.2" ry="3.2"/>
</g>
</g>
</svg>
