<?xml version="1.0" encoding="UTF-8" standalone="no"?>
<!DOCTYPE svg PUBLIC "-//W3C//DTD SVG 1.1//EN"
 "http://www.w3.org/Graphics/SVG/1.1/DTD/svg11.dtd">
<!-- Generated by graphviz version 2.40.1 (20161225.0304)
 -->
<!-- Title: orphans Pages: 1 -->
<svg width="111pt" height="62pt"
 viewBox="0.00 0.00 111.00 62.00" xmlns="http://www.w3.org/2000/svg" xmlns:xlink="http://www.w3.org/1999/xlink">
<g id="graph0" class="graph" transform="scale(1 1) rotate(0) translate(4 58)">
<title>orphans</title>
<polygon fill="#ffffff" stroke="transparent" points="-4,4 -4,-58 107,-58 107,4 -4,4"/>
<!-- marker -->
<g id="node1" class="node">
<title>marker</title>
<g id="a_node1"><a xlink:href="../../tables/marker.html" xlink:title="marker" target="_top">
<polygon fill="#ffffff" stroke="transparent" points="8,-4 8,-50 95,-50 95,-4 8,-4"/>
<polygon fill="#f5f5f5" stroke="transparent" points="10.5,-25 10.5,-48 93.5,-48 93.5,-25 10.5,-25"/>
<polygon fill="none" stroke="#000000" points="10.5,-25 10.5,-48 93.5,-48 93.5,-25 10.5,-25"/>
<text text-anchor="start" x="15.5" y="-33.6" font-family="Helvetica,sans-Serif" font-weight="bold" font-size="11.00" fill="#000000">marker</text>
<text text-anchor="start" x="59.0219" y="-33.1" font-family="Helvetica,sans-Serif" font-size="11.00" fill="#000000">[table]</text>
<polygon fill="#ffffff" stroke="transparent" points="10.5,-6 10.5,-25 45.5,-25 45.5,-6 10.5,-6"/>
<polygon fill="none" stroke="#000000" points="10.5,-6 10.5,-25 45.5,-25 45.5,-6 10.5,-6"/>
<text text-anchor="start" x="13.5" y="-12.1" font-family="Helvetica,sans-Serif" font-size="11.00" fill="#000000">&lt; 0</text>
<polygon fill="#ffffff" stroke="transparent" points="45.5,-6 45.5,-25 64.5,-25 64.5,-6 45.5,-6"/>
<polygon fill="none" stroke="#000000" points="45.5,-6 45.5,-25 64.5,-25 64.5,-6 45.5,-6"/>
<text text-anchor="start" x="55.3862" y="-12.1" font-family="Helvetica,sans-Serif" font-size="11.00" fill="#000000"> &#160;</text>
<polygon fill="#ffffff" stroke="transparent" points="64.5,-6 64.5,-25 89.5,-25 89.5,-6 64.5,-6"/>
<polygon fill="none" stroke="#000000" points="64.5,-6 64.5,-25 89.5,-25 89.5,-6 64.5,-6"/>
<text text-anchor="start" x="70.9053" y="-12.1" font-family="Helvetica,sans-Serif" font-size="11.00" fill="#000000">0 &gt;</text>
<polygon fill="none" stroke="#000000" stroke-width="2" points="9,-5 9,-49 94,-49 94,-5 9,-5"/>
</a>
</g>
</g>
</g>
</svg>
