<?xml version="1.0" encoding="UTF-8" standalone="no"?>
<!DOCTYPE svg PUBLIC "-//W3C//DTD SVG 1.1//EN"
 "http://www.w3.org/Graphics/SVG/1.1/DTD/svg11.dtd">
<!-- Generated by graphviz version 2.40.1 (20161225.0304)
 -->
<!-- Title: oneDegreeRelationshipsDiagram Pages: 1 -->
<svg width="765pt" height="344pt"
 viewBox="0.00 0.00 765.00 343.70" xmlns="http://www.w3.org/2000/svg" xmlns:xlink="http://www.w3.org/1999/xlink">
<g id="graph0" class="graph" transform="scale(1 1) rotate(0) translate(4 339.7)">
<title>oneDegreeRelationshipsDiagram</title>
<polygon fill="#ffffff" stroke="transparent" points="-4,4 -4,-339.7 761,-339.7 761,4 -4,4"/>
<text text-anchor="middle" x="72.4936" y="-7.3" font-family="Helvetica,sans-Serif" font-size="11.00" fill="#000000">Generated by SchemaSpy</text>
<!-- account -->
<g id="node1" class="node">
<title>account</title>
<g id="a_node1"><a xlink:href="../../tables/account.html" xlink:title="account" target="_top">
<polygon fill="#ffffff" stroke="transparent" points="181,-38.2 181,-216.2 399,-216.2 399,-38.2 181,-38.2"/>
<polygon fill="#f5f5f5" stroke="transparent" points="183,-191.2 183,-214.2 397,-214.2 397,-191.2 183,-191.2"/>
<polygon fill="none" stroke="#000000" points="183,-191.2 183,-214.2 397,-214.2 397,-191.2 183,-191.2"/>
<text text-anchor="start" x="188" y="-199.8" font-family="Helvetica,sans-Serif" font-weight="bold" font-size="11.00" fill="#000000">account</text>
<text text-anchor="start" x="362.0437" y="-199.3" font-family="Helvetica,sans-Serif" font-size="11.00" fill="#000000">[table]</text>
<polygon fill="none" stroke="#000000" points="183,-169.2 183,-191.2 305,-191.2 305,-169.2 183,-169.2"/>
<image xlink:href="../../images/primaryKeys.png" width="11px" height="12px" preserveAspectRatio="xMinYMin meet" x="188" y="-186.2"/>
<text text-anchor="start" x="203" y="-176.3" font-family="Helvetica,sans-Serif" font-size="11.00" fill="#000000">account_id</text>
<polygon fill="none" stroke="#000000" points="305,-169.2 305,-191.2 397,-191.2 397,-169.2 305,-169.2"/>
<text text-anchor="start" x="308" y="-176.9" font-family="Helvetica,sans-Serif" font-size="11.00" fill="#000000">serial[10]</text>
<polygon fill="none" stroke="#000000" points="183,-147.2 183,-169.2 305,-169.2 305,-147.2 183,-147.2"/>
<text text-anchor="start" x="203" y="-154.3" font-family="Helvetica,sans-Serif" font-size="11.00" fill="#000000">login</text>
<polygon fill="none" stroke="#000000" points="305,-147.2 305,-169.2 397,-169.2 397,-147.2 305,-147.2"/>
<text text-anchor="start" x="308" y="-154.9" font-family="Helvetica,sans-Serif" font-size="11.00" fill="#000000">text[2147483647]</text>
<polygon fill="none" stroke="#000000" points="183,-125.2 183,-147.2 305,-147.2 305,-125.2 183,-125.2"/>
<text text-anchor="start" x="203" y="-132.3" font-family="Helvetica,sans-Serif" font-size="11.00" fill="#000000">first_name</text>
<polygon fill="none" stroke="#000000" points="305,-125.2 305,-147.2 397,-147.2 397,-125.2 305,-125.2"/>
<text text-anchor="start" x="308" y="-132.9" font-family="Helvetica,sans-Serif" font-size="11.00" fill="#000000">text[2147483647]</text>
<polygon fill="none" stroke="#000000" points="183,-103.2 183,-125.2 305,-125.2 305,-103.2 183,-103.2"/>
<text text-anchor="start" x="203" y="-110.3" font-family="Helvetica,sans-Serif" font-size="11.00" fill="#000000">last_name</text>
<polygon fill="none" stroke="#000000" points="305,-103.2 305,-125.2 397,-125.2 397,-103.2 305,-103.2"/>
<text text-anchor="start" x="308" y="-110.9" font-family="Helvetica,sans-Serif" font-size="11.00" fill="#000000">text[2147483647]</text>
<polygon fill="none" stroke="#000000" points="183,-81.2 183,-103.2 305,-103.2 305,-81.2 183,-81.2"/>
<image xlink:href="../../images/foreignKeys.png" width="11px" height="12px" preserveAspectRatio="xMinYMin meet" x="188" y="-98.2"/>
<text text-anchor="start" x="203" y="-88.3" font-family="Helvetica,sans-Serif" font-size="11.00" fill="#000000">frequent_flyer_id</text>
<polygon fill="none" stroke="#000000" points="305,-81.2 305,-103.2 397,-103.2 397,-81.2 305,-81.2"/>
<text text-anchor="start" x="308" y="-88.9" font-family="Helvetica,sans-Serif" font-size="11.00" fill="#000000">int4[10]</text>
<polygon fill="none" stroke="#000000" points="183,-59.2 183,-81.2 305,-81.2 305,-59.2 183,-59.2"/>
<text text-anchor="start" x="203" y="-66.3" font-family="Helvetica,sans-Serif" font-size="11.00" fill="#000000">update_ts</text>
<polygon fill="none" stroke="#000000" points="305,-59.2 305,-81.2 397,-81.2 397,-59.2 305,-59.2"/>
<text text-anchor="start" x="307.6023" y="-66.9" font-family="Helvetica,sans-Serif" font-size="11.00" fill="#000000">timestamptz[35,6]</text>
<polygon fill="#ffffff" stroke="transparent" points="183,-40.2 183,-59.2 218,-59.2 218,-40.2 183,-40.2"/>
<polygon fill="none" stroke="#000000" points="183,-40.2 183,-59.2 218,-59.2 218,-40.2 183,-40.2"/>
<text text-anchor="start" x="186" y="-46.3" font-family="Helvetica,sans-Serif" font-size="11.00" fill="#000000">&lt; 1</text>
<polygon fill="#ffffff" stroke="transparent" points="218,-40.2 218,-59.2 305,-59.2 305,-40.2 218,-40.2"/>
<polygon fill="none" stroke="#000000" points="218,-40.2 218,-59.2 305,-59.2 305,-40.2 218,-40.2"/>
<text text-anchor="start" x="235.9791" y="-46.3" font-family="Helvetica,sans-Serif" font-size="11.00" fill="#000000">257,333 rows</text>
<polygon fill="#ffffff" stroke="transparent" points="305,-40.2 305,-59.2 397,-59.2 397,-40.2 305,-40.2"/>
<polygon fill="none" stroke="#000000" points="305,-40.2 305,-59.2 397,-59.2 397,-40.2 305,-40.2"/>
<text text-anchor="start" x="378.4053" y="-46.3" font-family="Helvetica,sans-Serif" font-size="11.00" fill="#000000">3 &gt;</text>
<polygon fill="none" stroke="#000000" stroke-width="2" points="182,-39.2 182,-215.2 398,-215.2 398,-39.2 182,-39.2"/>
</a>
</g>
</g>
<!-- frequent_flyer -->
<g id="node2" class="node">
<title>frequent_flyer</title>
<g id="a_node2"><a xlink:href="../../tables/frequent_flyer.html" xlink:title="frequent_flyer" target="_top">
<polygon fill="#ffffff" stroke="transparent" points="8,-43.7 8,-126.7 132,-126.7 132,-43.7 8,-43.7"/>
<polygon fill="#f5f5f5" stroke="transparent" points="8,-103.2 8,-126.2 132,-126.2 132,-103.2 8,-103.2"/>
<polygon fill="none" stroke="#000000" points="8,-103.2 8,-126.2 132,-126.2 132,-103.2 8,-103.2"/>
<text text-anchor="start" x="13" y="-111.8" font-family="Helvetica,sans-Serif" font-weight="bold" font-size="11.00" fill="#000000">frequent_flyer</text>
<text text-anchor="start" x="97.5219" y="-111.3" font-family="Helvetica,sans-Serif" font-size="11.00" fill="#000000">[table]</text>
<polygon fill="none" stroke="#000000" points="8,-81.2 8,-103.2 132,-103.2 132,-81.2 8,-81.2"/>
<image xlink:href="../../images/primaryKeys.png" width="11px" height="12px" preserveAspectRatio="xMinYMin meet" x="13" y="-98.2"/>
<text text-anchor="start" x="29" y="-88.3" font-family="Helvetica,sans-Serif" font-size="11.00" fill="#000000">frequent_flyer_id</text>
<polygon fill="none" stroke="#000000" points="8,-62.2 8,-81.2 132,-81.2 132,-62.2 8,-62.2"/>
<text text-anchor="start" x="11" y="-68.3" font-family="Helvetica,sans-Serif" font-size="11.00" fill="#000000">...</text>
<polygon fill="#ffffff" stroke="transparent" points="8,-43.2 8,-62.2 29,-62.2 29,-43.2 8,-43.2"/>
<polygon fill="none" stroke="#000000" points="8,-43.2 8,-62.2 29,-62.2 29,-43.2 8,-43.2"/>
<text text-anchor="start" x="11" y="-49.3" font-family="Helvetica,sans-Serif" font-size="11.00" fill="#000000"> &#160;</text>
<polygon fill="#ffffff" stroke="transparent" points="29,-43.2 29,-62.2 106,-62.2 106,-43.2 29,-43.2"/>
<polygon fill="none" stroke="#000000" points="29,-43.2 29,-62.2 106,-62.2 106,-43.2 29,-43.2"/>
<text text-anchor="start" x="36.9791" y="-49.3" font-family="Helvetica,sans-Serif" font-size="11.00" fill="#000000">128,346 rows</text>
<polygon fill="#ffffff" stroke="transparent" points="106,-43.2 106,-62.2 132,-62.2 132,-43.2 106,-43.2"/>
<polygon fill="none" stroke="#000000" points="106,-43.2 106,-62.2 132,-62.2 132,-43.2 106,-43.2"/>
<text text-anchor="start" x="113.4053" y="-49.3" font-family="Helvetica,sans-Serif" font-size="11.00" fill="#000000">1 &gt;</text>
</a>
</g>
</g>
<!-- account&#45;&gt;frequent_flyer -->
<g id="edge1" class="edge">
<title>account:w&#45;&gt;frequent_flyer:e</title>
<path fill="none" stroke="#000000" d="M168.276,-92.2C156.2815,-92.2 148.8229,-92.2 132,-92.2"/>
<polygon fill="#000000" stroke="#000000" points="175,-92.2001 183,-95.8 179,-92.2 183,-92.2 183,-92.2 183,-92.2 179,-92.2 183,-88.6 175,-92.2001 175,-92.2001"/>
<ellipse fill="none" stroke="#000000" cx="171.8" cy="-92.2001" rx="3.2" ry="3.2"/>
</g>
<!-- booking -->
<g id="node3" class="node">
<title>booking</title>
<g id="a_node3"><a xlink:href="../../tables/booking.html" xlink:title="booking" target="_top">
<polygon fill="#ffffff" stroke="transparent" points="448,-204.7 448,-331.7 571,-331.7 571,-204.7 448,-204.7"/>
<polygon fill="#f5f5f5" stroke="transparent" points="448.5,-308.2 448.5,-331.2 571.5,-331.2 571.5,-308.2 448.5,-308.2"/>
<polygon fill="none" stroke="#000000" points="448.5,-308.2 448.5,-331.2 571.5,-331.2 571.5,-308.2 448.5,-308.2"/>
<text text-anchor="start" x="453.5" y="-316.8" font-family="Helvetica,sans-Serif" font-weight="bold" font-size="11.00" fill="#000000">booking</text>
<text text-anchor="start" x="536.5437" y="-316.3" font-family="Helvetica,sans-Serif" font-size="11.00" fill="#000000">[table]</text>
<polygon fill="none" stroke="#000000" points="448.5,-286.2 448.5,-308.2 571.5,-308.2 571.5,-286.2 448.5,-286.2"/>
<image xlink:href="../../images/primaryKeys.png" width="11px" height="12px" preserveAspectRatio="xMinYMin meet" x="453.5" y="-303.2"/>
<text text-anchor="start" x="476.5" y="-293.3" font-family="Helvetica,sans-Serif" font-size="11.00" fill="#000000">booking_id</text>
<polygon fill="#ffffff" stroke="transparent" points="448.5,-264.2 448.5,-286.2 571.5,-286.2 571.5,-264.2 448.5,-264.2"/>
<polygon fill="none" stroke="#000000" points="448.5,-264.2 448.5,-286.2 571.5,-286.2 571.5,-264.2 448.5,-264.2"/>
<text text-anchor="start" x="476.5" y="-271.3" font-family="Helvetica,sans-Serif" font-size="11.00" fill="#000000">booking_ref</text>
<polygon fill="none" stroke="#000000" points="448.5,-242.2 448.5,-264.2 571.5,-264.2 571.5,-242.2 448.5,-242.2"/>
<image xlink:href="../../images/foreignKeys.png" width="11px" height="12px" preserveAspectRatio="xMinYMin meet" x="453.5" y="-259.2"/>
<text text-anchor="start" x="476.5" y="-249.3" font-family="Helvetica,sans-Serif" font-size="11.00" fill="#000000">account_id</text>
<polygon fill="none" stroke="#000000" points="448.5,-223.2 448.5,-242.2 571.5,-242.2 571.5,-223.2 448.5,-223.2"/>
<text text-anchor="start" x="451.5" y="-229.3" font-family="Helvetica,sans-Serif" font-size="11.00" fill="#000000">...</text>
<polygon fill="#ffffff" stroke="transparent" points="448.5,-204.2 448.5,-223.2 469.5,-223.2 469.5,-204.2 448.5,-204.2"/>
<polygon fill="none" stroke="#000000" points="448.5,-204.2 448.5,-223.2 469.5,-223.2 469.5,-204.2 448.5,-204.2"/>
<text text-anchor="start" x="451.2027" y="-210.3" font-family="Helvetica,sans-Serif" font-size="11.00" fill="#000000">&lt; 1</text>
<polygon fill="#ffffff" stroke="transparent" points="469.5,-204.2 469.5,-223.2 550.5,-223.2 550.5,-204.2 469.5,-204.2"/>
<polygon fill="none" stroke="#000000" points="469.5,-204.2 469.5,-223.2 550.5,-223.2 550.5,-204.2 469.5,-204.2"/>
<text text-anchor="start" x="472.4037" y="-210.3" font-family="Helvetica,sans-Serif" font-size="11.00" fill="#000000">5,643,687 rows</text>
<polygon fill="#ffffff" stroke="transparent" points="550.5,-204.2 550.5,-223.2 571.5,-223.2 571.5,-204.2 550.5,-204.2"/>
<polygon fill="none" stroke="#000000" points="550.5,-204.2 550.5,-223.2 571.5,-223.2 571.5,-204.2 550.5,-204.2"/>
<text text-anchor="start" x="553.2026" y="-210.3" font-family="Helvetica,sans-Serif" font-size="11.00" fill="#000000">2 &gt;</text>
</a>
</g>
</g>
<!-- booking&#45;&gt;account -->
<g id="edge2" class="edge">
<title>booking:w&#45;&gt;account:e</title>
<path fill="none" stroke="#000000" d="M434.583,-248.6335C415.7293,-232.652 430.6568,-180.2 397,-180.2"/>
<polygon fill="#000000" stroke="#000000" points="440.8987,-250.7058 447.3776,-256.6206 444.6994,-251.9529 448.5,-253.2 448.5,-253.2 448.5,-253.2 444.6994,-251.9529 449.6224,-249.7794 440.8987,-250.7058 440.8987,-250.7058"/>
<ellipse fill="none" stroke="#000000" cx="437.8582" cy="-249.7081" rx="3.2" ry="3.2"/>
</g>
<!-- passenger -->
<g id="node4" class="node">
<title>passenger</title>
<g id="a_node4"><a xlink:href="../../tables/passenger.html" xlink:title="passenger" target="_top">
<polygon fill="#ffffff" stroke="transparent" points="620,-178.7 620,-305.7 749,-305.7 749,-178.7 620,-178.7"/>
<polygon fill="#f5f5f5" stroke="transparent" points="620.5,-282.2 620.5,-305.2 749.5,-305.2 749.5,-282.2 620.5,-282.2"/>
<polygon fill="none" stroke="#000000" points="620.5,-282.2 620.5,-305.2 749.5,-305.2 749.5,-282.2 620.5,-282.2"/>
<text text-anchor="start" x="625.5" y="-290.8" font-family="Helvetica,sans-Serif" font-weight="bold" font-size="11.00" fill="#000000">passenger</text>
<text text-anchor="start" x="714.5437" y="-290.3" font-family="Helvetica,sans-Serif" font-size="11.00" fill="#000000">[table]</text>
<polygon fill="none" stroke="#000000" points="620.5,-260.2 620.5,-282.2 749.5,-282.2 749.5,-260.2 620.5,-260.2"/>
<image xlink:href="../../images/primaryKeys.png" width="11px" height="12px" preserveAspectRatio="xMinYMin meet" x="625.5" y="-277.2"/>
<text text-anchor="start" x="654.5" y="-267.3" font-family="Helvetica,sans-Serif" font-size="11.00" fill="#000000">passenger_id</text>
<polygon fill="none" stroke="#000000" points="620.5,-238.2 620.5,-260.2 749.5,-260.2 749.5,-238.2 620.5,-238.2"/>
<image xlink:href="../../images/foreignKeys.png" width="11px" height="12px" preserveAspectRatio="xMinYMin meet" x="625.5" y="-255.2"/>
<text text-anchor="start" x="654.5" y="-245.3" font-family="Helvetica,sans-Serif" font-size="11.00" fill="#000000">booking_id</text>
<polygon fill="none" stroke="#000000" points="620.5,-216.2 620.5,-238.2 749.5,-238.2 749.5,-216.2 620.5,-216.2"/>
<image xlink:href="../../images/foreignKeys.png" width="11px" height="12px" preserveAspectRatio="xMinYMin meet" x="625.5" y="-233.2"/>
<text text-anchor="start" x="654.5" y="-223.3" font-family="Helvetica,sans-Serif" font-size="11.00" fill="#000000">account_id</text>
<polygon fill="none" stroke="#000000" points="620.5,-197.2 620.5,-216.2 749.5,-216.2 749.5,-197.2 620.5,-197.2"/>
<text text-anchor="start" x="623.5" y="-203.3" font-family="Helvetica,sans-Serif" font-size="11.00" fill="#000000">...</text>
<polygon fill="#ffffff" stroke="transparent" points="620.5,-178.2 620.5,-197.2 641.5,-197.2 641.5,-178.2 620.5,-178.2"/>
<polygon fill="none" stroke="#000000" points="620.5,-178.2 620.5,-197.2 641.5,-197.2 641.5,-178.2 620.5,-178.2"/>
<text text-anchor="start" x="623.2026" y="-184.3" font-family="Helvetica,sans-Serif" font-size="11.00" fill="#000000">&lt; 2</text>
<polygon fill="#ffffff" stroke="transparent" points="641.5,-178.2 641.5,-197.2 728.5,-197.2 728.5,-178.2 641.5,-178.2"/>
<polygon fill="none" stroke="#000000" points="641.5,-178.2 641.5,-197.2 728.5,-197.2 728.5,-178.2 641.5,-178.2"/>
<text text-anchor="start" x="644.3462" y="-184.3" font-family="Helvetica,sans-Serif" font-size="11.00" fill="#000000">16,312,143 rows</text>
<polygon fill="#ffffff" stroke="transparent" points="728.5,-178.2 728.5,-197.2 749.5,-197.2 749.5,-178.2 728.5,-178.2"/>
<polygon fill="none" stroke="#000000" points="728.5,-178.2 728.5,-197.2 749.5,-197.2 749.5,-178.2 728.5,-178.2"/>
<text text-anchor="start" x="731.2026" y="-184.3" font-family="Helvetica,sans-Serif" font-size="11.00" fill="#000000">1 &gt;</text>
</a>
</g>
</g>
<!-- passenger&#45;&gt;account -->
<g id="edge3" class="edge">
<title>passenger:w&#45;&gt;account:e</title>
<path fill="none" stroke="#000000" d="M606.5534,-222.7911C597.2296,-215.3583 595.1075,-200.527 579,-194.2 503.4886,-164.5392 478.1279,-180.2 397,-180.2"/>
<polygon fill="#000000" stroke="#000000" points="612.8721,-224.7886 619.4148,-230.6326 616.686,-225.9943 620.5,-227.2 620.5,-227.2 620.5,-227.2 616.686,-225.9943 621.5852,-223.7674 612.8721,-224.7886 612.8721,-224.7886"/>
<ellipse fill="none" stroke="#000000" cx="609.8209" cy="-223.824" rx="3.2" ry="3.2"/>
</g>
<!-- passenger&#45;&gt;booking -->
<g id="edge4" class="edge">
<title>passenger:w&#45;&gt;booking:e</title>
<path fill="none" stroke="#000000" d="M606.8634,-253.9779C593.071,-266.1189 596.0315,-297.2 571.5,-297.2"/>
<polygon fill="#000000" stroke="#000000" points="612.95,-251.8454 621.6904,-252.5975 616.725,-250.5227 620.5,-249.2 620.5,-249.2 620.5,-249.2 616.725,-250.5227 619.3096,-245.8025 612.95,-251.8454 612.95,-251.8454"/>
<ellipse fill="none" stroke="#000000" cx="609.93" cy="-252.9035" rx="3.2" ry="3.2"/>
</g>
<!-- phone -->
<g id="node5" class="node">
<title>phone</title>
<g id="a_node5"><a xlink:href="../../tables/phone.html" xlink:title="phone" target="_top">
<polygon fill="#ffffff" stroke="transparent" points="454,-50.7 454,-155.7 565,-155.7 565,-50.7 454,-50.7"/>
<polygon fill="#f5f5f5" stroke="transparent" points="454.5,-132.2 454.5,-155.2 565.5,-155.2 565.5,-132.2 454.5,-132.2"/>
<polygon fill="none" stroke="#000000" points="454.5,-132.2 454.5,-155.2 565.5,-155.2 565.5,-132.2 454.5,-132.2"/>
<text text-anchor="start" x="459.5" y="-140.8" font-family="Helvetica,sans-Serif" font-weight="bold" font-size="11.00" fill="#000000">phone</text>
<text text-anchor="start" x="530.5437" y="-140.3" font-family="Helvetica,sans-Serif" font-size="11.00" fill="#000000">[table]</text>
<polygon fill="none" stroke="#000000" points="454.5,-110.2 454.5,-132.2 565.5,-132.2 565.5,-110.2 454.5,-110.2"/>
<image xlink:href="../../images/primaryKeys.png" width="11px" height="12px" preserveAspectRatio="xMinYMin meet" x="459.5" y="-127.2"/>
<text text-anchor="start" x="474.5" y="-117.3" font-family="Helvetica,sans-Serif" font-size="11.00" fill="#000000">phone_id</text>
<polygon fill="none" stroke="#000000" points="454.5,-88.2 454.5,-110.2 565.5,-110.2 565.5,-88.2 454.5,-88.2"/>
<image xlink:href="../../images/foreignKeys.png" width="11px" height="12px" preserveAspectRatio="xMinYMin meet" x="459.5" y="-105.2"/>
<text text-anchor="start" x="474.5" y="-95.3" font-family="Helvetica,sans-Serif" font-size="11.00" fill="#000000">account_id</text>
<polygon fill="none" stroke="#000000" points="454.5,-69.2 454.5,-88.2 565.5,-88.2 565.5,-69.2 454.5,-69.2"/>
<text text-anchor="start" x="457.5" y="-75.3" font-family="Helvetica,sans-Serif" font-size="11.00" fill="#000000">...</text>
<polygon fill="#ffffff" stroke="transparent" points="454.5,-50.2 454.5,-69.2 478.5,-69.2 478.5,-50.2 454.5,-50.2"/>
<polygon fill="none" stroke="#000000" points="454.5,-50.2 454.5,-69.2 478.5,-69.2 478.5,-50.2 454.5,-50.2"/>
<text text-anchor="start" x="457.5" y="-56.3" font-family="Helvetica,sans-Serif" font-size="11.00" fill="#000000">&lt; 1</text>
<polygon fill="#ffffff" stroke="transparent" points="478.5,-50.2 478.5,-69.2 551.5,-69.2 551.5,-50.2 478.5,-50.2"/>
<polygon fill="none" stroke="#000000" points="478.5,-50.2 478.5,-69.2 551.5,-69.2 551.5,-50.2 478.5,-50.2"/>
<text text-anchor="start" x="482.4791" y="-56.3" font-family="Helvetica,sans-Serif" font-size="11.00" fill="#000000">407,444 rows</text>
<polygon fill="#ffffff" stroke="transparent" points="551.5,-50.2 551.5,-69.2 565.5,-69.2 565.5,-50.2 551.5,-50.2"/>
<polygon fill="none" stroke="#000000" points="551.5,-50.2 551.5,-69.2 565.5,-69.2 565.5,-50.2 551.5,-50.2"/>
<text text-anchor="start" x="556.3862" y="-56.3" font-family="Helvetica,sans-Serif" font-size="11.00" fill="#000000"> &#160;</text>
</a>
</g>
</g>
<!-- phone&#45;&gt;account -->
<g id="edge5" class="edge">
<title>phone:w&#45;&gt;account:e</title>
<path fill="none" stroke="#000000" d="M440.5244,-103.1068C417.21,-119.2869 435.285,-180.2 397,-180.2"/>
<polygon fill="#000000" stroke="#000000" points="446.7954,-101.3538 455.4692,-102.6671 450.6477,-100.2769 454.5,-99.2 454.5,-99.2 454.5,-99.2 450.6477,-100.2769 453.5308,-95.7329 446.7954,-101.3538 446.7954,-101.3538"/>
<ellipse fill="none" stroke="#000000" cx="443.7135" cy="-102.2153" rx="3.2" ry="3.2"/>
</g>
</g>
</svg>
