<?xml version="1.0" encoding="UTF-8" standalone="no"?>
<!DOCTYPE svg PUBLIC "-//W3C//DTD SVG 1.1//EN"
 "http://www.w3.org/Graphics/SVG/1.1/DTD/svg11.dtd">
<!-- Generated by graphviz version 2.40.1 (20161225.0304)
 -->
<!-- Title: twoDegreesRelationshipsDiagram Pages: 1 -->
<svg width="938pt" height="305pt"
 viewBox="0.00 0.00 938.00 304.70" xmlns="http://www.w3.org/2000/svg" xmlns:xlink="http://www.w3.org/1999/xlink">
<g id="graph0" class="graph" transform="scale(1 1) rotate(0) translate(4 300.7)">
<title>twoDegreesRelationshipsDiagram</title>
<polygon fill="#ffffff" stroke="transparent" points="-4,4 -4,-300.7 934,-300.7 934,4 -4,4"/>
<text text-anchor="middle" x="72.4936" y="-7.3" font-family="Helvetica,sans-Serif" font-size="11.00" fill="#000000">Generated by SchemaSpy</text>
<!-- account -->
<g id="node1" class="node">
<title>account</title>
<g id="a_node1"><a xlink:href="../../tables/account.html" xlink:title="account" target="_top">
<polygon fill="#ffffff" stroke="transparent" points="181,-38.2 181,-216.2 399,-216.2 399,-38.2 181,-38.2"/>
<polygon fill="#f5f5f5" stroke="transparent" points="183,-191.2 183,-214.2 397,-214.2 397,-191.2 183,-191.2"/>
<polygon fill="none" stroke="#000000" points="183,-191.2 183,-214.2 397,-214.2 397,-191.2 183,-191.2"/>
<text text-anchor="start" x="188" y="-199.8" font-family="Helvetica,sans-Serif" font-weight="bold" font-size="11.00" fill="#000000">account</text>
<text text-anchor="start" x="362.0437" y="-199.3" font-family="Helvetica,sans-Serif" font-size="11.00" fill="#000000">[table]</text>
<polygon fill="none" stroke="#000000" points="183,-169.2 183,-191.2 305,-191.2 305,-169.2 183,-169.2"/>
<image xlink:href="../../images/primaryKeys.png" width="11px" height="12px" preserveAspectRatio="xMinYMin meet" x="188" y="-186.2"/>
<text text-anchor="start" x="203" y="-176.3" font-family="Helvetica,sans-Serif" font-size="11.00" fill="#000000">account_id</text>
<polygon fill="none" stroke="#000000" points="305,-169.2 305,-191.2 397,-191.2 397,-169.2 305,-169.2"/>
<text text-anchor="start" x="308" y="-176.9" font-family="Helvetica,sans-Serif" font-size="11.00" fill="#000000">serial[10]</text>
<polygon fill="none" stroke="#000000" points="183,-147.2 183,-169.2 305,-169.2 305,-147.2 183,-147.2"/>
<text text-anchor="start" x="203" y="-154.3" font-family="Helvetica,sans-Serif" font-size="11.00" fill="#000000">login</text>
<polygon fill="none" stroke="#000000" points="305,-147.2 305,-169.2 397,-169.2 397,-147.2 305,-147.2"/>
<text text-anchor="start" x="308" y="-154.9" font-family="Helvetica,sans-Serif" font-size="11.00" fill="#000000">text[2147483647]</text>
<polygon fill="none" stroke="#000000" points="183,-125.2 183,-147.2 305,-147.2 305,-125.2 183,-125.2"/>
<text text-anchor="start" x="203" y="-132.3" font-family="Helvetica,sans-Serif" font-size="11.00" fill="#000000">first_name</text>
<polygon fill="none" stroke="#000000" points="305,-125.2 305,-147.2 397,-147.2 397,-125.2 305,-125.2"/>
<text text-anchor="start" x="308" y="-132.9" font-family="Helvetica,sans-Serif" font-size="11.00" fill="#000000">text[2147483647]</text>
<polygon fill="none" stroke="#000000" points="183,-103.2 183,-125.2 305,-125.2 305,-103.2 183,-103.2"/>
<text text-anchor="start" x="203" y="-110.3" font-family="Helvetica,sans-Serif" font-size="11.00" fill="#000000">last_name</text>
<polygon fill="none" stroke="#000000" points="305,-103.2 305,-125.2 397,-125.2 397,-103.2 305,-103.2"/>
<text text-anchor="start" x="308" y="-110.9" font-family="Helvetica,sans-Serif" font-size="11.00" fill="#000000">text[2147483647]</text>
<polygon fill="none" stroke="#000000" points="183,-81.2 183,-103.2 305,-103.2 305,-81.2 183,-81.2"/>
<image xlink:href="../../images/foreignKeys.png" width="11px" height="12px" preserveAspectRatio="xMinYMin meet" x="188" y="-98.2"/>
<text text-anchor="start" x="203" y="-88.3" font-family="Helvetica,sans-Serif" font-size="11.00" fill="#000000">frequent_flyer_id</text>
<polygon fill="none" stroke="#000000" points="305,-81.2 305,-103.2 397,-103.2 397,-81.2 305,-81.2"/>
<text text-anchor="start" x="308" y="-88.9" font-family="Helvetica,sans-Serif" font-size="11.00" fill="#000000">int4[10]</text>
<polygon fill="none" stroke="#000000" points="183,-59.2 183,-81.2 305,-81.2 305,-59.2 183,-59.2"/>
<text text-anchor="start" x="203" y="-66.3" font-family="Helvetica,sans-Serif" font-size="11.00" fill="#000000">update_ts</text>
<polygon fill="none" stroke="#000000" points="305,-59.2 305,-81.2 397,-81.2 397,-59.2 305,-59.2"/>
<text text-anchor="start" x="307.6023" y="-66.9" font-family="Helvetica,sans-Serif" font-size="11.00" fill="#000000">timestamptz[35,6]</text>
<polygon fill="#ffffff" stroke="transparent" points="183,-40.2 183,-59.2 218,-59.2 218,-40.2 183,-40.2"/>
<polygon fill="none" stroke="#000000" points="183,-40.2 183,-59.2 218,-59.2 218,-40.2 183,-40.2"/>
<text text-anchor="start" x="186" y="-46.3" font-family="Helvetica,sans-Serif" font-size="11.00" fill="#000000">&lt; 1</text>
<polygon fill="#ffffff" stroke="transparent" points="218,-40.2 218,-59.2 305,-59.2 305,-40.2 218,-40.2"/>
<polygon fill="none" stroke="#000000" points="218,-40.2 218,-59.2 305,-59.2 305,-40.2 218,-40.2"/>
<text text-anchor="start" x="235.9791" y="-46.3" font-family="Helvetica,sans-Serif" font-size="11.00" fill="#000000">257,333 rows</text>
<polygon fill="#ffffff" stroke="transparent" points="305,-40.2 305,-59.2 397,-59.2 397,-40.2 305,-40.2"/>
<polygon fill="none" stroke="#000000" points="305,-40.2 305,-59.2 397,-59.2 397,-40.2 305,-40.2"/>
<text text-anchor="start" x="378.4053" y="-46.3" font-family="Helvetica,sans-Serif" font-size="11.00" fill="#000000">3 &gt;</text>
<polygon fill="none" stroke="#000000" stroke-width="2" points="182,-39.2 182,-215.2 398,-215.2 398,-39.2 182,-39.2"/>
</a>
</g>
</g>
<!-- frequent_flyer -->
<g id="node2" class="node">
<title>frequent_flyer</title>
<g id="a_node2"><a xlink:href="../../tables/frequent_flyer.html" xlink:title="frequent_flyer" target="_top">
<polygon fill="#ffffff" stroke="transparent" points="8,-43.7 8,-126.7 132,-126.7 132,-43.7 8,-43.7"/>
<polygon fill="#f5f5f5" stroke="transparent" points="8,-103.2 8,-126.2 132,-126.2 132,-103.2 8,-103.2"/>
<polygon fill="none" stroke="#000000" points="8,-103.2 8,-126.2 132,-126.2 132,-103.2 8,-103.2"/>
<text text-anchor="start" x="13" y="-111.8" font-family="Helvetica,sans-Serif" font-weight="bold" font-size="11.00" fill="#000000">frequent_flyer</text>
<text text-anchor="start" x="97.5219" y="-111.3" font-family="Helvetica,sans-Serif" font-size="11.00" fill="#000000">[table]</text>
<polygon fill="none" stroke="#000000" points="8,-81.2 8,-103.2 132,-103.2 132,-81.2 8,-81.2"/>
<image xlink:href="../../images/primaryKeys.png" width="11px" height="12px" preserveAspectRatio="xMinYMin meet" x="13" y="-98.2"/>
<text text-anchor="start" x="29" y="-88.3" font-family="Helvetica,sans-Serif" font-size="11.00" fill="#000000">frequent_flyer_id</text>
<polygon fill="none" stroke="#000000" points="8,-62.2 8,-81.2 132,-81.2 132,-62.2 8,-62.2"/>
<text text-anchor="start" x="11" y="-68.3" font-family="Helvetica,sans-Serif" font-size="11.00" fill="#000000">...</text>
<polygon fill="#ffffff" stroke="transparent" points="8,-43.2 8,-62.2 29,-62.2 29,-43.2 8,-43.2"/>
<polygon fill="none" stroke="#000000" points="8,-43.2 8,-62.2 29,-62.2 29,-43.2 8,-43.2"/>
<text text-anchor="start" x="11" y="-49.3" font-family="Helvetica,sans-Serif" font-size="11.00" fill="#000000"> &#160;</text>
<polygon fill="#ffffff" stroke="transparent" points="29,-43.2 29,-62.2 106,-62.2 106,-43.2 29,-43.2"/>
<polygon fill="none" stroke="#000000" points="29,-43.2 29,-62.2 106,-62.2 106,-43.2 29,-43.2"/>
<text text-anchor="start" x="36.9791" y="-49.3" font-family="Helvetica,sans-Serif" font-size="11.00" fill="#000000">128,346 rows</text>
<polygon fill="#ffffff" stroke="transparent" points="106,-43.2 106,-62.2 132,-62.2 132,-43.2 106,-43.2"/>
<polygon fill="none" stroke="#000000" points="106,-43.2 106,-62.2 132,-62.2 132,-43.2 106,-43.2"/>
<text text-anchor="start" x="113.4053" y="-49.3" font-family="Helvetica,sans-Serif" font-size="11.00" fill="#000000">1 &gt;</text>
</a>
</g>
</g>
<!-- account&#45;&gt;frequent_flyer -->
<g id="edge1" class="edge">
<title>account:w&#45;&gt;frequent_flyer:e</title>
<path fill="none" stroke="#000000" d="M168.276,-92.2C156.2815,-92.2 148.8229,-92.2 132,-92.2"/>
<polygon fill="#000000" stroke="#000000" points="175,-92.2001 183,-95.8 179,-92.2 183,-92.2 183,-92.2 183,-92.2 179,-92.2 183,-88.6 175,-92.2001 175,-92.2001"/>
<ellipse fill="none" stroke="#000000" cx="171.8" cy="-92.2001" rx="3.2" ry="3.2"/>
</g>
<!-- boarding_pass -->
<g id="node3" class="node">
<title>boarding_pass</title>
<g id="a_node3"><a xlink:href="../../tables/boarding_pass.html" xlink:title="boarding_pass" target="_top">
<polygon fill="#ffffff" stroke="transparent" points="798,-191.7 798,-252.7 922,-252.7 922,-191.7 798,-191.7"/>
<polygon fill="#f5f5f5" stroke="transparent" points="798,-229.2 798,-252.2 922,-252.2 922,-229.2 798,-229.2"/>
<polygon fill="none" stroke="#000000" points="798,-229.2 798,-252.2 922,-252.2 922,-229.2 798,-229.2"/>
<text text-anchor="start" x="803" y="-237.8" font-family="Helvetica,sans-Serif" font-weight="bold" font-size="11.00" fill="#000000">boarding_pass</text>
<text text-anchor="start" x="887.5219" y="-237.3" font-family="Helvetica,sans-Serif" font-size="11.00" fill="#000000">[table]</text>
<polygon fill="none" stroke="#000000" points="798,-210.2 798,-229.2 922,-229.2 922,-210.2 798,-210.2"/>
<text text-anchor="start" x="801" y="-216.3" font-family="Helvetica,sans-Serif" font-size="11.00" fill="#000000">...</text>
<polygon fill="#ffffff" stroke="transparent" points="798,-191.2 798,-210.2 821,-210.2 821,-191.2 798,-191.2"/>
<polygon fill="none" stroke="#000000" points="798,-191.2 798,-210.2 821,-210.2 821,-191.2 798,-191.2"/>
<text text-anchor="start" x="801" y="-197.3" font-family="Helvetica,sans-Serif" font-size="11.00" fill="#000000">&lt; 2</text>
<polygon fill="#ffffff" stroke="transparent" points="821,-191.2 821,-210.2 909,-210.2 909,-191.2 821,-191.2"/>
<polygon fill="none" stroke="#000000" points="821,-191.2 821,-210.2 909,-210.2 909,-191.2 821,-191.2"/>
<text text-anchor="start" x="824.6924" y="-197.3" font-family="Helvetica,sans-Serif" font-size="11.00" fill="#000000">25,292,472 rows</text>
<polygon fill="#ffffff" stroke="transparent" points="909,-191.2 909,-210.2 922,-210.2 922,-191.2 909,-191.2"/>
<polygon fill="none" stroke="#000000" points="909,-191.2 909,-210.2 922,-210.2 922,-191.2 909,-191.2"/>
<text text-anchor="start" x="912.8862" y="-197.3" font-family="Helvetica,sans-Serif" font-size="11.00" fill="#000000"> &#160;</text>
</a>
</g>
</g>
<!-- booking_leg -->
<g id="node4" class="node">
<title>booking_leg</title>
<g id="a_node4"><a xlink:href="../../tables/booking_leg.html" xlink:title="booking_leg" target="_top">
<polygon fill="#ffffff" stroke="transparent" points="620,-231.7 620,-292.7 749,-292.7 749,-231.7 620,-231.7"/>
<polygon fill="#f5f5f5" stroke="transparent" points="620.5,-269.2 620.5,-292.2 749.5,-292.2 749.5,-269.2 620.5,-269.2"/>
<polygon fill="none" stroke="#000000" points="620.5,-269.2 620.5,-292.2 749.5,-292.2 749.5,-269.2 620.5,-269.2"/>
<text text-anchor="start" x="625.5" y="-277.8" font-family="Helvetica,sans-Serif" font-weight="bold" font-size="11.00" fill="#000000">booking_leg</text>
<text text-anchor="start" x="714.5437" y="-277.3" font-family="Helvetica,sans-Serif" font-size="11.00" fill="#000000">[table]</text>
<polygon fill="none" stroke="#000000" points="620.5,-250.2 620.5,-269.2 749.5,-269.2 749.5,-250.2 620.5,-250.2"/>
<text text-anchor="start" x="623.5" y="-256.3" font-family="Helvetica,sans-Serif" font-size="11.00" fill="#000000">...</text>
<polygon fill="#ffffff" stroke="transparent" points="620.5,-231.2 620.5,-250.2 641.5,-250.2 641.5,-231.2 620.5,-231.2"/>
<polygon fill="none" stroke="#000000" points="620.5,-231.2 620.5,-250.2 641.5,-250.2 641.5,-231.2 620.5,-231.2"/>
<text text-anchor="start" x="623.2026" y="-237.3" font-family="Helvetica,sans-Serif" font-size="11.00" fill="#000000">&lt; 2</text>
<polygon fill="#ffffff" stroke="transparent" points="641.5,-231.2 641.5,-250.2 728.5,-250.2 728.5,-231.2 641.5,-231.2"/>
<polygon fill="none" stroke="#000000" points="641.5,-231.2 641.5,-250.2 728.5,-250.2 728.5,-231.2 641.5,-231.2"/>
<text text-anchor="start" x="644.3462" y="-237.3" font-family="Helvetica,sans-Serif" font-size="11.00" fill="#000000">17,894,232 rows</text>
<polygon fill="#ffffff" stroke="transparent" points="728.5,-231.2 728.5,-250.2 749.5,-250.2 749.5,-231.2 728.5,-231.2"/>
<polygon fill="none" stroke="#000000" points="728.5,-231.2 728.5,-250.2 749.5,-250.2 749.5,-231.2 728.5,-231.2"/>
<text text-anchor="start" x="731.2026" y="-237.3" font-family="Helvetica,sans-Serif" font-size="11.00" fill="#000000">1 &gt;</text>
</a>
</g>
</g>
<!-- boarding_pass&#45;&gt;booking_leg -->
<g id="edge2" class="edge">
<title>boarding_pass:w&#45;&gt;booking_leg:e</title>
<path fill="none" stroke="#000000" d="M783.9951,-224.1048C771.5984,-234.7859 771.3288,-259.2 749.5,-259.2"/>
<polygon fill="#000000" stroke="#000000" points="790.4496,-221.8443 799.1899,-222.5977 794.2248,-220.5222 798,-219.2 798,-219.2 798,-219.2 794.2248,-220.5222 796.8101,-215.8023 790.4496,-221.8443 790.4496,-221.8443"/>
<ellipse fill="none" stroke="#000000" cx="787.4295" cy="-222.902" rx="3.2" ry="3.2"/>
</g>
<!-- passenger -->
<g id="node5" class="node">
<title>passenger</title>
<g id="a_node5"><a xlink:href="../../tables/passenger.html" xlink:title="passenger" target="_top">
<polygon fill="#ffffff" stroke="transparent" points="620,-149.7 620,-210.7 749,-210.7 749,-149.7 620,-149.7"/>
<polygon fill="#f5f5f5" stroke="transparent" points="620.5,-187.2 620.5,-210.2 749.5,-210.2 749.5,-187.2 620.5,-187.2"/>
<polygon fill="none" stroke="#000000" points="620.5,-187.2 620.5,-210.2 749.5,-210.2 749.5,-187.2 620.5,-187.2"/>
<text text-anchor="start" x="625.5" y="-195.8" font-family="Helvetica,sans-Serif" font-weight="bold" font-size="11.00" fill="#000000">passenger</text>
<text text-anchor="start" x="714.5437" y="-195.3" font-family="Helvetica,sans-Serif" font-size="11.00" fill="#000000">[table]</text>
<polygon fill="none" stroke="#000000" points="620.5,-168.2 620.5,-187.2 749.5,-187.2 749.5,-168.2 620.5,-168.2"/>
<text text-anchor="start" x="623.5" y="-174.3" font-family="Helvetica,sans-Serif" font-size="11.00" fill="#000000">...</text>
<polygon fill="#ffffff" stroke="transparent" points="620.5,-149.2 620.5,-168.2 641.5,-168.2 641.5,-149.2 620.5,-149.2"/>
<polygon fill="none" stroke="#000000" points="620.5,-149.2 620.5,-168.2 641.5,-168.2 641.5,-149.2 620.5,-149.2"/>
<text text-anchor="start" x="623.2026" y="-155.3" font-family="Helvetica,sans-Serif" font-size="11.00" fill="#000000">&lt; 2</text>
<polygon fill="#ffffff" stroke="transparent" points="641.5,-149.2 641.5,-168.2 728.5,-168.2 728.5,-149.2 641.5,-149.2"/>
<polygon fill="none" stroke="#000000" points="641.5,-149.2 641.5,-168.2 728.5,-168.2 728.5,-149.2 641.5,-149.2"/>
<text text-anchor="start" x="644.3462" y="-155.3" font-family="Helvetica,sans-Serif" font-size="11.00" fill="#000000">16,312,143 rows</text>
<polygon fill="#ffffff" stroke="transparent" points="728.5,-149.2 728.5,-168.2 749.5,-168.2 749.5,-149.2 728.5,-149.2"/>
<polygon fill="none" stroke="#000000" points="728.5,-149.2 728.5,-168.2 749.5,-168.2 749.5,-149.2 728.5,-149.2"/>
<text text-anchor="start" x="731.2026" y="-155.3" font-family="Helvetica,sans-Serif" font-size="11.00" fill="#000000">1 &gt;</text>
</a>
</g>
</g>
<!-- boarding_pass&#45;&gt;passenger -->
<g id="edge3" class="edge">
<title>boarding_pass:w&#45;&gt;passenger:e</title>
<path fill="none" stroke="#000000" d="M783.6007,-218.3232C774.7062,-217.2792 765.7888,-215.3668 757.1476,-212.934"/>
<polygon fill="#000000" stroke="#000000" points="790.0148,-218.7137 797.7812,-222.7933 794.0074,-218.9569 798,-219.2 798,-219.2 798,-219.2 794.0074,-218.9569 798.2188,-215.6067 790.0148,-218.7137 790.0148,-218.7137"/>
<ellipse fill="none" stroke="#000000" cx="786.8207" cy="-218.5192" rx="3.2" ry="3.2"/>
</g>
<!-- booking -->
<g id="node6" class="node">
<title>booking</title>
<g id="a_node6"><a xlink:href="../../tables/booking.html" xlink:title="booking" target="_top">
<polygon fill="#ffffff" stroke="transparent" points="448,-204.7 448,-265.7 571,-265.7 571,-204.7 448,-204.7"/>
<polygon fill="#f5f5f5" stroke="transparent" points="448.5,-242.2 448.5,-265.2 571.5,-265.2 571.5,-242.2 448.5,-242.2"/>
<polygon fill="none" stroke="#000000" points="448.5,-242.2 448.5,-265.2 571.5,-265.2 571.5,-242.2 448.5,-242.2"/>
<text text-anchor="start" x="453.5" y="-250.8" font-family="Helvetica,sans-Serif" font-weight="bold" font-size="11.00" fill="#000000">booking</text>
<text text-anchor="start" x="536.5437" y="-250.3" font-family="Helvetica,sans-Serif" font-size="11.00" fill="#000000">[table]</text>
<polygon fill="none" stroke="#000000" points="448.5,-223.2 448.5,-242.2 571.5,-242.2 571.5,-223.2 448.5,-223.2"/>
<text text-anchor="start" x="451.5" y="-229.3" font-family="Helvetica,sans-Serif" font-size="11.00" fill="#000000">...</text>
<polygon fill="#ffffff" stroke="transparent" points="448.5,-204.2 448.5,-223.2 469.5,-223.2 469.5,-204.2 448.5,-204.2"/>
<polygon fill="none" stroke="#000000" points="448.5,-204.2 448.5,-223.2 469.5,-223.2 469.5,-204.2 448.5,-204.2"/>
<text text-anchor="start" x="451.2027" y="-210.3" font-family="Helvetica,sans-Serif" font-size="11.00" fill="#000000">&lt; 1</text>
<polygon fill="#ffffff" stroke="transparent" points="469.5,-204.2 469.5,-223.2 550.5,-223.2 550.5,-204.2 469.5,-204.2"/>
<polygon fill="none" stroke="#000000" points="469.5,-204.2 469.5,-223.2 550.5,-223.2 550.5,-204.2 469.5,-204.2"/>
<text text-anchor="start" x="472.4037" y="-210.3" font-family="Helvetica,sans-Serif" font-size="11.00" fill="#000000">5,643,687 rows</text>
<polygon fill="#ffffff" stroke="transparent" points="550.5,-204.2 550.5,-223.2 571.5,-223.2 571.5,-204.2 550.5,-204.2"/>
<polygon fill="none" stroke="#000000" points="550.5,-204.2 550.5,-223.2 571.5,-223.2 571.5,-204.2 550.5,-204.2"/>
<text text-anchor="start" x="553.2026" y="-210.3" font-family="Helvetica,sans-Serif" font-size="11.00" fill="#000000">2 &gt;</text>
</a>
</g>
</g>
<!-- booking_leg&#45;&gt;booking -->
<g id="edge5" class="edge">
<title>booking_leg:w&#45;&gt;booking:e</title>
<path fill="none" stroke="#000000" d="M606.0477,-258.6028C597.0704,-257.8931 587.9903,-256.5967 579.1761,-254.9645"/>
<polygon fill="#000000" stroke="#000000" points="612.5068,-258.8697 620.3513,-262.7969 616.5034,-259.0348 620.5,-259.2 620.5,-259.2 620.5,-259.2 616.5034,-259.0348 620.6487,-255.6031 612.5068,-258.8697 612.5068,-258.8697"/>
<ellipse fill="none" stroke="#000000" cx="609.3095" cy="-258.7375" rx="3.2" ry="3.2"/>
</g>
<!-- passenger&#45;&gt;account -->
<g id="edge6" class="edge">
<title>passenger:w&#45;&gt;account:e</title>
<path fill="none" stroke="#000000" d="M597.3974,-180.2C540.3876,-180.2 464.2673,-180.2 397,-180.2"/>
<polygon fill="#000000" stroke="#000000" points="603.8325,-180.2001 611.8325,-183.8 607.8325,-180.2 611.8325,-180.2 611.8325,-180.2 611.8325,-180.2 607.8325,-180.2 611.8325,-176.6 603.8325,-180.2001 603.8325,-180.2001"/>
<ellipse fill="none" stroke="#000000" cx="600.6325" cy="-180.2001" rx="3.2" ry="3.2"/>
</g>
<!-- passenger&#45;&gt;booking -->
<g id="edge7" class="edge">
<title>passenger:w&#45;&gt;booking:e</title>
<path fill="none" stroke="#000000" d="M598.0224,-207.3787C591.6982,-209.3663 585.3669,-211.3561 579.1606,-213.3067"/>
<polygon fill="#000000" stroke="#000000" points="604.1726,-205.4458 612.884,-206.4815 607.9886,-204.2465 611.8046,-203.0471 611.8046,-203.0471 611.8046,-203.0471 607.9886,-204.2465 610.7252,-199.6128 604.1726,-205.4458 604.1726,-205.4458"/>
<ellipse fill="none" stroke="#000000" cx="601.1198" cy="-206.4052" rx="3.2" ry="3.2"/>
</g>
<!-- booking&#45;&gt;account -->
<g id="edge4" class="edge">
<title>booking:w&#45;&gt;account:e</title>
<path fill="none" stroke="#000000" d="M437.544,-193.9768C421.2518,-186.0711 406.0919,-180.2 397,-180.2"/>
<polygon fill="#000000" stroke="#000000" points="443.624,-197.0609 449.13,-203.8905 447.1913,-198.8704 450.7586,-200.68 450.7586,-200.68 450.7586,-200.68 447.1913,-198.8704 452.3872,-197.4694 443.624,-197.0609 443.624,-197.0609"/>
<ellipse fill="none" stroke="#000000" cx="440.7701" cy="-195.6132" rx="3.2" ry="3.2"/>
</g>
<!-- phone -->
<g id="node7" class="node">
<title>phone</title>
<g id="a_node7"><a xlink:href="../../tables/phone.html" xlink:title="phone" target="_top">
<polygon fill="#ffffff" stroke="transparent" points="454,-50.7 454,-155.7 565,-155.7 565,-50.7 454,-50.7"/>
<polygon fill="#f5f5f5" stroke="transparent" points="454.5,-132.2 454.5,-155.2 565.5,-155.2 565.5,-132.2 454.5,-132.2"/>
<polygon fill="none" stroke="#000000" points="454.5,-132.2 454.5,-155.2 565.5,-155.2 565.5,-132.2 454.5,-132.2"/>
<text text-anchor="start" x="459.5" y="-140.8" font-family="Helvetica,sans-Serif" font-weight="bold" font-size="11.00" fill="#000000">phone</text>
<text text-anchor="start" x="530.5437" y="-140.3" font-family="Helvetica,sans-Serif" font-size="11.00" fill="#000000">[table]</text>
<polygon fill="none" stroke="#000000" points="454.5,-110.2 454.5,-132.2 565.5,-132.2 565.5,-110.2 454.5,-110.2"/>
<image xlink:href="../../images/primaryKeys.png" width="11px" height="12px" preserveAspectRatio="xMinYMin meet" x="459.5" y="-127.2"/>
<text text-anchor="start" x="474.5" y="-117.3" font-family="Helvetica,sans-Serif" font-size="11.00" fill="#000000">phone_id</text>
<polygon fill="none" stroke="#000000" points="454.5,-88.2 454.5,-110.2 565.5,-110.2 565.5,-88.2 454.5,-88.2"/>
<image xlink:href="../../images/foreignKeys.png" width="11px" height="12px" preserveAspectRatio="xMinYMin meet" x="459.5" y="-105.2"/>
<text text-anchor="start" x="474.5" y="-95.3" font-family="Helvetica,sans-Serif" font-size="11.00" fill="#000000">account_id</text>
<polygon fill="none" stroke="#000000" points="454.5,-69.2 454.5,-88.2 565.5,-88.2 565.5,-69.2 454.5,-69.2"/>
<text text-anchor="start" x="457.5" y="-75.3" font-family="Helvetica,sans-Serif" font-size="11.00" fill="#000000">...</text>
<polygon fill="#ffffff" stroke="transparent" points="454.5,-50.2 454.5,-69.2 478.5,-69.2 478.5,-50.2 454.5,-50.2"/>
<polygon fill="none" stroke="#000000" points="454.5,-50.2 454.5,-69.2 478.5,-69.2 478.5,-50.2 454.5,-50.2"/>
<text text-anchor="start" x="457.5" y="-56.3" font-family="Helvetica,sans-Serif" font-size="11.00" fill="#000000">&lt; 1</text>
<polygon fill="#ffffff" stroke="transparent" points="478.5,-50.2 478.5,-69.2 551.5,-69.2 551.5,-50.2 478.5,-50.2"/>
<polygon fill="none" stroke="#000000" points="478.5,-50.2 478.5,-69.2 551.5,-69.2 551.5,-50.2 478.5,-50.2"/>
<text text-anchor="start" x="482.4791" y="-56.3" font-family="Helvetica,sans-Serif" font-size="11.00" fill="#000000">407,444 rows</text>
<polygon fill="#ffffff" stroke="transparent" points="551.5,-50.2 551.5,-69.2 565.5,-69.2 565.5,-50.2 551.5,-50.2"/>
<polygon fill="none" stroke="#000000" points="551.5,-50.2 551.5,-69.2 565.5,-69.2 565.5,-50.2 551.5,-50.2"/>
<text text-anchor="start" x="556.3862" y="-56.3" font-family="Helvetica,sans-Serif" font-size="11.00" fill="#000000"> &#160;</text>
</a>
</g>
</g>
<!-- phone&#45;&gt;account -->
<g id="edge8" class="edge">
<title>phone:w&#45;&gt;account:e</title>
<path fill="none" stroke="#000000" d="M440.5244,-103.1068C417.21,-119.2869 435.285,-180.2 397,-180.2"/>
<polygon fill="#000000" stroke="#000000" points="446.7954,-101.3538 455.4692,-102.6671 450.6477,-100.2769 454.5,-99.2 454.5,-99.2 454.5,-99.2 450.6477,-100.2769 453.5308,-95.7329 446.7954,-101.3538 446.7954,-101.3538"/>
<ellipse fill="none" stroke="#000000" cx="443.7135" cy="-102.2153" rx="3.2" ry="3.2"/>
</g>
</g>
</svg>
