<?xml version="1.0" encoding="UTF-8" standalone="no"?>
<!DOCTYPE svg PUBLIC "-//W3C//DTD SVG 1.1//EN"
 "http://www.w3.org/Graphics/SVG/1.1/DTD/svg11.dtd">
<!-- Generated by graphviz version 2.40.1 (20161225.0304)
 -->
<!-- Title: oneDegreeRelationshipsDiagram Pages: 1 -->
<svg width="381pt" height="223pt"
 viewBox="0.00 0.00 381.00 222.70" xmlns="http://www.w3.org/2000/svg" xmlns:xlink="http://www.w3.org/1999/xlink">
<g id="graph0" class="graph" transform="scale(1 1) rotate(0) translate(4 218.7)">
<title>oneDegreeRelationshipsDiagram</title>
<polygon fill="#ffffff" stroke="transparent" points="-4,4 -4,-218.7 377,-218.7 377,4 -4,4"/>
<text text-anchor="middle" x="72.4936" y="-7.3" font-family="Helvetica,sans-Serif" font-size="11.00" fill="#000000">Generated by SchemaSpy</text>
<!-- flight -->
<g id="node1" class="node">
<title>flight</title>
<g id="a_node1"><a xlink:href="../../tables/flight.html" xlink:title="flight" target="_top">
<polygon fill="#ffffff" stroke="transparent" points="218,-38.2 218,-187.2 365,-187.2 365,-38.2 218,-38.2"/>
<polygon fill="#f5f5f5" stroke="transparent" points="218.5,-163.7 218.5,-186.7 365.5,-186.7 365.5,-163.7 218.5,-163.7"/>
<polygon fill="none" stroke="#000000" points="218.5,-163.7 218.5,-186.7 365.5,-186.7 365.5,-163.7 218.5,-163.7"/>
<text text-anchor="start" x="223.5" y="-172.3" font-family="Helvetica,sans-Serif" font-weight="bold" font-size="11.00" fill="#000000">flight</text>
<text text-anchor="start" x="330.5437" y="-171.8" font-family="Helvetica,sans-Serif" font-size="11.00" fill="#000000">[table]</text>
<polygon fill="none" stroke="#000000" points="218.5,-141.7 218.5,-163.7 365.5,-163.7 365.5,-141.7 218.5,-141.7"/>
<image xlink:href="../../images/primaryKeys.png" width="11px" height="12px" preserveAspectRatio="xMinYMin meet" x="223.5" y="-158.7"/>
<text text-anchor="start" x="238.5" y="-148.8" font-family="Helvetica,sans-Serif" font-size="11.00" fill="#000000">flight_id</text>
<polygon fill="none" stroke="#000000" points="218.5,-119.7 218.5,-141.7 365.5,-141.7 365.5,-119.7 218.5,-119.7"/>
<image xlink:href="../../images/foreignKeys.png" width="11px" height="12px" preserveAspectRatio="xMinYMin meet" x="223.5" y="-136.7"/>
<text text-anchor="start" x="238.5" y="-126.8" font-family="Helvetica,sans-Serif" font-size="11.00" fill="#000000">departure_airport</text>
<polygon fill="none" stroke="#000000" points="218.5,-97.7 218.5,-119.7 365.5,-119.7 365.5,-97.7 218.5,-97.7"/>
<image xlink:href="../../images/foreignKeys.png" width="11px" height="12px" preserveAspectRatio="xMinYMin meet" x="223.5" y="-114.7"/>
<text text-anchor="start" x="238.5" y="-104.8" font-family="Helvetica,sans-Serif" font-size="11.00" fill="#000000">arrival_airport</text>
<polygon fill="none" stroke="#000000" points="218.5,-75.7 218.5,-97.7 365.5,-97.7 365.5,-75.7 218.5,-75.7"/>
<image xlink:href="../../images/foreignKeys.png" width="11px" height="12px" preserveAspectRatio="xMinYMin meet" x="223.5" y="-92.7"/>
<text text-anchor="start" x="238.5" y="-82.8" font-family="Helvetica,sans-Serif" font-size="11.00" fill="#000000">aircraft_code</text>
<polygon fill="none" stroke="#000000" points="218.5,-56.7 218.5,-75.7 365.5,-75.7 365.5,-56.7 218.5,-56.7"/>
<text text-anchor="start" x="221.5" y="-62.8" font-family="Helvetica,sans-Serif" font-size="11.00" fill="#000000">...</text>
<polygon fill="#ffffff" stroke="transparent" points="218.5,-37.7 218.5,-56.7 255.5,-56.7 255.5,-37.7 218.5,-37.7"/>
<polygon fill="none" stroke="#000000" points="218.5,-37.7 218.5,-56.7 255.5,-56.7 255.5,-37.7 218.5,-37.7"/>
<text text-anchor="start" x="221.5" y="-43.8" font-family="Helvetica,sans-Serif" font-size="11.00" fill="#000000">&lt; 3</text>
<polygon fill="#ffffff" stroke="transparent" points="255.5,-37.7 255.5,-56.7 335.5,-56.7 335.5,-37.7 255.5,-37.7"/>
<polygon fill="none" stroke="#000000" points="255.5,-37.7 255.5,-56.7 335.5,-56.7 335.5,-37.7 255.5,-37.7"/>
<text text-anchor="start" x="266.4791" y="-43.8" font-family="Helvetica,sans-Serif" font-size="11.00" fill="#000000">683,176 rows</text>
<polygon fill="#ffffff" stroke="transparent" points="335.5,-37.7 335.5,-56.7 365.5,-56.7 365.5,-37.7 335.5,-37.7"/>
<polygon fill="none" stroke="#000000" points="335.5,-37.7 335.5,-56.7 365.5,-56.7 365.5,-37.7 335.5,-37.7"/>
<text text-anchor="start" x="346.9053" y="-43.8" font-family="Helvetica,sans-Serif" font-size="11.00" fill="#000000">1 &gt;</text>
</a>
</g>
</g>
<!-- aircraft -->
<g id="node2" class="node">
<title>aircraft</title>
<g id="a_node2"><a xlink:href="../../tables/aircraft.html" xlink:title="aircraft" target="_top">
<polygon fill="#ffffff" stroke="transparent" points="8,-54.7 8,-210.7 169,-210.7 169,-54.7 8,-54.7"/>
<polygon fill="#f5f5f5" stroke="transparent" points="10.5,-185.7 10.5,-208.7 167.5,-208.7 167.5,-185.7 10.5,-185.7"/>
<polygon fill="none" stroke="#000000" points="10.5,-185.7 10.5,-208.7 167.5,-208.7 167.5,-185.7 10.5,-185.7"/>
<text text-anchor="start" x="15.5" y="-194.3" font-family="Helvetica,sans-Serif" font-weight="bold" font-size="11.00" fill="#000000">aircraft</text>
<text text-anchor="start" x="132.5437" y="-193.8" font-family="Helvetica,sans-Serif" font-size="11.00" fill="#000000">[table]</text>
<polygon fill="none" stroke="#000000" points="10.5,-163.7 10.5,-185.7 77.5,-185.7 77.5,-163.7 10.5,-163.7"/>
<text text-anchor="start" x="30.5" y="-170.8" font-family="Helvetica,sans-Serif" font-size="11.00" fill="#000000">model</text>
<polygon fill="none" stroke="#000000" points="77.5,-163.7 77.5,-185.7 167.5,-185.7 167.5,-163.7 77.5,-163.7"/>
<text text-anchor="start" x="80.0042" y="-171.4" font-family="Helvetica,sans-Serif" font-size="11.00" fill="#000000">text[2147483647]</text>
<polygon fill="none" stroke="#000000" points="10.5,-141.7 10.5,-163.7 77.5,-163.7 77.5,-141.7 10.5,-141.7"/>
<text text-anchor="start" x="30.5" y="-148.8" font-family="Helvetica,sans-Serif" font-size="11.00" fill="#000000">range</text>
<polygon fill="none" stroke="#000000" points="77.5,-141.7 77.5,-163.7 167.5,-163.7 167.5,-141.7 77.5,-141.7"/>
<text text-anchor="start" x="80.5" y="-149.4" font-family="Helvetica,sans-Serif" font-size="11.00" fill="#000000">numeric[0]</text>
<polygon fill="none" stroke="#000000" points="10.5,-119.7 10.5,-141.7 77.5,-141.7 77.5,-119.7 10.5,-119.7"/>
<text text-anchor="start" x="30.5" y="-126.8" font-family="Helvetica,sans-Serif" font-size="11.00" fill="#000000">class</text>
<polygon fill="none" stroke="#000000" points="77.5,-119.7 77.5,-141.7 167.5,-141.7 167.5,-119.7 77.5,-119.7"/>
<text text-anchor="start" x="80.5" y="-127.4" font-family="Helvetica,sans-Serif" font-size="11.00" fill="#000000">int4[10]</text>
<polygon fill="none" stroke="#000000" points="10.5,-97.7 10.5,-119.7 77.5,-119.7 77.5,-97.7 10.5,-97.7"/>
<text text-anchor="start" x="30.5" y="-104.8" font-family="Helvetica,sans-Serif" font-size="11.00" fill="#000000">velocity</text>
<polygon fill="none" stroke="#000000" points="77.5,-97.7 77.5,-119.7 167.5,-119.7 167.5,-97.7 77.5,-97.7"/>
<text text-anchor="start" x="80.5" y="-105.4" font-family="Helvetica,sans-Serif" font-size="11.00" fill="#000000">numeric[0]</text>
<polygon fill="none" stroke="#000000" points="10.5,-75.7 10.5,-97.7 77.5,-97.7 77.5,-75.7 10.5,-75.7"/>
<image xlink:href="../../images/primaryKeys.png" width="11px" height="12px" preserveAspectRatio="xMinYMin meet" x="15.5" y="-92.7"/>
<text text-anchor="start" x="30.5" y="-82.8" font-family="Helvetica,sans-Serif" font-size="11.00" fill="#000000">code</text>
<polygon fill="none" stroke="#000000" points="77.5,-75.7 77.5,-97.7 167.5,-97.7 167.5,-75.7 77.5,-75.7"/>
<text text-anchor="start" x="80.0042" y="-83.4" font-family="Helvetica,sans-Serif" font-size="11.00" fill="#000000">text[2147483647]</text>
<polygon fill="#ffffff" stroke="transparent" points="10.5,-56.7 10.5,-75.7 32.5,-75.7 32.5,-56.7 10.5,-56.7"/>
<polygon fill="none" stroke="#000000" points="10.5,-56.7 10.5,-75.7 32.5,-75.7 32.5,-56.7 10.5,-56.7"/>
<text text-anchor="start" x="13.5" y="-62.8" font-family="Helvetica,sans-Serif" font-size="11.00" fill="#000000">&lt; 0</text>
<polygon fill="#ffffff" stroke="transparent" points="32.5,-56.7 32.5,-75.7 77.5,-75.7 77.5,-56.7 32.5,-56.7"/>
<polygon fill="none" stroke="#000000" points="32.5,-56.7 32.5,-75.7 77.5,-75.7 77.5,-56.7 32.5,-56.7"/>
<text text-anchor="start" x="35.9956" y="-62.8" font-family="Helvetica,sans-Serif" font-size="11.00" fill="#000000">12 rows</text>
<polygon fill="#ffffff" stroke="transparent" points="77.5,-56.7 77.5,-75.7 167.5,-75.7 167.5,-56.7 77.5,-56.7"/>
<polygon fill="none" stroke="#000000" points="77.5,-56.7 77.5,-75.7 167.5,-75.7 167.5,-56.7 77.5,-56.7"/>
<text text-anchor="start" x="148.9053" y="-62.8" font-family="Helvetica,sans-Serif" font-size="11.00" fill="#000000">1 &gt;</text>
<polygon fill="none" stroke="#000000" stroke-width="2" points="9,-55.7 9,-209.7 168,-209.7 168,-55.7 9,-55.7"/>
</a>
</g>
</g>
<!-- flight&#45;&gt;aircraft -->
<g id="edge1" class="edge">
<title>flight:w&#45;&gt;aircraft:e</title>
<path fill="none" stroke="#000000" d="M203.776,-86.7C191.7815,-86.7 184.3229,-86.7 167.5,-86.7"/>
<polygon fill="#000000" stroke="#000000" points="210.5,-86.7001 218.5,-90.3 214.5,-86.7 218.5,-86.7 218.5,-86.7 218.5,-86.7 214.5,-86.7 218.5,-83.1 210.5,-86.7001 210.5,-86.7001"/>
<ellipse fill="none" stroke="#000000" cx="207.3" cy="-86.7001" rx="3.2" ry="3.2"/>
</g>
</g>
</svg>
