<?xml version="1.0" encoding="UTF-8" standalone="no"?>
<!DOCTYPE svg PUBLIC "-//W3C//DTD SVG 1.1//EN"
 "http://www.w3.org/Graphics/SVG/1.1/DTD/svg11.dtd">
<!-- Generated by graphviz version 2.40.1 (20161225.0304)
 -->
<!-- Title: twoDegreesRelationshipsDiagram Pages: 1 -->
<svg width="559pt" height="312pt"
 viewBox="0.00 0.00 559.00 311.70" xmlns="http://www.w3.org/2000/svg" xmlns:xlink="http://www.w3.org/1999/xlink">
<g id="graph0" class="graph" transform="scale(1 1) rotate(0) translate(4 307.7)">
<title>twoDegreesRelationshipsDiagram</title>
<polygon fill="#ffffff" stroke="transparent" points="-4,4 -4,-307.7 555,-307.7 555,4 -4,4"/>
<text text-anchor="middle" x="72.4936" y="-7.3" font-family="Helvetica,sans-Serif" font-size="11.00" fill="#000000">Generated by SchemaSpy</text>
<!-- booking_leg -->
<g id="node1" class="node">
<title>booking_leg</title>
<g id="a_node1"><a xlink:href="../../tables/booking_leg.html" xlink:title="booking_leg" target="_top">
<polygon fill="#ffffff" stroke="transparent" points="414,-237.7 414,-298.7 543,-298.7 543,-237.7 414,-237.7"/>
<polygon fill="#f5f5f5" stroke="transparent" points="414.5,-275.2 414.5,-298.2 543.5,-298.2 543.5,-275.2 414.5,-275.2"/>
<polygon fill="none" stroke="#000000" points="414.5,-275.2 414.5,-298.2 543.5,-298.2 543.5,-275.2 414.5,-275.2"/>
<text text-anchor="start" x="419.5" y="-283.8" font-family="Helvetica,sans-Serif" font-weight="bold" font-size="11.00" fill="#000000">booking_leg</text>
<text text-anchor="start" x="508.5437" y="-283.3" font-family="Helvetica,sans-Serif" font-size="11.00" fill="#000000">[table]</text>
<polygon fill="none" stroke="#000000" points="414.5,-256.2 414.5,-275.2 543.5,-275.2 543.5,-256.2 414.5,-256.2"/>
<text text-anchor="start" x="417.5" y="-262.3" font-family="Helvetica,sans-Serif" font-size="11.00" fill="#000000">...</text>
<polygon fill="#ffffff" stroke="transparent" points="414.5,-237.2 414.5,-256.2 435.5,-256.2 435.5,-237.2 414.5,-237.2"/>
<polygon fill="none" stroke="#000000" points="414.5,-237.2 414.5,-256.2 435.5,-256.2 435.5,-237.2 414.5,-237.2"/>
<text text-anchor="start" x="417.2027" y="-243.3" font-family="Helvetica,sans-Serif" font-size="11.00" fill="#000000">&lt; 2</text>
<polygon fill="#ffffff" stroke="transparent" points="435.5,-237.2 435.5,-256.2 522.5,-256.2 522.5,-237.2 435.5,-237.2"/>
<polygon fill="none" stroke="#000000" points="435.5,-237.2 435.5,-256.2 522.5,-256.2 522.5,-237.2 435.5,-237.2"/>
<text text-anchor="start" x="438.3462" y="-243.3" font-family="Helvetica,sans-Serif" font-size="11.00" fill="#000000">17,894,232 rows</text>
<polygon fill="#ffffff" stroke="transparent" points="522.5,-237.2 522.5,-256.2 543.5,-256.2 543.5,-237.2 522.5,-237.2"/>
<polygon fill="none" stroke="#000000" points="522.5,-237.2 522.5,-256.2 543.5,-256.2 543.5,-237.2 522.5,-237.2"/>
<text text-anchor="start" x="525.2026" y="-243.3" font-family="Helvetica,sans-Serif" font-size="11.00" fill="#000000">1 &gt;</text>
</a>
</g>
</g>
<!-- flight -->
<g id="node2" class="node">
<title>flight</title>
<g id="a_node2"><a xlink:href="../../tables/flight.html" xlink:title="flight" target="_top">
<polygon fill="#ffffff" stroke="transparent" points="218,-150.7 218,-299.7 365,-299.7 365,-150.7 218,-150.7"/>
<polygon fill="#f5f5f5" stroke="transparent" points="218.5,-276.2 218.5,-299.2 365.5,-299.2 365.5,-276.2 218.5,-276.2"/>
<polygon fill="none" stroke="#000000" points="218.5,-276.2 218.5,-299.2 365.5,-299.2 365.5,-276.2 218.5,-276.2"/>
<text text-anchor="start" x="223.5" y="-284.8" font-family="Helvetica,sans-Serif" font-weight="bold" font-size="11.00" fill="#000000">flight</text>
<text text-anchor="start" x="330.5437" y="-284.3" font-family="Helvetica,sans-Serif" font-size="11.00" fill="#000000">[table]</text>
<polygon fill="none" stroke="#000000" points="218.5,-254.2 218.5,-276.2 365.5,-276.2 365.5,-254.2 218.5,-254.2"/>
<image xlink:href="../../images/primaryKeys.png" width="11px" height="12px" preserveAspectRatio="xMinYMin meet" x="223.5" y="-271.2"/>
<text text-anchor="start" x="238.5" y="-261.3" font-family="Helvetica,sans-Serif" font-size="11.00" fill="#000000">flight_id</text>
<polygon fill="none" stroke="#000000" points="218.5,-232.2 218.5,-254.2 365.5,-254.2 365.5,-232.2 218.5,-232.2"/>
<image xlink:href="../../images/foreignKeys.png" width="11px" height="12px" preserveAspectRatio="xMinYMin meet" x="223.5" y="-249.2"/>
<text text-anchor="start" x="238.5" y="-239.3" font-family="Helvetica,sans-Serif" font-size="11.00" fill="#000000">departure_airport</text>
<polygon fill="none" stroke="#000000" points="218.5,-210.2 218.5,-232.2 365.5,-232.2 365.5,-210.2 218.5,-210.2"/>
<image xlink:href="../../images/foreignKeys.png" width="11px" height="12px" preserveAspectRatio="xMinYMin meet" x="223.5" y="-227.2"/>
<text text-anchor="start" x="238.5" y="-217.3" font-family="Helvetica,sans-Serif" font-size="11.00" fill="#000000">arrival_airport</text>
<polygon fill="none" stroke="#000000" points="218.5,-188.2 218.5,-210.2 365.5,-210.2 365.5,-188.2 218.5,-188.2"/>
<image xlink:href="../../images/foreignKeys.png" width="11px" height="12px" preserveAspectRatio="xMinYMin meet" x="223.5" y="-205.2"/>
<text text-anchor="start" x="238.5" y="-195.3" font-family="Helvetica,sans-Serif" font-size="11.00" fill="#000000">aircraft_code</text>
<polygon fill="none" stroke="#000000" points="218.5,-169.2 218.5,-188.2 365.5,-188.2 365.5,-169.2 218.5,-169.2"/>
<text text-anchor="start" x="221.5" y="-175.3" font-family="Helvetica,sans-Serif" font-size="11.00" fill="#000000">...</text>
<polygon fill="#ffffff" stroke="transparent" points="218.5,-150.2 218.5,-169.2 255.5,-169.2 255.5,-150.2 218.5,-150.2"/>
<polygon fill="none" stroke="#000000" points="218.5,-150.2 218.5,-169.2 255.5,-169.2 255.5,-150.2 218.5,-150.2"/>
<text text-anchor="start" x="221.5" y="-156.3" font-family="Helvetica,sans-Serif" font-size="11.00" fill="#000000">&lt; 3</text>
<polygon fill="#ffffff" stroke="transparent" points="255.5,-150.2 255.5,-169.2 335.5,-169.2 335.5,-150.2 255.5,-150.2"/>
<polygon fill="none" stroke="#000000" points="255.5,-150.2 255.5,-169.2 335.5,-169.2 335.5,-150.2 255.5,-150.2"/>
<text text-anchor="start" x="266.4791" y="-156.3" font-family="Helvetica,sans-Serif" font-size="11.00" fill="#000000">683,176 rows</text>
<polygon fill="#ffffff" stroke="transparent" points="335.5,-150.2 335.5,-169.2 365.5,-169.2 365.5,-150.2 335.5,-150.2"/>
<polygon fill="none" stroke="#000000" points="335.5,-150.2 335.5,-169.2 365.5,-169.2 365.5,-150.2 335.5,-150.2"/>
<text text-anchor="start" x="346.9053" y="-156.3" font-family="Helvetica,sans-Serif" font-size="11.00" fill="#000000">1 &gt;</text>
</a>
</g>
</g>
<!-- booking_leg&#45;&gt;flight -->
<g id="edge1" class="edge">
<title>booking_leg:w&#45;&gt;flight:e</title>
<path fill="none" stroke="#000000" d="M399.9909,-265.2C388.6774,-265.2 381.4931,-265.2 365.5,-265.2"/>
<polygon fill="#000000" stroke="#000000" points="406.5,-265.2001 414.5,-268.8 410.5,-265.2 414.5,-265.2 414.5,-265.2 414.5,-265.2 410.5,-265.2 414.5,-261.6 406.5,-265.2001 406.5,-265.2001"/>
<ellipse fill="none" stroke="#000000" cx="403.3" cy="-265.2001" rx="3.2" ry="3.2"/>
</g>
<!-- aircraft -->
<g id="node3" class="node">
<title>aircraft</title>
<g id="a_node3"><a xlink:href="../../tables/aircraft.html" xlink:title="aircraft" target="_top">
<polygon fill="#ffffff" stroke="transparent" points="8,-38.2 8,-194.2 169,-194.2 169,-38.2 8,-38.2"/>
<polygon fill="#f5f5f5" stroke="transparent" points="10.5,-169.2 10.5,-192.2 167.5,-192.2 167.5,-169.2 10.5,-169.2"/>
<polygon fill="none" stroke="#000000" points="10.5,-169.2 10.5,-192.2 167.5,-192.2 167.5,-169.2 10.5,-169.2"/>
<text text-anchor="start" x="15.5" y="-177.8" font-family="Helvetica,sans-Serif" font-weight="bold" font-size="11.00" fill="#000000">aircraft</text>
<text text-anchor="start" x="132.5437" y="-177.3" font-family="Helvetica,sans-Serif" font-size="11.00" fill="#000000">[table]</text>
<polygon fill="none" stroke="#000000" points="10.5,-147.2 10.5,-169.2 77.5,-169.2 77.5,-147.2 10.5,-147.2"/>
<text text-anchor="start" x="30.5" y="-154.3" font-family="Helvetica,sans-Serif" font-size="11.00" fill="#000000">model</text>
<polygon fill="none" stroke="#000000" points="77.5,-147.2 77.5,-169.2 167.5,-169.2 167.5,-147.2 77.5,-147.2"/>
<text text-anchor="start" x="80.0042" y="-154.9" font-family="Helvetica,sans-Serif" font-size="11.00" fill="#000000">text[2147483647]</text>
<polygon fill="none" stroke="#000000" points="10.5,-125.2 10.5,-147.2 77.5,-147.2 77.5,-125.2 10.5,-125.2"/>
<text text-anchor="start" x="30.5" y="-132.3" font-family="Helvetica,sans-Serif" font-size="11.00" fill="#000000">range</text>
<polygon fill="none" stroke="#000000" points="77.5,-125.2 77.5,-147.2 167.5,-147.2 167.5,-125.2 77.5,-125.2"/>
<text text-anchor="start" x="80.5" y="-132.9" font-family="Helvetica,sans-Serif" font-size="11.00" fill="#000000">numeric[0]</text>
<polygon fill="none" stroke="#000000" points="10.5,-103.2 10.5,-125.2 77.5,-125.2 77.5,-103.2 10.5,-103.2"/>
<text text-anchor="start" x="30.5" y="-110.3" font-family="Helvetica,sans-Serif" font-size="11.00" fill="#000000">class</text>
<polygon fill="none" stroke="#000000" points="77.5,-103.2 77.5,-125.2 167.5,-125.2 167.5,-103.2 77.5,-103.2"/>
<text text-anchor="start" x="80.5" y="-110.9" font-family="Helvetica,sans-Serif" font-size="11.00" fill="#000000">int4[10]</text>
<polygon fill="none" stroke="#000000" points="10.5,-81.2 10.5,-103.2 77.5,-103.2 77.5,-81.2 10.5,-81.2"/>
<text text-anchor="start" x="30.5" y="-88.3" font-family="Helvetica,sans-Serif" font-size="11.00" fill="#000000">velocity</text>
<polygon fill="none" stroke="#000000" points="77.5,-81.2 77.5,-103.2 167.5,-103.2 167.5,-81.2 77.5,-81.2"/>
<text text-anchor="start" x="80.5" y="-88.9" font-family="Helvetica,sans-Serif" font-size="11.00" fill="#000000">numeric[0]</text>
<polygon fill="none" stroke="#000000" points="10.5,-59.2 10.5,-81.2 77.5,-81.2 77.5,-59.2 10.5,-59.2"/>
<image xlink:href="../../images/primaryKeys.png" width="11px" height="12px" preserveAspectRatio="xMinYMin meet" x="15.5" y="-76.2"/>
<text text-anchor="start" x="30.5" y="-66.3" font-family="Helvetica,sans-Serif" font-size="11.00" fill="#000000">code</text>
<polygon fill="none" stroke="#000000" points="77.5,-59.2 77.5,-81.2 167.5,-81.2 167.5,-59.2 77.5,-59.2"/>
<text text-anchor="start" x="80.0042" y="-66.9" font-family="Helvetica,sans-Serif" font-size="11.00" fill="#000000">text[2147483647]</text>
<polygon fill="#ffffff" stroke="transparent" points="10.5,-40.2 10.5,-59.2 32.5,-59.2 32.5,-40.2 10.5,-40.2"/>
<polygon fill="none" stroke="#000000" points="10.5,-40.2 10.5,-59.2 32.5,-59.2 32.5,-40.2 10.5,-40.2"/>
<text text-anchor="start" x="13.5" y="-46.3" font-family="Helvetica,sans-Serif" font-size="11.00" fill="#000000">&lt; 0</text>
<polygon fill="#ffffff" stroke="transparent" points="32.5,-40.2 32.5,-59.2 77.5,-59.2 77.5,-40.2 32.5,-40.2"/>
<polygon fill="none" stroke="#000000" points="32.5,-40.2 32.5,-59.2 77.5,-59.2 77.5,-40.2 32.5,-40.2"/>
<text text-anchor="start" x="35.9956" y="-46.3" font-family="Helvetica,sans-Serif" font-size="11.00" fill="#000000">12 rows</text>
<polygon fill="#ffffff" stroke="transparent" points="77.5,-40.2 77.5,-59.2 167.5,-59.2 167.5,-40.2 77.5,-40.2"/>
<polygon fill="none" stroke="#000000" points="77.5,-40.2 77.5,-59.2 167.5,-59.2 167.5,-40.2 77.5,-40.2"/>
<text text-anchor="start" x="148.9053" y="-46.3" font-family="Helvetica,sans-Serif" font-size="11.00" fill="#000000">1 &gt;</text>
<polygon fill="none" stroke="#000000" stroke-width="2" points="9,-39.2 9,-193.2 168,-193.2 168,-39.2 9,-39.2"/>
</a>
</g>
</g>
<!-- flight&#45;&gt;aircraft -->
<g id="edge2" class="edge">
<title>flight:w&#45;&gt;aircraft:e</title>
<path fill="none" stroke="#000000" d="M204.021,-195.7496C169.6928,-175.2349 223.1307,-70.2 167.5,-70.2"/>
<polygon fill="#000000" stroke="#000000" points="210.7179,-197.3454 217.6654,-202.7019 214.609,-198.2727 218.5,-199.2 218.5,-199.2 218.5,-199.2 214.609,-198.2727 219.3346,-195.6981 210.7179,-197.3454 210.7179,-197.3454"/>
<ellipse fill="none" stroke="#000000" cx="207.6051" cy="-196.6036" rx="3.2" ry="3.2"/>
</g>
<!-- airport -->
<g id="node4" class="node">
<title>airport</title>
<g id="a_node4"><a xlink:href="../../tables/airport.html" xlink:title="airport" target="_top">
<polygon fill="#ffffff" stroke="transparent" points="47,-215.7 47,-276.7 130,-276.7 130,-215.7 47,-215.7"/>
<polygon fill="#f5f5f5" stroke="transparent" points="47.5,-253.2 47.5,-276.2 130.5,-276.2 130.5,-253.2 47.5,-253.2"/>
<polygon fill="none" stroke="#000000" points="47.5,-253.2 47.5,-276.2 130.5,-276.2 130.5,-253.2 47.5,-253.2"/>
<text text-anchor="start" x="52.5" y="-261.8" font-family="Helvetica,sans-Serif" font-weight="bold" font-size="11.00" fill="#000000">airport</text>
<text text-anchor="start" x="95.5437" y="-261.3" font-family="Helvetica,sans-Serif" font-size="11.00" fill="#000000">[table]</text>
<polygon fill="none" stroke="#000000" points="47.5,-234.2 47.5,-253.2 130.5,-253.2 130.5,-234.2 47.5,-234.2"/>
<text text-anchor="start" x="50.5" y="-240.3" font-family="Helvetica,sans-Serif" font-size="11.00" fill="#000000">...</text>
<polygon fill="#ffffff" stroke="transparent" points="47.5,-215.2 47.5,-234.2 59.5,-234.2 59.5,-215.2 47.5,-215.2"/>
<polygon fill="none" stroke="#000000" points="47.5,-215.2 47.5,-234.2 59.5,-234.2 59.5,-215.2 47.5,-215.2"/>
<text text-anchor="start" x="50.4431" y="-221.3" font-family="Helvetica,sans-Serif" font-size="11.00" fill="#000000"> &#160;</text>
<polygon fill="#ffffff" stroke="transparent" points="59.5,-215.2 59.5,-234.2 109.5,-234.2 109.5,-215.2 59.5,-215.2"/>
<polygon fill="none" stroke="#000000" points="59.5,-215.2 59.5,-234.2 109.5,-234.2 109.5,-215.2 59.5,-215.2"/>
<text text-anchor="start" x="62.1904" y="-221.3" font-family="Helvetica,sans-Serif" font-size="11.00" fill="#000000">666 rows</text>
<polygon fill="#ffffff" stroke="transparent" points="109.5,-215.2 109.5,-234.2 130.5,-234.2 130.5,-215.2 109.5,-215.2"/>
<polygon fill="none" stroke="#000000" points="109.5,-215.2 109.5,-234.2 130.5,-234.2 130.5,-215.2 109.5,-215.2"/>
<text text-anchor="start" x="112.2027" y="-221.3" font-family="Helvetica,sans-Serif" font-size="11.00" fill="#000000">2 &gt;</text>
</a>
</g>
</g>
<!-- flight&#45;&gt;airport -->
<g id="edge3" class="edge">
<title>flight:w&#45;&gt;airport:e</title>
<path fill="none" stroke="#000000" d="M204.026,-222.2611C175.6463,-226.6557 165.4605,-243.2 130.5,-243.2"/>
<polygon fill="#000000" stroke="#000000" points="210.5214,-221.785 218.7632,-224.7904 214.5107,-221.4925 218.5,-221.2 218.5,-221.2 218.5,-221.2 214.5107,-221.4925 218.2368,-217.6096 210.5214,-221.785 210.5214,-221.785"/>
<ellipse fill="none" stroke="#000000" cx="207.33" cy="-222.019" rx="3.2" ry="3.2"/>
</g>
<!-- flight&#45;&gt;airport -->
<g id="edge4" class="edge">
<title>flight:w&#45;&gt;airport:e</title>
<path fill="none" stroke="#000000" d="M203.9533,-243.2C176.167,-243.2 164.2639,-243.2 130.5,-243.2"/>
<polygon fill="#000000" stroke="#000000" points="210.5,-243.2001 218.5,-246.8 214.5,-243.2 218.5,-243.2 218.5,-243.2 218.5,-243.2 214.5,-243.2 218.5,-239.6 210.5,-243.2001 210.5,-243.2001"/>
<ellipse fill="none" stroke="#000000" cx="207.3" cy="-243.2001" rx="3.2" ry="3.2"/>
</g>
</g>
</svg>
