<?xml version="1.0" encoding="UTF-8" standalone="no"?>
<!DOCTYPE svg PUBLIC "-//W3C//DTD SVG 1.1//EN"
 "http://www.w3.org/Graphics/SVG/1.1/DTD/svg11.dtd">
<!-- Generated by graphviz version 2.40.1 (20161225.0304)
 -->
<!-- Title: oneDegreeRelationshipsDiagram Pages: 1 -->
<svg width="417pt" height="326pt"
 viewBox="0.00 0.00 417.00 325.70" xmlns="http://www.w3.org/2000/svg" xmlns:xlink="http://www.w3.org/1999/xlink">
<g id="graph0" class="graph" transform="scale(1 1) rotate(0) translate(4 321.7)">
<title>oneDegreeRelationshipsDiagram</title>
<polygon fill="#ffffff" stroke="transparent" points="-4,4 -4,-321.7 413,-321.7 413,4 -4,4"/>
<text text-anchor="middle" x="72.4936" y="-7.3" font-family="Helvetica,sans-Serif" font-size="11.00" fill="#000000">Generated by SchemaSpy</text>
<!-- flight -->
<g id="node1" class="node">
<title>flight</title>
<g id="a_node1"><a xlink:href="../../tables/flight.html" xlink:title="flight" target="_top">
<polygon fill="#ffffff" stroke="transparent" points="254,-164.7 254,-313.7 401,-313.7 401,-164.7 254,-164.7"/>
<polygon fill="#f5f5f5" stroke="transparent" points="254.5,-290.2 254.5,-313.2 401.5,-313.2 401.5,-290.2 254.5,-290.2"/>
<polygon fill="none" stroke="#000000" points="254.5,-290.2 254.5,-313.2 401.5,-313.2 401.5,-290.2 254.5,-290.2"/>
<text text-anchor="start" x="259.5" y="-298.8" font-family="Helvetica,sans-Serif" font-weight="bold" font-size="11.00" fill="#000000">flight</text>
<text text-anchor="start" x="366.5437" y="-298.3" font-family="Helvetica,sans-Serif" font-size="11.00" fill="#000000">[table]</text>
<polygon fill="none" stroke="#000000" points="254.5,-268.2 254.5,-290.2 401.5,-290.2 401.5,-268.2 254.5,-268.2"/>
<image xlink:href="../../images/primaryKeys.png" width="11px" height="12px" preserveAspectRatio="xMinYMin meet" x="259.5" y="-285.2"/>
<text text-anchor="start" x="274.5" y="-275.3" font-family="Helvetica,sans-Serif" font-size="11.00" fill="#000000">flight_id</text>
<polygon fill="none" stroke="#000000" points="254.5,-246.2 254.5,-268.2 401.5,-268.2 401.5,-246.2 254.5,-246.2"/>
<image xlink:href="../../images/foreignKeys.png" width="11px" height="12px" preserveAspectRatio="xMinYMin meet" x="259.5" y="-263.2"/>
<text text-anchor="start" x="274.5" y="-253.3" font-family="Helvetica,sans-Serif" font-size="11.00" fill="#000000">departure_airport</text>
<polygon fill="none" stroke="#000000" points="254.5,-224.2 254.5,-246.2 401.5,-246.2 401.5,-224.2 254.5,-224.2"/>
<image xlink:href="../../images/foreignKeys.png" width="11px" height="12px" preserveAspectRatio="xMinYMin meet" x="259.5" y="-241.2"/>
<text text-anchor="start" x="274.5" y="-231.3" font-family="Helvetica,sans-Serif" font-size="11.00" fill="#000000">arrival_airport</text>
<polygon fill="none" stroke="#000000" points="254.5,-202.2 254.5,-224.2 401.5,-224.2 401.5,-202.2 254.5,-202.2"/>
<image xlink:href="../../images/foreignKeys.png" width="11px" height="12px" preserveAspectRatio="xMinYMin meet" x="259.5" y="-219.2"/>
<text text-anchor="start" x="274.5" y="-209.3" font-family="Helvetica,sans-Serif" font-size="11.00" fill="#000000">aircraft_code</text>
<polygon fill="none" stroke="#000000" points="254.5,-183.2 254.5,-202.2 401.5,-202.2 401.5,-183.2 254.5,-183.2"/>
<text text-anchor="start" x="257.5" y="-189.3" font-family="Helvetica,sans-Serif" font-size="11.00" fill="#000000">...</text>
<polygon fill="#ffffff" stroke="transparent" points="254.5,-164.2 254.5,-183.2 291.5,-183.2 291.5,-164.2 254.5,-164.2"/>
<polygon fill="none" stroke="#000000" points="254.5,-164.2 254.5,-183.2 291.5,-183.2 291.5,-164.2 254.5,-164.2"/>
<text text-anchor="start" x="257.5" y="-170.3" font-family="Helvetica,sans-Serif" font-size="11.00" fill="#000000">&lt; 3</text>
<polygon fill="#ffffff" stroke="transparent" points="291.5,-164.2 291.5,-183.2 371.5,-183.2 371.5,-164.2 291.5,-164.2"/>
<polygon fill="none" stroke="#000000" points="291.5,-164.2 291.5,-183.2 371.5,-183.2 371.5,-164.2 291.5,-164.2"/>
<text text-anchor="start" x="302.4791" y="-170.3" font-family="Helvetica,sans-Serif" font-size="11.00" fill="#000000">683,176 rows</text>
<polygon fill="#ffffff" stroke="transparent" points="371.5,-164.2 371.5,-183.2 401.5,-183.2 401.5,-164.2 371.5,-164.2"/>
<polygon fill="none" stroke="#000000" points="371.5,-164.2 371.5,-183.2 401.5,-183.2 401.5,-164.2 371.5,-164.2"/>
<text text-anchor="start" x="382.9053" y="-170.3" font-family="Helvetica,sans-Serif" font-size="11.00" fill="#000000">1 &gt;</text>
</a>
</g>
</g>
<!-- airport -->
<g id="node2" class="node">
<title>airport</title>
<g id="a_node2"><a xlink:href="../../tables/airport.html" xlink:title="airport" target="_top">
<polygon fill="#ffffff" stroke="transparent" points="8,-38.2 8,-282.2 205,-282.2 205,-38.2 8,-38.2"/>
<polygon fill="#f5f5f5" stroke="transparent" points="10.5,-257.2 10.5,-280.2 203.5,-280.2 203.5,-257.2 10.5,-257.2"/>
<polygon fill="none" stroke="#000000" points="10.5,-257.2 10.5,-280.2 203.5,-280.2 203.5,-257.2 10.5,-257.2"/>
<text text-anchor="start" x="15.5" y="-265.8" font-family="Helvetica,sans-Serif" font-weight="bold" font-size="11.00" fill="#000000">airport</text>
<text text-anchor="start" x="168.5437" y="-265.3" font-family="Helvetica,sans-Serif" font-size="11.00" fill="#000000">[table]</text>
<polygon fill="none" stroke="#000000" points="10.5,-235.2 10.5,-257.2 111.5,-257.2 111.5,-235.2 10.5,-235.2"/>
<image xlink:href="../../images/primaryKeys.png" width="11px" height="12px" preserveAspectRatio="xMinYMin meet" x="15.5" y="-252.2"/>
<text text-anchor="start" x="30.5" y="-242.3" font-family="Helvetica,sans-Serif" font-size="11.00" fill="#000000">airport_code</text>
<polygon fill="none" stroke="#000000" points="111.5,-235.2 111.5,-257.2 203.5,-257.2 203.5,-235.2 111.5,-235.2"/>
<text text-anchor="start" x="114.5" y="-242.9" font-family="Helvetica,sans-Serif" font-size="11.00" fill="#000000">bpchar[3]</text>
<polygon fill="none" stroke="#000000" points="10.5,-213.2 10.5,-235.2 111.5,-235.2 111.5,-213.2 10.5,-213.2"/>
<text text-anchor="start" x="30.5" y="-220.3" font-family="Helvetica,sans-Serif" font-size="11.00" fill="#000000">airport_name</text>
<polygon fill="none" stroke="#000000" points="111.5,-213.2 111.5,-235.2 203.5,-235.2 203.5,-213.2 111.5,-213.2"/>
<text text-anchor="start" x="114.5" y="-220.9" font-family="Helvetica,sans-Serif" font-size="11.00" fill="#000000">text[2147483647]</text>
<polygon fill="none" stroke="#000000" points="10.5,-191.2 10.5,-213.2 111.5,-213.2 111.5,-191.2 10.5,-191.2"/>
<text text-anchor="start" x="30.5" y="-198.3" font-family="Helvetica,sans-Serif" font-size="11.00" fill="#000000">city</text>
<polygon fill="none" stroke="#000000" points="111.5,-191.2 111.5,-213.2 203.5,-213.2 203.5,-191.2 111.5,-191.2"/>
<text text-anchor="start" x="114.5" y="-198.9" font-family="Helvetica,sans-Serif" font-size="11.00" fill="#000000">text[2147483647]</text>
<polygon fill="none" stroke="#000000" points="10.5,-169.2 10.5,-191.2 111.5,-191.2 111.5,-169.2 10.5,-169.2"/>
<text text-anchor="start" x="30.5" y="-176.3" font-family="Helvetica,sans-Serif" font-size="11.00" fill="#000000">airport_tz</text>
<polygon fill="none" stroke="#000000" points="111.5,-169.2 111.5,-191.2 203.5,-191.2 203.5,-169.2 111.5,-169.2"/>
<text text-anchor="start" x="114.5" y="-176.9" font-family="Helvetica,sans-Serif" font-size="11.00" fill="#000000">text[2147483647]</text>
<polygon fill="none" stroke="#000000" points="10.5,-147.2 10.5,-169.2 111.5,-169.2 111.5,-147.2 10.5,-147.2"/>
<text text-anchor="start" x="30.5" y="-154.3" font-family="Helvetica,sans-Serif" font-size="11.00" fill="#000000">continent</text>
<polygon fill="none" stroke="#000000" points="111.5,-147.2 111.5,-169.2 203.5,-169.2 203.5,-147.2 111.5,-147.2"/>
<text text-anchor="start" x="114.5" y="-154.9" font-family="Helvetica,sans-Serif" font-size="11.00" fill="#000000">text[2147483647]</text>
<polygon fill="none" stroke="#000000" points="10.5,-125.2 10.5,-147.2 111.5,-147.2 111.5,-125.2 10.5,-125.2"/>
<text text-anchor="start" x="30.5" y="-132.3" font-family="Helvetica,sans-Serif" font-size="11.00" fill="#000000">iso_country</text>
<polygon fill="none" stroke="#000000" points="111.5,-125.2 111.5,-147.2 203.5,-147.2 203.5,-125.2 111.5,-125.2"/>
<text text-anchor="start" x="114.5" y="-132.9" font-family="Helvetica,sans-Serif" font-size="11.00" fill="#000000">text[2147483647]</text>
<polygon fill="none" stroke="#000000" points="10.5,-103.2 10.5,-125.2 111.5,-125.2 111.5,-103.2 10.5,-103.2"/>
<text text-anchor="start" x="30.5" y="-110.3" font-family="Helvetica,sans-Serif" font-size="11.00" fill="#000000">iso_region</text>
<polygon fill="none" stroke="#000000" points="111.5,-103.2 111.5,-125.2 203.5,-125.2 203.5,-103.2 111.5,-103.2"/>
<text text-anchor="start" x="114.5" y="-110.9" font-family="Helvetica,sans-Serif" font-size="11.00" fill="#000000">text[2147483647]</text>
<polygon fill="none" stroke="#000000" points="10.5,-81.2 10.5,-103.2 111.5,-103.2 111.5,-81.2 10.5,-81.2"/>
<text text-anchor="start" x="30.5" y="-88.3" font-family="Helvetica,sans-Serif" font-size="11.00" fill="#000000">intnl</text>
<polygon fill="none" stroke="#000000" points="111.5,-81.2 111.5,-103.2 203.5,-103.2 203.5,-81.2 111.5,-81.2"/>
<text text-anchor="start" x="114.5" y="-88.9" font-family="Helvetica,sans-Serif" font-size="11.00" fill="#000000">bool[1]</text>
<polygon fill="none" stroke="#000000" points="10.5,-59.2 10.5,-81.2 111.5,-81.2 111.5,-59.2 10.5,-59.2"/>
<text text-anchor="start" x="30.5" y="-66.3" font-family="Helvetica,sans-Serif" font-size="11.00" fill="#000000">update_ts</text>
<polygon fill="none" stroke="#000000" points="111.5,-59.2 111.5,-81.2 203.5,-81.2 203.5,-59.2 111.5,-59.2"/>
<text text-anchor="start" x="114.1023" y="-66.9" font-family="Helvetica,sans-Serif" font-size="11.00" fill="#000000">timestamptz[35,6]</text>
<polygon fill="#ffffff" stroke="transparent" points="10.5,-40.2 10.5,-59.2 46.5,-59.2 46.5,-40.2 10.5,-40.2"/>
<polygon fill="none" stroke="#000000" points="10.5,-40.2 10.5,-59.2 46.5,-59.2 46.5,-40.2 10.5,-40.2"/>
<text text-anchor="start" x="13.5" y="-46.3" font-family="Helvetica,sans-Serif" font-size="11.00" fill="#000000">&lt; 0</text>
<polygon fill="#ffffff" stroke="transparent" points="46.5,-40.2 46.5,-59.2 111.5,-59.2 111.5,-40.2 46.5,-40.2"/>
<polygon fill="none" stroke="#000000" points="46.5,-40.2 46.5,-59.2 111.5,-59.2 111.5,-40.2 46.5,-40.2"/>
<text text-anchor="start" x="63.8807" y="-46.3" font-family="Helvetica,sans-Serif" font-size="11.00" fill="#000000">666 rows</text>
<polygon fill="#ffffff" stroke="transparent" points="111.5,-40.2 111.5,-59.2 203.5,-59.2 203.5,-40.2 111.5,-40.2"/>
<polygon fill="none" stroke="#000000" points="111.5,-40.2 111.5,-59.2 203.5,-59.2 203.5,-40.2 111.5,-40.2"/>
<text text-anchor="start" x="184.9053" y="-46.3" font-family="Helvetica,sans-Serif" font-size="11.00" fill="#000000">2 &gt;</text>
<polygon fill="none" stroke="#000000" stroke-width="2" points="9,-39.2 9,-281.2 204,-281.2 204,-39.2 9,-39.2"/>
</a>
</g>
</g>
<!-- flight&#45;&gt;airport -->
<g id="edge1" class="edge">
<title>flight:w&#45;&gt;airport:e</title>
<path fill="none" stroke="#000000" d="M240.0097,-236.9188C227.8398,-240.0125 220.8909,-246.2 203.5,-246.2"/>
<polygon fill="#000000" stroke="#000000" points="246.5557,-236.1424 254.9241,-238.7749 250.5278,-235.6712 254.5,-235.2 254.5,-235.2 254.5,-235.2 250.5278,-235.6712 254.0759,-231.6251 246.5557,-236.1424 246.5557,-236.1424"/>
<ellipse fill="none" stroke="#000000" cx="243.378" cy="-236.5193" rx="3.2" ry="3.2"/>
</g>
<!-- flight&#45;&gt;airport -->
<g id="edge2" class="edge">
<title>flight:w&#45;&gt;airport:e</title>
<path fill="none" stroke="#000000" d="M240.0097,-255.4813C227.8398,-252.3875 220.8909,-246.2 203.5,-246.2"/>
<polygon fill="#000000" stroke="#000000" points="246.5557,-256.2576 254.0759,-260.7749 250.5278,-256.7288 254.5,-257.2 254.5,-257.2 254.5,-257.2 250.5278,-256.7288 254.9241,-253.6251 246.5557,-256.2576 246.5557,-256.2576"/>
<ellipse fill="none" stroke="#000000" cx="243.378" cy="-255.8807" rx="3.2" ry="3.2"/>
</g>
</g>
</svg>
