<?xml version="1.0" encoding="UTF-8" standalone="no"?>
<!DOCTYPE svg PUBLIC "-//W3C//DTD SVG 1.1//EN"
 "http://www.w3.org/Graphics/SVG/1.1/DTD/svg11.dtd">
<!-- Generated by graphviz version 2.40.1 (20161225.0304)
 -->
<!-- Title: twoDegreesRelationshipsDiagram Pages: 1 -->
<svg width="595pt" height="397pt"
 viewBox="0.00 0.00 595.00 397.20" xmlns="http://www.w3.org/2000/svg" xmlns:xlink="http://www.w3.org/1999/xlink">
<g id="graph0" class="graph" transform="scale(1 1) rotate(0) translate(4 393.2)">
<title>twoDegreesRelationshipsDiagram</title>
<polygon fill="#ffffff" stroke="transparent" points="-4,4 -4,-393.2 591,-393.2 591,4 -4,4"/>
<text text-anchor="middle" x="72.4936" y="-7.3" font-family="Helvetica,sans-Serif" font-size="11.00" fill="#000000">Generated by SchemaSpy</text>
<!-- booking_leg -->
<g id="node1" class="node">
<title>booking_leg</title>
<g id="a_node1"><a xlink:href="../../tables/booking_leg.html" xlink:title="booking_leg" target="_top">
<polygon fill="#ffffff" stroke="transparent" points="450,-323.2 450,-384.2 579,-384.2 579,-323.2 450,-323.2"/>
<polygon fill="#f5f5f5" stroke="transparent" points="450.5,-360.7 450.5,-383.7 579.5,-383.7 579.5,-360.7 450.5,-360.7"/>
<polygon fill="none" stroke="#000000" points="450.5,-360.7 450.5,-383.7 579.5,-383.7 579.5,-360.7 450.5,-360.7"/>
<text text-anchor="start" x="455.5" y="-369.3" font-family="Helvetica,sans-Serif" font-weight="bold" font-size="11.00" fill="#000000">booking_leg</text>
<text text-anchor="start" x="544.5437" y="-368.8" font-family="Helvetica,sans-Serif" font-size="11.00" fill="#000000">[table]</text>
<polygon fill="none" stroke="#000000" points="450.5,-341.7 450.5,-360.7 579.5,-360.7 579.5,-341.7 450.5,-341.7"/>
<text text-anchor="start" x="453.5" y="-347.8" font-family="Helvetica,sans-Serif" font-size="11.00" fill="#000000">...</text>
<polygon fill="#ffffff" stroke="transparent" points="450.5,-322.7 450.5,-341.7 471.5,-341.7 471.5,-322.7 450.5,-322.7"/>
<polygon fill="none" stroke="#000000" points="450.5,-322.7 450.5,-341.7 471.5,-341.7 471.5,-322.7 450.5,-322.7"/>
<text text-anchor="start" x="453.2027" y="-328.8" font-family="Helvetica,sans-Serif" font-size="11.00" fill="#000000">&lt; 2</text>
<polygon fill="#ffffff" stroke="transparent" points="471.5,-322.7 471.5,-341.7 558.5,-341.7 558.5,-322.7 471.5,-322.7"/>
<polygon fill="none" stroke="#000000" points="471.5,-322.7 471.5,-341.7 558.5,-341.7 558.5,-322.7 471.5,-322.7"/>
<text text-anchor="start" x="474.3462" y="-328.8" font-family="Helvetica,sans-Serif" font-size="11.00" fill="#000000">17,894,232 rows</text>
<polygon fill="#ffffff" stroke="transparent" points="558.5,-322.7 558.5,-341.7 579.5,-341.7 579.5,-322.7 558.5,-322.7"/>
<polygon fill="none" stroke="#000000" points="558.5,-322.7 558.5,-341.7 579.5,-341.7 579.5,-322.7 558.5,-322.7"/>
<text text-anchor="start" x="561.2026" y="-328.8" font-family="Helvetica,sans-Serif" font-size="11.00" fill="#000000">1 &gt;</text>
</a>
</g>
</g>
<!-- flight -->
<g id="node2" class="node">
<title>flight</title>
<g id="a_node2"><a xlink:href="../../tables/flight.html" xlink:title="flight" target="_top">
<polygon fill="#ffffff" stroke="transparent" points="254,-236.2 254,-385.2 401,-385.2 401,-236.2 254,-236.2"/>
<polygon fill="#f5f5f5" stroke="transparent" points="254.5,-361.7 254.5,-384.7 401.5,-384.7 401.5,-361.7 254.5,-361.7"/>
<polygon fill="none" stroke="#000000" points="254.5,-361.7 254.5,-384.7 401.5,-384.7 401.5,-361.7 254.5,-361.7"/>
<text text-anchor="start" x="259.5" y="-370.3" font-family="Helvetica,sans-Serif" font-weight="bold" font-size="11.00" fill="#000000">flight</text>
<text text-anchor="start" x="366.5437" y="-369.8" font-family="Helvetica,sans-Serif" font-size="11.00" fill="#000000">[table]</text>
<polygon fill="none" stroke="#000000" points="254.5,-339.7 254.5,-361.7 401.5,-361.7 401.5,-339.7 254.5,-339.7"/>
<image xlink:href="../../images/primaryKeys.png" width="11px" height="12px" preserveAspectRatio="xMinYMin meet" x="259.5" y="-356.7"/>
<text text-anchor="start" x="274.5" y="-346.8" font-family="Helvetica,sans-Serif" font-size="11.00" fill="#000000">flight_id</text>
<polygon fill="none" stroke="#000000" points="254.5,-317.7 254.5,-339.7 401.5,-339.7 401.5,-317.7 254.5,-317.7"/>
<image xlink:href="../../images/foreignKeys.png" width="11px" height="12px" preserveAspectRatio="xMinYMin meet" x="259.5" y="-334.7"/>
<text text-anchor="start" x="274.5" y="-324.8" font-family="Helvetica,sans-Serif" font-size="11.00" fill="#000000">departure_airport</text>
<polygon fill="none" stroke="#000000" points="254.5,-295.7 254.5,-317.7 401.5,-317.7 401.5,-295.7 254.5,-295.7"/>
<image xlink:href="../../images/foreignKeys.png" width="11px" height="12px" preserveAspectRatio="xMinYMin meet" x="259.5" y="-312.7"/>
<text text-anchor="start" x="274.5" y="-302.8" font-family="Helvetica,sans-Serif" font-size="11.00" fill="#000000">arrival_airport</text>
<polygon fill="none" stroke="#000000" points="254.5,-273.7 254.5,-295.7 401.5,-295.7 401.5,-273.7 254.5,-273.7"/>
<image xlink:href="../../images/foreignKeys.png" width="11px" height="12px" preserveAspectRatio="xMinYMin meet" x="259.5" y="-290.7"/>
<text text-anchor="start" x="274.5" y="-280.8" font-family="Helvetica,sans-Serif" font-size="11.00" fill="#000000">aircraft_code</text>
<polygon fill="none" stroke="#000000" points="254.5,-254.7 254.5,-273.7 401.5,-273.7 401.5,-254.7 254.5,-254.7"/>
<text text-anchor="start" x="257.5" y="-260.8" font-family="Helvetica,sans-Serif" font-size="11.00" fill="#000000">...</text>
<polygon fill="#ffffff" stroke="transparent" points="254.5,-235.7 254.5,-254.7 291.5,-254.7 291.5,-235.7 254.5,-235.7"/>
<polygon fill="none" stroke="#000000" points="254.5,-235.7 254.5,-254.7 291.5,-254.7 291.5,-235.7 254.5,-235.7"/>
<text text-anchor="start" x="257.5" y="-241.8" font-family="Helvetica,sans-Serif" font-size="11.00" fill="#000000">&lt; 3</text>
<polygon fill="#ffffff" stroke="transparent" points="291.5,-235.7 291.5,-254.7 371.5,-254.7 371.5,-235.7 291.5,-235.7"/>
<polygon fill="none" stroke="#000000" points="291.5,-235.7 291.5,-254.7 371.5,-254.7 371.5,-235.7 291.5,-235.7"/>
<text text-anchor="start" x="302.4791" y="-241.8" font-family="Helvetica,sans-Serif" font-size="11.00" fill="#000000">683,176 rows</text>
<polygon fill="#ffffff" stroke="transparent" points="371.5,-235.7 371.5,-254.7 401.5,-254.7 401.5,-235.7 371.5,-235.7"/>
<polygon fill="none" stroke="#000000" points="371.5,-235.7 371.5,-254.7 401.5,-254.7 401.5,-235.7 371.5,-235.7"/>
<text text-anchor="start" x="382.9053" y="-241.8" font-family="Helvetica,sans-Serif" font-size="11.00" fill="#000000">1 &gt;</text>
</a>
</g>
</g>
<!-- booking_leg&#45;&gt;flight -->
<g id="edge1" class="edge">
<title>booking_leg:w&#45;&gt;flight:e</title>
<path fill="none" stroke="#000000" d="M435.9909,-350.7C424.6774,-350.7 417.4931,-350.7 401.5,-350.7"/>
<polygon fill="#000000" stroke="#000000" points="442.5,-350.7001 450.5,-354.3 446.5,-350.7 450.5,-350.7 450.5,-350.7 450.5,-350.7 446.5,-350.7 450.5,-347.1 442.5,-350.7001 442.5,-350.7001"/>
<ellipse fill="none" stroke="#000000" cx="439.3" cy="-350.7001" rx="3.2" ry="3.2"/>
</g>
<!-- aircraft -->
<g id="node3" class="node">
<title>aircraft</title>
<g id="a_node3"><a xlink:href="../../tables/aircraft.html" xlink:title="aircraft" target="_top">
<polygon fill="#ffffff" stroke="transparent" points="64.5,-38.2 64.5,-99.2 148.5,-99.2 148.5,-38.2 64.5,-38.2"/>
<polygon fill="#f5f5f5" stroke="transparent" points="64.5,-75.7 64.5,-98.7 148.5,-98.7 148.5,-75.7 64.5,-75.7"/>
<polygon fill="none" stroke="#000000" points="64.5,-75.7 64.5,-98.7 148.5,-98.7 148.5,-75.7 64.5,-75.7"/>
<text text-anchor="start" x="69.5" y="-84.3" font-family="Helvetica,sans-Serif" font-weight="bold" font-size="11.00" fill="#000000">aircraft</text>
<text text-anchor="start" x="114.0219" y="-83.8" font-family="Helvetica,sans-Serif" font-size="11.00" fill="#000000">[table]</text>
<polygon fill="none" stroke="#000000" points="64.5,-56.7 64.5,-75.7 148.5,-75.7 148.5,-56.7 64.5,-56.7"/>
<text text-anchor="start" x="67.5" y="-62.8" font-family="Helvetica,sans-Serif" font-size="11.00" fill="#000000">...</text>
<polygon fill="#ffffff" stroke="transparent" points="64.5,-37.7 64.5,-56.7 79.5,-56.7 79.5,-37.7 64.5,-37.7"/>
<polygon fill="none" stroke="#000000" points="64.5,-37.7 64.5,-56.7 79.5,-56.7 79.5,-37.7 64.5,-37.7"/>
<text text-anchor="start" x="67.5" y="-43.8" font-family="Helvetica,sans-Serif" font-size="11.00" fill="#000000"> &#160;</text>
<polygon fill="#ffffff" stroke="transparent" points="79.5,-37.7 79.5,-56.7 125.5,-56.7 125.5,-37.7 79.5,-37.7"/>
<polygon fill="none" stroke="#000000" points="79.5,-37.7 79.5,-56.7 125.5,-56.7 125.5,-37.7 79.5,-37.7"/>
<text text-anchor="start" x="83.9956" y="-43.8" font-family="Helvetica,sans-Serif" font-size="11.00" fill="#000000">12 rows</text>
<polygon fill="#ffffff" stroke="transparent" points="125.5,-37.7 125.5,-56.7 148.5,-56.7 148.5,-37.7 125.5,-37.7"/>
<polygon fill="none" stroke="#000000" points="125.5,-37.7 125.5,-56.7 148.5,-56.7 148.5,-37.7 125.5,-37.7"/>
<text text-anchor="start" x="129.9053" y="-43.8" font-family="Helvetica,sans-Serif" font-size="11.00" fill="#000000">1 &gt;</text>
</a>
</g>
</g>
<!-- flight&#45;&gt;aircraft -->
<g id="edge2" class="edge">
<title>flight:w&#45;&gt;aircraft:e</title>
<path fill="none" stroke="#000000" d="M239.9645,-283.1343C185.7023,-269.5662 255.1136,-170.9297 213,-109.7 193.3348,-81.1084 183.2015,-65.7 148.5,-65.7"/>
<polygon fill="#000000" stroke="#000000" points="246.546,-283.8432 254.1144,-288.2793 250.523,-284.2716 254.5,-284.7 254.5,-284.7 254.5,-284.7 250.523,-284.2716 254.8856,-281.1207 246.546,-283.8432 246.546,-283.8432"/>
<ellipse fill="none" stroke="#000000" cx="243.3644" cy="-283.5004" rx="3.2" ry="3.2"/>
</g>
<!-- airport -->
<g id="node4" class="node">
<title>airport</title>
<g id="a_node4"><a xlink:href="../../tables/airport.html" xlink:title="airport" target="_top">
<polygon fill="#ffffff" stroke="transparent" points="8,-120.7 8,-364.7 205,-364.7 205,-120.7 8,-120.7"/>
<polygon fill="#f5f5f5" stroke="transparent" points="10.5,-339.7 10.5,-362.7 203.5,-362.7 203.5,-339.7 10.5,-339.7"/>
<polygon fill="none" stroke="#000000" points="10.5,-339.7 10.5,-362.7 203.5,-362.7 203.5,-339.7 10.5,-339.7"/>
<text text-anchor="start" x="15.5" y="-348.3" font-family="Helvetica,sans-Serif" font-weight="bold" font-size="11.00" fill="#000000">airport</text>
<text text-anchor="start" x="168.5437" y="-347.8" font-family="Helvetica,sans-Serif" font-size="11.00" fill="#000000">[table]</text>
<polygon fill="none" stroke="#000000" points="10.5,-317.7 10.5,-339.7 111.5,-339.7 111.5,-317.7 10.5,-317.7"/>
<image xlink:href="../../images/primaryKeys.png" width="11px" height="12px" preserveAspectRatio="xMinYMin meet" x="15.5" y="-334.7"/>
<text text-anchor="start" x="30.5" y="-324.8" font-family="Helvetica,sans-Serif" font-size="11.00" fill="#000000">airport_code</text>
<polygon fill="none" stroke="#000000" points="111.5,-317.7 111.5,-339.7 203.5,-339.7 203.5,-317.7 111.5,-317.7"/>
<text text-anchor="start" x="114.5" y="-325.4" font-family="Helvetica,sans-Serif" font-size="11.00" fill="#000000">bpchar[3]</text>
<polygon fill="none" stroke="#000000" points="10.5,-295.7 10.5,-317.7 111.5,-317.7 111.5,-295.7 10.5,-295.7"/>
<text text-anchor="start" x="30.5" y="-302.8" font-family="Helvetica,sans-Serif" font-size="11.00" fill="#000000">airport_name</text>
<polygon fill="none" stroke="#000000" points="111.5,-295.7 111.5,-317.7 203.5,-317.7 203.5,-295.7 111.5,-295.7"/>
<text text-anchor="start" x="114.5" y="-303.4" font-family="Helvetica,sans-Serif" font-size="11.00" fill="#000000">text[2147483647]</text>
<polygon fill="none" stroke="#000000" points="10.5,-273.7 10.5,-295.7 111.5,-295.7 111.5,-273.7 10.5,-273.7"/>
<text text-anchor="start" x="30.5" y="-280.8" font-family="Helvetica,sans-Serif" font-size="11.00" fill="#000000">city</text>
<polygon fill="none" stroke="#000000" points="111.5,-273.7 111.5,-295.7 203.5,-295.7 203.5,-273.7 111.5,-273.7"/>
<text text-anchor="start" x="114.5" y="-281.4" font-family="Helvetica,sans-Serif" font-size="11.00" fill="#000000">text[2147483647]</text>
<polygon fill="none" stroke="#000000" points="10.5,-251.7 10.5,-273.7 111.5,-273.7 111.5,-251.7 10.5,-251.7"/>
<text text-anchor="start" x="30.5" y="-258.8" font-family="Helvetica,sans-Serif" font-size="11.00" fill="#000000">airport_tz</text>
<polygon fill="none" stroke="#000000" points="111.5,-251.7 111.5,-273.7 203.5,-273.7 203.5,-251.7 111.5,-251.7"/>
<text text-anchor="start" x="114.5" y="-259.4" font-family="Helvetica,sans-Serif" font-size="11.00" fill="#000000">text[2147483647]</text>
<polygon fill="none" stroke="#000000" points="10.5,-229.7 10.5,-251.7 111.5,-251.7 111.5,-229.7 10.5,-229.7"/>
<text text-anchor="start" x="30.5" y="-236.8" font-family="Helvetica,sans-Serif" font-size="11.00" fill="#000000">continent</text>
<polygon fill="none" stroke="#000000" points="111.5,-229.7 111.5,-251.7 203.5,-251.7 203.5,-229.7 111.5,-229.7"/>
<text text-anchor="start" x="114.5" y="-237.4" font-family="Helvetica,sans-Serif" font-size="11.00" fill="#000000">text[2147483647]</text>
<polygon fill="none" stroke="#000000" points="10.5,-207.7 10.5,-229.7 111.5,-229.7 111.5,-207.7 10.5,-207.7"/>
<text text-anchor="start" x="30.5" y="-214.8" font-family="Helvetica,sans-Serif" font-size="11.00" fill="#000000">iso_country</text>
<polygon fill="none" stroke="#000000" points="111.5,-207.7 111.5,-229.7 203.5,-229.7 203.5,-207.7 111.5,-207.7"/>
<text text-anchor="start" x="114.5" y="-215.4" font-family="Helvetica,sans-Serif" font-size="11.00" fill="#000000">text[2147483647]</text>
<polygon fill="none" stroke="#000000" points="10.5,-185.7 10.5,-207.7 111.5,-207.7 111.5,-185.7 10.5,-185.7"/>
<text text-anchor="start" x="30.5" y="-192.8" font-family="Helvetica,sans-Serif" font-size="11.00" fill="#000000">iso_region</text>
<polygon fill="none" stroke="#000000" points="111.5,-185.7 111.5,-207.7 203.5,-207.7 203.5,-185.7 111.5,-185.7"/>
<text text-anchor="start" x="114.5" y="-193.4" font-family="Helvetica,sans-Serif" font-size="11.00" fill="#000000">text[2147483647]</text>
<polygon fill="none" stroke="#000000" points="10.5,-163.7 10.5,-185.7 111.5,-185.7 111.5,-163.7 10.5,-163.7"/>
<text text-anchor="start" x="30.5" y="-170.8" font-family="Helvetica,sans-Serif" font-size="11.00" fill="#000000">intnl</text>
<polygon fill="none" stroke="#000000" points="111.5,-163.7 111.5,-185.7 203.5,-185.7 203.5,-163.7 111.5,-163.7"/>
<text text-anchor="start" x="114.5" y="-171.4" font-family="Helvetica,sans-Serif" font-size="11.00" fill="#000000">bool[1]</text>
<polygon fill="none" stroke="#000000" points="10.5,-141.7 10.5,-163.7 111.5,-163.7 111.5,-141.7 10.5,-141.7"/>
<text text-anchor="start" x="30.5" y="-148.8" font-family="Helvetica,sans-Serif" font-size="11.00" fill="#000000">update_ts</text>
<polygon fill="none" stroke="#000000" points="111.5,-141.7 111.5,-163.7 203.5,-163.7 203.5,-141.7 111.5,-141.7"/>
<text text-anchor="start" x="114.1023" y="-149.4" font-family="Helvetica,sans-Serif" font-size="11.00" fill="#000000">timestamptz[35,6]</text>
<polygon fill="#ffffff" stroke="transparent" points="10.5,-122.7 10.5,-141.7 46.5,-141.7 46.5,-122.7 10.5,-122.7"/>
<polygon fill="none" stroke="#000000" points="10.5,-122.7 10.5,-141.7 46.5,-141.7 46.5,-122.7 10.5,-122.7"/>
<text text-anchor="start" x="13.5" y="-128.8" font-family="Helvetica,sans-Serif" font-size="11.00" fill="#000000">&lt; 0</text>
<polygon fill="#ffffff" stroke="transparent" points="46.5,-122.7 46.5,-141.7 111.5,-141.7 111.5,-122.7 46.5,-122.7"/>
<polygon fill="none" stroke="#000000" points="46.5,-122.7 46.5,-141.7 111.5,-141.7 111.5,-122.7 46.5,-122.7"/>
<text text-anchor="start" x="63.8807" y="-128.8" font-family="Helvetica,sans-Serif" font-size="11.00" fill="#000000">666 rows</text>
<polygon fill="#ffffff" stroke="transparent" points="111.5,-122.7 111.5,-141.7 203.5,-141.7 203.5,-122.7 111.5,-122.7"/>
<polygon fill="none" stroke="#000000" points="111.5,-122.7 111.5,-141.7 203.5,-141.7 203.5,-122.7 111.5,-122.7"/>
<text text-anchor="start" x="184.9053" y="-128.8" font-family="Helvetica,sans-Serif" font-size="11.00" fill="#000000">2 &gt;</text>
<polygon fill="none" stroke="#000000" stroke-width="2" points="9,-121.7 9,-363.7 204,-363.7 204,-121.7 9,-121.7"/>
</a>
</g>
</g>
<!-- flight&#45;&gt;airport -->
<g id="edge3" class="edge">
<title>flight:w&#45;&gt;airport:e</title>
<path fill="none" stroke="#000000" d="M240.3489,-309.759C227.7843,-315.804 222.4,-328.7 203.5,-328.7"/>
<polygon fill="#000000" stroke="#000000" points="246.6806,-308.3903 255.2607,-310.2187 250.5903,-307.5452 254.5,-306.7 254.5,-306.7 254.5,-306.7 250.5903,-307.5452 253.7393,-303.1813 246.6806,-308.3903 246.6806,-308.3903"/>
<ellipse fill="none" stroke="#000000" cx="243.5528" cy="-309.0665" rx="3.2" ry="3.2"/>
</g>
<!-- flight&#45;&gt;airport -->
<g id="edge4" class="edge">
<title>flight:w&#45;&gt;airport:e</title>
<path fill="none" stroke="#000000" d="M239.776,-328.7C227.7815,-328.7 220.3229,-328.7 203.5,-328.7"/>
<polygon fill="#000000" stroke="#000000" points="246.5,-328.7001 254.5,-332.3 250.5,-328.7 254.5,-328.7 254.5,-328.7 254.5,-328.7 250.5,-328.7 254.5,-325.1 246.5,-328.7001 246.5,-328.7001"/>
<ellipse fill="none" stroke="#000000" cx="243.3" cy="-328.7001" rx="3.2" ry="3.2"/>
</g>
</g>
</svg>
