<?xml version="1.0" encoding="UTF-8" standalone="no"?>
<!DOCTYPE svg PUBLIC "-//W3C//DTD SVG 1.1//EN"
 "http://www.w3.org/Graphics/SVG/1.1/DTD/svg11.dtd">
<!-- Generated by graphviz version 2.40.1 (20161225.0304)
 -->
<!-- Title: twoDegreesRelationshipsDiagram Pages: 1 -->
<svg width="741pt" height="325pt"
 viewBox="0.00 0.00 741.00 325.20" xmlns="http://www.w3.org/2000/svg" xmlns:xlink="http://www.w3.org/1999/xlink">
<g id="graph0" class="graph" transform="scale(1 1) rotate(0) translate(4 321.2)">
<title>twoDegreesRelationshipsDiagram</title>
<polygon fill="#ffffff" stroke="transparent" points="-4,4 -4,-321.2 737,-321.2 737,4 -4,4"/>
<text text-anchor="middle" x="72.4936" y="-7.3" font-family="Helvetica,sans-Serif" font-size="11.00" fill="#000000">Generated by SchemaSpy</text>
<!-- boarding_pass -->
<g id="node1" class="node">
<title>boarding_pass</title>
<g id="a_node1"><a xlink:href="../../tables/boarding_pass.html" xlink:title="boarding_pass" target="_top">
<polygon fill="#ffffff" stroke="transparent" points="521,-73.7 521,-273.7 725,-273.7 725,-73.7 521,-73.7"/>
<polygon fill="#f5f5f5" stroke="transparent" points="523,-248.7 523,-271.7 723,-271.7 723,-248.7 523,-248.7"/>
<polygon fill="none" stroke="#000000" points="523,-248.7 523,-271.7 723,-271.7 723,-248.7 523,-248.7"/>
<text text-anchor="start" x="528" y="-257.3" font-family="Helvetica,sans-Serif" font-weight="bold" font-size="11.00" fill="#000000">boarding_pass</text>
<text text-anchor="start" x="688.0437" y="-256.8" font-family="Helvetica,sans-Serif" font-size="11.00" fill="#000000">[table]</text>
<polygon fill="none" stroke="#000000" points="523,-226.7 523,-248.7 631,-248.7 631,-226.7 523,-226.7"/>
<image xlink:href="../../images/primaryKeys.png" width="11px" height="12px" preserveAspectRatio="xMinYMin meet" x="528" y="-243.7"/>
<text text-anchor="start" x="544" y="-233.8" font-family="Helvetica,sans-Serif" font-size="11.00" fill="#000000">pass_id</text>
<polygon fill="none" stroke="#000000" points="631,-226.7 631,-248.7 723,-248.7 723,-226.7 631,-226.7"/>
<text text-anchor="start" x="634" y="-234.4" font-family="Helvetica,sans-Serif" font-size="11.00" fill="#000000">serial[10]</text>
<polygon fill="none" stroke="#000000" points="523,-204.7 523,-226.7 631,-226.7 631,-204.7 523,-204.7"/>
<image xlink:href="../../images/foreignKeys.png" width="11px" height="12px" preserveAspectRatio="xMinYMin meet" x="528" y="-221.7"/>
<text text-anchor="start" x="544" y="-211.8" font-family="Helvetica,sans-Serif" font-size="11.00" fill="#000000">passenger_id</text>
<polygon fill="none" stroke="#000000" points="631,-204.7 631,-226.7 723,-226.7 723,-204.7 631,-204.7"/>
<text text-anchor="start" x="634" y="-212.4" font-family="Helvetica,sans-Serif" font-size="11.00" fill="#000000">int8[19]</text>
<polygon fill="none" stroke="#000000" points="523,-182.7 523,-204.7 631,-204.7 631,-182.7 523,-182.7"/>
<image xlink:href="../../images/foreignKeys.png" width="11px" height="12px" preserveAspectRatio="xMinYMin meet" x="528" y="-199.7"/>
<text text-anchor="start" x="544" y="-189.8" font-family="Helvetica,sans-Serif" font-size="11.00" fill="#000000">booking_leg_id</text>
<polygon fill="none" stroke="#000000" points="631,-182.7 631,-204.7 723,-204.7 723,-182.7 631,-182.7"/>
<text text-anchor="start" x="634" y="-190.4" font-family="Helvetica,sans-Serif" font-size="11.00" fill="#000000">int8[19]</text>
<polygon fill="none" stroke="#000000" points="523,-160.7 523,-182.7 631,-182.7 631,-160.7 523,-160.7"/>
<text text-anchor="start" x="544" y="-167.8" font-family="Helvetica,sans-Serif" font-size="11.00" fill="#000000">seat</text>
<polygon fill="none" stroke="#000000" points="631,-160.7 631,-182.7 723,-182.7 723,-160.7 631,-160.7"/>
<text text-anchor="start" x="634" y="-168.4" font-family="Helvetica,sans-Serif" font-size="11.00" fill="#000000">text[2147483647]</text>
<polygon fill="none" stroke="#000000" points="523,-138.7 523,-160.7 631,-160.7 631,-138.7 523,-138.7"/>
<text text-anchor="start" x="544" y="-145.8" font-family="Helvetica,sans-Serif" font-size="11.00" fill="#000000">boarding_time</text>
<polygon fill="none" stroke="#000000" points="631,-138.7 631,-160.7 723,-160.7 723,-138.7 631,-138.7"/>
<text text-anchor="start" x="633.6023" y="-146.4" font-family="Helvetica,sans-Serif" font-size="11.00" fill="#000000">timestamptz[35,6]</text>
<polygon fill="none" stroke="#000000" points="523,-116.7 523,-138.7 631,-138.7 631,-116.7 523,-116.7"/>
<text text-anchor="start" x="544" y="-123.8" font-family="Helvetica,sans-Serif" font-size="11.00" fill="#000000">precheck</text>
<polygon fill="none" stroke="#000000" points="631,-116.7 631,-138.7 723,-138.7 723,-116.7 631,-116.7"/>
<text text-anchor="start" x="634" y="-124.4" font-family="Helvetica,sans-Serif" font-size="11.00" fill="#000000">bool[1]</text>
<polygon fill="none" stroke="#000000" points="523,-94.7 523,-116.7 631,-116.7 631,-94.7 523,-94.7"/>
<text text-anchor="start" x="544" y="-101.8" font-family="Helvetica,sans-Serif" font-size="11.00" fill="#000000">update_ts</text>
<polygon fill="none" stroke="#000000" points="631,-94.7 631,-116.7 723,-116.7 723,-94.7 631,-94.7"/>
<text text-anchor="start" x="633.6023" y="-102.4" font-family="Helvetica,sans-Serif" font-size="11.00" fill="#000000">timestamptz[35,6]</text>
<polygon fill="#ffffff" stroke="transparent" points="523,-75.7 523,-94.7 544,-94.7 544,-75.7 523,-75.7"/>
<polygon fill="none" stroke="#000000" points="523,-75.7 523,-94.7 544,-94.7 544,-75.7 523,-75.7"/>
<text text-anchor="start" x="525.7026" y="-81.8" font-family="Helvetica,sans-Serif" font-size="11.00" fill="#000000">&lt; 2</text>
<polygon fill="#ffffff" stroke="transparent" points="544,-75.7 544,-94.7 631,-94.7 631,-75.7 544,-75.7"/>
<polygon fill="none" stroke="#000000" points="544,-75.7 544,-94.7 631,-94.7 631,-75.7 544,-75.7"/>
<text text-anchor="start" x="546.8462" y="-81.8" font-family="Helvetica,sans-Serif" font-size="11.00" fill="#000000">25,292,472 rows</text>
<polygon fill="#ffffff" stroke="transparent" points="631,-75.7 631,-94.7 723,-94.7 723,-75.7 631,-75.7"/>
<polygon fill="none" stroke="#000000" points="631,-75.7 631,-94.7 723,-94.7 723,-75.7 631,-75.7"/>
<text text-anchor="start" x="704.4053" y="-81.8" font-family="Helvetica,sans-Serif" font-size="11.00" fill="#000000">0 &gt;</text>
<polygon fill="none" stroke="#000000" stroke-width="2" points="522,-74.7 522,-272.7 724,-272.7 724,-74.7 522,-74.7"/>
</a>
</g>
</g>
<!-- booking_leg -->
<g id="node2" class="node">
<title>booking_leg</title>
<g id="a_node2"><a xlink:href="../../tables/booking_leg.html" xlink:title="booking_leg" target="_top">
<polygon fill="#ffffff" stroke="transparent" points="343,-38.2 343,-165.2 472,-165.2 472,-38.2 343,-38.2"/>
<polygon fill="#f5f5f5" stroke="transparent" points="343.5,-141.7 343.5,-164.7 472.5,-164.7 472.5,-141.7 343.5,-141.7"/>
<polygon fill="none" stroke="#000000" points="343.5,-141.7 343.5,-164.7 472.5,-164.7 472.5,-141.7 343.5,-141.7"/>
<text text-anchor="start" x="348.5" y="-150.3" font-family="Helvetica,sans-Serif" font-weight="bold" font-size="11.00" fill="#000000">booking_leg</text>
<text text-anchor="start" x="437.5437" y="-149.8" font-family="Helvetica,sans-Serif" font-size="11.00" fill="#000000">[table]</text>
<polygon fill="none" stroke="#000000" points="343.5,-119.7 343.5,-141.7 472.5,-141.7 472.5,-119.7 343.5,-119.7"/>
<image xlink:href="../../images/primaryKeys.png" width="11px" height="12px" preserveAspectRatio="xMinYMin meet" x="348.5" y="-136.7"/>
<text text-anchor="start" x="374.5" y="-126.8" font-family="Helvetica,sans-Serif" font-size="11.00" fill="#000000">booking_leg_id</text>
<polygon fill="none" stroke="#000000" points="343.5,-97.7 343.5,-119.7 472.5,-119.7 472.5,-97.7 343.5,-97.7"/>
<image xlink:href="../../images/foreignKeys.png" width="11px" height="12px" preserveAspectRatio="xMinYMin meet" x="348.5" y="-114.7"/>
<text text-anchor="start" x="374.5" y="-104.8" font-family="Helvetica,sans-Serif" font-size="11.00" fill="#000000">booking_id</text>
<polygon fill="none" stroke="#000000" points="343.5,-75.7 343.5,-97.7 472.5,-97.7 472.5,-75.7 343.5,-75.7"/>
<image xlink:href="../../images/foreignKeys.png" width="11px" height="12px" preserveAspectRatio="xMinYMin meet" x="348.5" y="-92.7"/>
<text text-anchor="start" x="374.5" y="-82.8" font-family="Helvetica,sans-Serif" font-size="11.00" fill="#000000">flight_id</text>
<polygon fill="none" stroke="#000000" points="343.5,-56.7 343.5,-75.7 472.5,-75.7 472.5,-56.7 343.5,-56.7"/>
<text text-anchor="start" x="346.5" y="-62.8" font-family="Helvetica,sans-Serif" font-size="11.00" fill="#000000">...</text>
<polygon fill="#ffffff" stroke="transparent" points="343.5,-37.7 343.5,-56.7 364.5,-56.7 364.5,-37.7 343.5,-37.7"/>
<polygon fill="none" stroke="#000000" points="343.5,-37.7 343.5,-56.7 364.5,-56.7 364.5,-37.7 343.5,-37.7"/>
<text text-anchor="start" x="346.2027" y="-43.8" font-family="Helvetica,sans-Serif" font-size="11.00" fill="#000000">&lt; 2</text>
<polygon fill="#ffffff" stroke="transparent" points="364.5,-37.7 364.5,-56.7 451.5,-56.7 451.5,-37.7 364.5,-37.7"/>
<polygon fill="none" stroke="#000000" points="364.5,-37.7 364.5,-56.7 451.5,-56.7 451.5,-37.7 364.5,-37.7"/>
<text text-anchor="start" x="367.3462" y="-43.8" font-family="Helvetica,sans-Serif" font-size="11.00" fill="#000000">17,894,232 rows</text>
<polygon fill="#ffffff" stroke="transparent" points="451.5,-37.7 451.5,-56.7 472.5,-56.7 472.5,-37.7 451.5,-37.7"/>
<polygon fill="none" stroke="#000000" points="451.5,-37.7 451.5,-56.7 472.5,-56.7 472.5,-37.7 451.5,-37.7"/>
<text text-anchor="start" x="454.2027" y="-43.8" font-family="Helvetica,sans-Serif" font-size="11.00" fill="#000000">1 &gt;</text>
</a>
</g>
</g>
<!-- boarding_pass&#45;&gt;booking_leg -->
<g id="edge1" class="edge">
<title>boarding_pass:w&#45;&gt;booking_leg:e</title>
<path fill="none" stroke="#000000" d="M508.9816,-188.7565C492.738,-173.9048 502.2175,-130.7 472.5,-130.7"/>
<polygon fill="#000000" stroke="#000000" points="515.4554,-191.0394 521.8027,-197.0951 519.2277,-192.3697 523,-193.7 523,-193.7 523,-193.7 519.2277,-192.3697 524.1973,-190.3049 515.4554,-191.0394 515.4554,-191.0394"/>
<ellipse fill="none" stroke="#000000" cx="512.4375" cy="-189.9752" rx="3.2" ry="3.2"/>
</g>
<!-- passenger -->
<g id="node3" class="node">
<title>passenger</title>
<g id="a_node3"><a xlink:href="../../tables/passenger.html" xlink:title="passenger" target="_top">
<polygon fill="#ffffff" stroke="transparent" points="343,-186.2 343,-313.2 472,-313.2 472,-186.2 343,-186.2"/>
<polygon fill="#f5f5f5" stroke="transparent" points="343.5,-289.7 343.5,-312.7 472.5,-312.7 472.5,-289.7 343.5,-289.7"/>
<polygon fill="none" stroke="#000000" points="343.5,-289.7 343.5,-312.7 472.5,-312.7 472.5,-289.7 343.5,-289.7"/>
<text text-anchor="start" x="348.5" y="-298.3" font-family="Helvetica,sans-Serif" font-weight="bold" font-size="11.00" fill="#000000">passenger</text>
<text text-anchor="start" x="437.5437" y="-297.8" font-family="Helvetica,sans-Serif" font-size="11.00" fill="#000000">[table]</text>
<polygon fill="none" stroke="#000000" points="343.5,-267.7 343.5,-289.7 472.5,-289.7 472.5,-267.7 343.5,-267.7"/>
<image xlink:href="../../images/primaryKeys.png" width="11px" height="12px" preserveAspectRatio="xMinYMin meet" x="348.5" y="-284.7"/>
<text text-anchor="start" x="377.5" y="-274.8" font-family="Helvetica,sans-Serif" font-size="11.00" fill="#000000">passenger_id</text>
<polygon fill="none" stroke="#000000" points="343.5,-245.7 343.5,-267.7 472.5,-267.7 472.5,-245.7 343.5,-245.7"/>
<image xlink:href="../../images/foreignKeys.png" width="11px" height="12px" preserveAspectRatio="xMinYMin meet" x="348.5" y="-262.7"/>
<text text-anchor="start" x="377.5" y="-252.8" font-family="Helvetica,sans-Serif" font-size="11.00" fill="#000000">booking_id</text>
<polygon fill="none" stroke="#000000" points="343.5,-223.7 343.5,-245.7 472.5,-245.7 472.5,-223.7 343.5,-223.7"/>
<image xlink:href="../../images/foreignKeys.png" width="11px" height="12px" preserveAspectRatio="xMinYMin meet" x="348.5" y="-240.7"/>
<text text-anchor="start" x="377.5" y="-230.8" font-family="Helvetica,sans-Serif" font-size="11.00" fill="#000000">account_id</text>
<polygon fill="none" stroke="#000000" points="343.5,-204.7 343.5,-223.7 472.5,-223.7 472.5,-204.7 343.5,-204.7"/>
<text text-anchor="start" x="346.5" y="-210.8" font-family="Helvetica,sans-Serif" font-size="11.00" fill="#000000">...</text>
<polygon fill="#ffffff" stroke="transparent" points="343.5,-185.7 343.5,-204.7 364.5,-204.7 364.5,-185.7 343.5,-185.7"/>
<polygon fill="none" stroke="#000000" points="343.5,-185.7 343.5,-204.7 364.5,-204.7 364.5,-185.7 343.5,-185.7"/>
<text text-anchor="start" x="346.2027" y="-191.8" font-family="Helvetica,sans-Serif" font-size="11.00" fill="#000000">&lt; 2</text>
<polygon fill="#ffffff" stroke="transparent" points="364.5,-185.7 364.5,-204.7 451.5,-204.7 451.5,-185.7 364.5,-185.7"/>
<polygon fill="none" stroke="#000000" points="364.5,-185.7 364.5,-204.7 451.5,-204.7 451.5,-185.7 364.5,-185.7"/>
<text text-anchor="start" x="367.3462" y="-191.8" font-family="Helvetica,sans-Serif" font-size="11.00" fill="#000000">16,312,143 rows</text>
<polygon fill="#ffffff" stroke="transparent" points="451.5,-185.7 451.5,-204.7 472.5,-204.7 472.5,-185.7 451.5,-185.7"/>
<polygon fill="none" stroke="#000000" points="451.5,-185.7 451.5,-204.7 472.5,-204.7 472.5,-185.7 451.5,-185.7"/>
<text text-anchor="start" x="454.2027" y="-191.8" font-family="Helvetica,sans-Serif" font-size="11.00" fill="#000000">1 &gt;</text>
</a>
</g>
</g>
<!-- boarding_pass&#45;&gt;passenger -->
<g id="edge2" class="edge">
<title>boarding_pass:w&#45;&gt;passenger:e</title>
<path fill="none" stroke="#000000" d="M508.9816,-220.6435C492.738,-235.4952 502.2175,-278.7 472.5,-278.7"/>
<polygon fill="#000000" stroke="#000000" points="515.4554,-218.3606 524.1973,-219.0951 519.2277,-217.0303 523,-215.7 523,-215.7 523,-215.7 519.2277,-217.0303 521.8027,-212.3049 515.4554,-218.3606 515.4554,-218.3606"/>
<ellipse fill="none" stroke="#000000" cx="512.4375" cy="-219.4248" rx="3.2" ry="3.2"/>
</g>
<!-- booking -->
<g id="node4" class="node">
<title>booking</title>
<g id="a_node4"><a xlink:href="../../tables/booking.html" xlink:title="booking" target="_top">
<polygon fill="#ffffff" stroke="transparent" points="171,-149.2 171,-210.2 294,-210.2 294,-149.2 171,-149.2"/>
<polygon fill="#f5f5f5" stroke="transparent" points="171.5,-186.7 171.5,-209.7 294.5,-209.7 294.5,-186.7 171.5,-186.7"/>
<polygon fill="none" stroke="#000000" points="171.5,-186.7 171.5,-209.7 294.5,-209.7 294.5,-186.7 171.5,-186.7"/>
<text text-anchor="start" x="176.5" y="-195.3" font-family="Helvetica,sans-Serif" font-weight="bold" font-size="11.00" fill="#000000">booking</text>
<text text-anchor="start" x="259.5437" y="-194.8" font-family="Helvetica,sans-Serif" font-size="11.00" fill="#000000">[table]</text>
<polygon fill="none" stroke="#000000" points="171.5,-167.7 171.5,-186.7 294.5,-186.7 294.5,-167.7 171.5,-167.7"/>
<text text-anchor="start" x="174.5" y="-173.8" font-family="Helvetica,sans-Serif" font-size="11.00" fill="#000000">...</text>
<polygon fill="#ffffff" stroke="transparent" points="171.5,-148.7 171.5,-167.7 192.5,-167.7 192.5,-148.7 171.5,-148.7"/>
<polygon fill="none" stroke="#000000" points="171.5,-148.7 171.5,-167.7 192.5,-167.7 192.5,-148.7 171.5,-148.7"/>
<text text-anchor="start" x="174.2027" y="-154.8" font-family="Helvetica,sans-Serif" font-size="11.00" fill="#000000">&lt; 1</text>
<polygon fill="#ffffff" stroke="transparent" points="192.5,-148.7 192.5,-167.7 273.5,-167.7 273.5,-148.7 192.5,-148.7"/>
<polygon fill="none" stroke="#000000" points="192.5,-148.7 192.5,-167.7 273.5,-167.7 273.5,-148.7 192.5,-148.7"/>
<text text-anchor="start" x="195.4037" y="-154.8" font-family="Helvetica,sans-Serif" font-size="11.00" fill="#000000">5,643,687 rows</text>
<polygon fill="#ffffff" stroke="transparent" points="273.5,-148.7 273.5,-167.7 294.5,-167.7 294.5,-148.7 273.5,-148.7"/>
<polygon fill="none" stroke="#000000" points="273.5,-148.7 273.5,-167.7 294.5,-167.7 294.5,-148.7 273.5,-148.7"/>
<text text-anchor="start" x="276.2027" y="-154.8" font-family="Helvetica,sans-Serif" font-size="11.00" fill="#000000">2 &gt;</text>
</a>
</g>
</g>
<!-- booking_leg&#45;&gt;booking -->
<g id="edge4" class="edge">
<title>booking_leg:w&#45;&gt;booking:e</title>
<path fill="none" stroke="#000000" d="M329.6785,-113.5904C312.9277,-129.1822 325.6397,-176.7 294.5,-176.7"/>
<polygon fill="#000000" stroke="#000000" points="335.9582,-111.3685 344.7008,-112.0938 339.7291,-110.0343 343.5,-108.7 343.5,-108.7 343.5,-108.7 339.7291,-110.0343 342.2992,-105.3062 335.9582,-111.3685 335.9582,-111.3685"/>
<ellipse fill="none" stroke="#000000" cx="332.9414" cy="-112.4359" rx="3.2" ry="3.2"/>
</g>
<!-- flight -->
<g id="node6" class="node">
<title>flight</title>
<g id="a_node6"><a xlink:href="../../tables/flight.html" xlink:title="flight" target="_top">
<polygon fill="#ffffff" stroke="transparent" points="175.5,-59.2 175.5,-120.2 289.5,-120.2 289.5,-59.2 175.5,-59.2"/>
<polygon fill="#f5f5f5" stroke="transparent" points="175.5,-96.7 175.5,-119.7 289.5,-119.7 289.5,-96.7 175.5,-96.7"/>
<polygon fill="none" stroke="#000000" points="175.5,-96.7 175.5,-119.7 289.5,-119.7 289.5,-96.7 175.5,-96.7"/>
<text text-anchor="start" x="180.5" y="-105.3" font-family="Helvetica,sans-Serif" font-weight="bold" font-size="11.00" fill="#000000">flight</text>
<text text-anchor="start" x="254.5437" y="-104.8" font-family="Helvetica,sans-Serif" font-size="11.00" fill="#000000">[table]</text>
<polygon fill="none" stroke="#000000" points="175.5,-77.7 175.5,-96.7 289.5,-96.7 289.5,-77.7 175.5,-77.7"/>
<text text-anchor="start" x="178.5" y="-83.8" font-family="Helvetica,sans-Serif" font-size="11.00" fill="#000000">...</text>
<polygon fill="#ffffff" stroke="transparent" points="175.5,-58.7 175.5,-77.7 196.5,-77.7 196.5,-58.7 175.5,-58.7"/>
<polygon fill="none" stroke="#000000" points="175.5,-58.7 175.5,-77.7 196.5,-77.7 196.5,-58.7 175.5,-58.7"/>
<text text-anchor="start" x="178.2027" y="-64.8" font-family="Helvetica,sans-Serif" font-size="11.00" fill="#000000">&lt; 3</text>
<polygon fill="#ffffff" stroke="transparent" points="196.5,-58.7 196.5,-77.7 268.5,-77.7 268.5,-58.7 196.5,-58.7"/>
<polygon fill="none" stroke="#000000" points="196.5,-58.7 196.5,-77.7 268.5,-77.7 268.5,-58.7 196.5,-58.7"/>
<text text-anchor="start" x="199.4896" y="-64.8" font-family="Helvetica,sans-Serif" font-size="11.00" fill="#000000">683,176 rows</text>
<polygon fill="#ffffff" stroke="transparent" points="268.5,-58.7 268.5,-77.7 289.5,-77.7 289.5,-58.7 268.5,-58.7"/>
<polygon fill="none" stroke="#000000" points="268.5,-58.7 268.5,-77.7 289.5,-77.7 289.5,-58.7 268.5,-58.7"/>
<text text-anchor="start" x="271.2027" y="-64.8" font-family="Helvetica,sans-Serif" font-size="11.00" fill="#000000">1 &gt;</text>
</a>
</g>
</g>
<!-- booking_leg&#45;&gt;flight -->
<g id="edge5" class="edge">
<title>booking_leg:w&#45;&gt;flight:e</title>
<path fill="none" stroke="#000000" d="M328.7185,-86.7C315.538,-86.7 307.6875,-86.7 289.5,-86.7"/>
<polygon fill="#000000" stroke="#000000" points="335.5,-86.7001 343.5,-90.3 339.5,-86.7 343.5,-86.7 343.5,-86.7 343.5,-86.7 339.5,-86.7 343.5,-83.1 335.5,-86.7001 335.5,-86.7001"/>
<ellipse fill="none" stroke="#000000" cx="332.3" cy="-86.7001" rx="3.2" ry="3.2"/>
</g>
<!-- passenger&#45;&gt;booking -->
<g id="edge7" class="edge">
<title>passenger:w&#45;&gt;booking:e</title>
<path fill="none" stroke="#000000" d="M329.73,-252.1696C310.1565,-235.2461 330.1687,-176.7 294.5,-176.7"/>
<polygon fill="#000000" stroke="#000000" points="335.9007,-254.1998 342.3749,-260.1197 339.7004,-255.4499 343.5,-256.7 343.5,-256.7 343.5,-256.7 339.7004,-255.4499 344.6251,-253.2803 335.9007,-254.1998 335.9007,-254.1998"/>
<ellipse fill="none" stroke="#000000" cx="332.861" cy="-253.1997" rx="3.2" ry="3.2"/>
</g>
<!-- account -->
<g id="node5" class="node">
<title>account</title>
<g id="a_node5"><a xlink:href="../../tables/account.html" xlink:title="account" target="_top">
<polygon fill="#ffffff" stroke="transparent" points="8,-178.2 8,-239.2 122,-239.2 122,-178.2 8,-178.2"/>
<polygon fill="#f5f5f5" stroke="transparent" points="8,-215.7 8,-238.7 122,-238.7 122,-215.7 8,-215.7"/>
<polygon fill="none" stroke="#000000" points="8,-215.7 8,-238.7 122,-238.7 122,-215.7 8,-215.7"/>
<text text-anchor="start" x="13" y="-224.3" font-family="Helvetica,sans-Serif" font-weight="bold" font-size="11.00" fill="#000000">account</text>
<text text-anchor="start" x="87.0437" y="-223.8" font-family="Helvetica,sans-Serif" font-size="11.00" fill="#000000">[table]</text>
<polygon fill="none" stroke="#000000" points="8,-196.7 8,-215.7 122,-215.7 122,-196.7 8,-196.7"/>
<text text-anchor="start" x="11" y="-202.8" font-family="Helvetica,sans-Serif" font-size="11.00" fill="#000000">...</text>
<polygon fill="#ffffff" stroke="transparent" points="8,-177.7 8,-196.7 29,-196.7 29,-177.7 8,-177.7"/>
<polygon fill="none" stroke="#000000" points="8,-177.7 8,-196.7 29,-196.7 29,-177.7 8,-177.7"/>
<text text-anchor="start" x="10.7027" y="-183.8" font-family="Helvetica,sans-Serif" font-size="11.00" fill="#000000">&lt; 1</text>
<polygon fill="#ffffff" stroke="transparent" points="29,-177.7 29,-196.7 101,-196.7 101,-177.7 29,-177.7"/>
<polygon fill="none" stroke="#000000" points="29,-177.7 29,-196.7 101,-196.7 101,-177.7 29,-177.7"/>
<text text-anchor="start" x="31.9896" y="-183.8" font-family="Helvetica,sans-Serif" font-size="11.00" fill="#000000">257,333 rows</text>
<polygon fill="#ffffff" stroke="transparent" points="101,-177.7 101,-196.7 122,-196.7 122,-177.7 101,-177.7"/>
<polygon fill="none" stroke="#000000" points="101,-177.7 101,-196.7 122,-196.7 122,-177.7 101,-177.7"/>
<text text-anchor="start" x="103.7027" y="-183.8" font-family="Helvetica,sans-Serif" font-size="11.00" fill="#000000">3 &gt;</text>
</a>
</g>
</g>
<!-- passenger&#45;&gt;account -->
<g id="edge6" class="edge">
<title>passenger:w&#45;&gt;account:e</title>
<path fill="none" stroke="#000000" d="M329.0768,-234.7306C260.1371,-235.0078 236.7124,-236.725 163,-220.7 144.0394,-216.578 141.4034,-205.7 122,-205.7"/>
<polygon fill="#000000" stroke="#000000" points="335.5,-234.717 343.5077,-238.3 339.5,-234.7085 343.5,-234.7 343.5,-234.7 343.5,-234.7 339.5,-234.7085 343.4923,-231.1 335.5,-234.717 335.5,-234.717"/>
<ellipse fill="none" stroke="#000000" cx="332.3" cy="-234.7238" rx="3.2" ry="3.2"/>
</g>
<!-- booking&#45;&gt;account -->
<g id="edge3" class="edge">
<title>booking:w&#45;&gt;account:e</title>
<path fill="none" stroke="#000000" d="M157.3253,-180.7323C145.2205,-188.7007 141.5215,-205.7 122,-205.7"/>
<polygon fill="#000000" stroke="#000000" points="163.8053,-178.889 172.485,-180.1626 167.6526,-177.7945 171.5,-176.7 171.5,-176.7 171.5,-176.7 167.6526,-177.7945 170.515,-173.2374 163.8053,-178.889 163.8053,-178.889"/>
<ellipse fill="none" stroke="#000000" cx="160.7274" cy="-179.7646" rx="3.2" ry="3.2"/>
</g>
</g>
</svg>
