<?xml version="1.0" encoding="UTF-8" standalone="no"?>
<!DOCTYPE svg PUBLIC "-//W3C//DTD SVG 1.1//EN"
 "http://www.w3.org/Graphics/SVG/1.1/DTD/svg11.dtd">
<!-- Generated by graphviz version 2.40.1 (20161225.0304)
 -->
<!-- Title: oneDegreeRelationshipsDiagram Pages: 1 -->
<svg width="406pt" height="325pt"
 viewBox="0.00 0.00 406.00 325.20" xmlns="http://www.w3.org/2000/svg" xmlns:xlink="http://www.w3.org/1999/xlink">
<g id="graph0" class="graph" transform="scale(1 1) rotate(0) translate(4 321.2)">
<title>oneDegreeRelationshipsDiagram</title>
<polygon fill="#ffffff" stroke="transparent" points="-4,4 -4,-321.2 402,-321.2 402,4 -4,4"/>
<text text-anchor="middle" x="72.4936" y="-7.3" font-family="Helvetica,sans-Serif" font-size="11.00" fill="#000000">Generated by SchemaSpy</text>
<!-- boarding_pass -->
<g id="node1" class="node">
<title>boarding_pass</title>
<g id="a_node1"><a xlink:href="../../tables/boarding_pass.html" xlink:title="boarding_pass" target="_top">
<polygon fill="#ffffff" stroke="transparent" points="186,-73.7 186,-273.7 390,-273.7 390,-73.7 186,-73.7"/>
<polygon fill="#f5f5f5" stroke="transparent" points="188,-248.7 188,-271.7 388,-271.7 388,-248.7 188,-248.7"/>
<polygon fill="none" stroke="#000000" points="188,-248.7 188,-271.7 388,-271.7 388,-248.7 188,-248.7"/>
<text text-anchor="start" x="193" y="-257.3" font-family="Helvetica,sans-Serif" font-weight="bold" font-size="11.00" fill="#000000">boarding_pass</text>
<text text-anchor="start" x="353.0437" y="-256.8" font-family="Helvetica,sans-Serif" font-size="11.00" fill="#000000">[table]</text>
<polygon fill="none" stroke="#000000" points="188,-226.7 188,-248.7 296,-248.7 296,-226.7 188,-226.7"/>
<image xlink:href="../../images/primaryKeys.png" width="11px" height="12px" preserveAspectRatio="xMinYMin meet" x="193" y="-243.7"/>
<text text-anchor="start" x="209" y="-233.8" font-family="Helvetica,sans-Serif" font-size="11.00" fill="#000000">pass_id</text>
<polygon fill="none" stroke="#000000" points="296,-226.7 296,-248.7 388,-248.7 388,-226.7 296,-226.7"/>
<text text-anchor="start" x="299" y="-234.4" font-family="Helvetica,sans-Serif" font-size="11.00" fill="#000000">serial[10]</text>
<polygon fill="none" stroke="#000000" points="188,-204.7 188,-226.7 296,-226.7 296,-204.7 188,-204.7"/>
<image xlink:href="../../images/foreignKeys.png" width="11px" height="12px" preserveAspectRatio="xMinYMin meet" x="193" y="-221.7"/>
<text text-anchor="start" x="209" y="-211.8" font-family="Helvetica,sans-Serif" font-size="11.00" fill="#000000">passenger_id</text>
<polygon fill="none" stroke="#000000" points="296,-204.7 296,-226.7 388,-226.7 388,-204.7 296,-204.7"/>
<text text-anchor="start" x="299" y="-212.4" font-family="Helvetica,sans-Serif" font-size="11.00" fill="#000000">int8[19]</text>
<polygon fill="none" stroke="#000000" points="188,-182.7 188,-204.7 296,-204.7 296,-182.7 188,-182.7"/>
<image xlink:href="../../images/foreignKeys.png" width="11px" height="12px" preserveAspectRatio="xMinYMin meet" x="193" y="-199.7"/>
<text text-anchor="start" x="209" y="-189.8" font-family="Helvetica,sans-Serif" font-size="11.00" fill="#000000">booking_leg_id</text>
<polygon fill="none" stroke="#000000" points="296,-182.7 296,-204.7 388,-204.7 388,-182.7 296,-182.7"/>
<text text-anchor="start" x="299" y="-190.4" font-family="Helvetica,sans-Serif" font-size="11.00" fill="#000000">int8[19]</text>
<polygon fill="none" stroke="#000000" points="188,-160.7 188,-182.7 296,-182.7 296,-160.7 188,-160.7"/>
<text text-anchor="start" x="209" y="-167.8" font-family="Helvetica,sans-Serif" font-size="11.00" fill="#000000">seat</text>
<polygon fill="none" stroke="#000000" points="296,-160.7 296,-182.7 388,-182.7 388,-160.7 296,-160.7"/>
<text text-anchor="start" x="299" y="-168.4" font-family="Helvetica,sans-Serif" font-size="11.00" fill="#000000">text[2147483647]</text>
<polygon fill="none" stroke="#000000" points="188,-138.7 188,-160.7 296,-160.7 296,-138.7 188,-138.7"/>
<text text-anchor="start" x="209" y="-145.8" font-family="Helvetica,sans-Serif" font-size="11.00" fill="#000000">boarding_time</text>
<polygon fill="none" stroke="#000000" points="296,-138.7 296,-160.7 388,-160.7 388,-138.7 296,-138.7"/>
<text text-anchor="start" x="298.6023" y="-146.4" font-family="Helvetica,sans-Serif" font-size="11.00" fill="#000000">timestamptz[35,6]</text>
<polygon fill="none" stroke="#000000" points="188,-116.7 188,-138.7 296,-138.7 296,-116.7 188,-116.7"/>
<text text-anchor="start" x="209" y="-123.8" font-family="Helvetica,sans-Serif" font-size="11.00" fill="#000000">precheck</text>
<polygon fill="none" stroke="#000000" points="296,-116.7 296,-138.7 388,-138.7 388,-116.7 296,-116.7"/>
<text text-anchor="start" x="299" y="-124.4" font-family="Helvetica,sans-Serif" font-size="11.00" fill="#000000">bool[1]</text>
<polygon fill="none" stroke="#000000" points="188,-94.7 188,-116.7 296,-116.7 296,-94.7 188,-94.7"/>
<text text-anchor="start" x="209" y="-101.8" font-family="Helvetica,sans-Serif" font-size="11.00" fill="#000000">update_ts</text>
<polygon fill="none" stroke="#000000" points="296,-94.7 296,-116.7 388,-116.7 388,-94.7 296,-94.7"/>
<text text-anchor="start" x="298.6023" y="-102.4" font-family="Helvetica,sans-Serif" font-size="11.00" fill="#000000">timestamptz[35,6]</text>
<polygon fill="#ffffff" stroke="transparent" points="188,-75.7 188,-94.7 209,-94.7 209,-75.7 188,-75.7"/>
<polygon fill="none" stroke="#000000" points="188,-75.7 188,-94.7 209,-94.7 209,-75.7 188,-75.7"/>
<text text-anchor="start" x="190.7027" y="-81.8" font-family="Helvetica,sans-Serif" font-size="11.00" fill="#000000">&lt; 2</text>
<polygon fill="#ffffff" stroke="transparent" points="209,-75.7 209,-94.7 296,-94.7 296,-75.7 209,-75.7"/>
<polygon fill="none" stroke="#000000" points="209,-75.7 209,-94.7 296,-94.7 296,-75.7 209,-75.7"/>
<text text-anchor="start" x="211.8462" y="-81.8" font-family="Helvetica,sans-Serif" font-size="11.00" fill="#000000">25,292,472 rows</text>
<polygon fill="#ffffff" stroke="transparent" points="296,-75.7 296,-94.7 388,-94.7 388,-75.7 296,-75.7"/>
<polygon fill="none" stroke="#000000" points="296,-75.7 296,-94.7 388,-94.7 388,-75.7 296,-75.7"/>
<text text-anchor="start" x="369.4053" y="-81.8" font-family="Helvetica,sans-Serif" font-size="11.00" fill="#000000">0 &gt;</text>
<polygon fill="none" stroke="#000000" stroke-width="2" points="187,-74.7 187,-272.7 389,-272.7 389,-74.7 187,-74.7"/>
</a>
</g>
</g>
<!-- booking_leg -->
<g id="node2" class="node">
<title>booking_leg</title>
<g id="a_node2"><a xlink:href="../../tables/booking_leg.html" xlink:title="booking_leg" target="_top">
<polygon fill="#ffffff" stroke="transparent" points="8,-38.2 8,-165.2 137,-165.2 137,-38.2 8,-38.2"/>
<polygon fill="#f5f5f5" stroke="transparent" points="8.5,-141.7 8.5,-164.7 137.5,-164.7 137.5,-141.7 8.5,-141.7"/>
<polygon fill="none" stroke="#000000" points="8.5,-141.7 8.5,-164.7 137.5,-164.7 137.5,-141.7 8.5,-141.7"/>
<text text-anchor="start" x="13.5" y="-150.3" font-family="Helvetica,sans-Serif" font-weight="bold" font-size="11.00" fill="#000000">booking_leg</text>
<text text-anchor="start" x="102.5437" y="-149.8" font-family="Helvetica,sans-Serif" font-size="11.00" fill="#000000">[table]</text>
<polygon fill="none" stroke="#000000" points="8.5,-119.7 8.5,-141.7 137.5,-141.7 137.5,-119.7 8.5,-119.7"/>
<image xlink:href="../../images/primaryKeys.png" width="11px" height="12px" preserveAspectRatio="xMinYMin meet" x="13.5" y="-136.7"/>
<text text-anchor="start" x="39.5" y="-126.8" font-family="Helvetica,sans-Serif" font-size="11.00" fill="#000000">booking_leg_id</text>
<polygon fill="none" stroke="#000000" points="8.5,-97.7 8.5,-119.7 137.5,-119.7 137.5,-97.7 8.5,-97.7"/>
<image xlink:href="../../images/foreignKeys.png" width="11px" height="12px" preserveAspectRatio="xMinYMin meet" x="13.5" y="-114.7"/>
<text text-anchor="start" x="39.5" y="-104.8" font-family="Helvetica,sans-Serif" font-size="11.00" fill="#000000">booking_id</text>
<polygon fill="none" stroke="#000000" points="8.5,-75.7 8.5,-97.7 137.5,-97.7 137.5,-75.7 8.5,-75.7"/>
<image xlink:href="../../images/foreignKeys.png" width="11px" height="12px" preserveAspectRatio="xMinYMin meet" x="13.5" y="-92.7"/>
<text text-anchor="start" x="39.5" y="-82.8" font-family="Helvetica,sans-Serif" font-size="11.00" fill="#000000">flight_id</text>
<polygon fill="none" stroke="#000000" points="8.5,-56.7 8.5,-75.7 137.5,-75.7 137.5,-56.7 8.5,-56.7"/>
<text text-anchor="start" x="11.5" y="-62.8" font-family="Helvetica,sans-Serif" font-size="11.00" fill="#000000">...</text>
<polygon fill="#ffffff" stroke="transparent" points="8.5,-37.7 8.5,-56.7 29.5,-56.7 29.5,-37.7 8.5,-37.7"/>
<polygon fill="none" stroke="#000000" points="8.5,-37.7 8.5,-56.7 29.5,-56.7 29.5,-37.7 8.5,-37.7"/>
<text text-anchor="start" x="11.2027" y="-43.8" font-family="Helvetica,sans-Serif" font-size="11.00" fill="#000000">&lt; 2</text>
<polygon fill="#ffffff" stroke="transparent" points="29.5,-37.7 29.5,-56.7 116.5,-56.7 116.5,-37.7 29.5,-37.7"/>
<polygon fill="none" stroke="#000000" points="29.5,-37.7 29.5,-56.7 116.5,-56.7 116.5,-37.7 29.5,-37.7"/>
<text text-anchor="start" x="32.3462" y="-43.8" font-family="Helvetica,sans-Serif" font-size="11.00" fill="#000000">17,894,232 rows</text>
<polygon fill="#ffffff" stroke="transparent" points="116.5,-37.7 116.5,-56.7 137.5,-56.7 137.5,-37.7 116.5,-37.7"/>
<polygon fill="none" stroke="#000000" points="116.5,-37.7 116.5,-56.7 137.5,-56.7 137.5,-37.7 116.5,-37.7"/>
<text text-anchor="start" x="119.2027" y="-43.8" font-family="Helvetica,sans-Serif" font-size="11.00" fill="#000000">1 &gt;</text>
</a>
</g>
</g>
<!-- boarding_pass&#45;&gt;booking_leg -->
<g id="edge1" class="edge">
<title>boarding_pass:w&#45;&gt;booking_leg:e</title>
<path fill="none" stroke="#000000" d="M173.9816,-188.7565C157.738,-173.9048 167.2175,-130.7 137.5,-130.7"/>
<polygon fill="#000000" stroke="#000000" points="180.4554,-191.0394 186.8027,-197.0951 184.2277,-192.3697 188,-193.7 188,-193.7 188,-193.7 184.2277,-192.3697 189.1973,-190.3049 180.4554,-191.0394 180.4554,-191.0394"/>
<ellipse fill="none" stroke="#000000" cx="177.4375" cy="-189.9752" rx="3.2" ry="3.2"/>
</g>
<!-- passenger -->
<g id="node3" class="node">
<title>passenger</title>
<g id="a_node3"><a xlink:href="../../tables/passenger.html" xlink:title="passenger" target="_top">
<polygon fill="#ffffff" stroke="transparent" points="8,-186.2 8,-313.2 137,-313.2 137,-186.2 8,-186.2"/>
<polygon fill="#f5f5f5" stroke="transparent" points="8.5,-289.7 8.5,-312.7 137.5,-312.7 137.5,-289.7 8.5,-289.7"/>
<polygon fill="none" stroke="#000000" points="8.5,-289.7 8.5,-312.7 137.5,-312.7 137.5,-289.7 8.5,-289.7"/>
<text text-anchor="start" x="13.5" y="-298.3" font-family="Helvetica,sans-Serif" font-weight="bold" font-size="11.00" fill="#000000">passenger</text>
<text text-anchor="start" x="102.5437" y="-297.8" font-family="Helvetica,sans-Serif" font-size="11.00" fill="#000000">[table]</text>
<polygon fill="none" stroke="#000000" points="8.5,-267.7 8.5,-289.7 137.5,-289.7 137.5,-267.7 8.5,-267.7"/>
<image xlink:href="../../images/primaryKeys.png" width="11px" height="12px" preserveAspectRatio="xMinYMin meet" x="13.5" y="-284.7"/>
<text text-anchor="start" x="42.5" y="-274.8" font-family="Helvetica,sans-Serif" font-size="11.00" fill="#000000">passenger_id</text>
<polygon fill="none" stroke="#000000" points="8.5,-245.7 8.5,-267.7 137.5,-267.7 137.5,-245.7 8.5,-245.7"/>
<image xlink:href="../../images/foreignKeys.png" width="11px" height="12px" preserveAspectRatio="xMinYMin meet" x="13.5" y="-262.7"/>
<text text-anchor="start" x="42.5" y="-252.8" font-family="Helvetica,sans-Serif" font-size="11.00" fill="#000000">booking_id</text>
<polygon fill="none" stroke="#000000" points="8.5,-223.7 8.5,-245.7 137.5,-245.7 137.5,-223.7 8.5,-223.7"/>
<image xlink:href="../../images/foreignKeys.png" width="11px" height="12px" preserveAspectRatio="xMinYMin meet" x="13.5" y="-240.7"/>
<text text-anchor="start" x="42.5" y="-230.8" font-family="Helvetica,sans-Serif" font-size="11.00" fill="#000000">account_id</text>
<polygon fill="none" stroke="#000000" points="8.5,-204.7 8.5,-223.7 137.5,-223.7 137.5,-204.7 8.5,-204.7"/>
<text text-anchor="start" x="11.5" y="-210.8" font-family="Helvetica,sans-Serif" font-size="11.00" fill="#000000">...</text>
<polygon fill="#ffffff" stroke="transparent" points="8.5,-185.7 8.5,-204.7 29.5,-204.7 29.5,-185.7 8.5,-185.7"/>
<polygon fill="none" stroke="#000000" points="8.5,-185.7 8.5,-204.7 29.5,-204.7 29.5,-185.7 8.5,-185.7"/>
<text text-anchor="start" x="11.2027" y="-191.8" font-family="Helvetica,sans-Serif" font-size="11.00" fill="#000000">&lt; 2</text>
<polygon fill="#ffffff" stroke="transparent" points="29.5,-185.7 29.5,-204.7 116.5,-204.7 116.5,-185.7 29.5,-185.7"/>
<polygon fill="none" stroke="#000000" points="29.5,-185.7 29.5,-204.7 116.5,-204.7 116.5,-185.7 29.5,-185.7"/>
<text text-anchor="start" x="32.3462" y="-191.8" font-family="Helvetica,sans-Serif" font-size="11.00" fill="#000000">16,312,143 rows</text>
<polygon fill="#ffffff" stroke="transparent" points="116.5,-185.7 116.5,-204.7 137.5,-204.7 137.5,-185.7 116.5,-185.7"/>
<polygon fill="none" stroke="#000000" points="116.5,-185.7 116.5,-204.7 137.5,-204.7 137.5,-185.7 116.5,-185.7"/>
<text text-anchor="start" x="119.2027" y="-191.8" font-family="Helvetica,sans-Serif" font-size="11.00" fill="#000000">1 &gt;</text>
</a>
</g>
</g>
<!-- boarding_pass&#45;&gt;passenger -->
<g id="edge2" class="edge">
<title>boarding_pass:w&#45;&gt;passenger:e</title>
<path fill="none" stroke="#000000" d="M173.9816,-220.6435C157.738,-235.4952 167.2175,-278.7 137.5,-278.7"/>
<polygon fill="#000000" stroke="#000000" points="180.4554,-218.3606 189.1973,-219.0951 184.2277,-217.0303 188,-215.7 188,-215.7 188,-215.7 184.2277,-217.0303 186.8027,-212.3049 180.4554,-218.3606 180.4554,-218.3606"/>
<ellipse fill="none" stroke="#000000" cx="177.4375" cy="-219.4248" rx="3.2" ry="3.2"/>
</g>
</g>
</svg>
