<?xml version="1.0" encoding="UTF-8" standalone="no"?>
<!DOCTYPE svg PUBLIC "-//W3C//DTD SVG 1.1//EN"
 "http://www.w3.org/Graphics/SVG/1.1/DTD/svg11.dtd">
<!-- Generated by graphviz version 2.40.1 (20161225.0304)
 -->
<!-- Title: twoDegreesRelationshipsDiagram Pages: 1 -->
<svg width="760pt" height="392pt"
 viewBox="0.00 0.00 760.00 392.20" xmlns="http://www.w3.org/2000/svg" xmlns:xlink="http://www.w3.org/1999/xlink">
<g id="graph0" class="graph" transform="scale(1 1) rotate(0) translate(4 388.2)">
<title>twoDegreesRelationshipsDiagram</title>
<polygon fill="#ffffff" stroke="transparent" points="-4,4 -4,-388.2 756,-388.2 756,4 -4,4"/>
<text text-anchor="middle" x="72.4936" y="-7.3" font-family="Helvetica,sans-Serif" font-size="11.00" fill="#000000">Generated by SchemaSpy</text>
<!-- boarding_pass -->
<g id="node1" class="node">
<title>boarding_pass</title>
<g id="a_node1"><a xlink:href="../../tables/boarding_pass.html" xlink:title="boarding_pass" target="_top">
<polygon fill="#ffffff" stroke="transparent" points="620,-244.2 620,-371.2 744,-371.2 744,-244.2 620,-244.2"/>
<polygon fill="#f5f5f5" stroke="transparent" points="620,-347.7 620,-370.7 744,-370.7 744,-347.7 620,-347.7"/>
<polygon fill="none" stroke="#000000" points="620,-347.7 620,-370.7 744,-370.7 744,-347.7 620,-347.7"/>
<text text-anchor="start" x="625" y="-356.3" font-family="Helvetica,sans-Serif" font-weight="bold" font-size="11.00" fill="#000000">boarding_pass</text>
<text text-anchor="start" x="709.5219" y="-355.8" font-family="Helvetica,sans-Serif" font-size="11.00" fill="#000000">[table]</text>
<polygon fill="none" stroke="#000000" points="620,-325.7 620,-347.7 744,-347.7 744,-325.7 620,-325.7"/>
<image xlink:href="../../images/primaryKeys.png" width="11px" height="12px" preserveAspectRatio="xMinYMin meet" x="625" y="-342.7"/>
<text text-anchor="start" x="649" y="-332.8" font-family="Helvetica,sans-Serif" font-size="11.00" fill="#000000">pass_id</text>
<polygon fill="none" stroke="#000000" points="620,-303.7 620,-325.7 744,-325.7 744,-303.7 620,-303.7"/>
<image xlink:href="../../images/foreignKeys.png" width="11px" height="12px" preserveAspectRatio="xMinYMin meet" x="625" y="-320.7"/>
<text text-anchor="start" x="649" y="-310.8" font-family="Helvetica,sans-Serif" font-size="11.00" fill="#000000">passenger_id</text>
<polygon fill="none" stroke="#000000" points="620,-281.7 620,-303.7 744,-303.7 744,-281.7 620,-281.7"/>
<image xlink:href="../../images/foreignKeys.png" width="11px" height="12px" preserveAspectRatio="xMinYMin meet" x="625" y="-298.7"/>
<text text-anchor="start" x="649" y="-288.8" font-family="Helvetica,sans-Serif" font-size="11.00" fill="#000000">booking_leg_id</text>
<polygon fill="none" stroke="#000000" points="620,-262.7 620,-281.7 744,-281.7 744,-262.7 620,-262.7"/>
<text text-anchor="start" x="623" y="-268.8" font-family="Helvetica,sans-Serif" font-size="11.00" fill="#000000">...</text>
<polygon fill="#ffffff" stroke="transparent" points="620,-243.7 620,-262.7 643,-262.7 643,-243.7 620,-243.7"/>
<polygon fill="none" stroke="#000000" points="620,-243.7 620,-262.7 643,-262.7 643,-243.7 620,-243.7"/>
<text text-anchor="start" x="623" y="-249.8" font-family="Helvetica,sans-Serif" font-size="11.00" fill="#000000">&lt; 2</text>
<polygon fill="#ffffff" stroke="transparent" points="643,-243.7 643,-262.7 731,-262.7 731,-243.7 643,-243.7"/>
<polygon fill="none" stroke="#000000" points="643,-243.7 643,-262.7 731,-262.7 731,-243.7 643,-243.7"/>
<text text-anchor="start" x="646.6924" y="-249.8" font-family="Helvetica,sans-Serif" font-size="11.00" fill="#000000">25,292,472 rows</text>
<polygon fill="#ffffff" stroke="transparent" points="731,-243.7 731,-262.7 744,-262.7 744,-243.7 731,-243.7"/>
<polygon fill="none" stroke="#000000" points="731,-243.7 731,-262.7 744,-262.7 744,-243.7 731,-243.7"/>
<text text-anchor="start" x="734.8862" y="-249.8" font-family="Helvetica,sans-Serif" font-size="11.00" fill="#000000"> &#160;</text>
</a>
</g>
</g>
<!-- booking_leg -->
<g id="node2" class="node">
<title>booking_leg</title>
<g id="a_node2"><a xlink:href="../../tables/booking_leg.html" xlink:title="booking_leg" target="_top">
<polygon fill="#ffffff" stroke="transparent" points="367,-119.7 367,-297.7 571,-297.7 571,-119.7 367,-119.7"/>
<polygon fill="#f5f5f5" stroke="transparent" points="369,-272.7 369,-295.7 569,-295.7 569,-272.7 369,-272.7"/>
<polygon fill="none" stroke="#000000" points="369,-272.7 369,-295.7 569,-295.7 569,-272.7 369,-272.7"/>
<text text-anchor="start" x="374" y="-281.3" font-family="Helvetica,sans-Serif" font-weight="bold" font-size="11.00" fill="#000000">booking_leg</text>
<text text-anchor="start" x="534.0437" y="-280.8" font-family="Helvetica,sans-Serif" font-size="11.00" fill="#000000">[table]</text>
<polygon fill="none" stroke="#000000" points="369,-250.7 369,-272.7 477,-272.7 477,-250.7 369,-250.7"/>
<image xlink:href="../../images/primaryKeys.png" width="11px" height="12px" preserveAspectRatio="xMinYMin meet" x="374" y="-267.7"/>
<text text-anchor="start" x="390" y="-257.8" font-family="Helvetica,sans-Serif" font-size="11.00" fill="#000000">booking_leg_id</text>
<polygon fill="none" stroke="#000000" points="477,-250.7 477,-272.7 569,-272.7 569,-250.7 477,-250.7"/>
<text text-anchor="start" x="480" y="-258.4" font-family="Helvetica,sans-Serif" font-size="11.00" fill="#000000">serial[10]</text>
<polygon fill="none" stroke="#000000" points="369,-228.7 369,-250.7 477,-250.7 477,-228.7 369,-228.7"/>
<image xlink:href="../../images/foreignKeys.png" width="11px" height="12px" preserveAspectRatio="xMinYMin meet" x="374" y="-245.7"/>
<text text-anchor="start" x="390" y="-235.8" font-family="Helvetica,sans-Serif" font-size="11.00" fill="#000000">booking_id</text>
<polygon fill="none" stroke="#000000" points="477,-228.7 477,-250.7 569,-250.7 569,-228.7 477,-228.7"/>
<text text-anchor="start" x="480" y="-236.4" font-family="Helvetica,sans-Serif" font-size="11.00" fill="#000000">int4[10]</text>
<polygon fill="none" stroke="#000000" points="369,-206.7 369,-228.7 477,-228.7 477,-206.7 369,-206.7"/>
<image xlink:href="../../images/foreignKeys.png" width="11px" height="12px" preserveAspectRatio="xMinYMin meet" x="374" y="-223.7"/>
<text text-anchor="start" x="390" y="-213.8" font-family="Helvetica,sans-Serif" font-size="11.00" fill="#000000">flight_id</text>
<polygon fill="none" stroke="#000000" points="477,-206.7 477,-228.7 569,-228.7 569,-206.7 477,-206.7"/>
<text text-anchor="start" x="480" y="-214.4" font-family="Helvetica,sans-Serif" font-size="11.00" fill="#000000">int4[10]</text>
<polygon fill="none" stroke="#000000" points="369,-184.7 369,-206.7 477,-206.7 477,-184.7 369,-184.7"/>
<text text-anchor="start" x="390" y="-191.8" font-family="Helvetica,sans-Serif" font-size="11.00" fill="#000000">leg_num</text>
<polygon fill="none" stroke="#000000" points="477,-184.7 477,-206.7 569,-206.7 569,-184.7 477,-184.7"/>
<text text-anchor="start" x="480" y="-192.4" font-family="Helvetica,sans-Serif" font-size="11.00" fill="#000000">int4[10]</text>
<polygon fill="none" stroke="#000000" points="369,-162.7 369,-184.7 477,-184.7 477,-162.7 369,-162.7"/>
<text text-anchor="start" x="390" y="-169.8" font-family="Helvetica,sans-Serif" font-size="11.00" fill="#000000">is_returning</text>
<polygon fill="none" stroke="#000000" points="477,-162.7 477,-184.7 569,-184.7 569,-162.7 477,-162.7"/>
<text text-anchor="start" x="480" y="-170.4" font-family="Helvetica,sans-Serif" font-size="11.00" fill="#000000">bool[1]</text>
<polygon fill="none" stroke="#000000" points="369,-140.7 369,-162.7 477,-162.7 477,-140.7 369,-140.7"/>
<text text-anchor="start" x="390" y="-147.8" font-family="Helvetica,sans-Serif" font-size="11.00" fill="#000000">update_ts</text>
<polygon fill="none" stroke="#000000" points="477,-140.7 477,-162.7 569,-162.7 569,-140.7 477,-140.7"/>
<text text-anchor="start" x="479.6023" y="-148.4" font-family="Helvetica,sans-Serif" font-size="11.00" fill="#000000">timestamptz[35,6]</text>
<polygon fill="#ffffff" stroke="transparent" points="369,-121.7 369,-140.7 390,-140.7 390,-121.7 369,-121.7"/>
<polygon fill="none" stroke="#000000" points="369,-121.7 369,-140.7 390,-140.7 390,-121.7 369,-121.7"/>
<text text-anchor="start" x="371.7027" y="-127.8" font-family="Helvetica,sans-Serif" font-size="11.00" fill="#000000">&lt; 2</text>
<polygon fill="#ffffff" stroke="transparent" points="390,-121.7 390,-140.7 477,-140.7 477,-121.7 390,-121.7"/>
<polygon fill="none" stroke="#000000" points="390,-121.7 390,-140.7 477,-140.7 477,-121.7 390,-121.7"/>
<text text-anchor="start" x="392.8462" y="-127.8" font-family="Helvetica,sans-Serif" font-size="11.00" fill="#000000">17,894,232 rows</text>
<polygon fill="#ffffff" stroke="transparent" points="477,-121.7 477,-140.7 569,-140.7 569,-121.7 477,-121.7"/>
<polygon fill="none" stroke="#000000" points="477,-121.7 477,-140.7 569,-140.7 569,-121.7 477,-121.7"/>
<text text-anchor="start" x="550.4053" y="-127.8" font-family="Helvetica,sans-Serif" font-size="11.00" fill="#000000">1 &gt;</text>
<polygon fill="none" stroke="#000000" stroke-width="2" points="368,-120.7 368,-296.7 570,-296.7 570,-120.7 368,-120.7"/>
</a>
</g>
</g>
<!-- boarding_pass&#45;&gt;booking_leg -->
<g id="edge1" class="edge">
<title>boarding_pass:w&#45;&gt;booking_leg:e</title>
<path fill="none" stroke="#000000" d="M606.0967,-288.8988C593.0044,-280.6209 589.7231,-261.7 569,-261.7"/>
<polygon fill="#000000" stroke="#000000" points="612.2832,-290.5902 619.0506,-296.1726 616.1416,-291.6451 620,-292.7 620,-292.7 620,-292.7 616.1416,-291.6451 620.9494,-289.2274 612.2832,-290.5902 612.2832,-290.5902"/>
<ellipse fill="none" stroke="#000000" cx="609.1965" cy="-289.7462" rx="3.2" ry="3.2"/>
</g>
<!-- passenger -->
<g id="node3" class="node">
<title>passenger</title>
<g id="a_node3"><a xlink:href="../../tables/passenger.html" xlink:title="passenger" target="_top">
<polygon fill="#ffffff" stroke="transparent" points="404.5,-319.2 404.5,-380.2 533.5,-380.2 533.5,-319.2 404.5,-319.2"/>
<polygon fill="#f5f5f5" stroke="transparent" points="405,-356.7 405,-379.7 534,-379.7 534,-356.7 405,-356.7"/>
<polygon fill="none" stroke="#000000" points="405,-356.7 405,-379.7 534,-379.7 534,-356.7 405,-356.7"/>
<text text-anchor="start" x="410" y="-365.3" font-family="Helvetica,sans-Serif" font-weight="bold" font-size="11.00" fill="#000000">passenger</text>
<text text-anchor="start" x="499.0437" y="-364.8" font-family="Helvetica,sans-Serif" font-size="11.00" fill="#000000">[table]</text>
<polygon fill="none" stroke="#000000" points="405,-337.7 405,-356.7 534,-356.7 534,-337.7 405,-337.7"/>
<text text-anchor="start" x="408" y="-343.8" font-family="Helvetica,sans-Serif" font-size="11.00" fill="#000000">...</text>
<polygon fill="#ffffff" stroke="transparent" points="405,-318.7 405,-337.7 426,-337.7 426,-318.7 405,-318.7"/>
<polygon fill="none" stroke="#000000" points="405,-318.7 405,-337.7 426,-337.7 426,-318.7 405,-318.7"/>
<text text-anchor="start" x="407.7027" y="-324.8" font-family="Helvetica,sans-Serif" font-size="11.00" fill="#000000">&lt; 2</text>
<polygon fill="#ffffff" stroke="transparent" points="426,-318.7 426,-337.7 513,-337.7 513,-318.7 426,-318.7"/>
<polygon fill="none" stroke="#000000" points="426,-318.7 426,-337.7 513,-337.7 513,-318.7 426,-318.7"/>
<text text-anchor="start" x="428.8462" y="-324.8" font-family="Helvetica,sans-Serif" font-size="11.00" fill="#000000">16,312,143 rows</text>
<polygon fill="#ffffff" stroke="transparent" points="513,-318.7 513,-337.7 534,-337.7 534,-318.7 513,-318.7"/>
<polygon fill="none" stroke="#000000" points="513,-318.7 513,-337.7 534,-337.7 534,-318.7 513,-318.7"/>
<text text-anchor="start" x="515.7026" y="-324.8" font-family="Helvetica,sans-Serif" font-size="11.00" fill="#000000">1 &gt;</text>
</a>
</g>
</g>
<!-- boarding_pass&#45;&gt;passenger -->
<g id="edge2" class="edge">
<title>boarding_pass:w&#45;&gt;passenger:e</title>
<path fill="none" stroke="#000000" d="M605.5038,-316.2434C577.3983,-322.6355 569.366,-346.7 534,-346.7"/>
<polygon fill="#000000" stroke="#000000" points="612.045,-315.547 620.3812,-318.2798 616.0225,-315.1235 620,-314.7 620,-314.7 620,-314.7 616.0225,-315.1235 619.6188,-311.1202 612.045,-315.547 612.045,-315.547"/>
<ellipse fill="none" stroke="#000000" cx="608.8629" cy="-315.8858" rx="3.2" ry="3.2"/>
</g>
<!-- booking -->
<g id="node4" class="node">
<title>booking</title>
<g id="a_node4"><a xlink:href="../../tables/booking.html" xlink:title="booking" target="_top">
<polygon fill="#ffffff" stroke="transparent" points="183,-225.2 183,-352.2 306,-352.2 306,-225.2 183,-225.2"/>
<polygon fill="#f5f5f5" stroke="transparent" points="183.5,-328.7 183.5,-351.7 306.5,-351.7 306.5,-328.7 183.5,-328.7"/>
<polygon fill="none" stroke="#000000" points="183.5,-328.7 183.5,-351.7 306.5,-351.7 306.5,-328.7 183.5,-328.7"/>
<text text-anchor="start" x="188.5" y="-337.3" font-family="Helvetica,sans-Serif" font-weight="bold" font-size="11.00" fill="#000000">booking</text>
<text text-anchor="start" x="271.5437" y="-336.8" font-family="Helvetica,sans-Serif" font-size="11.00" fill="#000000">[table]</text>
<polygon fill="none" stroke="#000000" points="183.5,-306.7 183.5,-328.7 306.5,-328.7 306.5,-306.7 183.5,-306.7"/>
<image xlink:href="../../images/primaryKeys.png" width="11px" height="12px" preserveAspectRatio="xMinYMin meet" x="188.5" y="-323.7"/>
<text text-anchor="start" x="211.5" y="-313.8" font-family="Helvetica,sans-Serif" font-size="11.00" fill="#000000">booking_id</text>
<polygon fill="#ffffff" stroke="transparent" points="183.5,-284.7 183.5,-306.7 306.5,-306.7 306.5,-284.7 183.5,-284.7"/>
<polygon fill="none" stroke="#000000" points="183.5,-284.7 183.5,-306.7 306.5,-306.7 306.5,-284.7 183.5,-284.7"/>
<text text-anchor="start" x="211.5" y="-291.8" font-family="Helvetica,sans-Serif" font-size="11.00" fill="#000000">booking_ref</text>
<polygon fill="none" stroke="#000000" points="183.5,-262.7 183.5,-284.7 306.5,-284.7 306.5,-262.7 183.5,-262.7"/>
<image xlink:href="../../images/foreignKeys.png" width="11px" height="12px" preserveAspectRatio="xMinYMin meet" x="188.5" y="-279.7"/>
<text text-anchor="start" x="211.5" y="-269.8" font-family="Helvetica,sans-Serif" font-size="11.00" fill="#000000">account_id</text>
<polygon fill="none" stroke="#000000" points="183.5,-243.7 183.5,-262.7 306.5,-262.7 306.5,-243.7 183.5,-243.7"/>
<text text-anchor="start" x="186.5" y="-249.8" font-family="Helvetica,sans-Serif" font-size="11.00" fill="#000000">...</text>
<polygon fill="#ffffff" stroke="transparent" points="183.5,-224.7 183.5,-243.7 204.5,-243.7 204.5,-224.7 183.5,-224.7"/>
<polygon fill="none" stroke="#000000" points="183.5,-224.7 183.5,-243.7 204.5,-243.7 204.5,-224.7 183.5,-224.7"/>
<text text-anchor="start" x="186.2027" y="-230.8" font-family="Helvetica,sans-Serif" font-size="11.00" fill="#000000">&lt; 1</text>
<polygon fill="#ffffff" stroke="transparent" points="204.5,-224.7 204.5,-243.7 285.5,-243.7 285.5,-224.7 204.5,-224.7"/>
<polygon fill="none" stroke="#000000" points="204.5,-224.7 204.5,-243.7 285.5,-243.7 285.5,-224.7 204.5,-224.7"/>
<text text-anchor="start" x="207.4037" y="-230.8" font-family="Helvetica,sans-Serif" font-size="11.00" fill="#000000">5,643,687 rows</text>
<polygon fill="#ffffff" stroke="transparent" points="285.5,-224.7 285.5,-243.7 306.5,-243.7 306.5,-224.7 285.5,-224.7"/>
<polygon fill="none" stroke="#000000" points="285.5,-224.7 285.5,-243.7 306.5,-243.7 306.5,-224.7 285.5,-224.7"/>
<text text-anchor="start" x="288.2027" y="-230.8" font-family="Helvetica,sans-Serif" font-size="11.00" fill="#000000">2 &gt;</text>
</a>
</g>
</g>
<!-- booking_leg&#45;&gt;booking -->
<g id="edge4" class="edge">
<title>booking_leg:w&#45;&gt;booking:e</title>
<path fill="none" stroke="#000000" d="M354.7136,-243.4621C330.327,-259.0429 345.0229,-317.7 306.5,-317.7"/>
<polygon fill="#000000" stroke="#000000" points="361.2637,-241.7373 369.9168,-243.1813 365.1319,-240.7186 369,-239.7 369,-239.7 369,-239.7 365.1319,-240.7186 368.0832,-236.2187 361.2637,-241.7373 361.2637,-241.7373"/>
<ellipse fill="none" stroke="#000000" cx="358.1692" cy="-242.5522" rx="3.2" ry="3.2"/>
</g>
<!-- flight -->
<g id="node6" class="node">
<title>flight</title>
<g id="a_node6"><a xlink:href="../../tables/flight.html" xlink:title="flight" target="_top">
<polygon fill="#ffffff" stroke="transparent" points="171,-55.2 171,-204.2 318,-204.2 318,-55.2 171,-55.2"/>
<polygon fill="#f5f5f5" stroke="transparent" points="171.5,-180.7 171.5,-203.7 318.5,-203.7 318.5,-180.7 171.5,-180.7"/>
<polygon fill="none" stroke="#000000" points="171.5,-180.7 171.5,-203.7 318.5,-203.7 318.5,-180.7 171.5,-180.7"/>
<text text-anchor="start" x="176.5" y="-189.3" font-family="Helvetica,sans-Serif" font-weight="bold" font-size="11.00" fill="#000000">flight</text>
<text text-anchor="start" x="283.5437" y="-188.8" font-family="Helvetica,sans-Serif" font-size="11.00" fill="#000000">[table]</text>
<polygon fill="none" stroke="#000000" points="171.5,-158.7 171.5,-180.7 318.5,-180.7 318.5,-158.7 171.5,-158.7"/>
<image xlink:href="../../images/primaryKeys.png" width="11px" height="12px" preserveAspectRatio="xMinYMin meet" x="176.5" y="-175.7"/>
<text text-anchor="start" x="191.5" y="-165.8" font-family="Helvetica,sans-Serif" font-size="11.00" fill="#000000">flight_id</text>
<polygon fill="none" stroke="#000000" points="171.5,-136.7 171.5,-158.7 318.5,-158.7 318.5,-136.7 171.5,-136.7"/>
<image xlink:href="../../images/foreignKeys.png" width="11px" height="12px" preserveAspectRatio="xMinYMin meet" x="176.5" y="-153.7"/>
<text text-anchor="start" x="191.5" y="-143.8" font-family="Helvetica,sans-Serif" font-size="11.00" fill="#000000">departure_airport</text>
<polygon fill="none" stroke="#000000" points="171.5,-114.7 171.5,-136.7 318.5,-136.7 318.5,-114.7 171.5,-114.7"/>
<image xlink:href="../../images/foreignKeys.png" width="11px" height="12px" preserveAspectRatio="xMinYMin meet" x="176.5" y="-131.7"/>
<text text-anchor="start" x="191.5" y="-121.8" font-family="Helvetica,sans-Serif" font-size="11.00" fill="#000000">arrival_airport</text>
<polygon fill="none" stroke="#000000" points="171.5,-92.7 171.5,-114.7 318.5,-114.7 318.5,-92.7 171.5,-92.7"/>
<image xlink:href="../../images/foreignKeys.png" width="11px" height="12px" preserveAspectRatio="xMinYMin meet" x="176.5" y="-109.7"/>
<text text-anchor="start" x="191.5" y="-99.8" font-family="Helvetica,sans-Serif" font-size="11.00" fill="#000000">aircraft_code</text>
<polygon fill="none" stroke="#000000" points="171.5,-73.7 171.5,-92.7 318.5,-92.7 318.5,-73.7 171.5,-73.7"/>
<text text-anchor="start" x="174.5" y="-79.8" font-family="Helvetica,sans-Serif" font-size="11.00" fill="#000000">...</text>
<polygon fill="#ffffff" stroke="transparent" points="171.5,-54.7 171.5,-73.7 208.5,-73.7 208.5,-54.7 171.5,-54.7"/>
<polygon fill="none" stroke="#000000" points="171.5,-54.7 171.5,-73.7 208.5,-73.7 208.5,-54.7 171.5,-54.7"/>
<text text-anchor="start" x="174.5" y="-60.8" font-family="Helvetica,sans-Serif" font-size="11.00" fill="#000000">&lt; 3</text>
<polygon fill="#ffffff" stroke="transparent" points="208.5,-54.7 208.5,-73.7 288.5,-73.7 288.5,-54.7 208.5,-54.7"/>
<polygon fill="none" stroke="#000000" points="208.5,-54.7 208.5,-73.7 288.5,-73.7 288.5,-54.7 208.5,-54.7"/>
<text text-anchor="start" x="219.4791" y="-60.8" font-family="Helvetica,sans-Serif" font-size="11.00" fill="#000000">683,176 rows</text>
<polygon fill="#ffffff" stroke="transparent" points="288.5,-54.7 288.5,-73.7 318.5,-73.7 318.5,-54.7 288.5,-54.7"/>
<polygon fill="none" stroke="#000000" points="288.5,-54.7 288.5,-73.7 318.5,-73.7 318.5,-54.7 288.5,-54.7"/>
<text text-anchor="start" x="299.9053" y="-60.8" font-family="Helvetica,sans-Serif" font-size="11.00" fill="#000000">1 &gt;</text>
</a>
</g>
</g>
<!-- booking_leg&#45;&gt;flight -->
<g id="edge5" class="edge">
<title>booking_leg:w&#45;&gt;flight:e</title>
<path fill="none" stroke="#000000" d="M355.0763,-212.9221C340.8824,-200.7811 343.4176,-169.7 318.5,-169.7"/>
<polygon fill="#000000" stroke="#000000" points="361.4331,-215.1034 367.8315,-221.1051 365.2166,-216.4017 369,-217.7 369,-217.7 369,-217.7 365.2166,-216.4017 370.1685,-214.2949 361.4331,-215.1034 361.4331,-215.1034"/>
<ellipse fill="none" stroke="#000000" cx="358.4063" cy="-214.0648" rx="3.2" ry="3.2"/>
</g>
<!-- passenger&#45;&gt;booking -->
<g id="edge10" class="edge">
<title>passenger:w&#45;&gt;booking:e</title>
<path fill="none" stroke="#000000" d="M390.4149,-345.5986C357.1427,-340.3014 346.7878,-317.7 306.5,-317.7"/>
<polygon fill="#000000" stroke="#000000" points="397.0227,-346.0975 404.7289,-350.2898 401.0114,-346.3988 405,-346.7 405,-346.7 405,-346.7 401.0114,-346.3988 405.2711,-343.1102 397.0227,-346.0975 397.0227,-346.0975"/>
<ellipse fill="none" stroke="#000000" cx="393.8318" cy="-345.8565" rx="3.2" ry="3.2"/>
</g>
<!-- account -->
<g id="node5" class="node">
<title>account</title>
<g id="a_node5"><a xlink:href="../../tables/account.html" xlink:title="account" target="_top">
<polygon fill="#ffffff" stroke="transparent" points="8,-297.2 8,-358.2 122,-358.2 122,-297.2 8,-297.2"/>
<polygon fill="#f5f5f5" stroke="transparent" points="8,-334.7 8,-357.7 122,-357.7 122,-334.7 8,-334.7"/>
<polygon fill="none" stroke="#000000" points="8,-334.7 8,-357.7 122,-357.7 122,-334.7 8,-334.7"/>
<text text-anchor="start" x="13" y="-343.3" font-family="Helvetica,sans-Serif" font-weight="bold" font-size="11.00" fill="#000000">account</text>
<text text-anchor="start" x="87.0437" y="-342.8" font-family="Helvetica,sans-Serif" font-size="11.00" fill="#000000">[table]</text>
<polygon fill="none" stroke="#000000" points="8,-315.7 8,-334.7 122,-334.7 122,-315.7 8,-315.7"/>
<text text-anchor="start" x="11" y="-321.8" font-family="Helvetica,sans-Serif" font-size="11.00" fill="#000000">...</text>
<polygon fill="#ffffff" stroke="transparent" points="8,-296.7 8,-315.7 29,-315.7 29,-296.7 8,-296.7"/>
<polygon fill="none" stroke="#000000" points="8,-296.7 8,-315.7 29,-315.7 29,-296.7 8,-296.7"/>
<text text-anchor="start" x="10.7027" y="-302.8" font-family="Helvetica,sans-Serif" font-size="11.00" fill="#000000">&lt; 1</text>
<polygon fill="#ffffff" stroke="transparent" points="29,-296.7 29,-315.7 101,-315.7 101,-296.7 29,-296.7"/>
<polygon fill="none" stroke="#000000" points="29,-296.7 29,-315.7 101,-315.7 101,-296.7 29,-296.7"/>
<text text-anchor="start" x="31.9896" y="-302.8" font-family="Helvetica,sans-Serif" font-size="11.00" fill="#000000">257,333 rows</text>
<polygon fill="#ffffff" stroke="transparent" points="101,-296.7 101,-315.7 122,-315.7 122,-296.7 101,-296.7"/>
<polygon fill="none" stroke="#000000" points="101,-296.7 101,-315.7 122,-315.7 122,-296.7 101,-296.7"/>
<text text-anchor="start" x="103.7027" y="-302.8" font-family="Helvetica,sans-Serif" font-size="11.00" fill="#000000">3 &gt;</text>
</a>
</g>
</g>
<!-- passenger&#45;&gt;account -->
<g id="edge9" class="edge">
<title>passenger:w&#45;&gt;account:e</title>
<path fill="none" stroke="#000000" d="M390.3978,-347.49C366.229,-350.2808 356.215,-359.671 326,-362.7 253.9169,-369.9262 230.444,-389.1482 163,-362.7 139.8697,-353.6295 146.8452,-324.7 122,-324.7"/>
<polygon fill="#000000" stroke="#000000" points="397.0117,-347.1322 405.1945,-350.2947 401.0058,-346.9161 405,-346.7 405,-346.7 405,-346.7 401.0058,-346.9161 404.8055,-343.1053 397.0117,-347.1322 397.0117,-347.1322"/>
<ellipse fill="none" stroke="#000000" cx="393.8164" cy="-347.3051" rx="3.2" ry="3.2"/>
</g>
<!-- booking&#45;&gt;account -->
<g id="edge3" class="edge">
<title>booking:w&#45;&gt;account:e</title>
<path fill="none" stroke="#000000" d="M169.2611,-277.3678C149.9021,-289.0616 151.6833,-324.7 122,-324.7"/>
<polygon fill="#000000" stroke="#000000" points="175.7529,-275.6956 184.398,-277.1862 179.6264,-274.6978 183.5,-273.7 183.5,-273.7 183.5,-273.7 179.6264,-274.6978 182.602,-270.2138 175.7529,-275.6956 175.7529,-275.6956"/>
<ellipse fill="none" stroke="#000000" cx="172.654" cy="-276.4939" rx="3.2" ry="3.2"/>
</g>
<!-- aircraft -->
<g id="node7" class="node">
<title>aircraft</title>
<g id="a_node7"><a xlink:href="../../tables/aircraft.html" xlink:title="aircraft" target="_top">
<polygon fill="#ffffff" stroke="transparent" points="23,-38.2 23,-99.2 107,-99.2 107,-38.2 23,-38.2"/>
<polygon fill="#f5f5f5" stroke="transparent" points="23,-75.7 23,-98.7 107,-98.7 107,-75.7 23,-75.7"/>
<polygon fill="none" stroke="#000000" points="23,-75.7 23,-98.7 107,-98.7 107,-75.7 23,-75.7"/>
<text text-anchor="start" x="28" y="-84.3" font-family="Helvetica,sans-Serif" font-weight="bold" font-size="11.00" fill="#000000">aircraft</text>
<text text-anchor="start" x="72.5219" y="-83.8" font-family="Helvetica,sans-Serif" font-size="11.00" fill="#000000">[table]</text>
<polygon fill="none" stroke="#000000" points="23,-56.7 23,-75.7 107,-75.7 107,-56.7 23,-56.7"/>
<text text-anchor="start" x="26" y="-62.8" font-family="Helvetica,sans-Serif" font-size="11.00" fill="#000000">...</text>
<polygon fill="#ffffff" stroke="transparent" points="23,-37.7 23,-56.7 38,-56.7 38,-37.7 23,-37.7"/>
<polygon fill="none" stroke="#000000" points="23,-37.7 23,-56.7 38,-56.7 38,-37.7 23,-37.7"/>
<text text-anchor="start" x="26" y="-43.8" font-family="Helvetica,sans-Serif" font-size="11.00" fill="#000000"> &#160;</text>
<polygon fill="#ffffff" stroke="transparent" points="38,-37.7 38,-56.7 84,-56.7 84,-37.7 38,-37.7"/>
<polygon fill="none" stroke="#000000" points="38,-37.7 38,-56.7 84,-56.7 84,-37.7 38,-37.7"/>
<text text-anchor="start" x="42.4956" y="-43.8" font-family="Helvetica,sans-Serif" font-size="11.00" fill="#000000">12 rows</text>
<polygon fill="#ffffff" stroke="transparent" points="84,-37.7 84,-56.7 107,-56.7 107,-37.7 84,-37.7"/>
<polygon fill="none" stroke="#000000" points="84,-37.7 84,-56.7 107,-56.7 107,-37.7 84,-37.7"/>
<text text-anchor="start" x="88.4053" y="-43.8" font-family="Helvetica,sans-Serif" font-size="11.00" fill="#000000">1 &gt;</text>
</a>
</g>
</g>
<!-- flight&#45;&gt;aircraft -->
<g id="edge6" class="edge">
<title>flight:w&#45;&gt;aircraft:e</title>
<path fill="none" stroke="#000000" d="M157.1154,-100.7182C137.8874,-91.7601 134.5532,-65.7 107,-65.7"/>
<polygon fill="#000000" stroke="#000000" points="163.6665,-102.0762 170.7693,-107.2251 167.5833,-102.8881 171.5,-103.7 171.5,-103.7 171.5,-103.7 167.5833,-102.8881 172.2307,-100.1749 163.6665,-102.0762 163.6665,-102.0762"/>
<ellipse fill="none" stroke="#000000" cx="160.5331" cy="-101.4266" rx="3.2" ry="3.2"/>
</g>
<!-- airport -->
<g id="node8" class="node">
<title>airport</title>
<g id="a_node8"><a xlink:href="../../tables/airport.html" xlink:title="airport" target="_top">
<polygon fill="#ffffff" stroke="transparent" points="23.5,-120.2 23.5,-181.2 106.5,-181.2 106.5,-120.2 23.5,-120.2"/>
<polygon fill="#f5f5f5" stroke="transparent" points="24,-157.7 24,-180.7 107,-180.7 107,-157.7 24,-157.7"/>
<polygon fill="none" stroke="#000000" points="24,-157.7 24,-180.7 107,-180.7 107,-157.7 24,-157.7"/>
<text text-anchor="start" x="29" y="-166.3" font-family="Helvetica,sans-Serif" font-weight="bold" font-size="11.00" fill="#000000">airport</text>
<text text-anchor="start" x="72.0437" y="-165.8" font-family="Helvetica,sans-Serif" font-size="11.00" fill="#000000">[table]</text>
<polygon fill="none" stroke="#000000" points="24,-138.7 24,-157.7 107,-157.7 107,-138.7 24,-138.7"/>
<text text-anchor="start" x="27" y="-144.8" font-family="Helvetica,sans-Serif" font-size="11.00" fill="#000000">...</text>
<polygon fill="#ffffff" stroke="transparent" points="24,-119.7 24,-138.7 36,-138.7 36,-119.7 24,-119.7"/>
<polygon fill="none" stroke="#000000" points="24,-119.7 24,-138.7 36,-138.7 36,-119.7 24,-119.7"/>
<text text-anchor="start" x="26.9431" y="-125.8" font-family="Helvetica,sans-Serif" font-size="11.00" fill="#000000"> &#160;</text>
<polygon fill="#ffffff" stroke="transparent" points="36,-119.7 36,-138.7 86,-138.7 86,-119.7 36,-119.7"/>
<polygon fill="none" stroke="#000000" points="36,-119.7 36,-138.7 86,-138.7 86,-119.7 36,-119.7"/>
<text text-anchor="start" x="38.6903" y="-125.8" font-family="Helvetica,sans-Serif" font-size="11.00" fill="#000000">666 rows</text>
<polygon fill="#ffffff" stroke="transparent" points="86,-119.7 86,-138.7 107,-138.7 107,-119.7 86,-119.7"/>
<polygon fill="none" stroke="#000000" points="86,-119.7 86,-138.7 107,-138.7 107,-119.7 86,-119.7"/>
<text text-anchor="start" x="88.7027" y="-125.8" font-family="Helvetica,sans-Serif" font-size="11.00" fill="#000000">2 &gt;</text>
</a>
</g>
</g>
<!-- flight&#45;&gt;airport -->
<g id="edge7" class="edge">
<title>flight:w&#45;&gt;airport:e</title>
<path fill="none" stroke="#000000" d="M157.1575,-127.6524C138.8824,-133.0366 131.7276,-147.7 107,-147.7"/>
<polygon fill="#000000" stroke="#000000" points="163.5731,-126.7791 171.9856,-129.2671 167.5366,-126.2395 171.5,-125.7 171.5,-125.7 171.5,-125.7 167.5366,-126.2395 171.0144,-122.1329 163.5731,-126.7791 163.5731,-126.7791"/>
<ellipse fill="none" stroke="#000000" cx="160.4023" cy="-127.2107" rx="3.2" ry="3.2"/>
</g>
<!-- flight&#45;&gt;airport -->
<g id="edge8" class="edge">
<title>flight:w&#45;&gt;airport:e</title>
<path fill="none" stroke="#000000" d="M156.8432,-147.7C139.2137,-147.7 130.0677,-147.7 107,-147.7"/>
<polygon fill="#000000" stroke="#000000" points="163.5,-147.7001 171.5,-151.3 167.5,-147.7 171.5,-147.7 171.5,-147.7 171.5,-147.7 167.5,-147.7 171.5,-144.1 163.5,-147.7001 163.5,-147.7001"/>
<ellipse fill="none" stroke="#000000" cx="160.3" cy="-147.7001" rx="3.2" ry="3.2"/>
</g>
</g>
</svg>
