<?xml version="1.0" encoding="UTF-8" standalone="no"?>
<!DOCTYPE svg PUBLIC "-//W3C//DTD SVG 1.1//EN"
 "http://www.w3.org/Graphics/SVG/1.1/DTD/svg11.dtd">
<!-- Generated by graphviz version 2.40.1 (20161225.0304)
 -->
<!-- Title: oneDegreeRelationshipsDiagram Pages: 1 -->
<svg width="577pt" height="345pt"
 viewBox="0.00 0.00 577.00 345.20" xmlns="http://www.w3.org/2000/svg" xmlns:xlink="http://www.w3.org/1999/xlink">
<g id="graph0" class="graph" transform="scale(1 1) rotate(0) translate(4 341.2)">
<title>oneDegreeRelationshipsDiagram</title>
<polygon fill="#ffffff" stroke="transparent" points="-4,4 -4,-341.2 573,-341.2 573,4 -4,4"/>
<text text-anchor="middle" x="72.4936" y="-7.3" font-family="Helvetica,sans-Serif" font-size="11.00" fill="#000000">Generated by SchemaSpy</text>
<!-- booking -->
<g id="node1" class="node">
<title>booking</title>
<g id="a_node1"><a xlink:href="../../tables/booking.html" xlink:title="booking" target="_top">
<polygon fill="#ffffff" stroke="transparent" points="179,-90.7 179,-312.7 383,-312.7 383,-90.7 179,-90.7"/>
<polygon fill="#f5f5f5" stroke="transparent" points="181,-287.7 181,-310.7 381,-310.7 381,-287.7 181,-287.7"/>
<polygon fill="none" stroke="#000000" points="181,-287.7 181,-310.7 381,-310.7 381,-287.7 181,-287.7"/>
<text text-anchor="start" x="186" y="-296.3" font-family="Helvetica,sans-Serif" font-weight="bold" font-size="11.00" fill="#000000">booking</text>
<text text-anchor="start" x="346.0437" y="-295.8" font-family="Helvetica,sans-Serif" font-size="11.00" fill="#000000">[table]</text>
<polygon fill="none" stroke="#000000" points="181,-265.7 181,-287.7 289,-287.7 289,-265.7 181,-265.7"/>
<image xlink:href="../../images/primaryKeys.png" width="11px" height="12px" preserveAspectRatio="xMinYMin meet" x="186" y="-282.7"/>
<text text-anchor="start" x="201" y="-272.8" font-family="Helvetica,sans-Serif" font-size="11.00" fill="#000000">booking_id</text>
<polygon fill="none" stroke="#000000" points="289,-265.7 289,-287.7 381,-287.7 381,-265.7 289,-265.7"/>
<text text-anchor="start" x="292" y="-273.4" font-family="Helvetica,sans-Serif" font-size="11.00" fill="#000000">int8[19]</text>
<polygon fill="#ffffff" stroke="transparent" points="181,-243.7 181,-265.7 289,-265.7 289,-243.7 181,-243.7"/>
<polygon fill="none" stroke="#000000" points="181,-243.7 181,-265.7 289,-265.7 289,-243.7 181,-243.7"/>
<text text-anchor="start" x="201" y="-250.8" font-family="Helvetica,sans-Serif" font-size="11.00" fill="#000000">booking_ref</text>
<polygon fill="none" stroke="#000000" points="289,-243.7 289,-265.7 381,-265.7 381,-243.7 289,-243.7"/>
<text text-anchor="start" x="292" y="-251.4" font-family="Helvetica,sans-Serif" font-size="11.00" fill="#000000">text[2147483647]</text>
<polygon fill="none" stroke="#000000" points="181,-221.7 181,-243.7 289,-243.7 289,-221.7 181,-221.7"/>
<text text-anchor="start" x="201" y="-228.8" font-family="Helvetica,sans-Serif" font-size="11.00" fill="#000000">booking_name</text>
<polygon fill="none" stroke="#000000" points="289,-221.7 289,-243.7 381,-243.7 381,-221.7 289,-221.7"/>
<text text-anchor="start" x="292" y="-229.4" font-family="Helvetica,sans-Serif" font-size="11.00" fill="#000000">text[2147483647]</text>
<polygon fill="none" stroke="#000000" points="181,-199.7 181,-221.7 289,-221.7 289,-199.7 181,-199.7"/>
<image xlink:href="../../images/foreignKeys.png" width="11px" height="12px" preserveAspectRatio="xMinYMin meet" x="186" y="-216.7"/>
<text text-anchor="start" x="201" y="-206.8" font-family="Helvetica,sans-Serif" font-size="11.00" fill="#000000">account_id</text>
<polygon fill="none" stroke="#000000" points="289,-199.7 289,-221.7 381,-221.7 381,-199.7 289,-199.7"/>
<text text-anchor="start" x="292" y="-207.4" font-family="Helvetica,sans-Serif" font-size="11.00" fill="#000000">int4[10]</text>
<polygon fill="none" stroke="#000000" points="181,-177.7 181,-199.7 289,-199.7 289,-177.7 181,-177.7"/>
<text text-anchor="start" x="201" y="-184.8" font-family="Helvetica,sans-Serif" font-size="11.00" fill="#000000">email</text>
<polygon fill="none" stroke="#000000" points="289,-177.7 289,-199.7 381,-199.7 381,-177.7 289,-177.7"/>
<text text-anchor="start" x="292" y="-185.4" font-family="Helvetica,sans-Serif" font-size="11.00" fill="#000000">text[2147483647]</text>
<polygon fill="none" stroke="#000000" points="181,-155.7 181,-177.7 289,-177.7 289,-155.7 181,-155.7"/>
<text text-anchor="start" x="201" y="-162.8" font-family="Helvetica,sans-Serif" font-size="11.00" fill="#000000">phone</text>
<polygon fill="none" stroke="#000000" points="289,-155.7 289,-177.7 381,-177.7 381,-155.7 289,-155.7"/>
<text text-anchor="start" x="292" y="-163.4" font-family="Helvetica,sans-Serif" font-size="11.00" fill="#000000">text[2147483647]</text>
<polygon fill="none" stroke="#000000" points="181,-133.7 181,-155.7 289,-155.7 289,-133.7 181,-133.7"/>
<text text-anchor="start" x="201" y="-140.8" font-family="Helvetica,sans-Serif" font-size="11.00" fill="#000000">update_ts</text>
<polygon fill="none" stroke="#000000" points="289,-133.7 289,-155.7 381,-155.7 381,-133.7 289,-133.7"/>
<text text-anchor="start" x="291.6023" y="-141.4" font-family="Helvetica,sans-Serif" font-size="11.00" fill="#000000">timestamptz[35,6]</text>
<polygon fill="none" stroke="#000000" points="181,-111.7 181,-133.7 289,-133.7 289,-111.7 181,-111.7"/>
<text text-anchor="start" x="201" y="-118.8" font-family="Helvetica,sans-Serif" font-size="11.00" fill="#000000">price</text>
<polygon fill="none" stroke="#000000" points="289,-111.7 289,-133.7 381,-133.7 381,-111.7 289,-111.7"/>
<text text-anchor="start" x="292" y="-119.4" font-family="Helvetica,sans-Serif" font-size="11.00" fill="#000000">numeric[7,2]</text>
<polygon fill="#ffffff" stroke="transparent" points="181,-92.7 181,-111.7 205,-111.7 205,-92.7 181,-92.7"/>
<polygon fill="none" stroke="#000000" points="181,-92.7 181,-111.7 205,-111.7 205,-92.7 181,-92.7"/>
<text text-anchor="start" x="184" y="-98.8" font-family="Helvetica,sans-Serif" font-size="11.00" fill="#000000">&lt; 1</text>
<polygon fill="#ffffff" stroke="transparent" points="205,-92.7 205,-111.7 289,-111.7 289,-92.7 205,-92.7"/>
<polygon fill="none" stroke="#000000" points="205,-92.7 205,-111.7 289,-111.7 289,-92.7 205,-92.7"/>
<text text-anchor="start" x="210.8073" y="-98.8" font-family="Helvetica,sans-Serif" font-size="11.00" fill="#000000">5,643,687 rows</text>
<polygon fill="#ffffff" stroke="transparent" points="289,-92.7 289,-111.7 381,-111.7 381,-92.7 289,-92.7"/>
<polygon fill="none" stroke="#000000" points="289,-92.7 289,-111.7 381,-111.7 381,-92.7 289,-92.7"/>
<text text-anchor="start" x="362.4053" y="-98.8" font-family="Helvetica,sans-Serif" font-size="11.00" fill="#000000">2 &gt;</text>
<polygon fill="none" stroke="#000000" stroke-width="2" points="180,-91.7 180,-311.7 382,-311.7 382,-91.7 180,-91.7"/>
</a>
</g>
</g>
<!-- account -->
<g id="node2" class="node">
<title>account</title>
<g id="a_node2"><a xlink:href="../../tables/account.html" xlink:title="account" target="_top">
<polygon fill="#ffffff" stroke="transparent" points="8,-68.2 8,-173.2 130,-173.2 130,-68.2 8,-68.2"/>
<polygon fill="#f5f5f5" stroke="transparent" points="8,-149.7 8,-172.7 130,-172.7 130,-149.7 8,-149.7"/>
<polygon fill="none" stroke="#000000" points="8,-149.7 8,-172.7 130,-172.7 130,-149.7 8,-149.7"/>
<text text-anchor="start" x="13" y="-158.3" font-family="Helvetica,sans-Serif" font-weight="bold" font-size="11.00" fill="#000000">account</text>
<text text-anchor="start" x="95.0437" y="-157.8" font-family="Helvetica,sans-Serif" font-size="11.00" fill="#000000">[table]</text>
<polygon fill="none" stroke="#000000" points="8,-127.7 8,-149.7 130,-149.7 130,-127.7 8,-127.7"/>
<image xlink:href="../../images/primaryKeys.png" width="11px" height="12px" preserveAspectRatio="xMinYMin meet" x="13" y="-144.7"/>
<text text-anchor="start" x="28" y="-134.8" font-family="Helvetica,sans-Serif" font-size="11.00" fill="#000000">account_id</text>
<polygon fill="none" stroke="#000000" points="8,-105.7 8,-127.7 130,-127.7 130,-105.7 8,-105.7"/>
<image xlink:href="../../images/foreignKeys.png" width="11px" height="12px" preserveAspectRatio="xMinYMin meet" x="13" y="-122.7"/>
<text text-anchor="start" x="28" y="-112.8" font-family="Helvetica,sans-Serif" font-size="11.00" fill="#000000">frequent_flyer_id</text>
<polygon fill="none" stroke="#000000" points="8,-86.7 8,-105.7 130,-105.7 130,-86.7 8,-86.7"/>
<text text-anchor="start" x="11" y="-92.8" font-family="Helvetica,sans-Serif" font-size="11.00" fill="#000000">...</text>
<polygon fill="#ffffff" stroke="transparent" points="8,-67.7 8,-86.7 33,-86.7 33,-67.7 8,-67.7"/>
<polygon fill="none" stroke="#000000" points="8,-67.7 8,-86.7 33,-86.7 33,-67.7 8,-67.7"/>
<text text-anchor="start" x="11" y="-73.8" font-family="Helvetica,sans-Serif" font-size="11.00" fill="#000000">&lt; 1</text>
<polygon fill="#ffffff" stroke="transparent" points="33,-67.7 33,-86.7 107,-86.7 107,-67.7 33,-67.7"/>
<polygon fill="none" stroke="#000000" points="33,-67.7 33,-86.7 107,-86.7 107,-67.7 33,-67.7"/>
<text text-anchor="start" x="37.9791" y="-73.8" font-family="Helvetica,sans-Serif" font-size="11.00" fill="#000000">257,333 rows</text>
<polygon fill="#ffffff" stroke="transparent" points="107,-67.7 107,-86.7 130,-86.7 130,-67.7 107,-67.7"/>
<polygon fill="none" stroke="#000000" points="107,-67.7 107,-86.7 130,-86.7 130,-67.7 107,-67.7"/>
<text text-anchor="start" x="111.4053" y="-73.8" font-family="Helvetica,sans-Serif" font-size="11.00" fill="#000000">3 &gt;</text>
</a>
</g>
</g>
<!-- booking&#45;&gt;account -->
<g id="edge1" class="edge">
<title>booking:w&#45;&gt;account:e</title>
<path fill="none" stroke="#000000" d="M167.2466,-206.1961C148.5961,-190.4335 163.2404,-138.7 130,-138.7"/>
<polygon fill="#000000" stroke="#000000" points="173.3973,-208.2102 179.8796,-214.1212 177.1986,-209.4551 181,-210.7 181,-210.7 181,-210.7 177.1986,-209.4551 182.1204,-207.2788 173.3973,-208.2102 173.3973,-208.2102"/>
<ellipse fill="none" stroke="#000000" cx="170.3562" cy="-207.2143" rx="3.2" ry="3.2"/>
</g>
<!-- booking_leg -->
<g id="node3" class="node">
<title>booking_leg</title>
<g id="a_node3"><a xlink:href="../../tables/booking_leg.html" xlink:title="booking_leg" target="_top">
<polygon fill="#ffffff" stroke="transparent" points="432,-206.2 432,-333.2 561,-333.2 561,-206.2 432,-206.2"/>
<polygon fill="#f5f5f5" stroke="transparent" points="432.5,-309.7 432.5,-332.7 561.5,-332.7 561.5,-309.7 432.5,-309.7"/>
<polygon fill="none" stroke="#000000" points="432.5,-309.7 432.5,-332.7 561.5,-332.7 561.5,-309.7 432.5,-309.7"/>
<text text-anchor="start" x="437.5" y="-318.3" font-family="Helvetica,sans-Serif" font-weight="bold" font-size="11.00" fill="#000000">booking_leg</text>
<text text-anchor="start" x="526.5437" y="-317.8" font-family="Helvetica,sans-Serif" font-size="11.00" fill="#000000">[table]</text>
<polygon fill="none" stroke="#000000" points="432.5,-287.7 432.5,-309.7 561.5,-309.7 561.5,-287.7 432.5,-287.7"/>
<image xlink:href="../../images/primaryKeys.png" width="11px" height="12px" preserveAspectRatio="xMinYMin meet" x="437.5" y="-304.7"/>
<text text-anchor="start" x="463.5" y="-294.8" font-family="Helvetica,sans-Serif" font-size="11.00" fill="#000000">booking_leg_id</text>
<polygon fill="none" stroke="#000000" points="432.5,-265.7 432.5,-287.7 561.5,-287.7 561.5,-265.7 432.5,-265.7"/>
<image xlink:href="../../images/foreignKeys.png" width="11px" height="12px" preserveAspectRatio="xMinYMin meet" x="437.5" y="-282.7"/>
<text text-anchor="start" x="463.5" y="-272.8" font-family="Helvetica,sans-Serif" font-size="11.00" fill="#000000">booking_id</text>
<polygon fill="none" stroke="#000000" points="432.5,-243.7 432.5,-265.7 561.5,-265.7 561.5,-243.7 432.5,-243.7"/>
<image xlink:href="../../images/foreignKeys.png" width="11px" height="12px" preserveAspectRatio="xMinYMin meet" x="437.5" y="-260.7"/>
<text text-anchor="start" x="463.5" y="-250.8" font-family="Helvetica,sans-Serif" font-size="11.00" fill="#000000">flight_id</text>
<polygon fill="none" stroke="#000000" points="432.5,-224.7 432.5,-243.7 561.5,-243.7 561.5,-224.7 432.5,-224.7"/>
<text text-anchor="start" x="435.5" y="-230.8" font-family="Helvetica,sans-Serif" font-size="11.00" fill="#000000">...</text>
<polygon fill="#ffffff" stroke="transparent" points="432.5,-205.7 432.5,-224.7 453.5,-224.7 453.5,-205.7 432.5,-205.7"/>
<polygon fill="none" stroke="#000000" points="432.5,-205.7 432.5,-224.7 453.5,-224.7 453.5,-205.7 432.5,-205.7"/>
<text text-anchor="start" x="435.2027" y="-211.8" font-family="Helvetica,sans-Serif" font-size="11.00" fill="#000000">&lt; 2</text>
<polygon fill="#ffffff" stroke="transparent" points="453.5,-205.7 453.5,-224.7 540.5,-224.7 540.5,-205.7 453.5,-205.7"/>
<polygon fill="none" stroke="#000000" points="453.5,-205.7 453.5,-224.7 540.5,-224.7 540.5,-205.7 453.5,-205.7"/>
<text text-anchor="start" x="456.3462" y="-211.8" font-family="Helvetica,sans-Serif" font-size="11.00" fill="#000000">17,894,232 rows</text>
<polygon fill="#ffffff" stroke="transparent" points="540.5,-205.7 540.5,-224.7 561.5,-224.7 561.5,-205.7 540.5,-205.7"/>
<polygon fill="none" stroke="#000000" points="540.5,-205.7 540.5,-224.7 561.5,-224.7 561.5,-205.7 540.5,-205.7"/>
<text text-anchor="start" x="543.2026" y="-211.8" font-family="Helvetica,sans-Serif" font-size="11.00" fill="#000000">1 &gt;</text>
</a>
</g>
</g>
<!-- booking_leg&#45;&gt;booking -->
<g id="edge2" class="edge">
<title>booking_leg:w&#45;&gt;booking:e</title>
<path fill="none" stroke="#000000" d="M418.0156,-276.7C405.6771,-276.7 398.1667,-276.7 381,-276.7"/>
<polygon fill="#000000" stroke="#000000" points="424.5,-276.7001 432.5,-280.3 428.5,-276.7 432.5,-276.7 432.5,-276.7 432.5,-276.7 428.5,-276.7 432.5,-273.1 424.5,-276.7001 424.5,-276.7001"/>
<ellipse fill="none" stroke="#000000" cx="421.3" cy="-276.7001" rx="3.2" ry="3.2"/>
</g>
<!-- passenger -->
<g id="node4" class="node">
<title>passenger</title>
<g id="a_node4"><a xlink:href="../../tables/passenger.html" xlink:title="passenger" target="_top">
<polygon fill="#ffffff" stroke="transparent" points="432,-38.2 432,-165.2 561,-165.2 561,-38.2 432,-38.2"/>
<polygon fill="#f5f5f5" stroke="transparent" points="432.5,-141.7 432.5,-164.7 561.5,-164.7 561.5,-141.7 432.5,-141.7"/>
<polygon fill="none" stroke="#000000" points="432.5,-141.7 432.5,-164.7 561.5,-164.7 561.5,-141.7 432.5,-141.7"/>
<text text-anchor="start" x="437.5" y="-150.3" font-family="Helvetica,sans-Serif" font-weight="bold" font-size="11.00" fill="#000000">passenger</text>
<text text-anchor="start" x="526.5437" y="-149.8" font-family="Helvetica,sans-Serif" font-size="11.00" fill="#000000">[table]</text>
<polygon fill="none" stroke="#000000" points="432.5,-119.7 432.5,-141.7 561.5,-141.7 561.5,-119.7 432.5,-119.7"/>
<image xlink:href="../../images/primaryKeys.png" width="11px" height="12px" preserveAspectRatio="xMinYMin meet" x="437.5" y="-136.7"/>
<text text-anchor="start" x="466.5" y="-126.8" font-family="Helvetica,sans-Serif" font-size="11.00" fill="#000000">passenger_id</text>
<polygon fill="none" stroke="#000000" points="432.5,-97.7 432.5,-119.7 561.5,-119.7 561.5,-97.7 432.5,-97.7"/>
<image xlink:href="../../images/foreignKeys.png" width="11px" height="12px" preserveAspectRatio="xMinYMin meet" x="437.5" y="-114.7"/>
<text text-anchor="start" x="466.5" y="-104.8" font-family="Helvetica,sans-Serif" font-size="11.00" fill="#000000">booking_id</text>
<polygon fill="none" stroke="#000000" points="432.5,-75.7 432.5,-97.7 561.5,-97.7 561.5,-75.7 432.5,-75.7"/>
<image xlink:href="../../images/foreignKeys.png" width="11px" height="12px" preserveAspectRatio="xMinYMin meet" x="437.5" y="-92.7"/>
<text text-anchor="start" x="466.5" y="-82.8" font-family="Helvetica,sans-Serif" font-size="11.00" fill="#000000">account_id</text>
<polygon fill="none" stroke="#000000" points="432.5,-56.7 432.5,-75.7 561.5,-75.7 561.5,-56.7 432.5,-56.7"/>
<text text-anchor="start" x="435.5" y="-62.8" font-family="Helvetica,sans-Serif" font-size="11.00" fill="#000000">...</text>
<polygon fill="#ffffff" stroke="transparent" points="432.5,-37.7 432.5,-56.7 453.5,-56.7 453.5,-37.7 432.5,-37.7"/>
<polygon fill="none" stroke="#000000" points="432.5,-37.7 432.5,-56.7 453.5,-56.7 453.5,-37.7 432.5,-37.7"/>
<text text-anchor="start" x="435.2027" y="-43.8" font-family="Helvetica,sans-Serif" font-size="11.00" fill="#000000">&lt; 2</text>
<polygon fill="#ffffff" stroke="transparent" points="453.5,-37.7 453.5,-56.7 540.5,-56.7 540.5,-37.7 453.5,-37.7"/>
<polygon fill="none" stroke="#000000" points="453.5,-37.7 453.5,-56.7 540.5,-56.7 540.5,-37.7 453.5,-37.7"/>
<text text-anchor="start" x="456.3462" y="-43.8" font-family="Helvetica,sans-Serif" font-size="11.00" fill="#000000">16,312,143 rows</text>
<polygon fill="#ffffff" stroke="transparent" points="540.5,-37.7 540.5,-56.7 561.5,-56.7 561.5,-37.7 540.5,-37.7"/>
<polygon fill="none" stroke="#000000" points="540.5,-37.7 540.5,-56.7 561.5,-56.7 561.5,-37.7 540.5,-37.7"/>
<text text-anchor="start" x="543.2026" y="-43.8" font-family="Helvetica,sans-Serif" font-size="11.00" fill="#000000">1 &gt;</text>
</a>
</g>
</g>
<!-- passenger&#45;&gt;booking -->
<g id="edge4" class="edge">
<title>passenger:w&#45;&gt;booking:e</title>
<path fill="none" stroke="#000000" d="M418.2948,-111.2052C368.5806,-132.1039 453.4525,-276.7 381,-276.7"/>
<polygon fill="#000000" stroke="#000000" points="424.6216,-110.0895 433.1253,-112.2453 428.5608,-109.3947 432.5,-108.7 432.5,-108.7 432.5,-108.7 428.5608,-109.3947 431.8747,-105.1547 424.6216,-110.0895 424.6216,-110.0895"/>
<ellipse fill="none" stroke="#000000" cx="421.4702" cy="-110.6453" rx="3.2" ry="3.2"/>
</g>
<!-- passenger&#45;&gt;account -->
<g id="edge3" class="edge">
<title>passenger:w&#45;&gt;account:e</title>
<path fill="none" stroke="#000000" d="M418.0499,-85.3321C409.6469,-83.6135 403.6692,-80.761 391,-79.7 293.5633,-71.5401 257.6494,-34.3969 171,-79.7 142.7022,-94.495 161.932,-138.7 130,-138.7"/>
<polygon fill="#000000" stroke="#000000" points="424.5356,-85.946 432.1607,-90.284 428.5178,-86.323 432.5,-86.7 432.5,-86.7 432.5,-86.7 428.5178,-86.323 432.8393,-83.116 424.5356,-85.946 424.5356,-85.946"/>
<ellipse fill="none" stroke="#000000" cx="421.3498" cy="-85.6444" rx="3.2" ry="3.2"/>
</g>
</g>
</svg>
