<?xml version="1.0" encoding="UTF-8" standalone="no"?>
<!DOCTYPE svg PUBLIC "-//W3C//DTD SVG 1.1//EN"
 "http://www.w3.org/Graphics/SVG/1.1/DTD/svg11.dtd">
<!-- Generated by graphviz version 2.40.1 (20161225.0304)
 -->
<!-- Title: oneDegreeRelationshipsDiagram Pages: 1 -->
<svg width="597pt" height="350pt"
 viewBox="0.00 0.00 597.00 350.20" xmlns="http://www.w3.org/2000/svg" xmlns:xlink="http://www.w3.org/1999/xlink">
<g id="graph0" class="graph" transform="scale(1 1) rotate(0) translate(4 346.2)">
<title>oneDegreeRelationshipsDiagram</title>
<polygon fill="#ffffff" stroke="transparent" points="-4,4 -4,-346.2 593,-346.2 593,4 -4,4"/>
<text text-anchor="middle" x="72.4936" y="-7.3" font-family="Helvetica,sans-Serif" font-size="11.00" fill="#000000">Generated by SchemaSpy</text>
<!-- boarding_pass -->
<g id="node1" class="node">
<title>boarding_pass</title>
<g id="a_node1"><a xlink:href="../../tables/boarding_pass.html" xlink:title="boarding_pass" target="_top">
<polygon fill="#ffffff" stroke="transparent" points="457,-211.2 457,-338.2 581,-338.2 581,-211.2 457,-211.2"/>
<polygon fill="#f5f5f5" stroke="transparent" points="457,-314.7 457,-337.7 581,-337.7 581,-314.7 457,-314.7"/>
<polygon fill="none" stroke="#000000" points="457,-314.7 457,-337.7 581,-337.7 581,-314.7 457,-314.7"/>
<text text-anchor="start" x="462" y="-323.3" font-family="Helvetica,sans-Serif" font-weight="bold" font-size="11.00" fill="#000000">boarding_pass</text>
<text text-anchor="start" x="546.5219" y="-322.8" font-family="Helvetica,sans-Serif" font-size="11.00" fill="#000000">[table]</text>
<polygon fill="none" stroke="#000000" points="457,-292.7 457,-314.7 581,-314.7 581,-292.7 457,-292.7"/>
<image xlink:href="../../images/primaryKeys.png" width="11px" height="12px" preserveAspectRatio="xMinYMin meet" x="462" y="-309.7"/>
<text text-anchor="start" x="486" y="-299.8" font-family="Helvetica,sans-Serif" font-size="11.00" fill="#000000">pass_id</text>
<polygon fill="none" stroke="#000000" points="457,-270.7 457,-292.7 581,-292.7 581,-270.7 457,-270.7"/>
<image xlink:href="../../images/foreignKeys.png" width="11px" height="12px" preserveAspectRatio="xMinYMin meet" x="462" y="-287.7"/>
<text text-anchor="start" x="486" y="-277.8" font-family="Helvetica,sans-Serif" font-size="11.00" fill="#000000">passenger_id</text>
<polygon fill="none" stroke="#000000" points="457,-248.7 457,-270.7 581,-270.7 581,-248.7 457,-248.7"/>
<image xlink:href="../../images/foreignKeys.png" width="11px" height="12px" preserveAspectRatio="xMinYMin meet" x="462" y="-265.7"/>
<text text-anchor="start" x="486" y="-255.8" font-family="Helvetica,sans-Serif" font-size="11.00" fill="#000000">booking_leg_id</text>
<polygon fill="none" stroke="#000000" points="457,-229.7 457,-248.7 581,-248.7 581,-229.7 457,-229.7"/>
<text text-anchor="start" x="460" y="-235.8" font-family="Helvetica,sans-Serif" font-size="11.00" fill="#000000">...</text>
<polygon fill="#ffffff" stroke="transparent" points="457,-210.7 457,-229.7 480,-229.7 480,-210.7 457,-210.7"/>
<polygon fill="none" stroke="#000000" points="457,-210.7 457,-229.7 480,-229.7 480,-210.7 457,-210.7"/>
<text text-anchor="start" x="460" y="-216.8" font-family="Helvetica,sans-Serif" font-size="11.00" fill="#000000">&lt; 2</text>
<polygon fill="#ffffff" stroke="transparent" points="480,-210.7 480,-229.7 568,-229.7 568,-210.7 480,-210.7"/>
<polygon fill="none" stroke="#000000" points="480,-210.7 480,-229.7 568,-229.7 568,-210.7 480,-210.7"/>
<text text-anchor="start" x="483.6924" y="-216.8" font-family="Helvetica,sans-Serif" font-size="11.00" fill="#000000">25,292,472 rows</text>
<polygon fill="#ffffff" stroke="transparent" points="568,-210.7 568,-229.7 581,-229.7 581,-210.7 568,-210.7"/>
<polygon fill="none" stroke="#000000" points="568,-210.7 568,-229.7 581,-229.7 581,-210.7 568,-210.7"/>
<text text-anchor="start" x="571.8862" y="-216.8" font-family="Helvetica,sans-Serif" font-size="11.00" fill="#000000"> &#160;</text>
</a>
</g>
</g>
<!-- booking_leg -->
<g id="node2" class="node">
<title>booking_leg</title>
<g id="a_node2"><a xlink:href="../../tables/booking_leg.html" xlink:title="booking_leg" target="_top">
<polygon fill="#ffffff" stroke="transparent" points="204,-117.7 204,-295.7 408,-295.7 408,-117.7 204,-117.7"/>
<polygon fill="#f5f5f5" stroke="transparent" points="206,-270.7 206,-293.7 406,-293.7 406,-270.7 206,-270.7"/>
<polygon fill="none" stroke="#000000" points="206,-270.7 206,-293.7 406,-293.7 406,-270.7 206,-270.7"/>
<text text-anchor="start" x="211" y="-279.3" font-family="Helvetica,sans-Serif" font-weight="bold" font-size="11.00" fill="#000000">booking_leg</text>
<text text-anchor="start" x="371.0437" y="-278.8" font-family="Helvetica,sans-Serif" font-size="11.00" fill="#000000">[table]</text>
<polygon fill="none" stroke="#000000" points="206,-248.7 206,-270.7 314,-270.7 314,-248.7 206,-248.7"/>
<image xlink:href="../../images/primaryKeys.png" width="11px" height="12px" preserveAspectRatio="xMinYMin meet" x="211" y="-265.7"/>
<text text-anchor="start" x="227" y="-255.8" font-family="Helvetica,sans-Serif" font-size="11.00" fill="#000000">booking_leg_id</text>
<polygon fill="none" stroke="#000000" points="314,-248.7 314,-270.7 406,-270.7 406,-248.7 314,-248.7"/>
<text text-anchor="start" x="317" y="-256.4" font-family="Helvetica,sans-Serif" font-size="11.00" fill="#000000">serial[10]</text>
<polygon fill="none" stroke="#000000" points="206,-226.7 206,-248.7 314,-248.7 314,-226.7 206,-226.7"/>
<image xlink:href="../../images/foreignKeys.png" width="11px" height="12px" preserveAspectRatio="xMinYMin meet" x="211" y="-243.7"/>
<text text-anchor="start" x="227" y="-233.8" font-family="Helvetica,sans-Serif" font-size="11.00" fill="#000000">booking_id</text>
<polygon fill="none" stroke="#000000" points="314,-226.7 314,-248.7 406,-248.7 406,-226.7 314,-226.7"/>
<text text-anchor="start" x="317" y="-234.4" font-family="Helvetica,sans-Serif" font-size="11.00" fill="#000000">int4[10]</text>
<polygon fill="none" stroke="#000000" points="206,-204.7 206,-226.7 314,-226.7 314,-204.7 206,-204.7"/>
<image xlink:href="../../images/foreignKeys.png" width="11px" height="12px" preserveAspectRatio="xMinYMin meet" x="211" y="-221.7"/>
<text text-anchor="start" x="227" y="-211.8" font-family="Helvetica,sans-Serif" font-size="11.00" fill="#000000">flight_id</text>
<polygon fill="none" stroke="#000000" points="314,-204.7 314,-226.7 406,-226.7 406,-204.7 314,-204.7"/>
<text text-anchor="start" x="317" y="-212.4" font-family="Helvetica,sans-Serif" font-size="11.00" fill="#000000">int4[10]</text>
<polygon fill="none" stroke="#000000" points="206,-182.7 206,-204.7 314,-204.7 314,-182.7 206,-182.7"/>
<text text-anchor="start" x="227" y="-189.8" font-family="Helvetica,sans-Serif" font-size="11.00" fill="#000000">leg_num</text>
<polygon fill="none" stroke="#000000" points="314,-182.7 314,-204.7 406,-204.7 406,-182.7 314,-182.7"/>
<text text-anchor="start" x="317" y="-190.4" font-family="Helvetica,sans-Serif" font-size="11.00" fill="#000000">int4[10]</text>
<polygon fill="none" stroke="#000000" points="206,-160.7 206,-182.7 314,-182.7 314,-160.7 206,-160.7"/>
<text text-anchor="start" x="227" y="-167.8" font-family="Helvetica,sans-Serif" font-size="11.00" fill="#000000">is_returning</text>
<polygon fill="none" stroke="#000000" points="314,-160.7 314,-182.7 406,-182.7 406,-160.7 314,-160.7"/>
<text text-anchor="start" x="317" y="-168.4" font-family="Helvetica,sans-Serif" font-size="11.00" fill="#000000">bool[1]</text>
<polygon fill="none" stroke="#000000" points="206,-138.7 206,-160.7 314,-160.7 314,-138.7 206,-138.7"/>
<text text-anchor="start" x="227" y="-145.8" font-family="Helvetica,sans-Serif" font-size="11.00" fill="#000000">update_ts</text>
<polygon fill="none" stroke="#000000" points="314,-138.7 314,-160.7 406,-160.7 406,-138.7 314,-138.7"/>
<text text-anchor="start" x="316.6023" y="-146.4" font-family="Helvetica,sans-Serif" font-size="11.00" fill="#000000">timestamptz[35,6]</text>
<polygon fill="#ffffff" stroke="transparent" points="206,-119.7 206,-138.7 227,-138.7 227,-119.7 206,-119.7"/>
<polygon fill="none" stroke="#000000" points="206,-119.7 206,-138.7 227,-138.7 227,-119.7 206,-119.7"/>
<text text-anchor="start" x="208.7027" y="-125.8" font-family="Helvetica,sans-Serif" font-size="11.00" fill="#000000">&lt; 2</text>
<polygon fill="#ffffff" stroke="transparent" points="227,-119.7 227,-138.7 314,-138.7 314,-119.7 227,-119.7"/>
<polygon fill="none" stroke="#000000" points="227,-119.7 227,-138.7 314,-138.7 314,-119.7 227,-119.7"/>
<text text-anchor="start" x="229.8462" y="-125.8" font-family="Helvetica,sans-Serif" font-size="11.00" fill="#000000">17,894,232 rows</text>
<polygon fill="#ffffff" stroke="transparent" points="314,-119.7 314,-138.7 406,-138.7 406,-119.7 314,-119.7"/>
<polygon fill="none" stroke="#000000" points="314,-119.7 314,-138.7 406,-138.7 406,-119.7 314,-119.7"/>
<text text-anchor="start" x="387.4053" y="-125.8" font-family="Helvetica,sans-Serif" font-size="11.00" fill="#000000">1 &gt;</text>
<polygon fill="none" stroke="#000000" stroke-width="2" points="205,-118.7 205,-294.7 407,-294.7 407,-118.7 205,-118.7"/>
</a>
</g>
</g>
<!-- boarding_pass&#45;&gt;booking_leg -->
<g id="edge1" class="edge">
<title>boarding_pass:w&#45;&gt;booking_leg:e</title>
<path fill="none" stroke="#000000" d="M442.276,-259.7C430.2815,-259.7 422.8229,-259.7 406,-259.7"/>
<polygon fill="#000000" stroke="#000000" points="449,-259.7001 457,-263.3 453,-259.7 457,-259.7 457,-259.7 457,-259.7 453,-259.7 457,-256.1 449,-259.7001 449,-259.7001"/>
<ellipse fill="none" stroke="#000000" cx="445.8" cy="-259.7001" rx="3.2" ry="3.2"/>
</g>
<!-- booking -->
<g id="node3" class="node">
<title>booking</title>
<g id="a_node3"><a xlink:href="../../tables/booking.html" xlink:title="booking" target="_top">
<polygon fill="#ffffff" stroke="transparent" points="20,-208.2 20,-335.2 143,-335.2 143,-208.2 20,-208.2"/>
<polygon fill="#f5f5f5" stroke="transparent" points="20.5,-311.7 20.5,-334.7 143.5,-334.7 143.5,-311.7 20.5,-311.7"/>
<polygon fill="none" stroke="#000000" points="20.5,-311.7 20.5,-334.7 143.5,-334.7 143.5,-311.7 20.5,-311.7"/>
<text text-anchor="start" x="25.5" y="-320.3" font-family="Helvetica,sans-Serif" font-weight="bold" font-size="11.00" fill="#000000">booking</text>
<text text-anchor="start" x="108.5437" y="-319.8" font-family="Helvetica,sans-Serif" font-size="11.00" fill="#000000">[table]</text>
<polygon fill="none" stroke="#000000" points="20.5,-289.7 20.5,-311.7 143.5,-311.7 143.5,-289.7 20.5,-289.7"/>
<image xlink:href="../../images/primaryKeys.png" width="11px" height="12px" preserveAspectRatio="xMinYMin meet" x="25.5" y="-306.7"/>
<text text-anchor="start" x="48.5" y="-296.8" font-family="Helvetica,sans-Serif" font-size="11.00" fill="#000000">booking_id</text>
<polygon fill="#ffffff" stroke="transparent" points="20.5,-267.7 20.5,-289.7 143.5,-289.7 143.5,-267.7 20.5,-267.7"/>
<polygon fill="none" stroke="#000000" points="20.5,-267.7 20.5,-289.7 143.5,-289.7 143.5,-267.7 20.5,-267.7"/>
<text text-anchor="start" x="48.5" y="-274.8" font-family="Helvetica,sans-Serif" font-size="11.00" fill="#000000">booking_ref</text>
<polygon fill="none" stroke="#000000" points="20.5,-245.7 20.5,-267.7 143.5,-267.7 143.5,-245.7 20.5,-245.7"/>
<image xlink:href="../../images/foreignKeys.png" width="11px" height="12px" preserveAspectRatio="xMinYMin meet" x="25.5" y="-262.7"/>
<text text-anchor="start" x="48.5" y="-252.8" font-family="Helvetica,sans-Serif" font-size="11.00" fill="#000000">account_id</text>
<polygon fill="none" stroke="#000000" points="20.5,-226.7 20.5,-245.7 143.5,-245.7 143.5,-226.7 20.5,-226.7"/>
<text text-anchor="start" x="23.5" y="-232.8" font-family="Helvetica,sans-Serif" font-size="11.00" fill="#000000">...</text>
<polygon fill="#ffffff" stroke="transparent" points="20.5,-207.7 20.5,-226.7 41.5,-226.7 41.5,-207.7 20.5,-207.7"/>
<polygon fill="none" stroke="#000000" points="20.5,-207.7 20.5,-226.7 41.5,-226.7 41.5,-207.7 20.5,-207.7"/>
<text text-anchor="start" x="23.2026" y="-213.8" font-family="Helvetica,sans-Serif" font-size="11.00" fill="#000000">&lt; 1</text>
<polygon fill="#ffffff" stroke="transparent" points="41.5,-207.7 41.5,-226.7 122.5,-226.7 122.5,-207.7 41.5,-207.7"/>
<polygon fill="none" stroke="#000000" points="41.5,-207.7 41.5,-226.7 122.5,-226.7 122.5,-207.7 41.5,-207.7"/>
<text text-anchor="start" x="44.4037" y="-213.8" font-family="Helvetica,sans-Serif" font-size="11.00" fill="#000000">5,643,687 rows</text>
<polygon fill="#ffffff" stroke="transparent" points="122.5,-207.7 122.5,-226.7 143.5,-226.7 143.5,-207.7 122.5,-207.7"/>
<polygon fill="none" stroke="#000000" points="122.5,-207.7 122.5,-226.7 143.5,-226.7 143.5,-207.7 122.5,-207.7"/>
<text text-anchor="start" x="125.2027" y="-213.8" font-family="Helvetica,sans-Serif" font-size="11.00" fill="#000000">2 &gt;</text>
</a>
</g>
</g>
<!-- booking_leg&#45;&gt;booking -->
<g id="edge2" class="edge">
<title>booking_leg:w&#45;&gt;booking:e</title>
<path fill="none" stroke="#000000" d="M191.7612,-241.4523C170.1923,-255.015 177.0866,-300.7 143.5,-300.7"/>
<polygon fill="#000000" stroke="#000000" points="198.2641,-239.7386 206.9174,-241.1812 202.132,-238.7193 206,-237.7 206,-237.7 206,-237.7 202.132,-238.7193 205.0826,-234.2188 198.2641,-239.7386 198.2641,-239.7386"/>
<ellipse fill="none" stroke="#000000" cx="195.1697" cy="-240.5541" rx="3.2" ry="3.2"/>
</g>
<!-- flight -->
<g id="node4" class="node">
<title>flight</title>
<g id="a_node4"><a xlink:href="../../tables/flight.html" xlink:title="flight" target="_top">
<polygon fill="#ffffff" stroke="transparent" points="8,-38.2 8,-187.2 155,-187.2 155,-38.2 8,-38.2"/>
<polygon fill="#f5f5f5" stroke="transparent" points="8.5,-163.7 8.5,-186.7 155.5,-186.7 155.5,-163.7 8.5,-163.7"/>
<polygon fill="none" stroke="#000000" points="8.5,-163.7 8.5,-186.7 155.5,-186.7 155.5,-163.7 8.5,-163.7"/>
<text text-anchor="start" x="13.5" y="-172.3" font-family="Helvetica,sans-Serif" font-weight="bold" font-size="11.00" fill="#000000">flight</text>
<text text-anchor="start" x="120.5437" y="-171.8" font-family="Helvetica,sans-Serif" font-size="11.00" fill="#000000">[table]</text>
<polygon fill="none" stroke="#000000" points="8.5,-141.7 8.5,-163.7 155.5,-163.7 155.5,-141.7 8.5,-141.7"/>
<image xlink:href="../../images/primaryKeys.png" width="11px" height="12px" preserveAspectRatio="xMinYMin meet" x="13.5" y="-158.7"/>
<text text-anchor="start" x="28.5" y="-148.8" font-family="Helvetica,sans-Serif" font-size="11.00" fill="#000000">flight_id</text>
<polygon fill="none" stroke="#000000" points="8.5,-119.7 8.5,-141.7 155.5,-141.7 155.5,-119.7 8.5,-119.7"/>
<image xlink:href="../../images/foreignKeys.png" width="11px" height="12px" preserveAspectRatio="xMinYMin meet" x="13.5" y="-136.7"/>
<text text-anchor="start" x="28.5" y="-126.8" font-family="Helvetica,sans-Serif" font-size="11.00" fill="#000000">departure_airport</text>
<polygon fill="none" stroke="#000000" points="8.5,-97.7 8.5,-119.7 155.5,-119.7 155.5,-97.7 8.5,-97.7"/>
<image xlink:href="../../images/foreignKeys.png" width="11px" height="12px" preserveAspectRatio="xMinYMin meet" x="13.5" y="-114.7"/>
<text text-anchor="start" x="28.5" y="-104.8" font-family="Helvetica,sans-Serif" font-size="11.00" fill="#000000">arrival_airport</text>
<polygon fill="none" stroke="#000000" points="8.5,-75.7 8.5,-97.7 155.5,-97.7 155.5,-75.7 8.5,-75.7"/>
<image xlink:href="../../images/foreignKeys.png" width="11px" height="12px" preserveAspectRatio="xMinYMin meet" x="13.5" y="-92.7"/>
<text text-anchor="start" x="28.5" y="-82.8" font-family="Helvetica,sans-Serif" font-size="11.00" fill="#000000">aircraft_code</text>
<polygon fill="none" stroke="#000000" points="8.5,-56.7 8.5,-75.7 155.5,-75.7 155.5,-56.7 8.5,-56.7"/>
<text text-anchor="start" x="11.5" y="-62.8" font-family="Helvetica,sans-Serif" font-size="11.00" fill="#000000">...</text>
<polygon fill="#ffffff" stroke="transparent" points="8.5,-37.7 8.5,-56.7 45.5,-56.7 45.5,-37.7 8.5,-37.7"/>
<polygon fill="none" stroke="#000000" points="8.5,-37.7 8.5,-56.7 45.5,-56.7 45.5,-37.7 8.5,-37.7"/>
<text text-anchor="start" x="11.5" y="-43.8" font-family="Helvetica,sans-Serif" font-size="11.00" fill="#000000">&lt; 3</text>
<polygon fill="#ffffff" stroke="transparent" points="45.5,-37.7 45.5,-56.7 125.5,-56.7 125.5,-37.7 45.5,-37.7"/>
<polygon fill="none" stroke="#000000" points="45.5,-37.7 45.5,-56.7 125.5,-56.7 125.5,-37.7 45.5,-37.7"/>
<text text-anchor="start" x="56.4791" y="-43.8" font-family="Helvetica,sans-Serif" font-size="11.00" fill="#000000">683,176 rows</text>
<polygon fill="#ffffff" stroke="transparent" points="125.5,-37.7 125.5,-56.7 155.5,-56.7 155.5,-37.7 125.5,-37.7"/>
<polygon fill="none" stroke="#000000" points="125.5,-37.7 125.5,-56.7 155.5,-56.7 155.5,-37.7 125.5,-37.7"/>
<text text-anchor="start" x="136.9053" y="-43.8" font-family="Helvetica,sans-Serif" font-size="11.00" fill="#000000">1 &gt;</text>
</a>
</g>
</g>
<!-- booking_leg&#45;&gt;flight -->
<g id="edge3" class="edge">
<title>booking_leg:w&#45;&gt;flight:e</title>
<path fill="none" stroke="#000000" d="M191.9816,-210.7565C175.738,-195.9048 185.2175,-152.7 155.5,-152.7"/>
<polygon fill="#000000" stroke="#000000" points="198.4554,-213.0394 204.8027,-219.0951 202.2277,-214.3697 206,-215.7 206,-215.7 206,-215.7 202.2277,-214.3697 207.1973,-212.3049 198.4554,-213.0394 198.4554,-213.0394"/>
<ellipse fill="none" stroke="#000000" cx="195.4375" cy="-211.9752" rx="3.2" ry="3.2"/>
</g>
</g>
</svg>
