<?xml version="1.0" encoding="UTF-8" standalone="no"?>
<!DOCTYPE svg PUBLIC "-//W3C//DTD SVG 1.1//EN"
 "http://www.w3.org/Graphics/SVG/1.1/DTD/svg11.dtd">
<!-- Generated by graphviz version 2.40.1 (20161225.0304)
 -->
<!-- Title: twoDegreesRelationshipsDiagram Pages: 1 -->
<svg width="915pt" height="467pt"
 viewBox="0.00 0.00 915.00 466.74" xmlns="http://www.w3.org/2000/svg" xmlns:xlink="http://www.w3.org/1999/xlink">
<g id="graph0" class="graph" transform="scale(1 1) rotate(0) translate(4 462.7421)">
<title>twoDegreesRelationshipsDiagram</title>
<polygon fill="#ffffff" stroke="transparent" points="-4,4 -4,-462.7421 911,-462.7421 911,4 -4,4"/>
<text text-anchor="middle" x="72.4936" y="-7.3" font-family="Helvetica,sans-Serif" font-size="11.00" fill="#000000">Generated by SchemaSpy</text>
<!-- account -->
<g id="node1" class="node">
<title>account</title>
<g id="a_node1"><a xlink:href="../../tables/account.html" xlink:title="account" target="_top">
<polygon fill="#ffffff" stroke="transparent" points="181,-292.2 181,-353.2 295,-353.2 295,-292.2 181,-292.2"/>
<polygon fill="#f5f5f5" stroke="transparent" points="181,-329.7 181,-352.7 295,-352.7 295,-329.7 181,-329.7"/>
<polygon fill="none" stroke="#000000" points="181,-329.7 181,-352.7 295,-352.7 295,-329.7 181,-329.7"/>
<text text-anchor="start" x="186" y="-338.3" font-family="Helvetica,sans-Serif" font-weight="bold" font-size="11.00" fill="#000000">account</text>
<text text-anchor="start" x="260.0437" y="-337.8" font-family="Helvetica,sans-Serif" font-size="11.00" fill="#000000">[table]</text>
<polygon fill="none" stroke="#000000" points="181,-310.7 181,-329.7 295,-329.7 295,-310.7 181,-310.7"/>
<text text-anchor="start" x="184" y="-316.8" font-family="Helvetica,sans-Serif" font-size="11.00" fill="#000000">...</text>
<polygon fill="#ffffff" stroke="transparent" points="181,-291.7 181,-310.7 202,-310.7 202,-291.7 181,-291.7"/>
<polygon fill="none" stroke="#000000" points="181,-291.7 181,-310.7 202,-310.7 202,-291.7 181,-291.7"/>
<text text-anchor="start" x="183.7027" y="-297.8" font-family="Helvetica,sans-Serif" font-size="11.00" fill="#000000">&lt; 1</text>
<polygon fill="#ffffff" stroke="transparent" points="202,-291.7 202,-310.7 274,-310.7 274,-291.7 202,-291.7"/>
<polygon fill="none" stroke="#000000" points="202,-291.7 202,-310.7 274,-310.7 274,-291.7 202,-291.7"/>
<text text-anchor="start" x="204.9896" y="-297.8" font-family="Helvetica,sans-Serif" font-size="11.00" fill="#000000">257,333 rows</text>
<polygon fill="#ffffff" stroke="transparent" points="274,-291.7 274,-310.7 295,-310.7 295,-291.7 274,-291.7"/>
<polygon fill="none" stroke="#000000" points="274,-291.7 274,-310.7 295,-310.7 295,-291.7 274,-291.7"/>
<text text-anchor="start" x="276.7027" y="-297.8" font-family="Helvetica,sans-Serif" font-size="11.00" fill="#000000">3 &gt;</text>
</a>
</g>
</g>
<!-- frequent_flyer -->
<g id="node2" class="node">
<title>frequent_flyer</title>
<g id="a_node2"><a xlink:href="../../tables/frequent_flyer.html" xlink:title="frequent_flyer" target="_top">
<polygon fill="#ffffff" stroke="transparent" points="8,-295.2 8,-356.2 132,-356.2 132,-295.2 8,-295.2"/>
<polygon fill="#f5f5f5" stroke="transparent" points="8,-332.7 8,-355.7 132,-355.7 132,-332.7 8,-332.7"/>
<polygon fill="none" stroke="#000000" points="8,-332.7 8,-355.7 132,-355.7 132,-332.7 8,-332.7"/>
<text text-anchor="start" x="13" y="-341.3" font-family="Helvetica,sans-Serif" font-weight="bold" font-size="11.00" fill="#000000">frequent_flyer</text>
<text text-anchor="start" x="97.5219" y="-340.8" font-family="Helvetica,sans-Serif" font-size="11.00" fill="#000000">[table]</text>
<polygon fill="none" stroke="#000000" points="8,-313.7 8,-332.7 132,-332.7 132,-313.7 8,-313.7"/>
<text text-anchor="start" x="11" y="-319.8" font-family="Helvetica,sans-Serif" font-size="11.00" fill="#000000">...</text>
<polygon fill="#ffffff" stroke="transparent" points="8,-294.7 8,-313.7 29,-313.7 29,-294.7 8,-294.7"/>
<polygon fill="none" stroke="#000000" points="8,-294.7 8,-313.7 29,-313.7 29,-294.7 8,-294.7"/>
<text text-anchor="start" x="11" y="-300.8" font-family="Helvetica,sans-Serif" font-size="11.00" fill="#000000"> &#160;</text>
<polygon fill="#ffffff" stroke="transparent" points="29,-294.7 29,-313.7 106,-313.7 106,-294.7 29,-294.7"/>
<polygon fill="none" stroke="#000000" points="29,-294.7 29,-313.7 106,-313.7 106,-294.7 29,-294.7"/>
<text text-anchor="start" x="36.9791" y="-300.8" font-family="Helvetica,sans-Serif" font-size="11.00" fill="#000000">128,346 rows</text>
<polygon fill="#ffffff" stroke="transparent" points="106,-294.7 106,-313.7 132,-313.7 132,-294.7 106,-294.7"/>
<polygon fill="none" stroke="#000000" points="106,-294.7 106,-313.7 132,-313.7 132,-294.7 106,-294.7"/>
<text text-anchor="start" x="113.4053" y="-300.8" font-family="Helvetica,sans-Serif" font-size="11.00" fill="#000000">1 &gt;</text>
</a>
</g>
</g>
<!-- account&#45;&gt;frequent_flyer -->
<g id="edge1" class="edge">
<title>account:w&#45;&gt;frequent_flyer:e</title>
<path fill="none" stroke="#000000" d="M158.5219,-322.7C149.5753,-322.7 140.5918,-322.7 132,-322.7"/>
<polygon fill="#000000" stroke="#000000" points="164.9728,-322.7001 172.9728,-326.3 168.9728,-322.7 172.9728,-322.7 172.9728,-322.7 172.9728,-322.7 168.9728,-322.7 172.9728,-319.1 164.9728,-322.7001 164.9728,-322.7001"/>
<ellipse fill="none" stroke="#000000" cx="161.7728" cy="-322.7001" rx="3.2" ry="3.2"/>
</g>
<!-- boarding_pass -->
<g id="node3" class="node">
<title>boarding_pass</title>
<g id="a_node3"><a xlink:href="../../tables/boarding_pass.html" xlink:title="boarding_pass" target="_top">
<polygon fill="#ffffff" stroke="transparent" points="775,-348.2 775,-409.2 899,-409.2 899,-348.2 775,-348.2"/>
<polygon fill="#f5f5f5" stroke="transparent" points="775,-385.7 775,-408.7 899,-408.7 899,-385.7 775,-385.7"/>
<polygon fill="none" stroke="#000000" points="775,-385.7 775,-408.7 899,-408.7 899,-385.7 775,-385.7"/>
<text text-anchor="start" x="780" y="-394.3" font-family="Helvetica,sans-Serif" font-weight="bold" font-size="11.00" fill="#000000">boarding_pass</text>
<text text-anchor="start" x="864.5219" y="-393.8" font-family="Helvetica,sans-Serif" font-size="11.00" fill="#000000">[table]</text>
<polygon fill="none" stroke="#000000" points="775,-366.7 775,-385.7 899,-385.7 899,-366.7 775,-366.7"/>
<text text-anchor="start" x="778" y="-372.8" font-family="Helvetica,sans-Serif" font-size="11.00" fill="#000000">...</text>
<polygon fill="#ffffff" stroke="transparent" points="775,-347.7 775,-366.7 798,-366.7 798,-347.7 775,-347.7"/>
<polygon fill="none" stroke="#000000" points="775,-347.7 775,-366.7 798,-366.7 798,-347.7 775,-347.7"/>
<text text-anchor="start" x="778" y="-353.8" font-family="Helvetica,sans-Serif" font-size="11.00" fill="#000000">&lt; 2</text>
<polygon fill="#ffffff" stroke="transparent" points="798,-347.7 798,-366.7 886,-366.7 886,-347.7 798,-347.7"/>
<polygon fill="none" stroke="#000000" points="798,-347.7 798,-366.7 886,-366.7 886,-347.7 798,-347.7"/>
<text text-anchor="start" x="801.6924" y="-353.8" font-family="Helvetica,sans-Serif" font-size="11.00" fill="#000000">25,292,472 rows</text>
<polygon fill="#ffffff" stroke="transparent" points="886,-347.7 886,-366.7 899,-366.7 899,-347.7 886,-347.7"/>
<polygon fill="none" stroke="#000000" points="886,-347.7 886,-366.7 899,-366.7 899,-347.7 886,-347.7"/>
<text text-anchor="start" x="889.8862" y="-353.8" font-family="Helvetica,sans-Serif" font-size="11.00" fill="#000000"> &#160;</text>
</a>
</g>
</g>
<!-- booking_leg -->
<g id="node4" class="node">
<title>booking_leg</title>
<g id="a_node4"><a xlink:href="../../tables/booking_leg.html" xlink:title="booking_leg" target="_top">
<polygon fill="#ffffff" stroke="transparent" points="597,-240.2 597,-367.2 726,-367.2 726,-240.2 597,-240.2"/>
<polygon fill="#f5f5f5" stroke="transparent" points="597.5,-343.7 597.5,-366.7 726.5,-366.7 726.5,-343.7 597.5,-343.7"/>
<polygon fill="none" stroke="#000000" points="597.5,-343.7 597.5,-366.7 726.5,-366.7 726.5,-343.7 597.5,-343.7"/>
<text text-anchor="start" x="602.5" y="-352.3" font-family="Helvetica,sans-Serif" font-weight="bold" font-size="11.00" fill="#000000">booking_leg</text>
<text text-anchor="start" x="691.5437" y="-351.8" font-family="Helvetica,sans-Serif" font-size="11.00" fill="#000000">[table]</text>
<polygon fill="none" stroke="#000000" points="597.5,-321.7 597.5,-343.7 726.5,-343.7 726.5,-321.7 597.5,-321.7"/>
<image xlink:href="../../images/primaryKeys.png" width="11px" height="12px" preserveAspectRatio="xMinYMin meet" x="602.5" y="-338.7"/>
<text text-anchor="start" x="628.5" y="-328.8" font-family="Helvetica,sans-Serif" font-size="11.00" fill="#000000">booking_leg_id</text>
<polygon fill="none" stroke="#000000" points="597.5,-299.7 597.5,-321.7 726.5,-321.7 726.5,-299.7 597.5,-299.7"/>
<image xlink:href="../../images/foreignKeys.png" width="11px" height="12px" preserveAspectRatio="xMinYMin meet" x="602.5" y="-316.7"/>
<text text-anchor="start" x="628.5" y="-306.8" font-family="Helvetica,sans-Serif" font-size="11.00" fill="#000000">booking_id</text>
<polygon fill="none" stroke="#000000" points="597.5,-277.7 597.5,-299.7 726.5,-299.7 726.5,-277.7 597.5,-277.7"/>
<image xlink:href="../../images/foreignKeys.png" width="11px" height="12px" preserveAspectRatio="xMinYMin meet" x="602.5" y="-294.7"/>
<text text-anchor="start" x="628.5" y="-284.8" font-family="Helvetica,sans-Serif" font-size="11.00" fill="#000000">flight_id</text>
<polygon fill="none" stroke="#000000" points="597.5,-258.7 597.5,-277.7 726.5,-277.7 726.5,-258.7 597.5,-258.7"/>
<text text-anchor="start" x="600.5" y="-264.8" font-family="Helvetica,sans-Serif" font-size="11.00" fill="#000000">...</text>
<polygon fill="#ffffff" stroke="transparent" points="597.5,-239.7 597.5,-258.7 618.5,-258.7 618.5,-239.7 597.5,-239.7"/>
<polygon fill="none" stroke="#000000" points="597.5,-239.7 597.5,-258.7 618.5,-258.7 618.5,-239.7 597.5,-239.7"/>
<text text-anchor="start" x="600.2026" y="-245.8" font-family="Helvetica,sans-Serif" font-size="11.00" fill="#000000">&lt; 2</text>
<polygon fill="#ffffff" stroke="transparent" points="618.5,-239.7 618.5,-258.7 705.5,-258.7 705.5,-239.7 618.5,-239.7"/>
<polygon fill="none" stroke="#000000" points="618.5,-239.7 618.5,-258.7 705.5,-258.7 705.5,-239.7 618.5,-239.7"/>
<text text-anchor="start" x="621.3462" y="-245.8" font-family="Helvetica,sans-Serif" font-size="11.00" fill="#000000">17,894,232 rows</text>
<polygon fill="#ffffff" stroke="transparent" points="705.5,-239.7 705.5,-258.7 726.5,-258.7 726.5,-239.7 705.5,-239.7"/>
<polygon fill="none" stroke="#000000" points="705.5,-239.7 705.5,-258.7 726.5,-258.7 726.5,-239.7 705.5,-239.7"/>
<text text-anchor="start" x="708.2026" y="-245.8" font-family="Helvetica,sans-Serif" font-size="11.00" fill="#000000">1 &gt;</text>
</a>
</g>
</g>
<!-- boarding_pass&#45;&gt;booking_leg -->
<g id="edge2" class="edge">
<title>boarding_pass:w&#45;&gt;booking_leg:e</title>
<path fill="none" stroke="#000000" d="M761.1204,-370.7674C748.3505,-359.4726 749.231,-332.7 726.5,-332.7"/>
<polygon fill="#000000" stroke="#000000" points="767.4619,-373.021 773.7945,-379.0922 771.2309,-374.3605 775,-375.7 775,-375.7 775,-375.7 771.2309,-374.3605 776.2055,-372.3078 767.4619,-373.021 767.4619,-373.021"/>
<ellipse fill="none" stroke="#000000" cx="764.4466" cy="-371.9494" rx="3.2" ry="3.2"/>
</g>
<!-- passenger -->
<g id="node5" class="node">
<title>passenger</title>
<g id="a_node5"><a xlink:href="../../tables/passenger.html" xlink:title="passenger" target="_top">
<polygon fill="#ffffff" stroke="transparent" points="597,-388.2 597,-449.2 726,-449.2 726,-388.2 597,-388.2"/>
<polygon fill="#f5f5f5" stroke="transparent" points="597.5,-425.7 597.5,-448.7 726.5,-448.7 726.5,-425.7 597.5,-425.7"/>
<polygon fill="none" stroke="#000000" points="597.5,-425.7 597.5,-448.7 726.5,-448.7 726.5,-425.7 597.5,-425.7"/>
<text text-anchor="start" x="602.5" y="-434.3" font-family="Helvetica,sans-Serif" font-weight="bold" font-size="11.00" fill="#000000">passenger</text>
<text text-anchor="start" x="691.5437" y="-433.8" font-family="Helvetica,sans-Serif" font-size="11.00" fill="#000000">[table]</text>
<polygon fill="none" stroke="#000000" points="597.5,-406.7 597.5,-425.7 726.5,-425.7 726.5,-406.7 597.5,-406.7"/>
<text text-anchor="start" x="600.5" y="-412.8" font-family="Helvetica,sans-Serif" font-size="11.00" fill="#000000">...</text>
<polygon fill="#ffffff" stroke="transparent" points="597.5,-387.7 597.5,-406.7 618.5,-406.7 618.5,-387.7 597.5,-387.7"/>
<polygon fill="none" stroke="#000000" points="597.5,-387.7 597.5,-406.7 618.5,-406.7 618.5,-387.7 597.5,-387.7"/>
<text text-anchor="start" x="600.2026" y="-393.8" font-family="Helvetica,sans-Serif" font-size="11.00" fill="#000000">&lt; 2</text>
<polygon fill="#ffffff" stroke="transparent" points="618.5,-387.7 618.5,-406.7 705.5,-406.7 705.5,-387.7 618.5,-387.7"/>
<polygon fill="none" stroke="#000000" points="618.5,-387.7 618.5,-406.7 705.5,-406.7 705.5,-387.7 618.5,-387.7"/>
<text text-anchor="start" x="621.3462" y="-393.8" font-family="Helvetica,sans-Serif" font-size="11.00" fill="#000000">16,312,143 rows</text>
<polygon fill="#ffffff" stroke="transparent" points="705.5,-387.7 705.5,-406.7 726.5,-406.7 726.5,-387.7 705.5,-387.7"/>
<polygon fill="none" stroke="#000000" points="705.5,-387.7 705.5,-406.7 726.5,-406.7 726.5,-387.7 705.5,-387.7"/>
<text text-anchor="start" x="708.2026" y="-393.8" font-family="Helvetica,sans-Serif" font-size="11.00" fill="#000000">1 &gt;</text>
</a>
</g>
</g>
<!-- boarding_pass&#45;&gt;passenger -->
<g id="edge3" class="edge">
<title>boarding_pass:w&#45;&gt;passenger:e</title>
<path fill="none" stroke="#000000" d="M760.4915,-376.6635C749.8215,-378.032 739.159,-380.7587 728.995,-384.1954"/>
<polygon fill="#000000" stroke="#000000" points="767.0176,-376.2302 775.2386,-379.2921 771.0088,-375.9651 775,-375.7 775,-375.7 775,-375.7 771.0088,-375.9651 774.7614,-372.1079 767.0176,-376.2302 767.0176,-376.2302"/>
<ellipse fill="none" stroke="#000000" cx="763.8246" cy="-376.4422" rx="3.2" ry="3.2"/>
</g>
<!-- booking -->
<g id="node6" class="node">
<title>booking</title>
<g id="a_node6"><a xlink:href="../../tables/booking.html" xlink:title="booking" target="_top">
<polygon fill="#ffffff" stroke="transparent" points="344,-202.7 344,-424.7 548,-424.7 548,-202.7 344,-202.7"/>
<polygon fill="#f5f5f5" stroke="transparent" points="346,-399.7 346,-422.7 546,-422.7 546,-399.7 346,-399.7"/>
<polygon fill="none" stroke="#000000" points="346,-399.7 346,-422.7 546,-422.7 546,-399.7 346,-399.7"/>
<text text-anchor="start" x="351" y="-408.3" font-family="Helvetica,sans-Serif" font-weight="bold" font-size="11.00" fill="#000000">booking</text>
<text text-anchor="start" x="511.0437" y="-407.8" font-family="Helvetica,sans-Serif" font-size="11.00" fill="#000000">[table]</text>
<polygon fill="none" stroke="#000000" points="346,-377.7 346,-399.7 454,-399.7 454,-377.7 346,-377.7"/>
<image xlink:href="../../images/primaryKeys.png" width="11px" height="12px" preserveAspectRatio="xMinYMin meet" x="351" y="-394.7"/>
<text text-anchor="start" x="366" y="-384.8" font-family="Helvetica,sans-Serif" font-size="11.00" fill="#000000">booking_id</text>
<polygon fill="none" stroke="#000000" points="454,-377.7 454,-399.7 546,-399.7 546,-377.7 454,-377.7"/>
<text text-anchor="start" x="457" y="-385.4" font-family="Helvetica,sans-Serif" font-size="11.00" fill="#000000">int8[19]</text>
<polygon fill="#ffffff" stroke="transparent" points="346,-355.7 346,-377.7 454,-377.7 454,-355.7 346,-355.7"/>
<polygon fill="none" stroke="#000000" points="346,-355.7 346,-377.7 454,-377.7 454,-355.7 346,-355.7"/>
<text text-anchor="start" x="366" y="-362.8" font-family="Helvetica,sans-Serif" font-size="11.00" fill="#000000">booking_ref</text>
<polygon fill="none" stroke="#000000" points="454,-355.7 454,-377.7 546,-377.7 546,-355.7 454,-355.7"/>
<text text-anchor="start" x="457" y="-363.4" font-family="Helvetica,sans-Serif" font-size="11.00" fill="#000000">text[2147483647]</text>
<polygon fill="none" stroke="#000000" points="346,-333.7 346,-355.7 454,-355.7 454,-333.7 346,-333.7"/>
<text text-anchor="start" x="366" y="-340.8" font-family="Helvetica,sans-Serif" font-size="11.00" fill="#000000">booking_name</text>
<polygon fill="none" stroke="#000000" points="454,-333.7 454,-355.7 546,-355.7 546,-333.7 454,-333.7"/>
<text text-anchor="start" x="457" y="-341.4" font-family="Helvetica,sans-Serif" font-size="11.00" fill="#000000">text[2147483647]</text>
<polygon fill="none" stroke="#000000" points="346,-311.7 346,-333.7 454,-333.7 454,-311.7 346,-311.7"/>
<image xlink:href="../../images/foreignKeys.png" width="11px" height="12px" preserveAspectRatio="xMinYMin meet" x="351" y="-328.7"/>
<text text-anchor="start" x="366" y="-318.8" font-family="Helvetica,sans-Serif" font-size="11.00" fill="#000000">account_id</text>
<polygon fill="none" stroke="#000000" points="454,-311.7 454,-333.7 546,-333.7 546,-311.7 454,-311.7"/>
<text text-anchor="start" x="457" y="-319.4" font-family="Helvetica,sans-Serif" font-size="11.00" fill="#000000">int4[10]</text>
<polygon fill="none" stroke="#000000" points="346,-289.7 346,-311.7 454,-311.7 454,-289.7 346,-289.7"/>
<text text-anchor="start" x="366" y="-296.8" font-family="Helvetica,sans-Serif" font-size="11.00" fill="#000000">email</text>
<polygon fill="none" stroke="#000000" points="454,-289.7 454,-311.7 546,-311.7 546,-289.7 454,-289.7"/>
<text text-anchor="start" x="457" y="-297.4" font-family="Helvetica,sans-Serif" font-size="11.00" fill="#000000">text[2147483647]</text>
<polygon fill="none" stroke="#000000" points="346,-267.7 346,-289.7 454,-289.7 454,-267.7 346,-267.7"/>
<text text-anchor="start" x="366" y="-274.8" font-family="Helvetica,sans-Serif" font-size="11.00" fill="#000000">phone</text>
<polygon fill="none" stroke="#000000" points="454,-267.7 454,-289.7 546,-289.7 546,-267.7 454,-267.7"/>
<text text-anchor="start" x="457" y="-275.4" font-family="Helvetica,sans-Serif" font-size="11.00" fill="#000000">text[2147483647]</text>
<polygon fill="none" stroke="#000000" points="346,-245.7 346,-267.7 454,-267.7 454,-245.7 346,-245.7"/>
<text text-anchor="start" x="366" y="-252.8" font-family="Helvetica,sans-Serif" font-size="11.00" fill="#000000">update_ts</text>
<polygon fill="none" stroke="#000000" points="454,-245.7 454,-267.7 546,-267.7 546,-245.7 454,-245.7"/>
<text text-anchor="start" x="456.6023" y="-253.4" font-family="Helvetica,sans-Serif" font-size="11.00" fill="#000000">timestamptz[35,6]</text>
<polygon fill="none" stroke="#000000" points="346,-223.7 346,-245.7 454,-245.7 454,-223.7 346,-223.7"/>
<text text-anchor="start" x="366" y="-230.8" font-family="Helvetica,sans-Serif" font-size="11.00" fill="#000000">price</text>
<polygon fill="none" stroke="#000000" points="454,-223.7 454,-245.7 546,-245.7 546,-223.7 454,-223.7"/>
<text text-anchor="start" x="457" y="-231.4" font-family="Helvetica,sans-Serif" font-size="11.00" fill="#000000">numeric[7,2]</text>
<polygon fill="#ffffff" stroke="transparent" points="346,-204.7 346,-223.7 370,-223.7 370,-204.7 346,-204.7"/>
<polygon fill="none" stroke="#000000" points="346,-204.7 346,-223.7 370,-223.7 370,-204.7 346,-204.7"/>
<text text-anchor="start" x="349" y="-210.8" font-family="Helvetica,sans-Serif" font-size="11.00" fill="#000000">&lt; 1</text>
<polygon fill="#ffffff" stroke="transparent" points="370,-204.7 370,-223.7 454,-223.7 454,-204.7 370,-204.7"/>
<polygon fill="none" stroke="#000000" points="370,-204.7 370,-223.7 454,-223.7 454,-204.7 370,-204.7"/>
<text text-anchor="start" x="375.8073" y="-210.8" font-family="Helvetica,sans-Serif" font-size="11.00" fill="#000000">5,643,687 rows</text>
<polygon fill="#ffffff" stroke="transparent" points="454,-204.7 454,-223.7 546,-223.7 546,-204.7 454,-204.7"/>
<polygon fill="none" stroke="#000000" points="454,-204.7 454,-223.7 546,-223.7 546,-204.7 454,-204.7"/>
<text text-anchor="start" x="527.4053" y="-210.8" font-family="Helvetica,sans-Serif" font-size="11.00" fill="#000000">2 &gt;</text>
<polygon fill="none" stroke="#000000" stroke-width="2" points="345,-203.7 345,-423.7 547,-423.7 547,-203.7 345,-203.7"/>
</a>
</g>
</g>
<!-- booking_leg&#45;&gt;booking -->
<g id="edge5" class="edge">
<title>booking_leg:w&#45;&gt;booking:e</title>
<path fill="none" stroke="#000000" d="M583.6289,-315.1171C563.5605,-331.6175 581.5373,-388.7 546,-388.7"/>
<polygon fill="#000000" stroke="#000000" points="589.8772,-313.1275 598.5924,-314.1303 593.6886,-311.9137 597.5,-310.7 597.5,-310.7 597.5,-310.7 593.6886,-311.9137 596.4076,-307.2697 589.8772,-313.1275 589.8772,-313.1275"/>
<ellipse fill="none" stroke="#000000" cx="586.828" cy="-314.0984" rx="3.2" ry="3.2"/>
</g>
<!-- flight -->
<g id="node7" class="node">
<title>flight</title>
<g id="a_node7"><a xlink:href="../../tables/flight.html" xlink:title="flight" target="_top">
<polygon fill="#ffffff" stroke="transparent" points="389,-38.2 389,-99.2 503,-99.2 503,-38.2 389,-38.2"/>
<polygon fill="#f5f5f5" stroke="transparent" points="389,-75.7 389,-98.7 503,-98.7 503,-75.7 389,-75.7"/>
<polygon fill="none" stroke="#000000" points="389,-75.7 389,-98.7 503,-98.7 503,-75.7 389,-75.7"/>
<text text-anchor="start" x="394" y="-84.3" font-family="Helvetica,sans-Serif" font-weight="bold" font-size="11.00" fill="#000000">flight</text>
<text text-anchor="start" x="468.0437" y="-83.8" font-family="Helvetica,sans-Serif" font-size="11.00" fill="#000000">[table]</text>
<polygon fill="none" stroke="#000000" points="389,-56.7 389,-75.7 503,-75.7 503,-56.7 389,-56.7"/>
<text text-anchor="start" x="392" y="-62.8" font-family="Helvetica,sans-Serif" font-size="11.00" fill="#000000">...</text>
<polygon fill="#ffffff" stroke="transparent" points="389,-37.7 389,-56.7 410,-56.7 410,-37.7 389,-37.7"/>
<polygon fill="none" stroke="#000000" points="389,-37.7 389,-56.7 410,-56.7 410,-37.7 389,-37.7"/>
<text text-anchor="start" x="391.7027" y="-43.8" font-family="Helvetica,sans-Serif" font-size="11.00" fill="#000000">&lt; 3</text>
<polygon fill="#ffffff" stroke="transparent" points="410,-37.7 410,-56.7 482,-56.7 482,-37.7 410,-37.7"/>
<polygon fill="none" stroke="#000000" points="410,-37.7 410,-56.7 482,-56.7 482,-37.7 410,-37.7"/>
<text text-anchor="start" x="412.9896" y="-43.8" font-family="Helvetica,sans-Serif" font-size="11.00" fill="#000000">683,176 rows</text>
<polygon fill="#ffffff" stroke="transparent" points="482,-37.7 482,-56.7 503,-56.7 503,-37.7 482,-37.7"/>
<polygon fill="none" stroke="#000000" points="482,-37.7 482,-56.7 503,-56.7 503,-37.7 482,-37.7"/>
<text text-anchor="start" x="484.7027" y="-43.8" font-family="Helvetica,sans-Serif" font-size="11.00" fill="#000000">1 &gt;</text>
</a>
</g>
</g>
<!-- booking_leg&#45;&gt;flight -->
<g id="edge6" class="edge">
<title>booking_leg:w&#45;&gt;flight:e</title>
<path fill="none" stroke="#000000" d="M582.9685,-287.2127C526.6004,-273.9161 595.9535,-174.4484 556,-109.7 539.9231,-83.6459 533.6151,-65.7 503,-65.7"/>
<polygon fill="#000000" stroke="#000000" points="589.5416,-287.8854 597.1334,-292.2813 593.5208,-288.2927 597.5,-288.7 597.5,-288.7 597.5,-288.7 593.5208,-288.2927 597.8666,-285.1187 589.5416,-287.8854 589.5416,-287.8854"/>
<ellipse fill="none" stroke="#000000" cx="586.3582" cy="-287.5595" rx="3.2" ry="3.2"/>
</g>
<!-- passenger&#45;&gt;account -->
<g id="edge7" class="edge">
<title>passenger:w&#45;&gt;account:e</title>
<path fill="none" stroke="#000000" d="M574.634,-444.3863C506.601,-459.6358 411.2143,-470.0297 336,-435.7 300.9188,-419.6881 273.5612,-384.229 256.7711,-357.2724"/>
<polygon fill="#000000" stroke="#000000" points="580.9318,-442.9048 589.5436,-444.5772 584.8255,-441.9888 588.7192,-441.0728 588.7192,-441.0728 588.7192,-441.0728 584.8255,-441.9888 587.8949,-437.5685 580.9318,-442.9048 580.9318,-442.9048"/>
<ellipse fill="none" stroke="#000000" cx="577.8168" cy="-443.6376" rx="3.2" ry="3.2"/>
</g>
<!-- passenger&#45;&gt;booking -->
<g id="edge8" class="edge">
<title>passenger:w&#45;&gt;booking:e</title>
<path fill="none" stroke="#000000" d="M574.551,-391.171C565.0037,-389.6334 555.3552,-388.7 546,-388.7"/>
<polygon fill="#000000" stroke="#000000" points="581.0548,-392.4185 588.2334,-397.4611 584.9832,-393.172 588.9116,-393.9256 588.9116,-393.9256 588.9116,-393.9256 584.9832,-393.172 589.5898,-390.3901 581.0548,-392.4185 581.0548,-392.4185"/>
<ellipse fill="none" stroke="#000000" cx="577.9121" cy="-391.8156" rx="3.2" ry="3.2"/>
</g>
<!-- booking&#45;&gt;account -->
<g id="edge4" class="edge">
<title>booking:w&#45;&gt;account:e</title>
<path fill="none" stroke="#000000" d="M331.4066,-322.7C321.9836,-322.7 312.3862,-322.7 303.106,-322.7"/>
<polygon fill="#000000" stroke="#000000" points="338,-322.7001 346,-326.3 342,-322.7 346,-322.7 346,-322.7 346,-322.7 342,-322.7 346,-319.1 338,-322.7001 338,-322.7001"/>
<ellipse fill="none" stroke="#000000" cx="334.8" cy="-322.7001" rx="3.2" ry="3.2"/>
</g>
<!-- phone -->
<g id="node8" class="node">
<title>phone</title>
<g id="a_node8"><a xlink:href="../../tables/phone.html" xlink:title="phone" target="_top">
<polygon fill="#ffffff" stroke="transparent" points="393.5,-120.2 393.5,-181.2 498.5,-181.2 498.5,-120.2 393.5,-120.2"/>
<polygon fill="#f5f5f5" stroke="transparent" points="394,-157.7 394,-180.7 499,-180.7 499,-157.7 394,-157.7"/>
<polygon fill="none" stroke="#000000" points="394,-157.7 394,-180.7 499,-180.7 499,-157.7 394,-157.7"/>
<text text-anchor="start" x="399" y="-166.3" font-family="Helvetica,sans-Serif" font-weight="bold" font-size="11.00" fill="#000000">phone</text>
<text text-anchor="start" x="464.0437" y="-165.8" font-family="Helvetica,sans-Serif" font-size="11.00" fill="#000000">[table]</text>
<polygon fill="none" stroke="#000000" points="394,-138.7 394,-157.7 499,-157.7 499,-138.7 394,-138.7"/>
<text text-anchor="start" x="397" y="-144.8" font-family="Helvetica,sans-Serif" font-size="11.00" fill="#000000">...</text>
<polygon fill="#ffffff" stroke="transparent" points="394,-119.7 394,-138.7 415,-138.7 415,-119.7 394,-119.7"/>
<polygon fill="none" stroke="#000000" points="394,-119.7 394,-138.7 415,-138.7 415,-119.7 394,-119.7"/>
<text text-anchor="start" x="396.7027" y="-125.8" font-family="Helvetica,sans-Serif" font-size="11.00" fill="#000000">&lt; 1</text>
<polygon fill="#ffffff" stroke="transparent" points="415,-119.7 415,-138.7 487,-138.7 487,-119.7 415,-119.7"/>
<polygon fill="none" stroke="#000000" points="415,-119.7 415,-138.7 487,-138.7 487,-119.7 415,-119.7"/>
<text text-anchor="start" x="417.9896" y="-125.8" font-family="Helvetica,sans-Serif" font-size="11.00" fill="#000000">407,444 rows</text>
<polygon fill="#ffffff" stroke="transparent" points="487,-119.7 487,-138.7 499,-138.7 499,-119.7 487,-119.7"/>
<polygon fill="none" stroke="#000000" points="487,-119.7 487,-138.7 499,-138.7 499,-119.7 487,-119.7"/>
<text text-anchor="start" x="489.9431" y="-125.8" font-family="Helvetica,sans-Serif" font-size="11.00" fill="#000000"> &#160;</text>
</a>
</g>
</g>
<!-- phone&#45;&gt;account -->
<g id="edge9" class="edge">
<title>phone:w&#45;&gt;account:e</title>
<path fill="none" stroke="#000000" d="M379.5157,-148.8456C313.2976,-159.4073 270.4005,-240.512 250.6511,-288.1256"/>
<polygon fill="#000000" stroke="#000000" points="386.0249,-148.3308 394.2839,-151.2888 390.0125,-148.0154 394,-147.7 394,-147.7 394,-147.7 390.0125,-148.0154 393.7161,-144.1112 386.0249,-148.3308 386.0249,-148.3308"/>
<ellipse fill="none" stroke="#000000" cx="382.8349" cy="-148.5832" rx="3.2" ry="3.2"/>
</g>
</g>
</svg>
