<?xml version="1.0" encoding="UTF-8" standalone="no"?>
<!DOCTYPE svg PUBLIC "-//W3C//DTD SVG 1.1//EN"
 "http://www.w3.org/Graphics/SVG/1.1/DTD/svg11.dtd">
<!-- Generated by graphviz version 2.40.1 (20161225.0304)
 -->
<!-- Title: twoDegreesRelationshipsDiagram Pages: 1 -->
<svg width="768pt" height="421pt"
 viewBox="0.00 0.00 768.00 420.70" xmlns="http://www.w3.org/2000/svg" xmlns:xlink="http://www.w3.org/1999/xlink">
<g id="graph0" class="graph" transform="scale(1 1) rotate(0) translate(4 416.7)">
<title>twoDegreesRelationshipsDiagram</title>
<polygon fill="#ffffff" stroke="transparent" points="-4,4 -4,-416.7 764,-416.7 764,4 -4,4"/>
<text text-anchor="middle" x="72.4936" y="-7.3" font-family="Helvetica,sans-Serif" font-size="11.00" fill="#000000">Generated by SchemaSpy</text>
<!-- boarding_pass -->
<g id="node1" class="node">
<title>boarding_pass</title>
<g id="a_node1"><a xlink:href="../../tables/boarding_pass.html" xlink:title="boarding_pass" target="_top">
<polygon fill="#ffffff" stroke="transparent" points="628,-337.7 628,-398.7 752,-398.7 752,-337.7 628,-337.7"/>
<polygon fill="#f5f5f5" stroke="transparent" points="628,-375.2 628,-398.2 752,-398.2 752,-375.2 628,-375.2"/>
<polygon fill="none" stroke="#000000" points="628,-375.2 628,-398.2 752,-398.2 752,-375.2 628,-375.2"/>
<text text-anchor="start" x="633" y="-383.8" font-family="Helvetica,sans-Serif" font-weight="bold" font-size="11.00" fill="#000000">boarding_pass</text>
<text text-anchor="start" x="717.5219" y="-383.3" font-family="Helvetica,sans-Serif" font-size="11.00" fill="#000000">[table]</text>
<polygon fill="none" stroke="#000000" points="628,-356.2 628,-375.2 752,-375.2 752,-356.2 628,-356.2"/>
<text text-anchor="start" x="631" y="-362.3" font-family="Helvetica,sans-Serif" font-size="11.00" fill="#000000">...</text>
<polygon fill="#ffffff" stroke="transparent" points="628,-337.2 628,-356.2 651,-356.2 651,-337.2 628,-337.2"/>
<polygon fill="none" stroke="#000000" points="628,-337.2 628,-356.2 651,-356.2 651,-337.2 628,-337.2"/>
<text text-anchor="start" x="631" y="-343.3" font-family="Helvetica,sans-Serif" font-size="11.00" fill="#000000">&lt; 2</text>
<polygon fill="#ffffff" stroke="transparent" points="651,-337.2 651,-356.2 739,-356.2 739,-337.2 651,-337.2"/>
<polygon fill="none" stroke="#000000" points="651,-337.2 651,-356.2 739,-356.2 739,-337.2 651,-337.2"/>
<text text-anchor="start" x="654.6924" y="-343.3" font-family="Helvetica,sans-Serif" font-size="11.00" fill="#000000">25,292,472 rows</text>
<polygon fill="#ffffff" stroke="transparent" points="739,-337.2 739,-356.2 752,-356.2 752,-337.2 739,-337.2"/>
<polygon fill="none" stroke="#000000" points="739,-337.2 739,-356.2 752,-356.2 752,-337.2 739,-337.2"/>
<text text-anchor="start" x="742.8862" y="-343.3" font-family="Helvetica,sans-Serif" font-size="11.00" fill="#000000"> &#160;</text>
</a>
</g>
</g>
<!-- booking_leg -->
<g id="node2" class="node">
<title>booking_leg</title>
<g id="a_node2"><a xlink:href="../../tables/booking_leg.html" xlink:title="booking_leg" target="_top">
<polygon fill="#ffffff" stroke="transparent" points="450,-272.7 450,-399.7 579,-399.7 579,-272.7 450,-272.7"/>
<polygon fill="#f5f5f5" stroke="transparent" points="450.5,-376.2 450.5,-399.2 579.5,-399.2 579.5,-376.2 450.5,-376.2"/>
<polygon fill="none" stroke="#000000" points="450.5,-376.2 450.5,-399.2 579.5,-399.2 579.5,-376.2 450.5,-376.2"/>
<text text-anchor="start" x="455.5" y="-384.8" font-family="Helvetica,sans-Serif" font-weight="bold" font-size="11.00" fill="#000000">booking_leg</text>
<text text-anchor="start" x="544.5437" y="-384.3" font-family="Helvetica,sans-Serif" font-size="11.00" fill="#000000">[table]</text>
<polygon fill="none" stroke="#000000" points="450.5,-354.2 450.5,-376.2 579.5,-376.2 579.5,-354.2 450.5,-354.2"/>
<image xlink:href="../../images/primaryKeys.png" width="11px" height="12px" preserveAspectRatio="xMinYMin meet" x="455.5" y="-371.2"/>
<text text-anchor="start" x="481.5" y="-361.3" font-family="Helvetica,sans-Serif" font-size="11.00" fill="#000000">booking_leg_id</text>
<polygon fill="none" stroke="#000000" points="450.5,-332.2 450.5,-354.2 579.5,-354.2 579.5,-332.2 450.5,-332.2"/>
<image xlink:href="../../images/foreignKeys.png" width="11px" height="12px" preserveAspectRatio="xMinYMin meet" x="455.5" y="-349.2"/>
<text text-anchor="start" x="481.5" y="-339.3" font-family="Helvetica,sans-Serif" font-size="11.00" fill="#000000">booking_id</text>
<polygon fill="none" stroke="#000000" points="450.5,-310.2 450.5,-332.2 579.5,-332.2 579.5,-310.2 450.5,-310.2"/>
<image xlink:href="../../images/foreignKeys.png" width="11px" height="12px" preserveAspectRatio="xMinYMin meet" x="455.5" y="-327.2"/>
<text text-anchor="start" x="481.5" y="-317.3" font-family="Helvetica,sans-Serif" font-size="11.00" fill="#000000">flight_id</text>
<polygon fill="none" stroke="#000000" points="450.5,-291.2 450.5,-310.2 579.5,-310.2 579.5,-291.2 450.5,-291.2"/>
<text text-anchor="start" x="453.5" y="-297.3" font-family="Helvetica,sans-Serif" font-size="11.00" fill="#000000">...</text>
<polygon fill="#ffffff" stroke="transparent" points="450.5,-272.2 450.5,-291.2 471.5,-291.2 471.5,-272.2 450.5,-272.2"/>
<polygon fill="none" stroke="#000000" points="450.5,-272.2 450.5,-291.2 471.5,-291.2 471.5,-272.2 450.5,-272.2"/>
<text text-anchor="start" x="453.2027" y="-278.3" font-family="Helvetica,sans-Serif" font-size="11.00" fill="#000000">&lt; 2</text>
<polygon fill="#ffffff" stroke="transparent" points="471.5,-272.2 471.5,-291.2 558.5,-291.2 558.5,-272.2 471.5,-272.2"/>
<polygon fill="none" stroke="#000000" points="471.5,-272.2 471.5,-291.2 558.5,-291.2 558.5,-272.2 471.5,-272.2"/>
<text text-anchor="start" x="474.3462" y="-278.3" font-family="Helvetica,sans-Serif" font-size="11.00" fill="#000000">17,894,232 rows</text>
<polygon fill="#ffffff" stroke="transparent" points="558.5,-272.2 558.5,-291.2 579.5,-291.2 579.5,-272.2 558.5,-272.2"/>
<polygon fill="none" stroke="#000000" points="558.5,-272.2 558.5,-291.2 579.5,-291.2 579.5,-272.2 558.5,-272.2"/>
<text text-anchor="start" x="561.2026" y="-278.3" font-family="Helvetica,sans-Serif" font-size="11.00" fill="#000000">1 &gt;</text>
</a>
</g>
</g>
<!-- boarding_pass&#45;&gt;booking_leg -->
<g id="edge1" class="edge">
<title>boarding_pass:w&#45;&gt;booking_leg:e</title>
<path fill="none" stroke="#000000" d="M613.2829,-365.2C602.2886,-365.2 595.1615,-365.2 579.5,-365.2"/>
<polygon fill="#000000" stroke="#000000" points="620,-365.2001 628,-368.8 624,-365.2 628,-365.2 628,-365.2 628,-365.2 624,-365.2 628,-361.6 620,-365.2001 620,-365.2001"/>
<ellipse fill="none" stroke="#000000" cx="616.8" cy="-365.2001" rx="3.2" ry="3.2"/>
</g>
<!-- booking -->
<g id="node3" class="node">
<title>booking</title>
<g id="a_node3"><a xlink:href="../../tables/booking.html" xlink:title="booking" target="_top">
<polygon fill="#ffffff" stroke="transparent" points="218,-347.7 218,-408.7 341,-408.7 341,-347.7 218,-347.7"/>
<polygon fill="#f5f5f5" stroke="transparent" points="218.5,-385.2 218.5,-408.2 341.5,-408.2 341.5,-385.2 218.5,-385.2"/>
<polygon fill="none" stroke="#000000" points="218.5,-385.2 218.5,-408.2 341.5,-408.2 341.5,-385.2 218.5,-385.2"/>
<text text-anchor="start" x="223.5" y="-393.8" font-family="Helvetica,sans-Serif" font-weight="bold" font-size="11.00" fill="#000000">booking</text>
<text text-anchor="start" x="306.5437" y="-393.3" font-family="Helvetica,sans-Serif" font-size="11.00" fill="#000000">[table]</text>
<polygon fill="none" stroke="#000000" points="218.5,-366.2 218.5,-385.2 341.5,-385.2 341.5,-366.2 218.5,-366.2"/>
<text text-anchor="start" x="221.5" y="-372.3" font-family="Helvetica,sans-Serif" font-size="11.00" fill="#000000">...</text>
<polygon fill="#ffffff" stroke="transparent" points="218.5,-347.2 218.5,-366.2 239.5,-366.2 239.5,-347.2 218.5,-347.2"/>
<polygon fill="none" stroke="#000000" points="218.5,-347.2 218.5,-366.2 239.5,-366.2 239.5,-347.2 218.5,-347.2"/>
<text text-anchor="start" x="221.2027" y="-353.3" font-family="Helvetica,sans-Serif" font-size="11.00" fill="#000000">&lt; 1</text>
<polygon fill="#ffffff" stroke="transparent" points="239.5,-347.2 239.5,-366.2 320.5,-366.2 320.5,-347.2 239.5,-347.2"/>
<polygon fill="none" stroke="#000000" points="239.5,-347.2 239.5,-366.2 320.5,-366.2 320.5,-347.2 239.5,-347.2"/>
<text text-anchor="start" x="242.4037" y="-353.3" font-family="Helvetica,sans-Serif" font-size="11.00" fill="#000000">5,643,687 rows</text>
<polygon fill="#ffffff" stroke="transparent" points="320.5,-347.2 320.5,-366.2 341.5,-366.2 341.5,-347.2 320.5,-347.2"/>
<polygon fill="none" stroke="#000000" points="320.5,-347.2 320.5,-366.2 341.5,-366.2 341.5,-347.2 320.5,-347.2"/>
<text text-anchor="start" x="323.2027" y="-353.3" font-family="Helvetica,sans-Serif" font-size="11.00" fill="#000000">2 &gt;</text>
</a>
</g>
</g>
<!-- booking_leg&#45;&gt;booking -->
<g id="edge2" class="edge">
<title>booking_leg:w&#45;&gt;booking:e</title>
<path fill="none" stroke="#000000" d="M435.8425,-344.1928C397.8465,-349.594 386.664,-375.2 341.5,-375.2"/>
<polygon fill="#000000" stroke="#000000" points="442.5183,-343.7407 450.7433,-346.7918 446.5091,-343.4703 450.5,-343.2 450.5,-343.2 450.5,-343.2 446.5091,-343.4703 450.2567,-339.6082 442.5183,-343.7407 442.5183,-343.7407"/>
<ellipse fill="none" stroke="#000000" cx="439.3256" cy="-343.9569" rx="3.2" ry="3.2"/>
</g>
<!-- flight -->
<g id="node4" class="node">
<title>flight</title>
<g id="a_node4"><a xlink:href="../../tables/flight.html" xlink:title="flight" target="_top">
<polygon fill="#ffffff" stroke="transparent" points="158,-38.2 158,-326.2 401,-326.2 401,-38.2 158,-38.2"/>
<polygon fill="#f5f5f5" stroke="transparent" points="160.5,-301.2 160.5,-324.2 399.5,-324.2 399.5,-301.2 160.5,-301.2"/>
<polygon fill="none" stroke="#000000" points="160.5,-301.2 160.5,-324.2 399.5,-324.2 399.5,-301.2 160.5,-301.2"/>
<text text-anchor="start" x="165.5" y="-309.8" font-family="Helvetica,sans-Serif" font-weight="bold" font-size="11.00" fill="#000000">flight</text>
<text text-anchor="start" x="364.5437" y="-309.3" font-family="Helvetica,sans-Serif" font-size="11.00" fill="#000000">[table]</text>
<polygon fill="none" stroke="#000000" points="160.5,-279.2 160.5,-301.2 307.5,-301.2 307.5,-279.2 160.5,-279.2"/>
<image xlink:href="../../images/primaryKeys.png" width="11px" height="12px" preserveAspectRatio="xMinYMin meet" x="165.5" y="-296.2"/>
<text text-anchor="start" x="180.5" y="-286.3" font-family="Helvetica,sans-Serif" font-size="11.00" fill="#000000">flight_id</text>
<polygon fill="none" stroke="#000000" points="307.5,-279.2 307.5,-301.2 399.5,-301.2 399.5,-279.2 307.5,-279.2"/>
<text text-anchor="start" x="310.5" y="-286.9" font-family="Helvetica,sans-Serif" font-size="11.00" fill="#000000">serial[10]</text>
<polygon fill="none" stroke="#000000" points="160.5,-257.2 160.5,-279.2 307.5,-279.2 307.5,-257.2 160.5,-257.2"/>
<text text-anchor="start" x="180.5" y="-264.3" font-family="Helvetica,sans-Serif" font-size="11.00" fill="#000000">flight_no</text>
<polygon fill="none" stroke="#000000" points="307.5,-257.2 307.5,-279.2 399.5,-279.2 399.5,-257.2 307.5,-257.2"/>
<text text-anchor="start" x="310.5" y="-264.9" font-family="Helvetica,sans-Serif" font-size="11.00" fill="#000000">text[2147483647]</text>
<polygon fill="none" stroke="#000000" points="160.5,-235.2 160.5,-257.2 307.5,-257.2 307.5,-235.2 160.5,-235.2"/>
<text text-anchor="start" x="180.5" y="-242.3" font-family="Helvetica,sans-Serif" font-size="11.00" fill="#000000">scheduled_departure</text>
<polygon fill="none" stroke="#000000" points="307.5,-235.2 307.5,-257.2 399.5,-257.2 399.5,-235.2 307.5,-235.2"/>
<text text-anchor="start" x="310.1023" y="-242.9" font-family="Helvetica,sans-Serif" font-size="11.00" fill="#000000">timestamptz[35,6]</text>
<polygon fill="none" stroke="#000000" points="160.5,-213.2 160.5,-235.2 307.5,-235.2 307.5,-213.2 160.5,-213.2"/>
<text text-anchor="start" x="180.5" y="-220.3" font-family="Helvetica,sans-Serif" font-size="11.00" fill="#000000">scheduled_arrival</text>
<polygon fill="none" stroke="#000000" points="307.5,-213.2 307.5,-235.2 399.5,-235.2 399.5,-213.2 307.5,-213.2"/>
<text text-anchor="start" x="310.1023" y="-220.9" font-family="Helvetica,sans-Serif" font-size="11.00" fill="#000000">timestamptz[35,6]</text>
<polygon fill="none" stroke="#000000" points="160.5,-191.2 160.5,-213.2 307.5,-213.2 307.5,-191.2 160.5,-191.2"/>
<image xlink:href="../../images/foreignKeys.png" width="11px" height="12px" preserveAspectRatio="xMinYMin meet" x="165.5" y="-208.2"/>
<text text-anchor="start" x="180.5" y="-198.3" font-family="Helvetica,sans-Serif" font-size="11.00" fill="#000000">departure_airport</text>
<polygon fill="none" stroke="#000000" points="307.5,-191.2 307.5,-213.2 399.5,-213.2 399.5,-191.2 307.5,-191.2"/>
<text text-anchor="start" x="310.5" y="-198.9" font-family="Helvetica,sans-Serif" font-size="11.00" fill="#000000">bpchar[3]</text>
<polygon fill="none" stroke="#000000" points="160.5,-169.2 160.5,-191.2 307.5,-191.2 307.5,-169.2 160.5,-169.2"/>
<image xlink:href="../../images/foreignKeys.png" width="11px" height="12px" preserveAspectRatio="xMinYMin meet" x="165.5" y="-186.2"/>
<text text-anchor="start" x="180.5" y="-176.3" font-family="Helvetica,sans-Serif" font-size="11.00" fill="#000000">arrival_airport</text>
<polygon fill="none" stroke="#000000" points="307.5,-169.2 307.5,-191.2 399.5,-191.2 399.5,-169.2 307.5,-169.2"/>
<text text-anchor="start" x="310.5" y="-176.9" font-family="Helvetica,sans-Serif" font-size="11.00" fill="#000000">bpchar[3]</text>
<polygon fill="none" stroke="#000000" points="160.5,-147.2 160.5,-169.2 307.5,-169.2 307.5,-147.2 160.5,-147.2"/>
<text text-anchor="start" x="180.5" y="-154.3" font-family="Helvetica,sans-Serif" font-size="11.00" fill="#000000">status</text>
<polygon fill="none" stroke="#000000" points="307.5,-147.2 307.5,-169.2 399.5,-169.2 399.5,-147.2 307.5,-147.2"/>
<text text-anchor="start" x="310.5" y="-154.9" font-family="Helvetica,sans-Serif" font-size="11.00" fill="#000000">text[2147483647]</text>
<polygon fill="none" stroke="#000000" points="160.5,-125.2 160.5,-147.2 307.5,-147.2 307.5,-125.2 160.5,-125.2"/>
<image xlink:href="../../images/foreignKeys.png" width="11px" height="12px" preserveAspectRatio="xMinYMin meet" x="165.5" y="-142.2"/>
<text text-anchor="start" x="180.5" y="-132.3" font-family="Helvetica,sans-Serif" font-size="11.00" fill="#000000">aircraft_code</text>
<polygon fill="none" stroke="#000000" points="307.5,-125.2 307.5,-147.2 399.5,-147.2 399.5,-125.2 307.5,-125.2"/>
<text text-anchor="start" x="310.5" y="-132.9" font-family="Helvetica,sans-Serif" font-size="11.00" fill="#000000">bpchar[3]</text>
<polygon fill="none" stroke="#000000" points="160.5,-103.2 160.5,-125.2 307.5,-125.2 307.5,-103.2 160.5,-103.2"/>
<text text-anchor="start" x="180.5" y="-110.3" font-family="Helvetica,sans-Serif" font-size="11.00" fill="#000000">actual_departure</text>
<polygon fill="none" stroke="#000000" points="307.5,-103.2 307.5,-125.2 399.5,-125.2 399.5,-103.2 307.5,-103.2"/>
<text text-anchor="start" x="310.1023" y="-110.9" font-family="Helvetica,sans-Serif" font-size="11.00" fill="#000000">timestamptz[35,6]</text>
<polygon fill="none" stroke="#000000" points="160.5,-81.2 160.5,-103.2 307.5,-103.2 307.5,-81.2 160.5,-81.2"/>
<text text-anchor="start" x="180.5" y="-88.3" font-family="Helvetica,sans-Serif" font-size="11.00" fill="#000000">actual_arrival</text>
<polygon fill="none" stroke="#000000" points="307.5,-81.2 307.5,-103.2 399.5,-103.2 399.5,-81.2 307.5,-81.2"/>
<text text-anchor="start" x="310.1023" y="-88.9" font-family="Helvetica,sans-Serif" font-size="11.00" fill="#000000">timestamptz[35,6]</text>
<polygon fill="none" stroke="#000000" points="160.5,-59.2 160.5,-81.2 307.5,-81.2 307.5,-59.2 160.5,-59.2"/>
<text text-anchor="start" x="180.5" y="-66.3" font-family="Helvetica,sans-Serif" font-size="11.00" fill="#000000">update_ts</text>
<polygon fill="none" stroke="#000000" points="307.5,-59.2 307.5,-81.2 399.5,-81.2 399.5,-59.2 307.5,-59.2"/>
<text text-anchor="start" x="310.1023" y="-66.9" font-family="Helvetica,sans-Serif" font-size="11.00" fill="#000000">timestamptz[35,6]</text>
<polygon fill="#ffffff" stroke="transparent" points="160.5,-40.2 160.5,-59.2 208.5,-59.2 208.5,-40.2 160.5,-40.2"/>
<polygon fill="none" stroke="#000000" points="160.5,-40.2 160.5,-59.2 208.5,-59.2 208.5,-40.2 160.5,-40.2"/>
<text text-anchor="start" x="163.5" y="-46.3" font-family="Helvetica,sans-Serif" font-size="11.00" fill="#000000">&lt; 3</text>
<polygon fill="#ffffff" stroke="transparent" points="208.5,-40.2 208.5,-59.2 307.5,-59.2 307.5,-40.2 208.5,-40.2"/>
<polygon fill="none" stroke="#000000" points="208.5,-40.2 208.5,-59.2 307.5,-59.2 307.5,-40.2 208.5,-40.2"/>
<text text-anchor="start" x="238.4791" y="-46.3" font-family="Helvetica,sans-Serif" font-size="11.00" fill="#000000">683,176 rows</text>
<polygon fill="#ffffff" stroke="transparent" points="307.5,-40.2 307.5,-59.2 399.5,-59.2 399.5,-40.2 307.5,-40.2"/>
<polygon fill="none" stroke="#000000" points="307.5,-40.2 307.5,-59.2 399.5,-59.2 399.5,-40.2 307.5,-40.2"/>
<text text-anchor="start" x="380.9053" y="-46.3" font-family="Helvetica,sans-Serif" font-size="11.00" fill="#000000">1 &gt;</text>
<polygon fill="none" stroke="#000000" stroke-width="2" points="159,-39.2 159,-325.2 400,-325.2 400,-39.2 159,-39.2"/>
</a>
</g>
</g>
<!-- booking_leg&#45;&gt;flight -->
<g id="edge3" class="edge">
<title>booking_leg:w&#45;&gt;flight:e</title>
<path fill="none" stroke="#000000" d="M436.5967,-317.3988C423.5044,-309.1209 420.2231,-290.2 399.5,-290.2"/>
<polygon fill="#000000" stroke="#000000" points="442.7832,-319.0902 449.5506,-324.6726 446.6416,-320.1451 450.5,-321.2 450.5,-321.2 450.5,-321.2 446.6416,-320.1451 451.4494,-317.7274 442.7832,-319.0902 442.7832,-319.0902"/>
<ellipse fill="none" stroke="#000000" cx="439.6965" cy="-318.2462" rx="3.2" ry="3.2"/>
</g>
<!-- aircraft -->
<g id="node5" class="node">
<title>aircraft</title>
<g id="a_node5"><a xlink:href="../../tables/aircraft.html" xlink:title="aircraft" target="_top">
<polygon fill="#ffffff" stroke="transparent" points="16.5,-49.7 16.5,-132.7 100.5,-132.7 100.5,-49.7 16.5,-49.7"/>
<polygon fill="#f5f5f5" stroke="transparent" points="16.5,-109.2 16.5,-132.2 100.5,-132.2 100.5,-109.2 16.5,-109.2"/>
<polygon fill="none" stroke="#000000" points="16.5,-109.2 16.5,-132.2 100.5,-132.2 100.5,-109.2 16.5,-109.2"/>
<text text-anchor="start" x="21.5" y="-117.8" font-family="Helvetica,sans-Serif" font-weight="bold" font-size="11.00" fill="#000000">aircraft</text>
<text text-anchor="start" x="66.0219" y="-117.3" font-family="Helvetica,sans-Serif" font-size="11.00" fill="#000000">[table]</text>
<polygon fill="none" stroke="#000000" points="16.5,-87.2 16.5,-109.2 100.5,-109.2 100.5,-87.2 16.5,-87.2"/>
<image xlink:href="../../images/primaryKeys.png" width="11px" height="12px" preserveAspectRatio="xMinYMin meet" x="21.5" y="-104.2"/>
<text text-anchor="start" x="45.5" y="-94.3" font-family="Helvetica,sans-Serif" font-size="11.00" fill="#000000">code</text>
<polygon fill="none" stroke="#000000" points="16.5,-68.2 16.5,-87.2 100.5,-87.2 100.5,-68.2 16.5,-68.2"/>
<text text-anchor="start" x="19.5" y="-74.3" font-family="Helvetica,sans-Serif" font-size="11.00" fill="#000000">...</text>
<polygon fill="#ffffff" stroke="transparent" points="16.5,-49.2 16.5,-68.2 31.5,-68.2 31.5,-49.2 16.5,-49.2"/>
<polygon fill="none" stroke="#000000" points="16.5,-49.2 16.5,-68.2 31.5,-68.2 31.5,-49.2 16.5,-49.2"/>
<text text-anchor="start" x="19.5" y="-55.3" font-family="Helvetica,sans-Serif" font-size="11.00" fill="#000000"> &#160;</text>
<polygon fill="#ffffff" stroke="transparent" points="31.5,-49.2 31.5,-68.2 77.5,-68.2 77.5,-49.2 31.5,-49.2"/>
<polygon fill="none" stroke="#000000" points="31.5,-49.2 31.5,-68.2 77.5,-68.2 77.5,-49.2 31.5,-49.2"/>
<text text-anchor="start" x="35.9956" y="-55.3" font-family="Helvetica,sans-Serif" font-size="11.00" fill="#000000">12 rows</text>
<polygon fill="#ffffff" stroke="transparent" points="77.5,-49.2 77.5,-68.2 100.5,-68.2 100.5,-49.2 77.5,-49.2"/>
<polygon fill="none" stroke="#000000" points="77.5,-49.2 77.5,-68.2 100.5,-68.2 100.5,-49.2 77.5,-49.2"/>
<text text-anchor="start" x="81.9053" y="-55.3" font-family="Helvetica,sans-Serif" font-size="11.00" fill="#000000">1 &gt;</text>
</a>
</g>
</g>
<!-- flight&#45;&gt;aircraft -->
<g id="edge4" class="edge">
<title>flight:w&#45;&gt;aircraft:e</title>
<path fill="none" stroke="#000000" d="M146.4426,-132.9601C128.9396,-123.7707 126.3931,-98.2 100.5,-98.2"/>
<polygon fill="#000000" stroke="#000000" points="152.7044,-134.4033 159.6915,-139.708 156.6022,-135.3016 160.5,-136.2 160.5,-136.2 160.5,-136.2 156.6022,-135.3016 161.3085,-132.692 152.7044,-134.4033 152.7044,-134.4033"/>
<ellipse fill="none" stroke="#000000" cx="149.5861" cy="-133.6846" rx="3.2" ry="3.2"/>
</g>
<!-- airport -->
<g id="node6" class="node">
<title>airport</title>
<g id="a_node6"><a xlink:href="../../tables/airport.html" xlink:title="airport" target="_top">
<polygon fill="#ffffff" stroke="transparent" points="8,-153.7 8,-236.7 109,-236.7 109,-153.7 8,-153.7"/>
<polygon fill="#f5f5f5" stroke="transparent" points="8.5,-213.2 8.5,-236.2 109.5,-236.2 109.5,-213.2 8.5,-213.2"/>
<polygon fill="none" stroke="#000000" points="8.5,-213.2 8.5,-236.2 109.5,-236.2 109.5,-213.2 8.5,-213.2"/>
<text text-anchor="start" x="13.5" y="-221.8" font-family="Helvetica,sans-Serif" font-weight="bold" font-size="11.00" fill="#000000">airport</text>
<text text-anchor="start" x="74.5437" y="-221.3" font-family="Helvetica,sans-Serif" font-size="11.00" fill="#000000">[table]</text>
<polygon fill="none" stroke="#000000" points="8.5,-191.2 8.5,-213.2 109.5,-213.2 109.5,-191.2 8.5,-191.2"/>
<image xlink:href="../../images/primaryKeys.png" width="11px" height="12px" preserveAspectRatio="xMinYMin meet" x="13.5" y="-208.2"/>
<text text-anchor="start" x="28.5" y="-198.3" font-family="Helvetica,sans-Serif" font-size="11.00" fill="#000000">airport_code</text>
<polygon fill="none" stroke="#000000" points="8.5,-172.2 8.5,-191.2 109.5,-191.2 109.5,-172.2 8.5,-172.2"/>
<text text-anchor="start" x="11.5" y="-178.3" font-family="Helvetica,sans-Serif" font-size="11.00" fill="#000000">...</text>
<polygon fill="#ffffff" stroke="transparent" points="8.5,-153.2 8.5,-172.2 29.5,-172.2 29.5,-153.2 8.5,-153.2"/>
<polygon fill="none" stroke="#000000" points="8.5,-153.2 8.5,-172.2 29.5,-172.2 29.5,-153.2 8.5,-153.2"/>
<text text-anchor="start" x="11.5" y="-159.3" font-family="Helvetica,sans-Serif" font-size="11.00" fill="#000000"> &#160;</text>
<polygon fill="#ffffff" stroke="transparent" points="29.5,-153.2 29.5,-172.2 83.5,-172.2 83.5,-153.2 29.5,-153.2"/>
<polygon fill="none" stroke="#000000" points="29.5,-153.2 29.5,-172.2 83.5,-172.2 83.5,-153.2 29.5,-153.2"/>
<text text-anchor="start" x="35.8807" y="-159.3" font-family="Helvetica,sans-Serif" font-size="11.00" fill="#000000">666 rows</text>
<polygon fill="#ffffff" stroke="transparent" points="83.5,-153.2 83.5,-172.2 109.5,-172.2 109.5,-153.2 83.5,-153.2"/>
<polygon fill="none" stroke="#000000" points="83.5,-153.2 83.5,-172.2 109.5,-172.2 109.5,-153.2 83.5,-153.2"/>
<text text-anchor="start" x="90.9053" y="-159.3" font-family="Helvetica,sans-Serif" font-size="11.00" fill="#000000">2 &gt;</text>
</a>
</g>
</g>
<!-- flight&#45;&gt;airport -->
<g id="edge5" class="edge">
<title>flight:w&#45;&gt;airport:e</title>
<path fill="none" stroke="#000000" d="M146.3489,-183.259C133.7843,-189.304 128.4,-202.2 109.5,-202.2"/>
<polygon fill="#000000" stroke="#000000" points="152.6806,-181.8903 161.2607,-183.7187 156.5903,-181.0452 160.5,-180.2 160.5,-180.2 160.5,-180.2 156.5903,-181.0452 159.7393,-176.6813 152.6806,-181.8903 152.6806,-181.8903"/>
<ellipse fill="none" stroke="#000000" cx="149.5528" cy="-182.5665" rx="3.2" ry="3.2"/>
</g>
<!-- flight&#45;&gt;airport -->
<g id="edge6" class="edge">
<title>flight:w&#45;&gt;airport:e</title>
<path fill="none" stroke="#000000" d="M145.776,-202.2C133.7815,-202.2 126.3229,-202.2 109.5,-202.2"/>
<polygon fill="#000000" stroke="#000000" points="152.5,-202.2001 160.5,-205.8 156.5,-202.2 160.5,-202.2 160.5,-202.2 160.5,-202.2 156.5,-202.2 160.5,-198.6 152.5,-202.2001 152.5,-202.2001"/>
<ellipse fill="none" stroke="#000000" cx="149.3" cy="-202.2001" rx="3.2" ry="3.2"/>
</g>
</g>
</svg>
