<?xml version="1.0" encoding="UTF-8" standalone="no"?>
<!DOCTYPE svg PUBLIC "-//W3C//DTD SVG 1.1//EN"
 "http://www.w3.org/Graphics/SVG/1.1/DTD/svg11.dtd">
<!-- Generated by graphviz version 2.40.1 (20161225.0304)
 -->
<!-- Title: oneDegreeRelationshipsDiagram Pages: 1 -->
<svg width="413pt" height="337pt"
 viewBox="0.00 0.00 413.00 336.70" xmlns="http://www.w3.org/2000/svg" xmlns:xlink="http://www.w3.org/1999/xlink">
<g id="graph0" class="graph" transform="scale(1 1) rotate(0) translate(4 332.7)">
<title>oneDegreeRelationshipsDiagram</title>
<polygon fill="#ffffff" stroke="transparent" points="-4,4 -4,-332.7 409,-332.7 409,4 -4,4"/>
<text text-anchor="middle" x="72.4936" y="-7.3" font-family="Helvetica,sans-Serif" font-size="11.00" fill="#000000">Generated by SchemaSpy</text>
<!-- account -->
<g id="node1" class="node">
<title>account</title>
<g id="a_node1"><a xlink:href="../../tables/account.html" xlink:title="account" target="_top">
<polygon fill="#ffffff" stroke="transparent" points="275,-219.7 275,-324.7 397,-324.7 397,-219.7 275,-219.7"/>
<polygon fill="#f5f5f5" stroke="transparent" points="275,-301.2 275,-324.2 397,-324.2 397,-301.2 275,-301.2"/>
<polygon fill="none" stroke="#000000" points="275,-301.2 275,-324.2 397,-324.2 397,-301.2 275,-301.2"/>
<text text-anchor="start" x="280" y="-309.8" font-family="Helvetica,sans-Serif" font-weight="bold" font-size="11.00" fill="#000000">account</text>
<text text-anchor="start" x="362.0437" y="-309.3" font-family="Helvetica,sans-Serif" font-size="11.00" fill="#000000">[table]</text>
<polygon fill="none" stroke="#000000" points="275,-279.2 275,-301.2 397,-301.2 397,-279.2 275,-279.2"/>
<image xlink:href="../../images/primaryKeys.png" width="11px" height="12px" preserveAspectRatio="xMinYMin meet" x="280" y="-296.2"/>
<text text-anchor="start" x="295" y="-286.3" font-family="Helvetica,sans-Serif" font-size="11.00" fill="#000000">account_id</text>
<polygon fill="none" stroke="#000000" points="275,-257.2 275,-279.2 397,-279.2 397,-257.2 275,-257.2"/>
<image xlink:href="../../images/foreignKeys.png" width="11px" height="12px" preserveAspectRatio="xMinYMin meet" x="280" y="-274.2"/>
<text text-anchor="start" x="295" y="-264.3" font-family="Helvetica,sans-Serif" font-size="11.00" fill="#000000">frequent_flyer_id</text>
<polygon fill="none" stroke="#000000" points="275,-238.2 275,-257.2 397,-257.2 397,-238.2 275,-238.2"/>
<text text-anchor="start" x="278" y="-244.3" font-family="Helvetica,sans-Serif" font-size="11.00" fill="#000000">...</text>
<polygon fill="#ffffff" stroke="transparent" points="275,-219.2 275,-238.2 300,-238.2 300,-219.2 275,-219.2"/>
<polygon fill="none" stroke="#000000" points="275,-219.2 275,-238.2 300,-238.2 300,-219.2 275,-219.2"/>
<text text-anchor="start" x="278" y="-225.3" font-family="Helvetica,sans-Serif" font-size="11.00" fill="#000000">&lt; 1</text>
<polygon fill="#ffffff" stroke="transparent" points="300,-219.2 300,-238.2 374,-238.2 374,-219.2 300,-219.2"/>
<polygon fill="none" stroke="#000000" points="300,-219.2 300,-238.2 374,-238.2 374,-219.2 300,-219.2"/>
<text text-anchor="start" x="304.9791" y="-225.3" font-family="Helvetica,sans-Serif" font-size="11.00" fill="#000000">257,333 rows</text>
<polygon fill="#ffffff" stroke="transparent" points="374,-219.2 374,-238.2 397,-238.2 397,-219.2 374,-219.2"/>
<polygon fill="none" stroke="#000000" points="374,-219.2 374,-238.2 397,-238.2 397,-219.2 374,-219.2"/>
<text text-anchor="start" x="378.4053" y="-225.3" font-family="Helvetica,sans-Serif" font-size="11.00" fill="#000000">3 &gt;</text>
</a>
</g>
</g>
<!-- frequent_flyer -->
<g id="node2" class="node">
<title>frequent_flyer</title>
<g id="a_node2"><a xlink:href="../../tables/frequent_flyer.html" xlink:title="frequent_flyer" target="_top">
<polygon fill="#ffffff" stroke="transparent" points="8,-38.2 8,-304.2 226,-304.2 226,-38.2 8,-38.2"/>
<polygon fill="#f5f5f5" stroke="transparent" points="10,-279.2 10,-302.2 224,-302.2 224,-279.2 10,-279.2"/>
<polygon fill="none" stroke="#000000" points="10,-279.2 10,-302.2 224,-302.2 224,-279.2 10,-279.2"/>
<text text-anchor="start" x="15" y="-287.8" font-family="Helvetica,sans-Serif" font-weight="bold" font-size="11.00" fill="#000000">frequent_flyer</text>
<text text-anchor="start" x="189.0437" y="-287.3" font-family="Helvetica,sans-Serif" font-size="11.00" fill="#000000">[table]</text>
<polygon fill="none" stroke="#000000" points="10,-257.2 10,-279.2 132,-279.2 132,-257.2 10,-257.2"/>
<image xlink:href="../../images/primaryKeys.png" width="11px" height="12px" preserveAspectRatio="xMinYMin meet" x="15" y="-274.2"/>
<text text-anchor="start" x="30" y="-264.3" font-family="Helvetica,sans-Serif" font-size="11.00" fill="#000000">frequent_flyer_id</text>
<polygon fill="none" stroke="#000000" points="132,-257.2 132,-279.2 224,-279.2 224,-257.2 132,-257.2"/>
<text text-anchor="start" x="135" y="-264.9" font-family="Helvetica,sans-Serif" font-size="11.00" fill="#000000">serial[10]</text>
<polygon fill="none" stroke="#000000" points="10,-235.2 10,-257.2 132,-257.2 132,-235.2 10,-235.2"/>
<text text-anchor="start" x="30" y="-242.3" font-family="Helvetica,sans-Serif" font-size="11.00" fill="#000000">first_name</text>
<polygon fill="none" stroke="#000000" points="132,-235.2 132,-257.2 224,-257.2 224,-235.2 132,-235.2"/>
<text text-anchor="start" x="135" y="-242.9" font-family="Helvetica,sans-Serif" font-size="11.00" fill="#000000">text[2147483647]</text>
<polygon fill="none" stroke="#000000" points="10,-213.2 10,-235.2 132,-235.2 132,-213.2 10,-213.2"/>
<text text-anchor="start" x="30" y="-220.3" font-family="Helvetica,sans-Serif" font-size="11.00" fill="#000000">last_name</text>
<polygon fill="none" stroke="#000000" points="132,-213.2 132,-235.2 224,-235.2 224,-213.2 132,-213.2"/>
<text text-anchor="start" x="135" y="-220.9" font-family="Helvetica,sans-Serif" font-size="11.00" fill="#000000">text[2147483647]</text>
<polygon fill="none" stroke="#000000" points="10,-191.2 10,-213.2 132,-213.2 132,-191.2 10,-191.2"/>
<text text-anchor="start" x="30" y="-198.3" font-family="Helvetica,sans-Serif" font-size="11.00" fill="#000000">title</text>
<polygon fill="none" stroke="#000000" points="132,-191.2 132,-213.2 224,-213.2 224,-191.2 132,-191.2"/>
<text text-anchor="start" x="135" y="-198.9" font-family="Helvetica,sans-Serif" font-size="11.00" fill="#000000">text[2147483647]</text>
<polygon fill="none" stroke="#000000" points="10,-169.2 10,-191.2 132,-191.2 132,-169.2 10,-169.2"/>
<text text-anchor="start" x="30" y="-176.3" font-family="Helvetica,sans-Serif" font-size="11.00" fill="#000000">card_num</text>
<polygon fill="none" stroke="#000000" points="132,-169.2 132,-191.2 224,-191.2 224,-169.2 132,-169.2"/>
<text text-anchor="start" x="135" y="-176.9" font-family="Helvetica,sans-Serif" font-size="11.00" fill="#000000">text[2147483647]</text>
<polygon fill="none" stroke="#000000" points="10,-147.2 10,-169.2 132,-169.2 132,-147.2 10,-147.2"/>
<text text-anchor="start" x="30" y="-154.3" font-family="Helvetica,sans-Serif" font-size="11.00" fill="#000000">level</text>
<polygon fill="none" stroke="#000000" points="132,-147.2 132,-169.2 224,-169.2 224,-147.2 132,-147.2"/>
<text text-anchor="start" x="135" y="-154.9" font-family="Helvetica,sans-Serif" font-size="11.00" fill="#000000">int4[10]</text>
<polygon fill="none" stroke="#000000" points="10,-125.2 10,-147.2 132,-147.2 132,-125.2 10,-125.2"/>
<text text-anchor="start" x="30" y="-132.3" font-family="Helvetica,sans-Serif" font-size="11.00" fill="#000000">award_points</text>
<polygon fill="none" stroke="#000000" points="132,-125.2 132,-147.2 224,-147.2 224,-125.2 132,-125.2"/>
<text text-anchor="start" x="135" y="-132.9" font-family="Helvetica,sans-Serif" font-size="11.00" fill="#000000">int4[10]</text>
<polygon fill="none" stroke="#000000" points="10,-103.2 10,-125.2 132,-125.2 132,-103.2 10,-103.2"/>
<text text-anchor="start" x="30" y="-110.3" font-family="Helvetica,sans-Serif" font-size="11.00" fill="#000000">email</text>
<polygon fill="none" stroke="#000000" points="132,-103.2 132,-125.2 224,-125.2 224,-103.2 132,-103.2"/>
<text text-anchor="start" x="135" y="-110.9" font-family="Helvetica,sans-Serif" font-size="11.00" fill="#000000">text[2147483647]</text>
<polygon fill="none" stroke="#000000" points="10,-81.2 10,-103.2 132,-103.2 132,-81.2 10,-81.2"/>
<text text-anchor="start" x="30" y="-88.3" font-family="Helvetica,sans-Serif" font-size="11.00" fill="#000000">phone</text>
<polygon fill="none" stroke="#000000" points="132,-81.2 132,-103.2 224,-103.2 224,-81.2 132,-81.2"/>
<text text-anchor="start" x="135" y="-88.9" font-family="Helvetica,sans-Serif" font-size="11.00" fill="#000000">text[2147483647]</text>
<polygon fill="none" stroke="#000000" points="10,-59.2 10,-81.2 132,-81.2 132,-59.2 10,-59.2"/>
<text text-anchor="start" x="30" y="-66.3" font-family="Helvetica,sans-Serif" font-size="11.00" fill="#000000">update_ts</text>
<polygon fill="none" stroke="#000000" points="132,-59.2 132,-81.2 224,-81.2 224,-59.2 132,-59.2"/>
<text text-anchor="start" x="134.6023" y="-66.9" font-family="Helvetica,sans-Serif" font-size="11.00" fill="#000000">timestamptz[35,6]</text>
<polygon fill="#ffffff" stroke="transparent" points="10,-40.2 10,-59.2 45,-59.2 45,-40.2 10,-40.2"/>
<polygon fill="none" stroke="#000000" points="10,-40.2 10,-59.2 45,-59.2 45,-40.2 10,-40.2"/>
<text text-anchor="start" x="13" y="-46.3" font-family="Helvetica,sans-Serif" font-size="11.00" fill="#000000">&lt; 0</text>
<polygon fill="#ffffff" stroke="transparent" points="45,-40.2 45,-59.2 132,-59.2 132,-40.2 45,-40.2"/>
<polygon fill="none" stroke="#000000" points="45,-40.2 45,-59.2 132,-59.2 132,-40.2 45,-40.2"/>
<text text-anchor="start" x="62.9791" y="-46.3" font-family="Helvetica,sans-Serif" font-size="11.00" fill="#000000">128,346 rows</text>
<polygon fill="#ffffff" stroke="transparent" points="132,-40.2 132,-59.2 224,-59.2 224,-40.2 132,-40.2"/>
<polygon fill="none" stroke="#000000" points="132,-40.2 132,-59.2 224,-59.2 224,-40.2 132,-40.2"/>
<text text-anchor="start" x="205.4053" y="-46.3" font-family="Helvetica,sans-Serif" font-size="11.00" fill="#000000">1 &gt;</text>
<polygon fill="none" stroke="#000000" stroke-width="2" points="9,-39.2 9,-303.2 225,-303.2 225,-39.2 9,-39.2"/>
</a>
</g>
</g>
<!-- account&#45;&gt;frequent_flyer -->
<g id="edge1" class="edge">
<title>account:w&#45;&gt;frequent_flyer:e</title>
<path fill="none" stroke="#000000" d="M260.276,-268.2C248.2815,-268.2 240.8229,-268.2 224,-268.2"/>
<polygon fill="#000000" stroke="#000000" points="267,-268.2001 275,-271.8 271,-268.2 275,-268.2 275,-268.2 275,-268.2 271,-268.2 275,-264.6 267,-268.2001 267,-268.2001"/>
<ellipse fill="none" stroke="#000000" cx="263.8" cy="-268.2001" rx="3.2" ry="3.2"/>
</g>
</g>
</svg>
