<?xml version="1.0" encoding="UTF-8" standalone="no"?>
<!DOCTYPE svg PUBLIC "-//W3C//DTD SVG 1.1//EN"
 "http://www.w3.org/Graphics/SVG/1.1/DTD/svg11.dtd">
<!-- Generated by graphviz version 2.40.1 (20161225.0304)
 -->
<!-- Title: twoDegreesRelationshipsDiagram Pages: 1 -->
<svg width="763pt" height="365pt"
 viewBox="0.00 0.00 763.00 364.70" xmlns="http://www.w3.org/2000/svg" xmlns:xlink="http://www.w3.org/1999/xlink">
<g id="graph0" class="graph" transform="scale(1 1) rotate(0) translate(4 360.7)">
<title>twoDegreesRelationshipsDiagram</title>
<polygon fill="#ffffff" stroke="transparent" points="-4,4 -4,-360.7 759,-360.7 759,4 -4,4"/>
<text text-anchor="middle" x="72.4936" y="-7.3" font-family="Helvetica,sans-Serif" font-size="11.00" fill="#000000">Generated by SchemaSpy</text>
<!-- account -->
<g id="node1" class="node">
<title>account</title>
<g id="a_node1"><a xlink:href="../../tables/account.html" xlink:title="account" target="_top">
<polygon fill="#ffffff" stroke="transparent" points="275,-219.7 275,-324.7 397,-324.7 397,-219.7 275,-219.7"/>
<polygon fill="#f5f5f5" stroke="transparent" points="275,-301.2 275,-324.2 397,-324.2 397,-301.2 275,-301.2"/>
<polygon fill="none" stroke="#000000" points="275,-301.2 275,-324.2 397,-324.2 397,-301.2 275,-301.2"/>
<text text-anchor="start" x="280" y="-309.8" font-family="Helvetica,sans-Serif" font-weight="bold" font-size="11.00" fill="#000000">account</text>
<text text-anchor="start" x="362.0437" y="-309.3" font-family="Helvetica,sans-Serif" font-size="11.00" fill="#000000">[table]</text>
<polygon fill="none" stroke="#000000" points="275,-279.2 275,-301.2 397,-301.2 397,-279.2 275,-279.2"/>
<image xlink:href="../../images/primaryKeys.png" width="11px" height="12px" preserveAspectRatio="xMinYMin meet" x="280" y="-296.2"/>
<text text-anchor="start" x="295" y="-286.3" font-family="Helvetica,sans-Serif" font-size="11.00" fill="#000000">account_id</text>
<polygon fill="none" stroke="#000000" points="275,-257.2 275,-279.2 397,-279.2 397,-257.2 275,-257.2"/>
<image xlink:href="../../images/foreignKeys.png" width="11px" height="12px" preserveAspectRatio="xMinYMin meet" x="280" y="-274.2"/>
<text text-anchor="start" x="295" y="-264.3" font-family="Helvetica,sans-Serif" font-size="11.00" fill="#000000">frequent_flyer_id</text>
<polygon fill="none" stroke="#000000" points="275,-238.2 275,-257.2 397,-257.2 397,-238.2 275,-238.2"/>
<text text-anchor="start" x="278" y="-244.3" font-family="Helvetica,sans-Serif" font-size="11.00" fill="#000000">...</text>
<polygon fill="#ffffff" stroke="transparent" points="275,-219.2 275,-238.2 300,-238.2 300,-219.2 275,-219.2"/>
<polygon fill="none" stroke="#000000" points="275,-219.2 275,-238.2 300,-238.2 300,-219.2 275,-219.2"/>
<text text-anchor="start" x="278" y="-225.3" font-family="Helvetica,sans-Serif" font-size="11.00" fill="#000000">&lt; 1</text>
<polygon fill="#ffffff" stroke="transparent" points="300,-219.2 300,-238.2 374,-238.2 374,-219.2 300,-219.2"/>
<polygon fill="none" stroke="#000000" points="300,-219.2 300,-238.2 374,-238.2 374,-219.2 300,-219.2"/>
<text text-anchor="start" x="304.9791" y="-225.3" font-family="Helvetica,sans-Serif" font-size="11.00" fill="#000000">257,333 rows</text>
<polygon fill="#ffffff" stroke="transparent" points="374,-219.2 374,-238.2 397,-238.2 397,-219.2 374,-219.2"/>
<polygon fill="none" stroke="#000000" points="374,-219.2 374,-238.2 397,-238.2 397,-219.2 374,-219.2"/>
<text text-anchor="start" x="378.4053" y="-225.3" font-family="Helvetica,sans-Serif" font-size="11.00" fill="#000000">3 &gt;</text>
</a>
</g>
</g>
<!-- frequent_flyer -->
<g id="node2" class="node">
<title>frequent_flyer</title>
<g id="a_node2"><a xlink:href="../../tables/frequent_flyer.html" xlink:title="frequent_flyer" target="_top">
<polygon fill="#ffffff" stroke="transparent" points="8,-38.2 8,-304.2 226,-304.2 226,-38.2 8,-38.2"/>
<polygon fill="#f5f5f5" stroke="transparent" points="10,-279.2 10,-302.2 224,-302.2 224,-279.2 10,-279.2"/>
<polygon fill="none" stroke="#000000" points="10,-279.2 10,-302.2 224,-302.2 224,-279.2 10,-279.2"/>
<text text-anchor="start" x="15" y="-287.8" font-family="Helvetica,sans-Serif" font-weight="bold" font-size="11.00" fill="#000000">frequent_flyer</text>
<text text-anchor="start" x="189.0437" y="-287.3" font-family="Helvetica,sans-Serif" font-size="11.00" fill="#000000">[table]</text>
<polygon fill="none" stroke="#000000" points="10,-257.2 10,-279.2 132,-279.2 132,-257.2 10,-257.2"/>
<image xlink:href="../../images/primaryKeys.png" width="11px" height="12px" preserveAspectRatio="xMinYMin meet" x="15" y="-274.2"/>
<text text-anchor="start" x="30" y="-264.3" font-family="Helvetica,sans-Serif" font-size="11.00" fill="#000000">frequent_flyer_id</text>
<polygon fill="none" stroke="#000000" points="132,-257.2 132,-279.2 224,-279.2 224,-257.2 132,-257.2"/>
<text text-anchor="start" x="135" y="-264.9" font-family="Helvetica,sans-Serif" font-size="11.00" fill="#000000">serial[10]</text>
<polygon fill="none" stroke="#000000" points="10,-235.2 10,-257.2 132,-257.2 132,-235.2 10,-235.2"/>
<text text-anchor="start" x="30" y="-242.3" font-family="Helvetica,sans-Serif" font-size="11.00" fill="#000000">first_name</text>
<polygon fill="none" stroke="#000000" points="132,-235.2 132,-257.2 224,-257.2 224,-235.2 132,-235.2"/>
<text text-anchor="start" x="135" y="-242.9" font-family="Helvetica,sans-Serif" font-size="11.00" fill="#000000">text[2147483647]</text>
<polygon fill="none" stroke="#000000" points="10,-213.2 10,-235.2 132,-235.2 132,-213.2 10,-213.2"/>
<text text-anchor="start" x="30" y="-220.3" font-family="Helvetica,sans-Serif" font-size="11.00" fill="#000000">last_name</text>
<polygon fill="none" stroke="#000000" points="132,-213.2 132,-235.2 224,-235.2 224,-213.2 132,-213.2"/>
<text text-anchor="start" x="135" y="-220.9" font-family="Helvetica,sans-Serif" font-size="11.00" fill="#000000">text[2147483647]</text>
<polygon fill="none" stroke="#000000" points="10,-191.2 10,-213.2 132,-213.2 132,-191.2 10,-191.2"/>
<text text-anchor="start" x="30" y="-198.3" font-family="Helvetica,sans-Serif" font-size="11.00" fill="#000000">title</text>
<polygon fill="none" stroke="#000000" points="132,-191.2 132,-213.2 224,-213.2 224,-191.2 132,-191.2"/>
<text text-anchor="start" x="135" y="-198.9" font-family="Helvetica,sans-Serif" font-size="11.00" fill="#000000">text[2147483647]</text>
<polygon fill="none" stroke="#000000" points="10,-169.2 10,-191.2 132,-191.2 132,-169.2 10,-169.2"/>
<text text-anchor="start" x="30" y="-176.3" font-family="Helvetica,sans-Serif" font-size="11.00" fill="#000000">card_num</text>
<polygon fill="none" stroke="#000000" points="132,-169.2 132,-191.2 224,-191.2 224,-169.2 132,-169.2"/>
<text text-anchor="start" x="135" y="-176.9" font-family="Helvetica,sans-Serif" font-size="11.00" fill="#000000">text[2147483647]</text>
<polygon fill="none" stroke="#000000" points="10,-147.2 10,-169.2 132,-169.2 132,-147.2 10,-147.2"/>
<text text-anchor="start" x="30" y="-154.3" font-family="Helvetica,sans-Serif" font-size="11.00" fill="#000000">level</text>
<polygon fill="none" stroke="#000000" points="132,-147.2 132,-169.2 224,-169.2 224,-147.2 132,-147.2"/>
<text text-anchor="start" x="135" y="-154.9" font-family="Helvetica,sans-Serif" font-size="11.00" fill="#000000">int4[10]</text>
<polygon fill="none" stroke="#000000" points="10,-125.2 10,-147.2 132,-147.2 132,-125.2 10,-125.2"/>
<text text-anchor="start" x="30" y="-132.3" font-family="Helvetica,sans-Serif" font-size="11.00" fill="#000000">award_points</text>
<polygon fill="none" stroke="#000000" points="132,-125.2 132,-147.2 224,-147.2 224,-125.2 132,-125.2"/>
<text text-anchor="start" x="135" y="-132.9" font-family="Helvetica,sans-Serif" font-size="11.00" fill="#000000">int4[10]</text>
<polygon fill="none" stroke="#000000" points="10,-103.2 10,-125.2 132,-125.2 132,-103.2 10,-103.2"/>
<text text-anchor="start" x="30" y="-110.3" font-family="Helvetica,sans-Serif" font-size="11.00" fill="#000000">email</text>
<polygon fill="none" stroke="#000000" points="132,-103.2 132,-125.2 224,-125.2 224,-103.2 132,-103.2"/>
<text text-anchor="start" x="135" y="-110.9" font-family="Helvetica,sans-Serif" font-size="11.00" fill="#000000">text[2147483647]</text>
<polygon fill="none" stroke="#000000" points="10,-81.2 10,-103.2 132,-103.2 132,-81.2 10,-81.2"/>
<text text-anchor="start" x="30" y="-88.3" font-family="Helvetica,sans-Serif" font-size="11.00" fill="#000000">phone</text>
<polygon fill="none" stroke="#000000" points="132,-81.2 132,-103.2 224,-103.2 224,-81.2 132,-81.2"/>
<text text-anchor="start" x="135" y="-88.9" font-family="Helvetica,sans-Serif" font-size="11.00" fill="#000000">text[2147483647]</text>
<polygon fill="none" stroke="#000000" points="10,-59.2 10,-81.2 132,-81.2 132,-59.2 10,-59.2"/>
<text text-anchor="start" x="30" y="-66.3" font-family="Helvetica,sans-Serif" font-size="11.00" fill="#000000">update_ts</text>
<polygon fill="none" stroke="#000000" points="132,-59.2 132,-81.2 224,-81.2 224,-59.2 132,-59.2"/>
<text text-anchor="start" x="134.6023" y="-66.9" font-family="Helvetica,sans-Serif" font-size="11.00" fill="#000000">timestamptz[35,6]</text>
<polygon fill="#ffffff" stroke="transparent" points="10,-40.2 10,-59.2 45,-59.2 45,-40.2 10,-40.2"/>
<polygon fill="none" stroke="#000000" points="10,-40.2 10,-59.2 45,-59.2 45,-40.2 10,-40.2"/>
<text text-anchor="start" x="13" y="-46.3" font-family="Helvetica,sans-Serif" font-size="11.00" fill="#000000">&lt; 0</text>
<polygon fill="#ffffff" stroke="transparent" points="45,-40.2 45,-59.2 132,-59.2 132,-40.2 45,-40.2"/>
<polygon fill="none" stroke="#000000" points="45,-40.2 45,-59.2 132,-59.2 132,-40.2 45,-40.2"/>
<text text-anchor="start" x="62.9791" y="-46.3" font-family="Helvetica,sans-Serif" font-size="11.00" fill="#000000">128,346 rows</text>
<polygon fill="#ffffff" stroke="transparent" points="132,-40.2 132,-59.2 224,-59.2 224,-40.2 132,-40.2"/>
<polygon fill="none" stroke="#000000" points="132,-40.2 132,-59.2 224,-59.2 224,-40.2 132,-40.2"/>
<text text-anchor="start" x="205.4053" y="-46.3" font-family="Helvetica,sans-Serif" font-size="11.00" fill="#000000">1 &gt;</text>
<polygon fill="none" stroke="#000000" stroke-width="2" points="9,-39.2 9,-303.2 225,-303.2 225,-39.2 9,-39.2"/>
</a>
</g>
</g>
<!-- account&#45;&gt;frequent_flyer -->
<g id="edge1" class="edge">
<title>account:w&#45;&gt;frequent_flyer:e</title>
<path fill="none" stroke="#000000" d="M260.276,-268.2C248.2815,-268.2 240.8229,-268.2 224,-268.2"/>
<polygon fill="#000000" stroke="#000000" points="267,-268.2001 275,-271.8 271,-268.2 275,-268.2 275,-268.2 275,-268.2 271,-268.2 275,-264.6 267,-268.2001 267,-268.2001"/>
<ellipse fill="none" stroke="#000000" cx="263.8" cy="-268.2001" rx="3.2" ry="3.2"/>
</g>
<!-- booking -->
<g id="node3" class="node">
<title>booking</title>
<g id="a_node3"><a xlink:href="../../tables/booking.html" xlink:title="booking" target="_top">
<polygon fill="#ffffff" stroke="transparent" points="446,-262.7 446,-323.7 569,-323.7 569,-262.7 446,-262.7"/>
<polygon fill="#f5f5f5" stroke="transparent" points="446.5,-300.2 446.5,-323.2 569.5,-323.2 569.5,-300.2 446.5,-300.2"/>
<polygon fill="none" stroke="#000000" points="446.5,-300.2 446.5,-323.2 569.5,-323.2 569.5,-300.2 446.5,-300.2"/>
<text text-anchor="start" x="451.5" y="-308.8" font-family="Helvetica,sans-Serif" font-weight="bold" font-size="11.00" fill="#000000">booking</text>
<text text-anchor="start" x="534.5437" y="-308.3" font-family="Helvetica,sans-Serif" font-size="11.00" fill="#000000">[table]</text>
<polygon fill="none" stroke="#000000" points="446.5,-281.2 446.5,-300.2 569.5,-300.2 569.5,-281.2 446.5,-281.2"/>
<text text-anchor="start" x="449.5" y="-287.3" font-family="Helvetica,sans-Serif" font-size="11.00" fill="#000000">...</text>
<polygon fill="#ffffff" stroke="transparent" points="446.5,-262.2 446.5,-281.2 467.5,-281.2 467.5,-262.2 446.5,-262.2"/>
<polygon fill="none" stroke="#000000" points="446.5,-262.2 446.5,-281.2 467.5,-281.2 467.5,-262.2 446.5,-262.2"/>
<text text-anchor="start" x="449.2027" y="-268.3" font-family="Helvetica,sans-Serif" font-size="11.00" fill="#000000">&lt; 1</text>
<polygon fill="#ffffff" stroke="transparent" points="467.5,-262.2 467.5,-281.2 548.5,-281.2 548.5,-262.2 467.5,-262.2"/>
<polygon fill="none" stroke="#000000" points="467.5,-262.2 467.5,-281.2 548.5,-281.2 548.5,-262.2 467.5,-262.2"/>
<text text-anchor="start" x="470.4037" y="-268.3" font-family="Helvetica,sans-Serif" font-size="11.00" fill="#000000">5,643,687 rows</text>
<polygon fill="#ffffff" stroke="transparent" points="548.5,-262.2 548.5,-281.2 569.5,-281.2 569.5,-262.2 548.5,-262.2"/>
<polygon fill="none" stroke="#000000" points="548.5,-262.2 548.5,-281.2 569.5,-281.2 569.5,-262.2 548.5,-262.2"/>
<text text-anchor="start" x="551.2026" y="-268.3" font-family="Helvetica,sans-Serif" font-size="11.00" fill="#000000">2 &gt;</text>
</a>
</g>
</g>
<!-- booking&#45;&gt;account -->
<g id="edge2" class="edge">
<title>booking:w&#45;&gt;account:e</title>
<path fill="none" stroke="#000000" d="M431.8428,-290.2C420.4139,-290.2 413.1563,-290.2 397,-290.2"/>
<polygon fill="#000000" stroke="#000000" points="438.5,-290.2001 446.5,-293.8 442.5,-290.2 446.5,-290.2 446.5,-290.2 446.5,-290.2 442.5,-290.2 446.5,-286.6 438.5,-290.2001 438.5,-290.2001"/>
<ellipse fill="none" stroke="#000000" cx="435.3" cy="-290.2001" rx="3.2" ry="3.2"/>
</g>
<!-- passenger -->
<g id="node4" class="node">
<title>passenger</title>
<g id="a_node4"><a xlink:href="../../tables/passenger.html" xlink:title="passenger" target="_top">
<polygon fill="#ffffff" stroke="transparent" points="618,-291.7 618,-352.7 747,-352.7 747,-291.7 618,-291.7"/>
<polygon fill="#f5f5f5" stroke="transparent" points="618.5,-329.2 618.5,-352.2 747.5,-352.2 747.5,-329.2 618.5,-329.2"/>
<polygon fill="none" stroke="#000000" points="618.5,-329.2 618.5,-352.2 747.5,-352.2 747.5,-329.2 618.5,-329.2"/>
<text text-anchor="start" x="623.5" y="-337.8" font-family="Helvetica,sans-Serif" font-weight="bold" font-size="11.00" fill="#000000">passenger</text>
<text text-anchor="start" x="712.5437" y="-337.3" font-family="Helvetica,sans-Serif" font-size="11.00" fill="#000000">[table]</text>
<polygon fill="none" stroke="#000000" points="618.5,-310.2 618.5,-329.2 747.5,-329.2 747.5,-310.2 618.5,-310.2"/>
<text text-anchor="start" x="621.5" y="-316.3" font-family="Helvetica,sans-Serif" font-size="11.00" fill="#000000">...</text>
<polygon fill="#ffffff" stroke="transparent" points="618.5,-291.2 618.5,-310.2 639.5,-310.2 639.5,-291.2 618.5,-291.2"/>
<polygon fill="none" stroke="#000000" points="618.5,-291.2 618.5,-310.2 639.5,-310.2 639.5,-291.2 618.5,-291.2"/>
<text text-anchor="start" x="621.2026" y="-297.3" font-family="Helvetica,sans-Serif" font-size="11.00" fill="#000000">&lt; 2</text>
<polygon fill="#ffffff" stroke="transparent" points="639.5,-291.2 639.5,-310.2 726.5,-310.2 726.5,-291.2 639.5,-291.2"/>
<polygon fill="none" stroke="#000000" points="639.5,-291.2 639.5,-310.2 726.5,-310.2 726.5,-291.2 639.5,-291.2"/>
<text text-anchor="start" x="642.3462" y="-297.3" font-family="Helvetica,sans-Serif" font-size="11.00" fill="#000000">16,312,143 rows</text>
<polygon fill="#ffffff" stroke="transparent" points="726.5,-291.2 726.5,-310.2 747.5,-310.2 747.5,-291.2 726.5,-291.2"/>
<polygon fill="none" stroke="#000000" points="726.5,-291.2 726.5,-310.2 747.5,-310.2 747.5,-291.2 726.5,-291.2"/>
<text text-anchor="start" x="729.2026" y="-297.3" font-family="Helvetica,sans-Serif" font-size="11.00" fill="#000000">1 &gt;</text>
</a>
</g>
</g>
<!-- passenger&#45;&gt;account -->
<g id="edge3" class="edge">
<title>passenger:w&#45;&gt;account:e</title>
<path fill="none" stroke="#000000" d="M604.0752,-321.9974C595.6461,-325.6561 590.2812,-331.8734 577,-334.2 516.1488,-344.8597 494.6493,-358.8444 438,-334.2 413.4894,-323.537 423.7296,-290.2 397,-290.2"/>
<polygon fill="#000000" stroke="#000000" points="610.6463,-320.7231 619.1854,-322.7342 614.5732,-319.9616 618.5,-319.2 618.5,-319.2 618.5,-319.2 614.5732,-319.9616 617.8146,-315.6658 610.6463,-320.7231 610.6463,-320.7231"/>
<ellipse fill="none" stroke="#000000" cx="607.5048" cy="-321.3323" rx="3.2" ry="3.2"/>
</g>
<!-- passenger&#45;&gt;booking -->
<g id="edge4" class="edge">
<title>passenger:w&#45;&gt;booking:e</title>
<path fill="none" stroke="#000000" d="M604.4495,-315.1677C592.471,-307.1993 588.8749,-290.2 569.5,-290.2"/>
<polygon fill="#000000" stroke="#000000" points="610.8104,-316.9931 617.5069,-322.6603 614.6552,-318.0966 618.5,-319.2 618.5,-319.2 618.5,-319.2 614.6552,-318.0966 619.4931,-315.7397 610.8104,-316.9931 610.8104,-316.9931"/>
<ellipse fill="none" stroke="#000000" cx="607.7346" cy="-316.1104" rx="3.2" ry="3.2"/>
</g>
<!-- phone -->
<g id="node5" class="node">
<title>phone</title>
<g id="a_node5"><a xlink:href="../../tables/phone.html" xlink:title="phone" target="_top">
<polygon fill="#ffffff" stroke="transparent" points="455,-180.7 455,-241.7 560,-241.7 560,-180.7 455,-180.7"/>
<polygon fill="#f5f5f5" stroke="transparent" points="455.5,-218.2 455.5,-241.2 560.5,-241.2 560.5,-218.2 455.5,-218.2"/>
<polygon fill="none" stroke="#000000" points="455.5,-218.2 455.5,-241.2 560.5,-241.2 560.5,-218.2 455.5,-218.2"/>
<text text-anchor="start" x="460.5" y="-226.8" font-family="Helvetica,sans-Serif" font-weight="bold" font-size="11.00" fill="#000000">phone</text>
<text text-anchor="start" x="525.5437" y="-226.3" font-family="Helvetica,sans-Serif" font-size="11.00" fill="#000000">[table]</text>
<polygon fill="none" stroke="#000000" points="455.5,-199.2 455.5,-218.2 560.5,-218.2 560.5,-199.2 455.5,-199.2"/>
<text text-anchor="start" x="458.5" y="-205.3" font-family="Helvetica,sans-Serif" font-size="11.00" fill="#000000">...</text>
<polygon fill="#ffffff" stroke="transparent" points="455.5,-180.2 455.5,-199.2 476.5,-199.2 476.5,-180.2 455.5,-180.2"/>
<polygon fill="none" stroke="#000000" points="455.5,-180.2 455.5,-199.2 476.5,-199.2 476.5,-180.2 455.5,-180.2"/>
<text text-anchor="start" x="458.2027" y="-186.3" font-family="Helvetica,sans-Serif" font-size="11.00" fill="#000000">&lt; 1</text>
<polygon fill="#ffffff" stroke="transparent" points="476.5,-180.2 476.5,-199.2 548.5,-199.2 548.5,-180.2 476.5,-180.2"/>
<polygon fill="none" stroke="#000000" points="476.5,-180.2 476.5,-199.2 548.5,-199.2 548.5,-180.2 476.5,-180.2"/>
<text text-anchor="start" x="479.4896" y="-186.3" font-family="Helvetica,sans-Serif" font-size="11.00" fill="#000000">407,444 rows</text>
<polygon fill="#ffffff" stroke="transparent" points="548.5,-180.2 548.5,-199.2 560.5,-199.2 560.5,-180.2 548.5,-180.2"/>
<polygon fill="none" stroke="#000000" points="548.5,-180.2 548.5,-199.2 560.5,-199.2 560.5,-180.2 548.5,-180.2"/>
<text text-anchor="start" x="551.4431" y="-186.3" font-family="Helvetica,sans-Serif" font-size="11.00" fill="#000000"> &#160;</text>
</a>
</g>
</g>
<!-- phone&#45;&gt;account -->
<g id="edge5" class="edge">
<title>phone:w&#45;&gt;account:e</title>
<path fill="none" stroke="#000000" d="M441.3189,-212.155C417.6387,-228.5348 435.8225,-290.2 397,-290.2"/>
<polygon fill="#000000" stroke="#000000" points="447.7941,-210.3492 456.4671,-211.6677 451.647,-209.2746 455.5,-208.2 455.5,-208.2 455.5,-208.2 451.647,-209.2746 454.5329,-204.7323 447.7941,-210.3492 447.7941,-210.3492"/>
<ellipse fill="none" stroke="#000000" cx="444.7117" cy="-211.2088" rx="3.2" ry="3.2"/>
</g>
</g>
</svg>
