<?xml version="1.0" encoding="UTF-8" standalone="no"?>
<!DOCTYPE svg PUBLIC "-//W3C//DTD SVG 1.1//EN"
 "http://www.w3.org/Graphics/SVG/1.1/DTD/svg11.dtd">
<!-- Generated by graphviz version 2.40.1 (20161225.0304)
 -->
<!-- Title: oneDegreeRelationshipsDiagram Pages: 1 -->
<svg width="744pt" height="315pt"
 viewBox="0.00 0.00 744.00 314.70" xmlns="http://www.w3.org/2000/svg" xmlns:xlink="http://www.w3.org/1999/xlink">
<g id="graph0" class="graph" transform="scale(1 1) rotate(0) translate(4 310.7)">
<title>oneDegreeRelationshipsDiagram</title>
<polygon fill="#ffffff" stroke="transparent" points="-4,4 -4,-310.7 740,-310.7 740,4 -4,4"/>
<text text-anchor="middle" x="72.4936" y="-7.3" font-family="Helvetica,sans-Serif" font-size="11.00" fill="#000000">Generated by SchemaSpy</text>
<!-- boarding_pass -->
<g id="node1" class="node">
<title>boarding_pass</title>
<g id="a_node1"><a xlink:href="../../tables/boarding_pass.html" xlink:title="boarding_pass" target="_top">
<polygon fill="#ffffff" stroke="transparent" points="604,-175.7 604,-302.7 728,-302.7 728,-175.7 604,-175.7"/>
<polygon fill="#f5f5f5" stroke="transparent" points="604,-279.2 604,-302.2 728,-302.2 728,-279.2 604,-279.2"/>
<polygon fill="none" stroke="#000000" points="604,-279.2 604,-302.2 728,-302.2 728,-279.2 604,-279.2"/>
<text text-anchor="start" x="609" y="-287.8" font-family="Helvetica,sans-Serif" font-weight="bold" font-size="11.00" fill="#000000">boarding_pass</text>
<text text-anchor="start" x="693.5219" y="-287.3" font-family="Helvetica,sans-Serif" font-size="11.00" fill="#000000">[table]</text>
<polygon fill="none" stroke="#000000" points="604,-257.2 604,-279.2 728,-279.2 728,-257.2 604,-257.2"/>
<image xlink:href="../../images/primaryKeys.png" width="11px" height="12px" preserveAspectRatio="xMinYMin meet" x="609" y="-274.2"/>
<text text-anchor="start" x="633" y="-264.3" font-family="Helvetica,sans-Serif" font-size="11.00" fill="#000000">pass_id</text>
<polygon fill="none" stroke="#000000" points="604,-235.2 604,-257.2 728,-257.2 728,-235.2 604,-235.2"/>
<image xlink:href="../../images/foreignKeys.png" width="11px" height="12px" preserveAspectRatio="xMinYMin meet" x="609" y="-252.2"/>
<text text-anchor="start" x="633" y="-242.3" font-family="Helvetica,sans-Serif" font-size="11.00" fill="#000000">passenger_id</text>
<polygon fill="none" stroke="#000000" points="604,-213.2 604,-235.2 728,-235.2 728,-213.2 604,-213.2"/>
<image xlink:href="../../images/foreignKeys.png" width="11px" height="12px" preserveAspectRatio="xMinYMin meet" x="609" y="-230.2"/>
<text text-anchor="start" x="633" y="-220.3" font-family="Helvetica,sans-Serif" font-size="11.00" fill="#000000">booking_leg_id</text>
<polygon fill="none" stroke="#000000" points="604,-194.2 604,-213.2 728,-213.2 728,-194.2 604,-194.2"/>
<text text-anchor="start" x="607" y="-200.3" font-family="Helvetica,sans-Serif" font-size="11.00" fill="#000000">...</text>
<polygon fill="#ffffff" stroke="transparent" points="604,-175.2 604,-194.2 627,-194.2 627,-175.2 604,-175.2"/>
<polygon fill="none" stroke="#000000" points="604,-175.2 604,-194.2 627,-194.2 627,-175.2 604,-175.2"/>
<text text-anchor="start" x="607" y="-181.3" font-family="Helvetica,sans-Serif" font-size="11.00" fill="#000000">&lt; 2</text>
<polygon fill="#ffffff" stroke="transparent" points="627,-175.2 627,-194.2 715,-194.2 715,-175.2 627,-175.2"/>
<polygon fill="none" stroke="#000000" points="627,-175.2 627,-194.2 715,-194.2 715,-175.2 627,-175.2"/>
<text text-anchor="start" x="630.6924" y="-181.3" font-family="Helvetica,sans-Serif" font-size="11.00" fill="#000000">25,292,472 rows</text>
<polygon fill="#ffffff" stroke="transparent" points="715,-175.2 715,-194.2 728,-194.2 728,-175.2 715,-175.2"/>
<polygon fill="none" stroke="#000000" points="715,-175.2 715,-194.2 728,-194.2 728,-175.2 715,-175.2"/>
<text text-anchor="start" x="718.8862" y="-181.3" font-family="Helvetica,sans-Serif" font-size="11.00" fill="#000000"> &#160;</text>
</a>
</g>
</g>
<!-- passenger -->
<g id="node2" class="node">
<title>passenger</title>
<g id="a_node2"><a xlink:href="../../tables/passenger.html" xlink:title="passenger" target="_top">
<polygon fill="#ffffff" stroke="transparent" points="351,-38.2 351,-282.2 555,-282.2 555,-38.2 351,-38.2"/>
<polygon fill="#f5f5f5" stroke="transparent" points="353,-257.2 353,-280.2 553,-280.2 553,-257.2 353,-257.2"/>
<polygon fill="none" stroke="#000000" points="353,-257.2 353,-280.2 553,-280.2 553,-257.2 353,-257.2"/>
<text text-anchor="start" x="358" y="-265.8" font-family="Helvetica,sans-Serif" font-weight="bold" font-size="11.00" fill="#000000">passenger</text>
<text text-anchor="start" x="518.0437" y="-265.3" font-family="Helvetica,sans-Serif" font-size="11.00" fill="#000000">[table]</text>
<polygon fill="none" stroke="#000000" points="353,-235.2 353,-257.2 461,-257.2 461,-235.2 353,-235.2"/>
<image xlink:href="../../images/primaryKeys.png" width="11px" height="12px" preserveAspectRatio="xMinYMin meet" x="358" y="-252.2"/>
<text text-anchor="start" x="376" y="-242.3" font-family="Helvetica,sans-Serif" font-size="11.00" fill="#000000">passenger_id</text>
<polygon fill="none" stroke="#000000" points="461,-235.2 461,-257.2 553,-257.2 553,-235.2 461,-235.2"/>
<text text-anchor="start" x="464" y="-242.9" font-family="Helvetica,sans-Serif" font-size="11.00" fill="#000000">serial[10]</text>
<polygon fill="none" stroke="#000000" points="353,-213.2 353,-235.2 461,-235.2 461,-213.2 353,-213.2"/>
<image xlink:href="../../images/foreignKeys.png" width="11px" height="12px" preserveAspectRatio="xMinYMin meet" x="358" y="-230.2"/>
<text text-anchor="start" x="376" y="-220.3" font-family="Helvetica,sans-Serif" font-size="11.00" fill="#000000">booking_id</text>
<polygon fill="none" stroke="#000000" points="461,-213.2 461,-235.2 553,-235.2 553,-213.2 461,-213.2"/>
<text text-anchor="start" x="464" y="-220.9" font-family="Helvetica,sans-Serif" font-size="11.00" fill="#000000">int4[10]</text>
<polygon fill="none" stroke="#000000" points="353,-191.2 353,-213.2 461,-213.2 461,-191.2 353,-191.2"/>
<text text-anchor="start" x="376" y="-198.3" font-family="Helvetica,sans-Serif" font-size="11.00" fill="#000000">booking_ref</text>
<polygon fill="none" stroke="#000000" points="461,-191.2 461,-213.2 553,-213.2 553,-191.2 461,-191.2"/>
<text text-anchor="start" x="464" y="-198.9" font-family="Helvetica,sans-Serif" font-size="11.00" fill="#000000">text[2147483647]</text>
<polygon fill="none" stroke="#000000" points="353,-169.2 353,-191.2 461,-191.2 461,-169.2 353,-169.2"/>
<text text-anchor="start" x="376" y="-176.3" font-family="Helvetica,sans-Serif" font-size="11.00" fill="#000000">passenger_no</text>
<polygon fill="none" stroke="#000000" points="461,-169.2 461,-191.2 553,-191.2 553,-169.2 461,-169.2"/>
<text text-anchor="start" x="464" y="-176.9" font-family="Helvetica,sans-Serif" font-size="11.00" fill="#000000">int4[10]</text>
<polygon fill="none" stroke="#000000" points="353,-147.2 353,-169.2 461,-169.2 461,-147.2 353,-147.2"/>
<text text-anchor="start" x="376" y="-154.3" font-family="Helvetica,sans-Serif" font-size="11.00" fill="#000000">first_name</text>
<polygon fill="none" stroke="#000000" points="461,-147.2 461,-169.2 553,-169.2 553,-147.2 461,-147.2"/>
<text text-anchor="start" x="464" y="-154.9" font-family="Helvetica,sans-Serif" font-size="11.00" fill="#000000">text[2147483647]</text>
<polygon fill="none" stroke="#000000" points="353,-125.2 353,-147.2 461,-147.2 461,-125.2 353,-125.2"/>
<text text-anchor="start" x="376" y="-132.3" font-family="Helvetica,sans-Serif" font-size="11.00" fill="#000000">last_name</text>
<polygon fill="none" stroke="#000000" points="461,-125.2 461,-147.2 553,-147.2 553,-125.2 461,-125.2"/>
<text text-anchor="start" x="464" y="-132.9" font-family="Helvetica,sans-Serif" font-size="11.00" fill="#000000">text[2147483647]</text>
<polygon fill="none" stroke="#000000" points="353,-103.2 353,-125.2 461,-125.2 461,-103.2 353,-103.2"/>
<image xlink:href="../../images/foreignKeys.png" width="11px" height="12px" preserveAspectRatio="xMinYMin meet" x="358" y="-120.2"/>
<text text-anchor="start" x="376" y="-110.3" font-family="Helvetica,sans-Serif" font-size="11.00" fill="#000000">account_id</text>
<polygon fill="none" stroke="#000000" points="461,-103.2 461,-125.2 553,-125.2 553,-103.2 461,-103.2"/>
<text text-anchor="start" x="464" y="-110.9" font-family="Helvetica,sans-Serif" font-size="11.00" fill="#000000">int4[10]</text>
<polygon fill="none" stroke="#000000" points="353,-81.2 353,-103.2 461,-103.2 461,-81.2 353,-81.2"/>
<text text-anchor="start" x="376" y="-88.3" font-family="Helvetica,sans-Serif" font-size="11.00" fill="#000000">update_ts</text>
<polygon fill="none" stroke="#000000" points="461,-81.2 461,-103.2 553,-103.2 553,-81.2 461,-81.2"/>
<text text-anchor="start" x="463.6023" y="-88.9" font-family="Helvetica,sans-Serif" font-size="11.00" fill="#000000">timestamptz[35,6]</text>
<polygon fill="none" stroke="#000000" points="353,-59.2 353,-81.2 461,-81.2 461,-59.2 353,-59.2"/>
<text text-anchor="start" x="376" y="-66.3" font-family="Helvetica,sans-Serif" font-size="11.00" fill="#000000">age</text>
<polygon fill="none" stroke="#000000" points="461,-59.2 461,-81.2 553,-81.2 553,-59.2 461,-59.2"/>
<text text-anchor="start" x="464" y="-66.9" font-family="Helvetica,sans-Serif" font-size="11.00" fill="#000000">int4[10]</text>
<polygon fill="#ffffff" stroke="transparent" points="353,-40.2 353,-59.2 374,-59.2 374,-40.2 353,-40.2"/>
<polygon fill="none" stroke="#000000" points="353,-40.2 353,-59.2 374,-59.2 374,-40.2 353,-40.2"/>
<text text-anchor="start" x="355.7027" y="-46.3" font-family="Helvetica,sans-Serif" font-size="11.00" fill="#000000">&lt; 2</text>
<polygon fill="#ffffff" stroke="transparent" points="374,-40.2 374,-59.2 461,-59.2 461,-40.2 374,-40.2"/>
<polygon fill="none" stroke="#000000" points="374,-40.2 374,-59.2 461,-59.2 461,-40.2 374,-40.2"/>
<text text-anchor="start" x="376.8462" y="-46.3" font-family="Helvetica,sans-Serif" font-size="11.00" fill="#000000">16,312,143 rows</text>
<polygon fill="#ffffff" stroke="transparent" points="461,-40.2 461,-59.2 553,-59.2 553,-40.2 461,-40.2"/>
<polygon fill="none" stroke="#000000" points="461,-40.2 461,-59.2 553,-59.2 553,-40.2 461,-40.2"/>
<text text-anchor="start" x="534.4053" y="-46.3" font-family="Helvetica,sans-Serif" font-size="11.00" fill="#000000">1 &gt;</text>
<polygon fill="none" stroke="#000000" stroke-width="2" points="352,-39.2 352,-281.2 554,-281.2 554,-39.2 352,-39.2"/>
</a>
</g>
</g>
<!-- boarding_pass&#45;&gt;passenger -->
<g id="edge1" class="edge">
<title>boarding_pass:w&#45;&gt;passenger:e</title>
<path fill="none" stroke="#000000" d="M589.276,-246.2C577.2815,-246.2 569.8229,-246.2 553,-246.2"/>
<polygon fill="#000000" stroke="#000000" points="596,-246.2001 604,-249.8 600,-246.2 604,-246.2 604,-246.2 604,-246.2 600,-246.2 604,-242.6 596,-246.2001 596,-246.2001"/>
<ellipse fill="none" stroke="#000000" cx="592.8" cy="-246.2001" rx="3.2" ry="3.2"/>
</g>
<!-- booking -->
<g id="node3" class="node">
<title>booking</title>
<g id="a_node3"><a xlink:href="../../tables/booking.html" xlink:title="booking" target="_top">
<polygon fill="#ffffff" stroke="transparent" points="179,-135.7 179,-262.7 302,-262.7 302,-135.7 179,-135.7"/>
<polygon fill="#f5f5f5" stroke="transparent" points="179.5,-239.2 179.5,-262.2 302.5,-262.2 302.5,-239.2 179.5,-239.2"/>
<polygon fill="none" stroke="#000000" points="179.5,-239.2 179.5,-262.2 302.5,-262.2 302.5,-239.2 179.5,-239.2"/>
<text text-anchor="start" x="184.5" y="-247.8" font-family="Helvetica,sans-Serif" font-weight="bold" font-size="11.00" fill="#000000">booking</text>
<text text-anchor="start" x="267.5437" y="-247.3" font-family="Helvetica,sans-Serif" font-size="11.00" fill="#000000">[table]</text>
<polygon fill="none" stroke="#000000" points="179.5,-217.2 179.5,-239.2 302.5,-239.2 302.5,-217.2 179.5,-217.2"/>
<image xlink:href="../../images/primaryKeys.png" width="11px" height="12px" preserveAspectRatio="xMinYMin meet" x="184.5" y="-234.2"/>
<text text-anchor="start" x="207.5" y="-224.3" font-family="Helvetica,sans-Serif" font-size="11.00" fill="#000000">booking_id</text>
<polygon fill="#ffffff" stroke="transparent" points="179.5,-195.2 179.5,-217.2 302.5,-217.2 302.5,-195.2 179.5,-195.2"/>
<polygon fill="none" stroke="#000000" points="179.5,-195.2 179.5,-217.2 302.5,-217.2 302.5,-195.2 179.5,-195.2"/>
<text text-anchor="start" x="207.5" y="-202.3" font-family="Helvetica,sans-Serif" font-size="11.00" fill="#000000">booking_ref</text>
<polygon fill="none" stroke="#000000" points="179.5,-173.2 179.5,-195.2 302.5,-195.2 302.5,-173.2 179.5,-173.2"/>
<image xlink:href="../../images/foreignKeys.png" width="11px" height="12px" preserveAspectRatio="xMinYMin meet" x="184.5" y="-190.2"/>
<text text-anchor="start" x="207.5" y="-180.3" font-family="Helvetica,sans-Serif" font-size="11.00" fill="#000000">account_id</text>
<polygon fill="none" stroke="#000000" points="179.5,-154.2 179.5,-173.2 302.5,-173.2 302.5,-154.2 179.5,-154.2"/>
<text text-anchor="start" x="182.5" y="-160.3" font-family="Helvetica,sans-Serif" font-size="11.00" fill="#000000">...</text>
<polygon fill="#ffffff" stroke="transparent" points="179.5,-135.2 179.5,-154.2 200.5,-154.2 200.5,-135.2 179.5,-135.2"/>
<polygon fill="none" stroke="#000000" points="179.5,-135.2 179.5,-154.2 200.5,-154.2 200.5,-135.2 179.5,-135.2"/>
<text text-anchor="start" x="182.2027" y="-141.3" font-family="Helvetica,sans-Serif" font-size="11.00" fill="#000000">&lt; 1</text>
<polygon fill="#ffffff" stroke="transparent" points="200.5,-135.2 200.5,-154.2 281.5,-154.2 281.5,-135.2 200.5,-135.2"/>
<polygon fill="none" stroke="#000000" points="200.5,-135.2 200.5,-154.2 281.5,-154.2 281.5,-135.2 200.5,-135.2"/>
<text text-anchor="start" x="203.4037" y="-141.3" font-family="Helvetica,sans-Serif" font-size="11.00" fill="#000000">5,643,687 rows</text>
<polygon fill="#ffffff" stroke="transparent" points="281.5,-135.2 281.5,-154.2 302.5,-154.2 302.5,-135.2 281.5,-135.2"/>
<polygon fill="none" stroke="#000000" points="281.5,-135.2 281.5,-154.2 302.5,-154.2 302.5,-135.2 281.5,-135.2"/>
<text text-anchor="start" x="284.2027" y="-141.3" font-family="Helvetica,sans-Serif" font-size="11.00" fill="#000000">2 &gt;</text>
</a>
</g>
</g>
<!-- passenger&#45;&gt;booking -->
<g id="edge4" class="edge">
<title>passenger:w&#45;&gt;booking:e</title>
<path fill="none" stroke="#000000" d="M338.4008,-224.8605C326.5316,-225.9966 319.2102,-228.2 302.5,-228.2"/>
<polygon fill="#000000" stroke="#000000" points="345.0082,-224.5616 353.1627,-227.7963 349.0041,-224.3808 353,-224.2 353,-224.2 353,-224.2 349.0041,-224.3808 352.8373,-220.6037 345.0082,-224.5616 345.0082,-224.5616"/>
<ellipse fill="none" stroke="#000000" cx="341.8114" cy="-224.7063" rx="3.2" ry="3.2"/>
</g>
<!-- account -->
<g id="node4" class="node">
<title>account</title>
<g id="a_node4"><a xlink:href="../../tables/account.html" xlink:title="account" target="_top">
<polygon fill="#ffffff" stroke="transparent" points="8,-76.7 8,-181.7 130,-181.7 130,-76.7 8,-76.7"/>
<polygon fill="#f5f5f5" stroke="transparent" points="8,-158.2 8,-181.2 130,-181.2 130,-158.2 8,-158.2"/>
<polygon fill="none" stroke="#000000" points="8,-158.2 8,-181.2 130,-181.2 130,-158.2 8,-158.2"/>
<text text-anchor="start" x="13" y="-166.8" font-family="Helvetica,sans-Serif" font-weight="bold" font-size="11.00" fill="#000000">account</text>
<text text-anchor="start" x="95.0437" y="-166.3" font-family="Helvetica,sans-Serif" font-size="11.00" fill="#000000">[table]</text>
<polygon fill="none" stroke="#000000" points="8,-136.2 8,-158.2 130,-158.2 130,-136.2 8,-136.2"/>
<image xlink:href="../../images/primaryKeys.png" width="11px" height="12px" preserveAspectRatio="xMinYMin meet" x="13" y="-153.2"/>
<text text-anchor="start" x="28" y="-143.3" font-family="Helvetica,sans-Serif" font-size="11.00" fill="#000000">account_id</text>
<polygon fill="none" stroke="#000000" points="8,-114.2 8,-136.2 130,-136.2 130,-114.2 8,-114.2"/>
<image xlink:href="../../images/foreignKeys.png" width="11px" height="12px" preserveAspectRatio="xMinYMin meet" x="13" y="-131.2"/>
<text text-anchor="start" x="28" y="-121.3" font-family="Helvetica,sans-Serif" font-size="11.00" fill="#000000">frequent_flyer_id</text>
<polygon fill="none" stroke="#000000" points="8,-95.2 8,-114.2 130,-114.2 130,-95.2 8,-95.2"/>
<text text-anchor="start" x="11" y="-101.3" font-family="Helvetica,sans-Serif" font-size="11.00" fill="#000000">...</text>
<polygon fill="#ffffff" stroke="transparent" points="8,-76.2 8,-95.2 33,-95.2 33,-76.2 8,-76.2"/>
<polygon fill="none" stroke="#000000" points="8,-76.2 8,-95.2 33,-95.2 33,-76.2 8,-76.2"/>
<text text-anchor="start" x="11" y="-82.3" font-family="Helvetica,sans-Serif" font-size="11.00" fill="#000000">&lt; 1</text>
<polygon fill="#ffffff" stroke="transparent" points="33,-76.2 33,-95.2 107,-95.2 107,-76.2 33,-76.2"/>
<polygon fill="none" stroke="#000000" points="33,-76.2 33,-95.2 107,-95.2 107,-76.2 33,-76.2"/>
<text text-anchor="start" x="37.9791" y="-82.3" font-family="Helvetica,sans-Serif" font-size="11.00" fill="#000000">257,333 rows</text>
<polygon fill="#ffffff" stroke="transparent" points="107,-76.2 107,-95.2 130,-95.2 130,-76.2 107,-76.2"/>
<polygon fill="none" stroke="#000000" points="107,-76.2 107,-95.2 130,-95.2 130,-76.2 107,-76.2"/>
<text text-anchor="start" x="111.4053" y="-82.3" font-family="Helvetica,sans-Serif" font-size="11.00" fill="#000000">3 &gt;</text>
</a>
</g>
</g>
<!-- passenger&#45;&gt;account -->
<g id="edge3" class="edge">
<title>passenger:w&#45;&gt;account:e</title>
<path fill="none" stroke="#000000" d="M338.4581,-114.0806C268.8734,-112.9403 244.0876,-104.4659 171,-125.2 151.1053,-130.8439 150.6798,-147.2 130,-147.2"/>
<polygon fill="#000000" stroke="#000000" points="345.0003,-114.1342 352.9704,-117.7999 349.0001,-114.1671 353,-114.2 353,-114.2 353,-114.2 349.0001,-114.1671 353.0296,-110.6001 345.0003,-114.1342 345.0003,-114.1342"/>
<ellipse fill="none" stroke="#000000" cx="341.8004" cy="-114.1079" rx="3.2" ry="3.2"/>
</g>
<!-- booking&#45;&gt;account -->
<g id="edge2" class="edge">
<title>booking:w&#45;&gt;account:e</title>
<path fill="none" stroke="#000000" d="M165.5092,-179.6631C152.8361,-169.783 151.4584,-147.2 130,-147.2"/>
<polygon fill="#000000" stroke="#000000" points="171.8901,-181.7322 178.3895,-187.6244 175.6951,-182.9661 179.5,-184.2 179.5,-184.2 179.5,-184.2 175.6951,-182.9661 180.6105,-180.7756 171.8901,-181.7322 171.8901,-181.7322"/>
<ellipse fill="none" stroke="#000000" cx="168.8462" cy="-180.7451" rx="3.2" ry="3.2"/>
</g>
</g>
</svg>
