<?xml version="1.0" encoding="UTF-8" standalone="no"?>
<!DOCTYPE svg PUBLIC "-//W3C//DTD SVG 1.1//EN"
 "http://www.w3.org/Graphics/SVG/1.1/DTD/svg11.dtd">
<!-- Generated by graphviz version 2.40.1 (20161225.0304)
 -->
<!-- Title: twoDegreesRelationshipsDiagram Pages: 1 -->
<svg width="909pt" height="386pt"
 viewBox="0.00 0.00 909.00 385.70" xmlns="http://www.w3.org/2000/svg" xmlns:xlink="http://www.w3.org/1999/xlink">
<g id="graph0" class="graph" transform="scale(1 1) rotate(0) translate(4 381.7)">
<title>twoDegreesRelationshipsDiagram</title>
<polygon fill="#ffffff" stroke="transparent" points="-4,4 -4,-381.7 905,-381.7 905,4 -4,4"/>
<text text-anchor="middle" x="72.4936" y="-7.3" font-family="Helvetica,sans-Serif" font-size="11.00" fill="#000000">Generated by SchemaSpy</text>
<!-- account -->
<g id="node1" class="node">
<title>account</title>
<g id="a_node1"><a xlink:href="../../tables/account.html" xlink:title="account" target="_top">
<polygon fill="#ffffff" stroke="transparent" points="181,-120.2 181,-181.2 295,-181.2 295,-120.2 181,-120.2"/>
<polygon fill="#f5f5f5" stroke="transparent" points="181,-157.7 181,-180.7 295,-180.7 295,-157.7 181,-157.7"/>
<polygon fill="none" stroke="#000000" points="181,-157.7 181,-180.7 295,-180.7 295,-157.7 181,-157.7"/>
<text text-anchor="start" x="186" y="-166.3" font-family="Helvetica,sans-Serif" font-weight="bold" font-size="11.00" fill="#000000">account</text>
<text text-anchor="start" x="260.0437" y="-165.8" font-family="Helvetica,sans-Serif" font-size="11.00" fill="#000000">[table]</text>
<polygon fill="none" stroke="#000000" points="181,-138.7 181,-157.7 295,-157.7 295,-138.7 181,-138.7"/>
<text text-anchor="start" x="184" y="-144.8" font-family="Helvetica,sans-Serif" font-size="11.00" fill="#000000">...</text>
<polygon fill="#ffffff" stroke="transparent" points="181,-119.7 181,-138.7 202,-138.7 202,-119.7 181,-119.7"/>
<polygon fill="none" stroke="#000000" points="181,-119.7 181,-138.7 202,-138.7 202,-119.7 181,-119.7"/>
<text text-anchor="start" x="183.7027" y="-125.8" font-family="Helvetica,sans-Serif" font-size="11.00" fill="#000000">&lt; 1</text>
<polygon fill="#ffffff" stroke="transparent" points="202,-119.7 202,-138.7 274,-138.7 274,-119.7 202,-119.7"/>
<polygon fill="none" stroke="#000000" points="202,-119.7 202,-138.7 274,-138.7 274,-119.7 202,-119.7"/>
<text text-anchor="start" x="204.9896" y="-125.8" font-family="Helvetica,sans-Serif" font-size="11.00" fill="#000000">257,333 rows</text>
<polygon fill="#ffffff" stroke="transparent" points="274,-119.7 274,-138.7 295,-138.7 295,-119.7 274,-119.7"/>
<polygon fill="none" stroke="#000000" points="274,-119.7 274,-138.7 295,-138.7 295,-119.7 274,-119.7"/>
<text text-anchor="start" x="276.7027" y="-125.8" font-family="Helvetica,sans-Serif" font-size="11.00" fill="#000000">3 &gt;</text>
</a>
</g>
</g>
<!-- frequent_flyer -->
<g id="node2" class="node">
<title>frequent_flyer</title>
<g id="a_node2"><a xlink:href="../../tables/frequent_flyer.html" xlink:title="frequent_flyer" target="_top">
<polygon fill="#ffffff" stroke="transparent" points="8,-123.2 8,-184.2 132,-184.2 132,-123.2 8,-123.2"/>
<polygon fill="#f5f5f5" stroke="transparent" points="8,-160.7 8,-183.7 132,-183.7 132,-160.7 8,-160.7"/>
<polygon fill="none" stroke="#000000" points="8,-160.7 8,-183.7 132,-183.7 132,-160.7 8,-160.7"/>
<text text-anchor="start" x="13" y="-169.3" font-family="Helvetica,sans-Serif" font-weight="bold" font-size="11.00" fill="#000000">frequent_flyer</text>
<text text-anchor="start" x="97.5219" y="-168.8" font-family="Helvetica,sans-Serif" font-size="11.00" fill="#000000">[table]</text>
<polygon fill="none" stroke="#000000" points="8,-141.7 8,-160.7 132,-160.7 132,-141.7 8,-141.7"/>
<text text-anchor="start" x="11" y="-147.8" font-family="Helvetica,sans-Serif" font-size="11.00" fill="#000000">...</text>
<polygon fill="#ffffff" stroke="transparent" points="8,-122.7 8,-141.7 29,-141.7 29,-122.7 8,-122.7"/>
<polygon fill="none" stroke="#000000" points="8,-122.7 8,-141.7 29,-141.7 29,-122.7 8,-122.7"/>
<text text-anchor="start" x="11" y="-128.8" font-family="Helvetica,sans-Serif" font-size="11.00" fill="#000000"> &#160;</text>
<polygon fill="#ffffff" stroke="transparent" points="29,-122.7 29,-141.7 106,-141.7 106,-122.7 29,-122.7"/>
<polygon fill="none" stroke="#000000" points="29,-122.7 29,-141.7 106,-141.7 106,-122.7 29,-122.7"/>
<text text-anchor="start" x="36.9791" y="-128.8" font-family="Helvetica,sans-Serif" font-size="11.00" fill="#000000">128,346 rows</text>
<polygon fill="#ffffff" stroke="transparent" points="106,-122.7 106,-141.7 132,-141.7 132,-122.7 106,-122.7"/>
<polygon fill="none" stroke="#000000" points="106,-122.7 106,-141.7 132,-141.7 132,-122.7 106,-122.7"/>
<text text-anchor="start" x="113.4053" y="-128.8" font-family="Helvetica,sans-Serif" font-size="11.00" fill="#000000">1 &gt;</text>
</a>
</g>
</g>
<!-- account&#45;&gt;frequent_flyer -->
<g id="edge1" class="edge">
<title>account:w&#45;&gt;frequent_flyer:e</title>
<path fill="none" stroke="#000000" d="M158.5219,-150.7C149.5753,-150.7 140.5918,-150.7 132,-150.7"/>
<polygon fill="#000000" stroke="#000000" points="164.9728,-150.7001 172.9728,-154.3 168.9728,-150.7 172.9728,-150.7 172.9728,-150.7 172.9728,-150.7 168.9728,-150.7 172.9728,-147.1 164.9728,-150.7001 164.9728,-150.7001"/>
<ellipse fill="none" stroke="#000000" cx="161.7728" cy="-150.7001" rx="3.2" ry="3.2"/>
</g>
<!-- boarding_pass -->
<g id="node3" class="node">
<title>boarding_pass</title>
<g id="a_node3"><a xlink:href="../../tables/boarding_pass.html" xlink:title="boarding_pass" target="_top">
<polygon fill="#ffffff" stroke="transparent" points="769,-146.2 769,-273.2 893,-273.2 893,-146.2 769,-146.2"/>
<polygon fill="#f5f5f5" stroke="transparent" points="769,-249.7 769,-272.7 893,-272.7 893,-249.7 769,-249.7"/>
<polygon fill="none" stroke="#000000" points="769,-249.7 769,-272.7 893,-272.7 893,-249.7 769,-249.7"/>
<text text-anchor="start" x="774" y="-258.3" font-family="Helvetica,sans-Serif" font-weight="bold" font-size="11.00" fill="#000000">boarding_pass</text>
<text text-anchor="start" x="858.5219" y="-257.8" font-family="Helvetica,sans-Serif" font-size="11.00" fill="#000000">[table]</text>
<polygon fill="none" stroke="#000000" points="769,-227.7 769,-249.7 893,-249.7 893,-227.7 769,-227.7"/>
<image xlink:href="../../images/primaryKeys.png" width="11px" height="12px" preserveAspectRatio="xMinYMin meet" x="774" y="-244.7"/>
<text text-anchor="start" x="798" y="-234.8" font-family="Helvetica,sans-Serif" font-size="11.00" fill="#000000">pass_id</text>
<polygon fill="none" stroke="#000000" points="769,-205.7 769,-227.7 893,-227.7 893,-205.7 769,-205.7"/>
<image xlink:href="../../images/foreignKeys.png" width="11px" height="12px" preserveAspectRatio="xMinYMin meet" x="774" y="-222.7"/>
<text text-anchor="start" x="798" y="-212.8" font-family="Helvetica,sans-Serif" font-size="11.00" fill="#000000">passenger_id</text>
<polygon fill="none" stroke="#000000" points="769,-183.7 769,-205.7 893,-205.7 893,-183.7 769,-183.7"/>
<image xlink:href="../../images/foreignKeys.png" width="11px" height="12px" preserveAspectRatio="xMinYMin meet" x="774" y="-200.7"/>
<text text-anchor="start" x="798" y="-190.8" font-family="Helvetica,sans-Serif" font-size="11.00" fill="#000000">booking_leg_id</text>
<polygon fill="none" stroke="#000000" points="769,-164.7 769,-183.7 893,-183.7 893,-164.7 769,-164.7"/>
<text text-anchor="start" x="772" y="-170.8" font-family="Helvetica,sans-Serif" font-size="11.00" fill="#000000">...</text>
<polygon fill="#ffffff" stroke="transparent" points="769,-145.7 769,-164.7 792,-164.7 792,-145.7 769,-145.7"/>
<polygon fill="none" stroke="#000000" points="769,-145.7 769,-164.7 792,-164.7 792,-145.7 769,-145.7"/>
<text text-anchor="start" x="772" y="-151.8" font-family="Helvetica,sans-Serif" font-size="11.00" fill="#000000">&lt; 2</text>
<polygon fill="#ffffff" stroke="transparent" points="792,-145.7 792,-164.7 880,-164.7 880,-145.7 792,-145.7"/>
<polygon fill="none" stroke="#000000" points="792,-145.7 792,-164.7 880,-164.7 880,-145.7 792,-145.7"/>
<text text-anchor="start" x="795.6924" y="-151.8" font-family="Helvetica,sans-Serif" font-size="11.00" fill="#000000">25,292,472 rows</text>
<polygon fill="#ffffff" stroke="transparent" points="880,-145.7 880,-164.7 893,-164.7 893,-145.7 880,-145.7"/>
<polygon fill="none" stroke="#000000" points="880,-145.7 880,-164.7 893,-164.7 893,-145.7 880,-145.7"/>
<text text-anchor="start" x="883.8862" y="-151.8" font-family="Helvetica,sans-Serif" font-size="11.00" fill="#000000"> &#160;</text>
</a>
</g>
</g>
<!-- booking_leg -->
<g id="node4" class="node">
<title>booking_leg</title>
<g id="a_node4"><a xlink:href="../../tables/booking_leg.html" xlink:title="booking_leg" target="_top">
<polygon fill="#ffffff" stroke="transparent" points="553.5,-47.2 553.5,-108.2 682.5,-108.2 682.5,-47.2 553.5,-47.2"/>
<polygon fill="#f5f5f5" stroke="transparent" points="554,-84.7 554,-107.7 683,-107.7 683,-84.7 554,-84.7"/>
<polygon fill="none" stroke="#000000" points="554,-84.7 554,-107.7 683,-107.7 683,-84.7 554,-84.7"/>
<text text-anchor="start" x="559" y="-93.3" font-family="Helvetica,sans-Serif" font-weight="bold" font-size="11.00" fill="#000000">booking_leg</text>
<text text-anchor="start" x="648.0437" y="-92.8" font-family="Helvetica,sans-Serif" font-size="11.00" fill="#000000">[table]</text>
<polygon fill="none" stroke="#000000" points="554,-65.7 554,-84.7 683,-84.7 683,-65.7 554,-65.7"/>
<text text-anchor="start" x="557" y="-71.8" font-family="Helvetica,sans-Serif" font-size="11.00" fill="#000000">...</text>
<polygon fill="#ffffff" stroke="transparent" points="554,-46.7 554,-65.7 575,-65.7 575,-46.7 554,-46.7"/>
<polygon fill="none" stroke="#000000" points="554,-46.7 554,-65.7 575,-65.7 575,-46.7 554,-46.7"/>
<text text-anchor="start" x="556.7026" y="-52.8" font-family="Helvetica,sans-Serif" font-size="11.00" fill="#000000">&lt; 2</text>
<polygon fill="#ffffff" stroke="transparent" points="575,-46.7 575,-65.7 662,-65.7 662,-46.7 575,-46.7"/>
<polygon fill="none" stroke="#000000" points="575,-46.7 575,-65.7 662,-65.7 662,-46.7 575,-46.7"/>
<text text-anchor="start" x="577.8462" y="-52.8" font-family="Helvetica,sans-Serif" font-size="11.00" fill="#000000">17,894,232 rows</text>
<polygon fill="#ffffff" stroke="transparent" points="662,-46.7 662,-65.7 683,-65.7 683,-46.7 662,-46.7"/>
<polygon fill="none" stroke="#000000" points="662,-46.7 662,-65.7 683,-65.7 683,-46.7 662,-46.7"/>
<text text-anchor="start" x="664.7026" y="-52.8" font-family="Helvetica,sans-Serif" font-size="11.00" fill="#000000">1 &gt;</text>
</a>
</g>
</g>
<!-- boarding_pass&#45;&gt;booking_leg -->
<g id="edge2" class="edge">
<title>boarding_pass:w&#45;&gt;booking_leg:e</title>
<path fill="none" stroke="#000000" d="M754.7795,-191.51C736.2501,-180.78 747.126,-145.2365 728,-119.7 711.0444,-97.0614 711.2843,-74.7 683,-74.7"/>
<polygon fill="#000000" stroke="#000000" points="761.194,-192.9489 768.212,-198.2127 765.097,-193.8244 769,-194.7 769,-194.7 769,-194.7 765.097,-193.8244 769.788,-191.1873 761.194,-192.9489 761.194,-192.9489"/>
<ellipse fill="none" stroke="#000000" cx="758.0716" cy="-192.2484" rx="3.2" ry="3.2"/>
</g>
<!-- passenger -->
<g id="node5" class="node">
<title>passenger</title>
<g id="a_node5"><a xlink:href="../../tables/passenger.html" xlink:title="passenger" target="_top">
<polygon fill="#ffffff" stroke="transparent" points="516,-129.7 516,-373.7 720,-373.7 720,-129.7 516,-129.7"/>
<polygon fill="#f5f5f5" stroke="transparent" points="518,-348.7 518,-371.7 718,-371.7 718,-348.7 518,-348.7"/>
<polygon fill="none" stroke="#000000" points="518,-348.7 518,-371.7 718,-371.7 718,-348.7 518,-348.7"/>
<text text-anchor="start" x="523" y="-357.3" font-family="Helvetica,sans-Serif" font-weight="bold" font-size="11.00" fill="#000000">passenger</text>
<text text-anchor="start" x="683.0437" y="-356.8" font-family="Helvetica,sans-Serif" font-size="11.00" fill="#000000">[table]</text>
<polygon fill="none" stroke="#000000" points="518,-326.7 518,-348.7 626,-348.7 626,-326.7 518,-326.7"/>
<image xlink:href="../../images/primaryKeys.png" width="11px" height="12px" preserveAspectRatio="xMinYMin meet" x="523" y="-343.7"/>
<text text-anchor="start" x="541" y="-333.8" font-family="Helvetica,sans-Serif" font-size="11.00" fill="#000000">passenger_id</text>
<polygon fill="none" stroke="#000000" points="626,-326.7 626,-348.7 718,-348.7 718,-326.7 626,-326.7"/>
<text text-anchor="start" x="629" y="-334.4" font-family="Helvetica,sans-Serif" font-size="11.00" fill="#000000">serial[10]</text>
<polygon fill="none" stroke="#000000" points="518,-304.7 518,-326.7 626,-326.7 626,-304.7 518,-304.7"/>
<image xlink:href="../../images/foreignKeys.png" width="11px" height="12px" preserveAspectRatio="xMinYMin meet" x="523" y="-321.7"/>
<text text-anchor="start" x="541" y="-311.8" font-family="Helvetica,sans-Serif" font-size="11.00" fill="#000000">booking_id</text>
<polygon fill="none" stroke="#000000" points="626,-304.7 626,-326.7 718,-326.7 718,-304.7 626,-304.7"/>
<text text-anchor="start" x="629" y="-312.4" font-family="Helvetica,sans-Serif" font-size="11.00" fill="#000000">int4[10]</text>
<polygon fill="none" stroke="#000000" points="518,-282.7 518,-304.7 626,-304.7 626,-282.7 518,-282.7"/>
<text text-anchor="start" x="541" y="-289.8" font-family="Helvetica,sans-Serif" font-size="11.00" fill="#000000">booking_ref</text>
<polygon fill="none" stroke="#000000" points="626,-282.7 626,-304.7 718,-304.7 718,-282.7 626,-282.7"/>
<text text-anchor="start" x="629" y="-290.4" font-family="Helvetica,sans-Serif" font-size="11.00" fill="#000000">text[2147483647]</text>
<polygon fill="none" stroke="#000000" points="518,-260.7 518,-282.7 626,-282.7 626,-260.7 518,-260.7"/>
<text text-anchor="start" x="541" y="-267.8" font-family="Helvetica,sans-Serif" font-size="11.00" fill="#000000">passenger_no</text>
<polygon fill="none" stroke="#000000" points="626,-260.7 626,-282.7 718,-282.7 718,-260.7 626,-260.7"/>
<text text-anchor="start" x="629" y="-268.4" font-family="Helvetica,sans-Serif" font-size="11.00" fill="#000000">int4[10]</text>
<polygon fill="none" stroke="#000000" points="518,-238.7 518,-260.7 626,-260.7 626,-238.7 518,-238.7"/>
<text text-anchor="start" x="541" y="-245.8" font-family="Helvetica,sans-Serif" font-size="11.00" fill="#000000">first_name</text>
<polygon fill="none" stroke="#000000" points="626,-238.7 626,-260.7 718,-260.7 718,-238.7 626,-238.7"/>
<text text-anchor="start" x="629" y="-246.4" font-family="Helvetica,sans-Serif" font-size="11.00" fill="#000000">text[2147483647]</text>
<polygon fill="none" stroke="#000000" points="518,-216.7 518,-238.7 626,-238.7 626,-216.7 518,-216.7"/>
<text text-anchor="start" x="541" y="-223.8" font-family="Helvetica,sans-Serif" font-size="11.00" fill="#000000">last_name</text>
<polygon fill="none" stroke="#000000" points="626,-216.7 626,-238.7 718,-238.7 718,-216.7 626,-216.7"/>
<text text-anchor="start" x="629" y="-224.4" font-family="Helvetica,sans-Serif" font-size="11.00" fill="#000000">text[2147483647]</text>
<polygon fill="none" stroke="#000000" points="518,-194.7 518,-216.7 626,-216.7 626,-194.7 518,-194.7"/>
<image xlink:href="../../images/foreignKeys.png" width="11px" height="12px" preserveAspectRatio="xMinYMin meet" x="523" y="-211.7"/>
<text text-anchor="start" x="541" y="-201.8" font-family="Helvetica,sans-Serif" font-size="11.00" fill="#000000">account_id</text>
<polygon fill="none" stroke="#000000" points="626,-194.7 626,-216.7 718,-216.7 718,-194.7 626,-194.7"/>
<text text-anchor="start" x="629" y="-202.4" font-family="Helvetica,sans-Serif" font-size="11.00" fill="#000000">int4[10]</text>
<polygon fill="none" stroke="#000000" points="518,-172.7 518,-194.7 626,-194.7 626,-172.7 518,-172.7"/>
<text text-anchor="start" x="541" y="-179.8" font-family="Helvetica,sans-Serif" font-size="11.00" fill="#000000">update_ts</text>
<polygon fill="none" stroke="#000000" points="626,-172.7 626,-194.7 718,-194.7 718,-172.7 626,-172.7"/>
<text text-anchor="start" x="628.6023" y="-180.4" font-family="Helvetica,sans-Serif" font-size="11.00" fill="#000000">timestamptz[35,6]</text>
<polygon fill="none" stroke="#000000" points="518,-150.7 518,-172.7 626,-172.7 626,-150.7 518,-150.7"/>
<text text-anchor="start" x="541" y="-157.8" font-family="Helvetica,sans-Serif" font-size="11.00" fill="#000000">age</text>
<polygon fill="none" stroke="#000000" points="626,-150.7 626,-172.7 718,-172.7 718,-150.7 626,-150.7"/>
<text text-anchor="start" x="629" y="-158.4" font-family="Helvetica,sans-Serif" font-size="11.00" fill="#000000">int4[10]</text>
<polygon fill="#ffffff" stroke="transparent" points="518,-131.7 518,-150.7 539,-150.7 539,-131.7 518,-131.7"/>
<polygon fill="none" stroke="#000000" points="518,-131.7 518,-150.7 539,-150.7 539,-131.7 518,-131.7"/>
<text text-anchor="start" x="520.7026" y="-137.8" font-family="Helvetica,sans-Serif" font-size="11.00" fill="#000000">&lt; 2</text>
<polygon fill="#ffffff" stroke="transparent" points="539,-131.7 539,-150.7 626,-150.7 626,-131.7 539,-131.7"/>
<polygon fill="none" stroke="#000000" points="539,-131.7 539,-150.7 626,-150.7 626,-131.7 539,-131.7"/>
<text text-anchor="start" x="541.8462" y="-137.8" font-family="Helvetica,sans-Serif" font-size="11.00" fill="#000000">16,312,143 rows</text>
<polygon fill="#ffffff" stroke="transparent" points="626,-131.7 626,-150.7 718,-150.7 718,-131.7 626,-131.7"/>
<polygon fill="none" stroke="#000000" points="626,-131.7 626,-150.7 718,-150.7 718,-131.7 626,-131.7"/>
<text text-anchor="start" x="699.4053" y="-137.8" font-family="Helvetica,sans-Serif" font-size="11.00" fill="#000000">1 &gt;</text>
<polygon fill="none" stroke="#000000" stroke-width="2" points="517,-130.7 517,-372.7 719,-372.7 719,-130.7 517,-130.7"/>
</a>
</g>
</g>
<!-- boarding_pass&#45;&gt;passenger -->
<g id="edge3" class="edge">
<title>boarding_pass:w&#45;&gt;passenger:e</title>
<path fill="none" stroke="#000000" d="M754.7982,-220.1908C722.7098,-240.03 770.4323,-337.7 718,-337.7"/>
<polygon fill="#000000" stroke="#000000" points="761.2312,-218.6096 769.8593,-220.1959 765.1156,-217.6548 769,-216.7 769,-216.7 769,-216.7 765.1156,-217.6548 768.1407,-213.2041 761.2312,-218.6096 761.2312,-218.6096"/>
<ellipse fill="none" stroke="#000000" cx="758.1237" cy="-219.3734" rx="3.2" ry="3.2"/>
</g>
<!-- booking -->
<g id="node6" class="node">
<title>booking</title>
<g id="a_node6"><a xlink:href="../../tables/booking.html" xlink:title="booking" target="_top">
<polygon fill="#ffffff" stroke="transparent" points="344,-120.2 344,-181.2 467,-181.2 467,-120.2 344,-120.2"/>
<polygon fill="#f5f5f5" stroke="transparent" points="344.5,-157.7 344.5,-180.7 467.5,-180.7 467.5,-157.7 344.5,-157.7"/>
<polygon fill="none" stroke="#000000" points="344.5,-157.7 344.5,-180.7 467.5,-180.7 467.5,-157.7 344.5,-157.7"/>
<text text-anchor="start" x="349.5" y="-166.3" font-family="Helvetica,sans-Serif" font-weight="bold" font-size="11.00" fill="#000000">booking</text>
<text text-anchor="start" x="432.5437" y="-165.8" font-family="Helvetica,sans-Serif" font-size="11.00" fill="#000000">[table]</text>
<polygon fill="none" stroke="#000000" points="344.5,-138.7 344.5,-157.7 467.5,-157.7 467.5,-138.7 344.5,-138.7"/>
<text text-anchor="start" x="347.5" y="-144.8" font-family="Helvetica,sans-Serif" font-size="11.00" fill="#000000">...</text>
<polygon fill="#ffffff" stroke="transparent" points="344.5,-119.7 344.5,-138.7 365.5,-138.7 365.5,-119.7 344.5,-119.7"/>
<polygon fill="none" stroke="#000000" points="344.5,-119.7 344.5,-138.7 365.5,-138.7 365.5,-119.7 344.5,-119.7"/>
<text text-anchor="start" x="347.2027" y="-125.8" font-family="Helvetica,sans-Serif" font-size="11.00" fill="#000000">&lt; 1</text>
<polygon fill="#ffffff" stroke="transparent" points="365.5,-119.7 365.5,-138.7 446.5,-138.7 446.5,-119.7 365.5,-119.7"/>
<polygon fill="none" stroke="#000000" points="365.5,-119.7 365.5,-138.7 446.5,-138.7 446.5,-119.7 365.5,-119.7"/>
<text text-anchor="start" x="368.4037" y="-125.8" font-family="Helvetica,sans-Serif" font-size="11.00" fill="#000000">5,643,687 rows</text>
<polygon fill="#ffffff" stroke="transparent" points="446.5,-119.7 446.5,-138.7 467.5,-138.7 467.5,-119.7 446.5,-119.7"/>
<polygon fill="none" stroke="#000000" points="446.5,-119.7 446.5,-138.7 467.5,-138.7 467.5,-119.7 446.5,-119.7"/>
<text text-anchor="start" x="449.2027" y="-125.8" font-family="Helvetica,sans-Serif" font-size="11.00" fill="#000000">2 &gt;</text>
</a>
</g>
</g>
<!-- booking_leg&#45;&gt;booking -->
<g id="edge5" class="edge">
<title>booking_leg:w&#45;&gt;booking:e</title>
<path fill="none" stroke="#000000" d="M539.9644,-78.899C522.4051,-86.087 493.3365,-101.3943 466.7106,-116.036"/>
<polygon fill="#000000" stroke="#000000" points="546.3356,-76.993 555.0318,-78.149 550.1678,-75.8465 554,-74.7 554,-74.7 554,-74.7 550.1678,-75.8465 552.9682,-71.251 546.3356,-76.993 546.3356,-76.993"/>
<ellipse fill="none" stroke="#000000" cx="543.2699" cy="-77.9102" rx="3.2" ry="3.2"/>
</g>
<!-- passenger&#45;&gt;account -->
<g id="edge6" class="edge">
<title>passenger:w&#45;&gt;account:e</title>
<path fill="none" stroke="#000000" d="M503.4531,-205.7516C433.8997,-206.2323 409.9401,-209.5208 336,-191.7 325.1527,-189.0856 313.959,-185.4171 303.1885,-181.3386"/>
<polygon fill="#000000" stroke="#000000" points="510.0001,-205.7284 518.0128,-209.3 514,-205.7142 518,-205.7 518,-205.7 518,-205.7 514,-205.7142 517.9872,-202.1 510.0001,-205.7284 510.0001,-205.7284"/>
<ellipse fill="none" stroke="#000000" cx="506.8001" cy="-205.7398" rx="3.2" ry="3.2"/>
</g>
<!-- passenger&#45;&gt;booking -->
<g id="edge7" class="edge">
<title>passenger:w&#45;&gt;booking:e</title>
<path fill="none" stroke="#000000" d="M503.3724,-313.3025C470.7138,-300.1005 506.4762,-235.4189 475,-195.7 472.1431,-192.095 468.9145,-188.6881 465.4517,-185.4861"/>
<polygon fill="#000000" stroke="#000000" points="510.1053,-314.406 517.4177,-319.2526 514.0527,-315.053 518,-315.7 518,-315.7 518,-315.7 514.0527,-315.053 518.5823,-312.1474 510.1053,-314.406 510.1053,-314.406"/>
<ellipse fill="none" stroke="#000000" cx="506.9475" cy="-313.8884" rx="3.2" ry="3.2"/>
</g>
<!-- booking&#45;&gt;account -->
<g id="edge4" class="edge">
<title>booking:w&#45;&gt;account:e</title>
<path fill="none" stroke="#000000" d="M321.2625,-150.7C315.1515,-150.7 309.0439,-150.7 303.0699,-150.7"/>
<polygon fill="#000000" stroke="#000000" points="327.9201,-150.7001 335.9201,-154.3 331.9201,-150.7 335.9201,-150.7 335.9201,-150.7 335.9201,-150.7 331.9201,-150.7 335.9201,-147.1 327.9201,-150.7001 327.9201,-150.7001"/>
<ellipse fill="none" stroke="#000000" cx="324.7201" cy="-150.7001" rx="3.2" ry="3.2"/>
</g>
<!-- phone -->
<g id="node7" class="node">
<title>phone</title>
<g id="a_node7"><a xlink:href="../../tables/phone.html" xlink:title="phone" target="_top">
<polygon fill="#ffffff" stroke="transparent" points="353,-38.2 353,-99.2 458,-99.2 458,-38.2 353,-38.2"/>
<polygon fill="#f5f5f5" stroke="transparent" points="353.5,-75.7 353.5,-98.7 458.5,-98.7 458.5,-75.7 353.5,-75.7"/>
<polygon fill="none" stroke="#000000" points="353.5,-75.7 353.5,-98.7 458.5,-98.7 458.5,-75.7 353.5,-75.7"/>
<text text-anchor="start" x="358.5" y="-84.3" font-family="Helvetica,sans-Serif" font-weight="bold" font-size="11.00" fill="#000000">phone</text>
<text text-anchor="start" x="423.5437" y="-83.8" font-family="Helvetica,sans-Serif" font-size="11.00" fill="#000000">[table]</text>
<polygon fill="none" stroke="#000000" points="353.5,-56.7 353.5,-75.7 458.5,-75.7 458.5,-56.7 353.5,-56.7"/>
<text text-anchor="start" x="356.5" y="-62.8" font-family="Helvetica,sans-Serif" font-size="11.00" fill="#000000">...</text>
<polygon fill="#ffffff" stroke="transparent" points="353.5,-37.7 353.5,-56.7 374.5,-56.7 374.5,-37.7 353.5,-37.7"/>
<polygon fill="none" stroke="#000000" points="353.5,-37.7 353.5,-56.7 374.5,-56.7 374.5,-37.7 353.5,-37.7"/>
<text text-anchor="start" x="356.2027" y="-43.8" font-family="Helvetica,sans-Serif" font-size="11.00" fill="#000000">&lt; 1</text>
<polygon fill="#ffffff" stroke="transparent" points="374.5,-37.7 374.5,-56.7 446.5,-56.7 446.5,-37.7 374.5,-37.7"/>
<polygon fill="none" stroke="#000000" points="374.5,-37.7 374.5,-56.7 446.5,-56.7 446.5,-37.7 374.5,-37.7"/>
<text text-anchor="start" x="377.4896" y="-43.8" font-family="Helvetica,sans-Serif" font-size="11.00" fill="#000000">407,444 rows</text>
<polygon fill="#ffffff" stroke="transparent" points="446.5,-37.7 446.5,-56.7 458.5,-56.7 458.5,-37.7 446.5,-37.7"/>
<polygon fill="none" stroke="#000000" points="446.5,-37.7 446.5,-56.7 458.5,-56.7 458.5,-37.7 446.5,-37.7"/>
<text text-anchor="start" x="449.4431" y="-43.8" font-family="Helvetica,sans-Serif" font-size="11.00" fill="#000000"> &#160;</text>
</a>
</g>
</g>
<!-- phone&#45;&gt;account -->
<g id="edge8" class="edge">
<title>phone:w&#45;&gt;account:e</title>
<path fill="none" stroke="#000000" d="M339.0258,-67.1308C309.0844,-72.9911 282.6875,-95.8119 264.3917,-116.1272"/>
<polygon fill="#000000" stroke="#000000" points="345.5388,-66.487 353.8542,-69.2825 349.5194,-66.0935 353.5,-65.7 353.5,-65.7 353.5,-65.7 349.5194,-66.0935 353.1458,-62.1175 345.5388,-66.487 345.5388,-66.487"/>
<ellipse fill="none" stroke="#000000" cx="342.3543" cy="-66.8019" rx="3.2" ry="3.2"/>
</g>
</g>
</svg>
