<?xml version="1.0" encoding="UTF-8" standalone="no"?>
<!DOCTYPE svg PUBLIC "-//W3C//DTD SVG 1.1//EN"
 "http://www.w3.org/Graphics/SVG/1.1/DTD/svg11.dtd">
<!-- Generated by graphviz version 2.40.1 (20161225.0304)
 -->
<!-- Title: twoDegreesRelationshipsDiagram Pages: 1 -->
<svg width="753pt" height="340pt"
 viewBox="0.00 0.00 753.00 339.70" xmlns="http://www.w3.org/2000/svg" xmlns:xlink="http://www.w3.org/1999/xlink">
<g id="graph0" class="graph" transform="scale(1 1) rotate(0) translate(4 335.7)">
<title>twoDegreesRelationshipsDiagram</title>
<polygon fill="#ffffff" stroke="transparent" points="-4,4 -4,-335.7 749,-335.7 749,4 -4,4"/>
<text text-anchor="middle" x="72.4936" y="-7.3" font-family="Helvetica,sans-Serif" font-size="11.00" fill="#000000">Generated by SchemaSpy</text>
<!-- account -->
<g id="node1" class="node">
<title>account</title>
<g id="a_node1"><a xlink:href="../../tables/account.html" xlink:title="account" target="_top">
<polygon fill="#ffffff" stroke="transparent" points="181,-194.7 181,-299.7 303,-299.7 303,-194.7 181,-194.7"/>
<polygon fill="#f5f5f5" stroke="transparent" points="181,-276.2 181,-299.2 303,-299.2 303,-276.2 181,-276.2"/>
<polygon fill="none" stroke="#000000" points="181,-276.2 181,-299.2 303,-299.2 303,-276.2 181,-276.2"/>
<text text-anchor="start" x="186" y="-284.8" font-family="Helvetica,sans-Serif" font-weight="bold" font-size="11.00" fill="#000000">account</text>
<text text-anchor="start" x="268.0437" y="-284.3" font-family="Helvetica,sans-Serif" font-size="11.00" fill="#000000">[table]</text>
<polygon fill="none" stroke="#000000" points="181,-254.2 181,-276.2 303,-276.2 303,-254.2 181,-254.2"/>
<image xlink:href="../../images/primaryKeys.png" width="11px" height="12px" preserveAspectRatio="xMinYMin meet" x="186" y="-271.2"/>
<text text-anchor="start" x="201" y="-261.3" font-family="Helvetica,sans-Serif" font-size="11.00" fill="#000000">account_id</text>
<polygon fill="none" stroke="#000000" points="181,-232.2 181,-254.2 303,-254.2 303,-232.2 181,-232.2"/>
<image xlink:href="../../images/foreignKeys.png" width="11px" height="12px" preserveAspectRatio="xMinYMin meet" x="186" y="-249.2"/>
<text text-anchor="start" x="201" y="-239.3" font-family="Helvetica,sans-Serif" font-size="11.00" fill="#000000">frequent_flyer_id</text>
<polygon fill="none" stroke="#000000" points="181,-213.2 181,-232.2 303,-232.2 303,-213.2 181,-213.2"/>
<text text-anchor="start" x="184" y="-219.3" font-family="Helvetica,sans-Serif" font-size="11.00" fill="#000000">...</text>
<polygon fill="#ffffff" stroke="transparent" points="181,-194.2 181,-213.2 206,-213.2 206,-194.2 181,-194.2"/>
<polygon fill="none" stroke="#000000" points="181,-194.2 181,-213.2 206,-213.2 206,-194.2 181,-194.2"/>
<text text-anchor="start" x="184" y="-200.3" font-family="Helvetica,sans-Serif" font-size="11.00" fill="#000000">&lt; 1</text>
<polygon fill="#ffffff" stroke="transparent" points="206,-194.2 206,-213.2 280,-213.2 280,-194.2 206,-194.2"/>
<polygon fill="none" stroke="#000000" points="206,-194.2 206,-213.2 280,-213.2 280,-194.2 206,-194.2"/>
<text text-anchor="start" x="210.9791" y="-200.3" font-family="Helvetica,sans-Serif" font-size="11.00" fill="#000000">257,333 rows</text>
<polygon fill="#ffffff" stroke="transparent" points="280,-194.2 280,-213.2 303,-213.2 303,-194.2 280,-194.2"/>
<polygon fill="none" stroke="#000000" points="280,-194.2 280,-213.2 303,-213.2 303,-194.2 280,-194.2"/>
<text text-anchor="start" x="284.4053" y="-200.3" font-family="Helvetica,sans-Serif" font-size="11.00" fill="#000000">3 &gt;</text>
</a>
</g>
</g>
<!-- frequent_flyer -->
<g id="node2" class="node">
<title>frequent_flyer</title>
<g id="a_node2"><a xlink:href="../../tables/frequent_flyer.html" xlink:title="frequent_flyer" target="_top">
<polygon fill="#ffffff" stroke="transparent" points="8,-215.7 8,-276.7 132,-276.7 132,-215.7 8,-215.7"/>
<polygon fill="#f5f5f5" stroke="transparent" points="8,-253.2 8,-276.2 132,-276.2 132,-253.2 8,-253.2"/>
<polygon fill="none" stroke="#000000" points="8,-253.2 8,-276.2 132,-276.2 132,-253.2 8,-253.2"/>
<text text-anchor="start" x="13" y="-261.8" font-family="Helvetica,sans-Serif" font-weight="bold" font-size="11.00" fill="#000000">frequent_flyer</text>
<text text-anchor="start" x="97.5219" y="-261.3" font-family="Helvetica,sans-Serif" font-size="11.00" fill="#000000">[table]</text>
<polygon fill="none" stroke="#000000" points="8,-234.2 8,-253.2 132,-253.2 132,-234.2 8,-234.2"/>
<text text-anchor="start" x="11" y="-240.3" font-family="Helvetica,sans-Serif" font-size="11.00" fill="#000000">...</text>
<polygon fill="#ffffff" stroke="transparent" points="8,-215.2 8,-234.2 29,-234.2 29,-215.2 8,-215.2"/>
<polygon fill="none" stroke="#000000" points="8,-215.2 8,-234.2 29,-234.2 29,-215.2 8,-215.2"/>
<text text-anchor="start" x="11" y="-221.3" font-family="Helvetica,sans-Serif" font-size="11.00" fill="#000000"> &#160;</text>
<polygon fill="#ffffff" stroke="transparent" points="29,-215.2 29,-234.2 106,-234.2 106,-215.2 29,-215.2"/>
<polygon fill="none" stroke="#000000" points="29,-215.2 29,-234.2 106,-234.2 106,-215.2 29,-215.2"/>
<text text-anchor="start" x="36.9791" y="-221.3" font-family="Helvetica,sans-Serif" font-size="11.00" fill="#000000">128,346 rows</text>
<polygon fill="#ffffff" stroke="transparent" points="106,-215.2 106,-234.2 132,-234.2 132,-215.2 106,-215.2"/>
<polygon fill="none" stroke="#000000" points="106,-215.2 106,-234.2 132,-234.2 132,-215.2 106,-215.2"/>
<text text-anchor="start" x="113.4053" y="-221.3" font-family="Helvetica,sans-Serif" font-size="11.00" fill="#000000">1 &gt;</text>
</a>
</g>
</g>
<!-- account&#45;&gt;frequent_flyer -->
<g id="edge1" class="edge">
<title>account:w&#45;&gt;frequent_flyer:e</title>
<path fill="none" stroke="#000000" d="M166.4909,-243.2C155.1774,-243.2 147.9931,-243.2 132,-243.2"/>
<polygon fill="#000000" stroke="#000000" points="173,-243.2001 181,-246.8 177,-243.2 181,-243.2 181,-243.2 181,-243.2 177,-243.2 181,-239.6 173,-243.2001 173,-243.2001"/>
<ellipse fill="none" stroke="#000000" cx="169.8" cy="-243.2001" rx="3.2" ry="3.2"/>
</g>
<!-- booking -->
<g id="node3" class="node">
<title>booking</title>
<g id="a_node3"><a xlink:href="../../tables/booking.html" xlink:title="booking" target="_top">
<polygon fill="#ffffff" stroke="transparent" points="394,-237.7 394,-298.7 517,-298.7 517,-237.7 394,-237.7"/>
<polygon fill="#f5f5f5" stroke="transparent" points="394.5,-275.2 394.5,-298.2 517.5,-298.2 517.5,-275.2 394.5,-275.2"/>
<polygon fill="none" stroke="#000000" points="394.5,-275.2 394.5,-298.2 517.5,-298.2 517.5,-275.2 394.5,-275.2"/>
<text text-anchor="start" x="399.5" y="-283.8" font-family="Helvetica,sans-Serif" font-weight="bold" font-size="11.00" fill="#000000">booking</text>
<text text-anchor="start" x="482.5437" y="-283.3" font-family="Helvetica,sans-Serif" font-size="11.00" fill="#000000">[table]</text>
<polygon fill="none" stroke="#000000" points="394.5,-256.2 394.5,-275.2 517.5,-275.2 517.5,-256.2 394.5,-256.2"/>
<text text-anchor="start" x="397.5" y="-262.3" font-family="Helvetica,sans-Serif" font-size="11.00" fill="#000000">...</text>
<polygon fill="#ffffff" stroke="transparent" points="394.5,-237.2 394.5,-256.2 415.5,-256.2 415.5,-237.2 394.5,-237.2"/>
<polygon fill="none" stroke="#000000" points="394.5,-237.2 394.5,-256.2 415.5,-256.2 415.5,-237.2 394.5,-237.2"/>
<text text-anchor="start" x="397.2027" y="-243.3" font-family="Helvetica,sans-Serif" font-size="11.00" fill="#000000">&lt; 1</text>
<polygon fill="#ffffff" stroke="transparent" points="415.5,-237.2 415.5,-256.2 496.5,-256.2 496.5,-237.2 415.5,-237.2"/>
<polygon fill="none" stroke="#000000" points="415.5,-237.2 415.5,-256.2 496.5,-256.2 496.5,-237.2 415.5,-237.2"/>
<text text-anchor="start" x="418.4037" y="-243.3" font-family="Helvetica,sans-Serif" font-size="11.00" fill="#000000">5,643,687 rows</text>
<polygon fill="#ffffff" stroke="transparent" points="496.5,-237.2 496.5,-256.2 517.5,-256.2 517.5,-237.2 496.5,-237.2"/>
<polygon fill="none" stroke="#000000" points="496.5,-237.2 496.5,-256.2 517.5,-256.2 517.5,-237.2 496.5,-237.2"/>
<text text-anchor="start" x="499.2027" y="-243.3" font-family="Helvetica,sans-Serif" font-size="11.00" fill="#000000">2 &gt;</text>
</a>
</g>
</g>
<!-- booking&#45;&gt;account -->
<g id="edge2" class="edge">
<title>booking:w&#45;&gt;account:e</title>
<path fill="none" stroke="#000000" d="M379.768,-265.2C350.5948,-265.2 338.2656,-265.2 303,-265.2"/>
<polygon fill="#000000" stroke="#000000" points="386.5,-265.2001 394.5,-268.8 390.5,-265.2 394.5,-265.2 394.5,-265.2 394.5,-265.2 390.5,-265.2 394.5,-261.6 386.5,-265.2001 386.5,-265.2001"/>
<ellipse fill="none" stroke="#000000" cx="383.3" cy="-265.2001" rx="3.2" ry="3.2"/>
</g>
<!-- passenger -->
<g id="node4" class="node">
<title>passenger</title>
<g id="a_node4"><a xlink:href="../../tables/passenger.html" xlink:title="passenger" target="_top">
<polygon fill="#ffffff" stroke="transparent" points="608,-266.7 608,-327.7 737,-327.7 737,-266.7 608,-266.7"/>
<polygon fill="#f5f5f5" stroke="transparent" points="608.5,-304.2 608.5,-327.2 737.5,-327.2 737.5,-304.2 608.5,-304.2"/>
<polygon fill="none" stroke="#000000" points="608.5,-304.2 608.5,-327.2 737.5,-327.2 737.5,-304.2 608.5,-304.2"/>
<text text-anchor="start" x="613.5" y="-312.8" font-family="Helvetica,sans-Serif" font-weight="bold" font-size="11.00" fill="#000000">passenger</text>
<text text-anchor="start" x="702.5437" y="-312.3" font-family="Helvetica,sans-Serif" font-size="11.00" fill="#000000">[table]</text>
<polygon fill="none" stroke="#000000" points="608.5,-285.2 608.5,-304.2 737.5,-304.2 737.5,-285.2 608.5,-285.2"/>
<text text-anchor="start" x="611.5" y="-291.3" font-family="Helvetica,sans-Serif" font-size="11.00" fill="#000000">...</text>
<polygon fill="#ffffff" stroke="transparent" points="608.5,-266.2 608.5,-285.2 629.5,-285.2 629.5,-266.2 608.5,-266.2"/>
<polygon fill="none" stroke="#000000" points="608.5,-266.2 608.5,-285.2 629.5,-285.2 629.5,-266.2 608.5,-266.2"/>
<text text-anchor="start" x="611.2026" y="-272.3" font-family="Helvetica,sans-Serif" font-size="11.00" fill="#000000">&lt; 2</text>
<polygon fill="#ffffff" stroke="transparent" points="629.5,-266.2 629.5,-285.2 716.5,-285.2 716.5,-266.2 629.5,-266.2"/>
<polygon fill="none" stroke="#000000" points="629.5,-266.2 629.5,-285.2 716.5,-285.2 716.5,-266.2 629.5,-266.2"/>
<text text-anchor="start" x="632.3462" y="-272.3" font-family="Helvetica,sans-Serif" font-size="11.00" fill="#000000">16,312,143 rows</text>
<polygon fill="#ffffff" stroke="transparent" points="716.5,-266.2 716.5,-285.2 737.5,-285.2 737.5,-266.2 716.5,-266.2"/>
<polygon fill="none" stroke="#000000" points="716.5,-266.2 716.5,-285.2 737.5,-285.2 737.5,-266.2 716.5,-266.2"/>
<text text-anchor="start" x="719.2026" y="-272.3" font-family="Helvetica,sans-Serif" font-size="11.00" fill="#000000">1 &gt;</text>
</a>
</g>
</g>
<!-- passenger&#45;&gt;account -->
<g id="edge3" class="edge">
<title>passenger:w&#45;&gt;account:e</title>
<path fill="none" stroke="#000000" d="M594.0752,-296.9974C585.6461,-300.6561 580.2812,-306.8734 567,-309.2 469.3755,-326.3016 434.8835,-348.7374 344,-309.2 319.4894,-298.537 329.7296,-265.2 303,-265.2"/>
<polygon fill="#000000" stroke="#000000" points="600.6463,-295.7231 609.1854,-297.7342 604.5732,-294.9616 608.5,-294.2 608.5,-294.2 608.5,-294.2 604.5732,-294.9616 607.8146,-290.6658 600.6463,-295.7231 600.6463,-295.7231"/>
<ellipse fill="none" stroke="#000000" cx="597.5048" cy="-296.3323" rx="3.2" ry="3.2"/>
</g>
<!-- passenger&#45;&gt;booking -->
<g id="edge4" class="edge">
<title>passenger:w&#45;&gt;booking:e</title>
<path fill="none" stroke="#000000" d="M594.1435,-292.9539C563.9578,-287.4031 554.6425,-265.2 517.5,-265.2"/>
<polygon fill="#000000" stroke="#000000" points="600.53,-293.5082 608.1887,-297.7865 604.515,-293.8541 608.5,-294.2 608.5,-294.2 608.5,-294.2 604.515,-293.8541 608.8113,-290.6135 600.53,-293.5082 600.53,-293.5082"/>
<ellipse fill="none" stroke="#000000" cx="597.342" cy="-293.2314" rx="3.2" ry="3.2"/>
</g>
<!-- phone -->
<g id="node5" class="node">
<title>phone</title>
<g id="a_node5"><a xlink:href="../../tables/phone.html" xlink:title="phone" target="_top">
<polygon fill="#ffffff" stroke="transparent" points="352,-38.2 352,-216.2 559,-216.2 559,-38.2 352,-38.2"/>
<polygon fill="#f5f5f5" stroke="transparent" points="354.5,-191.2 354.5,-214.2 557.5,-214.2 557.5,-191.2 354.5,-191.2"/>
<polygon fill="none" stroke="#000000" points="354.5,-191.2 354.5,-214.2 557.5,-214.2 557.5,-191.2 354.5,-191.2"/>
<text text-anchor="start" x="359.5" y="-199.8" font-family="Helvetica,sans-Serif" font-weight="bold" font-size="11.00" fill="#000000">phone</text>
<text text-anchor="start" x="522.5437" y="-199.3" font-family="Helvetica,sans-Serif" font-size="11.00" fill="#000000">[table]</text>
<polygon fill="none" stroke="#000000" points="354.5,-169.2 354.5,-191.2 465.5,-191.2 465.5,-169.2 354.5,-169.2"/>
<image xlink:href="../../images/primaryKeys.png" width="11px" height="12px" preserveAspectRatio="xMinYMin meet" x="359.5" y="-186.2"/>
<text text-anchor="start" x="374.5" y="-176.3" font-family="Helvetica,sans-Serif" font-size="11.00" fill="#000000">phone_id</text>
<polygon fill="none" stroke="#000000" points="465.5,-169.2 465.5,-191.2 557.5,-191.2 557.5,-169.2 465.5,-169.2"/>
<text text-anchor="start" x="468.5" y="-176.9" font-family="Helvetica,sans-Serif" font-size="11.00" fill="#000000">serial[10]</text>
<polygon fill="none" stroke="#000000" points="354.5,-147.2 354.5,-169.2 465.5,-169.2 465.5,-147.2 354.5,-147.2"/>
<image xlink:href="../../images/foreignKeys.png" width="11px" height="12px" preserveAspectRatio="xMinYMin meet" x="359.5" y="-164.2"/>
<text text-anchor="start" x="374.5" y="-154.3" font-family="Helvetica,sans-Serif" font-size="11.00" fill="#000000">account_id</text>
<polygon fill="none" stroke="#000000" points="465.5,-147.2 465.5,-169.2 557.5,-169.2 557.5,-147.2 465.5,-147.2"/>
<text text-anchor="start" x="468.5" y="-154.9" font-family="Helvetica,sans-Serif" font-size="11.00" fill="#000000">int4[10]</text>
<polygon fill="none" stroke="#000000" points="354.5,-125.2 354.5,-147.2 465.5,-147.2 465.5,-125.2 354.5,-125.2"/>
<text text-anchor="start" x="374.5" y="-132.3" font-family="Helvetica,sans-Serif" font-size="11.00" fill="#000000">phone</text>
<polygon fill="none" stroke="#000000" points="465.5,-125.2 465.5,-147.2 557.5,-147.2 557.5,-125.2 465.5,-125.2"/>
<text text-anchor="start" x="468.5" y="-132.9" font-family="Helvetica,sans-Serif" font-size="11.00" fill="#000000">text[2147483647]</text>
<polygon fill="none" stroke="#000000" points="354.5,-103.2 354.5,-125.2 465.5,-125.2 465.5,-103.2 354.5,-103.2"/>
<text text-anchor="start" x="374.5" y="-110.3" font-family="Helvetica,sans-Serif" font-size="11.00" fill="#000000">phone_type</text>
<polygon fill="none" stroke="#000000" points="465.5,-103.2 465.5,-125.2 557.5,-125.2 557.5,-103.2 465.5,-103.2"/>
<text text-anchor="start" x="468.5" y="-110.9" font-family="Helvetica,sans-Serif" font-size="11.00" fill="#000000">text[2147483647]</text>
<polygon fill="none" stroke="#000000" points="354.5,-81.2 354.5,-103.2 465.5,-103.2 465.5,-81.2 354.5,-81.2"/>
<text text-anchor="start" x="374.5" y="-88.3" font-family="Helvetica,sans-Serif" font-size="11.00" fill="#000000">primary_phone</text>
<polygon fill="none" stroke="#000000" points="465.5,-81.2 465.5,-103.2 557.5,-103.2 557.5,-81.2 465.5,-81.2"/>
<text text-anchor="start" x="468.5" y="-88.9" font-family="Helvetica,sans-Serif" font-size="11.00" fill="#000000">bool[1]</text>
<polygon fill="none" stroke="#000000" points="354.5,-59.2 354.5,-81.2 465.5,-81.2 465.5,-59.2 354.5,-59.2"/>
<text text-anchor="start" x="374.5" y="-66.3" font-family="Helvetica,sans-Serif" font-size="11.00" fill="#000000">update_ts</text>
<polygon fill="none" stroke="#000000" points="465.5,-59.2 465.5,-81.2 557.5,-81.2 557.5,-59.2 465.5,-59.2"/>
<text text-anchor="start" x="468.1023" y="-66.9" font-family="Helvetica,sans-Serif" font-size="11.00" fill="#000000">timestamptz[35,6]</text>
<polygon fill="#ffffff" stroke="transparent" points="354.5,-40.2 354.5,-59.2 384.5,-59.2 384.5,-40.2 354.5,-40.2"/>
<polygon fill="none" stroke="#000000" points="354.5,-40.2 354.5,-59.2 384.5,-59.2 384.5,-40.2 354.5,-40.2"/>
<text text-anchor="start" x="357.5" y="-46.3" font-family="Helvetica,sans-Serif" font-size="11.00" fill="#000000">&lt; 1</text>
<polygon fill="#ffffff" stroke="transparent" points="384.5,-40.2 384.5,-59.2 465.5,-59.2 465.5,-40.2 384.5,-40.2"/>
<polygon fill="none" stroke="#000000" points="384.5,-40.2 384.5,-59.2 465.5,-59.2 465.5,-40.2 384.5,-40.2"/>
<text text-anchor="start" x="396.4791" y="-46.3" font-family="Helvetica,sans-Serif" font-size="11.00" fill="#000000">407,444 rows</text>
<polygon fill="#ffffff" stroke="transparent" points="465.5,-40.2 465.5,-59.2 557.5,-59.2 557.5,-40.2 465.5,-40.2"/>
<polygon fill="none" stroke="#000000" points="465.5,-40.2 465.5,-59.2 557.5,-59.2 557.5,-40.2 465.5,-40.2"/>
<text text-anchor="start" x="538.9053" y="-46.3" font-family="Helvetica,sans-Serif" font-size="11.00" fill="#000000">0 &gt;</text>
<polygon fill="none" stroke="#000000" stroke-width="2" points="353,-39.2 353,-215.2 558,-215.2 558,-39.2 353,-39.2"/>
</a>
</g>
</g>
<!-- phone&#45;&gt;account -->
<g id="edge5" class="edge">
<title>phone:w&#45;&gt;account:e</title>
<path fill="none" stroke="#000000" d="M340.3662,-162.0082C312.5986,-181.0691 349.7985,-265.2 303,-265.2"/>
<polygon fill="#000000" stroke="#000000" points="346.7755,-160.2813 355.4366,-161.676 350.6377,-159.2407 354.5,-158.2 354.5,-158.2 354.5,-158.2 350.6377,-159.2407 353.5634,-154.724 346.7755,-160.2813 346.7755,-160.2813"/>
<ellipse fill="none" stroke="#000000" cx="343.6857" cy="-161.1139" rx="3.2" ry="3.2"/>
</g>
</g>
</svg>
