<?xml version="1.0" encoding="UTF-8" standalone="no"?>
<!DOCTYPE svg PUBLIC "-//W3C//DTD SVG 1.1//EN"
 "http://www.w3.org/Graphics/SVG/1.1/DTD/svg11.dtd">
<!-- Generated by graphviz version 2.40.1 (20161225.0304)
 -->
<!-- Title: oneDegreeRelationshipsDiagram Pages: 1 -->
<svg width="402pt" height="228pt"
 viewBox="0.00 0.00 402.00 228.20" xmlns="http://www.w3.org/2000/svg" xmlns:xlink="http://www.w3.org/1999/xlink">
<g id="graph0" class="graph" transform="scale(1 1) rotate(0) translate(4 224.2)">
<title>oneDegreeRelationshipsDiagram</title>
<polygon fill="#ffffff" stroke="transparent" points="-4,4 -4,-224.2 398,-224.2 398,4 -4,4"/>
<text text-anchor="middle" x="72.4936" y="-7.3" font-family="Helvetica,sans-Serif" font-size="11.00" fill="#000000">Generated by SchemaSpy</text>
<!-- phone -->
<g id="node1" class="node">
<title>phone</title>
<g id="a_node1"><a xlink:href="../../tables/phone.html" xlink:title="phone" target="_top">
<polygon fill="#ffffff" stroke="transparent" points="179,-38.2 179,-216.2 386,-216.2 386,-38.2 179,-38.2"/>
<polygon fill="#f5f5f5" stroke="transparent" points="181.5,-191.2 181.5,-214.2 384.5,-214.2 384.5,-191.2 181.5,-191.2"/>
<polygon fill="none" stroke="#000000" points="181.5,-191.2 181.5,-214.2 384.5,-214.2 384.5,-191.2 181.5,-191.2"/>
<text text-anchor="start" x="186.5" y="-199.8" font-family="Helvetica,sans-Serif" font-weight="bold" font-size="11.00" fill="#000000">phone</text>
<text text-anchor="start" x="349.5437" y="-199.3" font-family="Helvetica,sans-Serif" font-size="11.00" fill="#000000">[table]</text>
<polygon fill="none" stroke="#000000" points="181.5,-169.2 181.5,-191.2 292.5,-191.2 292.5,-169.2 181.5,-169.2"/>
<image xlink:href="../../images/primaryKeys.png" width="11px" height="12px" preserveAspectRatio="xMinYMin meet" x="186.5" y="-186.2"/>
<text text-anchor="start" x="201.5" y="-176.3" font-family="Helvetica,sans-Serif" font-size="11.00" fill="#000000">phone_id</text>
<polygon fill="none" stroke="#000000" points="292.5,-169.2 292.5,-191.2 384.5,-191.2 384.5,-169.2 292.5,-169.2"/>
<text text-anchor="start" x="295.5" y="-176.9" font-family="Helvetica,sans-Serif" font-size="11.00" fill="#000000">serial[10]</text>
<polygon fill="none" stroke="#000000" points="181.5,-147.2 181.5,-169.2 292.5,-169.2 292.5,-147.2 181.5,-147.2"/>
<image xlink:href="../../images/foreignKeys.png" width="11px" height="12px" preserveAspectRatio="xMinYMin meet" x="186.5" y="-164.2"/>
<text text-anchor="start" x="201.5" y="-154.3" font-family="Helvetica,sans-Serif" font-size="11.00" fill="#000000">account_id</text>
<polygon fill="none" stroke="#000000" points="292.5,-147.2 292.5,-169.2 384.5,-169.2 384.5,-147.2 292.5,-147.2"/>
<text text-anchor="start" x="295.5" y="-154.9" font-family="Helvetica,sans-Serif" font-size="11.00" fill="#000000">int4[10]</text>
<polygon fill="none" stroke="#000000" points="181.5,-125.2 181.5,-147.2 292.5,-147.2 292.5,-125.2 181.5,-125.2"/>
<text text-anchor="start" x="201.5" y="-132.3" font-family="Helvetica,sans-Serif" font-size="11.00" fill="#000000">phone</text>
<polygon fill="none" stroke="#000000" points="292.5,-125.2 292.5,-147.2 384.5,-147.2 384.5,-125.2 292.5,-125.2"/>
<text text-anchor="start" x="295.5" y="-132.9" font-family="Helvetica,sans-Serif" font-size="11.00" fill="#000000">text[2147483647]</text>
<polygon fill="none" stroke="#000000" points="181.5,-103.2 181.5,-125.2 292.5,-125.2 292.5,-103.2 181.5,-103.2"/>
<text text-anchor="start" x="201.5" y="-110.3" font-family="Helvetica,sans-Serif" font-size="11.00" fill="#000000">phone_type</text>
<polygon fill="none" stroke="#000000" points="292.5,-103.2 292.5,-125.2 384.5,-125.2 384.5,-103.2 292.5,-103.2"/>
<text text-anchor="start" x="295.5" y="-110.9" font-family="Helvetica,sans-Serif" font-size="11.00" fill="#000000">text[2147483647]</text>
<polygon fill="none" stroke="#000000" points="181.5,-81.2 181.5,-103.2 292.5,-103.2 292.5,-81.2 181.5,-81.2"/>
<text text-anchor="start" x="201.5" y="-88.3" font-family="Helvetica,sans-Serif" font-size="11.00" fill="#000000">primary_phone</text>
<polygon fill="none" stroke="#000000" points="292.5,-81.2 292.5,-103.2 384.5,-103.2 384.5,-81.2 292.5,-81.2"/>
<text text-anchor="start" x="295.5" y="-88.9" font-family="Helvetica,sans-Serif" font-size="11.00" fill="#000000">bool[1]</text>
<polygon fill="none" stroke="#000000" points="181.5,-59.2 181.5,-81.2 292.5,-81.2 292.5,-59.2 181.5,-59.2"/>
<text text-anchor="start" x="201.5" y="-66.3" font-family="Helvetica,sans-Serif" font-size="11.00" fill="#000000">update_ts</text>
<polygon fill="none" stroke="#000000" points="292.5,-59.2 292.5,-81.2 384.5,-81.2 384.5,-59.2 292.5,-59.2"/>
<text text-anchor="start" x="295.1023" y="-66.9" font-family="Helvetica,sans-Serif" font-size="11.00" fill="#000000">timestamptz[35,6]</text>
<polygon fill="#ffffff" stroke="transparent" points="181.5,-40.2 181.5,-59.2 211.5,-59.2 211.5,-40.2 181.5,-40.2"/>
<polygon fill="none" stroke="#000000" points="181.5,-40.2 181.5,-59.2 211.5,-59.2 211.5,-40.2 181.5,-40.2"/>
<text text-anchor="start" x="184.5" y="-46.3" font-family="Helvetica,sans-Serif" font-size="11.00" fill="#000000">&lt; 1</text>
<polygon fill="#ffffff" stroke="transparent" points="211.5,-40.2 211.5,-59.2 292.5,-59.2 292.5,-40.2 211.5,-40.2"/>
<polygon fill="none" stroke="#000000" points="211.5,-40.2 211.5,-59.2 292.5,-59.2 292.5,-40.2 211.5,-40.2"/>
<text text-anchor="start" x="223.4791" y="-46.3" font-family="Helvetica,sans-Serif" font-size="11.00" fill="#000000">407,444 rows</text>
<polygon fill="#ffffff" stroke="transparent" points="292.5,-40.2 292.5,-59.2 384.5,-59.2 384.5,-40.2 292.5,-40.2"/>
<polygon fill="none" stroke="#000000" points="292.5,-40.2 292.5,-59.2 384.5,-59.2 384.5,-40.2 292.5,-40.2"/>
<text text-anchor="start" x="365.9053" y="-46.3" font-family="Helvetica,sans-Serif" font-size="11.00" fill="#000000">0 &gt;</text>
<polygon fill="none" stroke="#000000" stroke-width="2" points="180,-39.2 180,-215.2 385,-215.2 385,-39.2 180,-39.2"/>
</a>
</g>
</g>
<!-- account -->
<g id="node2" class="node">
<title>account</title>
<g id="a_node2"><a xlink:href="../../tables/account.html" xlink:title="account" target="_top">
<polygon fill="#ffffff" stroke="transparent" points="8,-87.7 8,-192.7 130,-192.7 130,-87.7 8,-87.7"/>
<polygon fill="#f5f5f5" stroke="transparent" points="8,-169.2 8,-192.2 130,-192.2 130,-169.2 8,-169.2"/>
<polygon fill="none" stroke="#000000" points="8,-169.2 8,-192.2 130,-192.2 130,-169.2 8,-169.2"/>
<text text-anchor="start" x="13" y="-177.8" font-family="Helvetica,sans-Serif" font-weight="bold" font-size="11.00" fill="#000000">account</text>
<text text-anchor="start" x="95.0437" y="-177.3" font-family="Helvetica,sans-Serif" font-size="11.00" fill="#000000">[table]</text>
<polygon fill="none" stroke="#000000" points="8,-147.2 8,-169.2 130,-169.2 130,-147.2 8,-147.2"/>
<image xlink:href="../../images/primaryKeys.png" width="11px" height="12px" preserveAspectRatio="xMinYMin meet" x="13" y="-164.2"/>
<text text-anchor="start" x="28" y="-154.3" font-family="Helvetica,sans-Serif" font-size="11.00" fill="#000000">account_id</text>
<polygon fill="none" stroke="#000000" points="8,-125.2 8,-147.2 130,-147.2 130,-125.2 8,-125.2"/>
<image xlink:href="../../images/foreignKeys.png" width="11px" height="12px" preserveAspectRatio="xMinYMin meet" x="13" y="-142.2"/>
<text text-anchor="start" x="28" y="-132.3" font-family="Helvetica,sans-Serif" font-size="11.00" fill="#000000">frequent_flyer_id</text>
<polygon fill="none" stroke="#000000" points="8,-106.2 8,-125.2 130,-125.2 130,-106.2 8,-106.2"/>
<text text-anchor="start" x="11" y="-112.3" font-family="Helvetica,sans-Serif" font-size="11.00" fill="#000000">...</text>
<polygon fill="#ffffff" stroke="transparent" points="8,-87.2 8,-106.2 33,-106.2 33,-87.2 8,-87.2"/>
<polygon fill="none" stroke="#000000" points="8,-87.2 8,-106.2 33,-106.2 33,-87.2 8,-87.2"/>
<text text-anchor="start" x="11" y="-93.3" font-family="Helvetica,sans-Serif" font-size="11.00" fill="#000000">&lt; 1</text>
<polygon fill="#ffffff" stroke="transparent" points="33,-87.2 33,-106.2 107,-106.2 107,-87.2 33,-87.2"/>
<polygon fill="none" stroke="#000000" points="33,-87.2 33,-106.2 107,-106.2 107,-87.2 33,-87.2"/>
<text text-anchor="start" x="37.9791" y="-93.3" font-family="Helvetica,sans-Serif" font-size="11.00" fill="#000000">257,333 rows</text>
<polygon fill="#ffffff" stroke="transparent" points="107,-87.2 107,-106.2 130,-106.2 130,-87.2 107,-87.2"/>
<polygon fill="none" stroke="#000000" points="107,-87.2 107,-106.2 130,-106.2 130,-87.2 107,-87.2"/>
<text text-anchor="start" x="111.4053" y="-93.3" font-family="Helvetica,sans-Serif" font-size="11.00" fill="#000000">3 &gt;</text>
</a>
</g>
</g>
<!-- phone&#45;&gt;account -->
<g id="edge1" class="edge">
<title>phone:w&#45;&gt;account:e</title>
<path fill="none" stroke="#000000" d="M167.0156,-158.2C154.6771,-158.2 147.1667,-158.2 130,-158.2"/>
<polygon fill="#000000" stroke="#000000" points="173.5,-158.2001 181.5,-161.8 177.5,-158.2 181.5,-158.2 181.5,-158.2 181.5,-158.2 177.5,-158.2 181.5,-154.6 173.5,-158.2001 173.5,-158.2001"/>
<ellipse fill="none" stroke="#000000" cx="170.3" cy="-158.2001" rx="3.2" ry="3.2"/>
</g>
</g>
</svg>
